<svg width="20" height="24" viewBox="0 0 20 24" fill="none" xmlns="http://www.w3.org/2000/svg">
  <path
    d="M10.0238 2.40625C6.71245 2.40625 4.02139 5.09731 4.02139 8.40862V11.2998C4.02139 11.91 3.76128 12.8404 3.45116 13.3606L2.30071 15.2713C1.59042 16.4518 2.08062 17.7623 3.38113 18.2025C7.69284 19.6431 12.3447 19.6431 16.6564 18.2025C17.8669 17.8023 18.3971 16.3718 17.7368 15.2713L16.5864 13.3606C16.2862 12.8404 16.0261 11.91 16.0261 11.2998V8.40862C16.0261 5.10732 13.3251 2.40625 10.0238 2.40625Z"
    stroke="currentColor" stroke-width="2" stroke-miterlimit="10" stroke-linecap="round" />
  <path
    d="M11.8753 2.69409C10.6655 2.34955 9.3836 2.34955 8.17383 2.69409C8.46394 1.9538 9.18423 1.43359 10.0246 1.43359C10.8649 1.43359 11.5852 1.9538 11.8753 2.69409Z"
    stroke="currentColor" stroke-width="2" stroke-miterlimit="10" stroke-linecap="round" stroke-linejoin="round" />
  <path
    d="M13.0258 19.5625C13.0258 21.2132 11.6753 22.5637 10.0246 22.5637C9.2043 22.5637 8.444 22.2236 7.90378 21.6833C7.34172 21.1204 7.02523 20.358 7.02344 19.5625"
    stroke="currentColor" stroke-width="2" stroke-miterlimit="10" />
</svg>