<svg width="30" height="30" viewBox="0 0 30 30" fill="none" xmlns="http://www.w3.org/2000/svg">
  <path
    d="M15.0238 5.40625C11.7125 5.40625 9.02139 8.09731 9.02139 11.4086V14.2998C9.02139 14.91 8.76128 15.8404 8.45116 16.3606L7.30071 18.2713C6.59042 19.4518 7.08062 20.7623 8.38113 21.2025C12.6928 22.6431 17.3447 22.6431 21.6564 21.2025C22.8669 20.8023 23.3971 19.3718 22.7368 18.2713L21.5864 16.3606C21.2862 15.8404 21.0261 14.91 21.0261 14.2998V11.4086C21.0261 8.10732 18.3251 5.40625 15.0238 5.40625Z"
    stroke="currentColor" stroke-width="2" stroke-miterlimit="10" stroke-linecap="round" />
  <path
    d="M16.8753 5.69409C15.6655 5.34955 14.3836 5.34955 13.1738 5.69409C13.4639 4.9538 14.1842 4.43359 15.0246 4.43359C15.8649 4.43359 16.5852 4.9538 16.8753 5.69409Z"
    stroke="currentColor" stroke-width="2" stroke-miterlimit="10" stroke-linecap="round" stroke-linejoin="round" />
  <path
    d="M18.0258 22.5625C18.0258 24.2132 16.6753 25.5637 15.0246 25.5637C14.2043 25.5637 13.444 25.2236 12.9038 24.6833C12.3417 24.1204 12.0252 23.358 12.0234 22.5625"
    stroke="currentColor" stroke-width="2" stroke-miterlimit="10" />
  <circle cx="21" cy="5" r="3" fill="#FC1B13" />
</svg>