<svg xmlns="http://www.w3.org/2000/svg" width="51" height="50" viewBox="0 0 51 50" fill="none">
  <circle cx="25.564" cy="24.812" r="24.812" fill="#F2F4F7" />
  <path
    d="M34.6401 30.4103C34.2999 31.1668 33.8973 31.8632 33.4307 32.5035C32.7948 33.3763 32.2741 33.9805 31.8728 34.3159C31.2508 34.8666 30.5843 35.1487 29.8706 35.1647C29.3583 35.1647 28.7404 35.0244 28.0212 34.7397C27.2996 34.4563 26.6364 34.3159 26.0301 34.3159C25.3941 34.3159 24.7121 34.4563 23.9826 34.7397C23.252 35.0244 22.6634 35.1727 22.2134 35.1874C21.529 35.2155 20.8468 34.9255 20.1659 34.3159C19.7313 33.951 19.1877 33.3255 18.5365 32.4393C17.8378 31.493 17.2634 30.3956 16.8134 29.1445C16.3314 27.7932 16.0898 26.4846 16.0898 25.2177C16.0898 23.7666 16.4156 22.5149 17.068 21.4661C17.5808 20.6236 18.263 19.959 19.1168 19.4712C19.9705 18.9833 20.8931 18.7347 21.8865 18.7188C22.4301 18.7188 23.143 18.8806 24.0288 19.1987C24.9122 19.5179 25.4794 19.6798 25.7281 19.6798C25.914 19.6798 26.5441 19.4905 27.6122 19.1132C28.6224 18.7633 29.4749 18.6184 30.1733 18.6755C32.0658 18.8225 33.4877 19.5407 34.4332 20.8345C32.7406 21.8218 31.9034 23.2045 31.92 24.9784C31.9353 26.36 32.456 27.5098 33.4793 28.4227C33.9431 28.8464 34.461 29.1739 35.0372 29.4065C34.9123 29.7554 34.7803 30.0895 34.6401 30.4103ZM30.2997 13.9684C30.2997 15.0513 29.8887 16.0625 29.0695 16.9984C28.0809 18.111 26.8851 18.7539 25.5884 18.6525C25.5719 18.5225 25.5623 18.3858 25.5623 18.2421C25.5623 17.2025 26.0324 16.0899 26.8673 15.1802C27.2841 14.7196 27.8143 14.3366 28.4571 14.031C29.0986 13.7301 29.7054 13.5637 30.2761 13.5352C30.2927 13.6799 30.2997 13.8247 30.2997 13.9683V13.9684Z"
    fill="#475467" />
</svg>