<svg xmlns="http://www.w3.org/2000/svg" width="21" height="22" viewBox="0 0 21 22" fill="none">
  <path
    d="M10.5 5.30227V18.4273M6.78125 7.92727H4.8125M7.4375 10.5523H4.8125M19.25 15.146V4.58477C19.25 3.53477 18.3925 2.75602 17.3512 2.84352H17.2988C15.4613 3.00102 12.67 3.93727 11.1125 4.91727L10.9637 5.01352C10.71 5.17102 10.29 5.17102 10.0363 5.01352L9.8175 4.88227C8.26 3.91102 5.4775 2.98352 3.64 2.83477C2.59875 2.74727 1.75 3.53477 1.75 4.57602V15.146C1.75 15.986 2.4325 16.7735 3.2725 16.8785L3.52625 16.9135C5.425 17.1673 8.35625 18.1298 10.0363 19.0485L10.0713 19.066C10.3075 19.1973 10.6838 19.1973 10.9113 19.066C12.5913 18.1385 15.5313 17.1673 17.4388 16.9135L17.7275 16.8785C18.5675 16.7735 19.25 15.986 19.25 15.146Z"
    stroke="currentColor" stroke-width="1.5" stroke-linecap="round" stroke-linejoin="round" />
</svg>