<svg xmlns="http://www.w3.org/2000/svg" width="48" height="48" viewBox="0 0 48 48" fill="none">
  <g clip-path="url(#clip0_1867_14903)">
    <path d="M48 23.9376C47.975 37.1555 37.2549 47.8706 24 47.8706C10.7451 47.8706 0 37.1555 0 23.9376C0 10.7198 10.7478 0.265578 24 0.00469976C37.4357 -0.25989 48.025 10.6827 48 23.9376Z" fill="url(#paint0_radial_1867_14903)"/>
    <path d="M9.30981 10.7212L9.5863 10.2148L8.79297 10.683C8.80626 10.6825 8.81902 10.6809 8.83232 10.6804C8.98811 10.6762 9.14763 10.6894 9.30928 10.7207L9.30981 10.7212Z" fill="url(#paint1_radial_1867_14903)"/>
    <path d="M11.939 15.1095L11.3535 14.9727C11.2456 15.1524 11.1148 15.3088 10.9648 15.4393L11.0217 15.6514L11.939 15.11V15.1095Z" fill="url(#paint2_radial_1867_14903)"/>
    <path d="M9.3224 14.3851C9.31549 14.4117 9.30698 14.4371 9.29794 14.462C9.35856 14.4721 9.41811 14.4758 9.4766 14.4748C9.6308 14.4705 9.7749 14.427 9.89986 14.3501C9.91421 14.3411 9.92804 14.3321 9.94186 14.3226C9.94931 14.3173 9.95675 14.312 9.96419 14.3061C9.97749 14.2961 9.99078 14.2849 10.0035 14.2738C10.0099 14.2685 10.0163 14.2632 10.0227 14.2574C10.0381 14.243 10.0535 14.2282 10.0679 14.2123L10.0769 14.2033C10.0939 14.1842 10.1104 14.1646 10.1258 14.1434C10.1301 14.1375 10.1343 14.1312 10.1386 14.1248C10.1492 14.1094 10.1599 14.094 10.17 14.0776C10.1753 14.0697 10.1795 14.0612 10.1849 14.0527C10.1934 14.0373 10.2019 14.0219 10.2099 14.006C10.2146 13.997 10.2189 13.988 10.2231 13.979C10.2311 13.962 10.238 13.9445 10.2455 13.9265C10.2487 13.918 10.2524 13.9095 10.2556 13.901C10.2652 13.8745 10.2742 13.8469 10.2816 13.8188C10.4337 13.2499 10.1083 12.5728 9.55423 12.3066C9.39418 12.2297 9.23254 12.1958 9.07993 12.1995C9.05867 12.2 9.0374 12.2016 9.01613 12.2037C9.00975 12.2043 9.0039 12.2053 8.99752 12.2059C8.98263 12.2074 8.96721 12.2096 8.95232 12.2122C8.94541 12.2133 8.93903 12.2143 8.93265 12.2159C8.91723 12.2191 8.90181 12.2223 8.88692 12.2265C8.8816 12.2276 8.87681 12.2292 8.8715 12.2302C8.85129 12.2355 8.83162 12.2419 8.81194 12.2488L8.8045 12.2515C8.78748 12.2578 8.771 12.2642 8.75505 12.2716C8.7492 12.2743 8.74388 12.2769 8.73803 12.2796C8.72474 12.2859 8.71145 12.2923 8.69869 12.2992C8.69284 12.3024 8.68752 12.305 8.68167 12.3082C8.51046 12.4058 8.3738 12.5659 8.29883 12.7775C8.39667 12.7934 8.4961 12.8246 8.595 12.8718C9.14906 13.138 9.47448 13.8151 9.3224 14.3841V14.3851Z" fill="url(#paint3_radial_1867_14903)"/>
    <path d="M9.89813 15.8942C9.84815 15.899 9.79764 15.9027 9.74659 15.9037C9.59132 15.908 9.43181 15.8947 9.27069 15.8634L8.9942 16.3698L8.05942 15.9202L8.08601 15.2945C7.90097 15.1439 7.734 14.9716 7.58725 14.7839L7.02681 14.8639L6.54719 13.8676L6.98002 13.5208C6.92684 13.2934 6.89973 13.0611 6.90132 12.8305L6.38448 12.4376L6.64184 11.4768L6.93961 11.5462L7.22727 11.6136C7.33521 11.4338 7.46602 11.2774 7.61543 11.1475L7.44528 10.5117L6.48658 11.078L6.59983 11.5022L5.68314 12.0436L5.42578 13.0044L5.94262 13.3973C5.94102 13.6279 5.96761 13.8597 6.02131 14.0877L5.58849 14.4344L6.06811 15.4308L6.62855 15.3507C6.7753 15.5384 6.94226 15.7107 7.12731 15.8613L7.10072 16.487L8.03549 16.9366L8.82883 16.4684C8.86605 16.4668 8.90274 16.4653 8.93943 16.4615L9.3345 17.0008L10.1773 16.6392L11.136 16.0729L10.2932 16.4345L9.89813 15.8952V15.8942Z" fill="url(#paint4_radial_1867_14903)"/>
    <g style="mix-blend-mode:multiply">
      <path d="M6.90079 12.8304L6.38395 12.4375L5.42578 13.0033L5.94262 13.3967L6.90079 12.8304Z" fill="#FFD1CD"/>
    </g>
    <g style="mix-blend-mode:multiply">
      <path d="M10.2925 16.4333L9.89743 15.894C9.84744 15.8988 9.79693 15.9025 9.74588 15.9036C9.59062 15.9078 9.4311 15.8946 9.26999 15.8633L8.99349 16.3697L8.82812 16.4672C8.86535 16.4656 8.90204 16.464 8.93872 16.4603L9.3338 16.9996L10.1766 16.638L11.1353 16.0717L10.2925 16.4333Z" fill="#FFD1CD"/>
    </g>
    <g style="mix-blend-mode:multiply">
      <path d="M8.0869 15.2958C7.90186 15.1452 7.73489 14.9729 7.58814 14.7852L7.0277 14.8652L6.12695 15.423L6.62943 15.3515C6.77619 15.5392 6.94315 15.7115 7.12873 15.8621L8.08743 15.2958H8.0869Z" fill="#FFD1CD"/>
    </g>
    <path d="M11.3543 14.9717L11.9397 15.1085L12.1965 14.1477L11.6802 13.7548C11.6818 13.5241 11.6547 13.2919 11.601 13.0644L12.0344 12.7182L11.5547 11.7213L10.9938 11.8014C10.8475 11.6137 10.6801 11.4414 10.495 11.2913L10.5216 10.6656L9.58682 10.216L9.31032 10.7224C9.14868 10.6911 8.98863 10.6778 8.83337 10.6821C8.82007 10.6821 8.80678 10.6842 8.79402 10.6847C8.7568 10.6863 8.72011 10.6879 8.68342 10.6916L8.28835 10.1523L7.44556 10.514L7.61571 11.1497C7.4663 11.2802 7.33549 11.4366 7.22755 11.6158L6.93989 11.5485L6.64212 11.479L6.38477 12.4398L6.9016 12.8327C6.90001 13.0634 6.92659 13.2951 6.9803 13.5231L6.54747 13.8699L7.02709 14.8662L7.58753 14.7861C7.73429 14.9738 7.90125 15.1461 8.08629 15.2967L8.0597 15.9224L8.99448 16.3721L9.27098 15.8657C9.43209 15.897 9.59161 15.9102 9.74687 15.906C9.79792 15.9044 9.84843 15.9012 9.89841 15.8964L10.2935 16.4357L11.1363 16.0741L11.023 15.6499L10.9661 15.4378C11.1155 15.3073 11.2469 15.1509 11.3548 14.9712L11.3543 14.9717ZM9.55439 12.3067C10.1084 12.5729 10.4339 13.25 10.2818 13.819C10.2743 13.8471 10.2653 13.8746 10.2557 13.9011C10.2525 13.9096 10.2494 13.9181 10.2456 13.9266C10.2387 13.9446 10.2313 13.9621 10.2233 13.9791C10.219 13.9881 10.2148 13.9971 10.21 14.0061C10.202 14.022 10.1935 14.0374 10.185 14.0528C10.1802 14.0613 10.1754 14.0698 10.1701 14.0777C10.16 14.0942 10.1494 14.1095 10.1388 14.1249C10.1345 14.1313 10.1302 14.1376 10.126 14.1435C10.1106 14.1641 10.0941 14.1843 10.0771 14.2034C10.0744 14.2066 10.0712 14.2092 10.068 14.2124C10.0537 14.2283 10.0383 14.2431 10.0228 14.2575C10.0165 14.2633 10.0101 14.2686 10.0037 14.2739C9.99093 14.285 9.97764 14.2956 9.96435 14.3062C9.9569 14.3115 9.94946 14.3174 9.94202 14.3222C9.92819 14.3317 9.91437 14.3412 9.90001 14.3497C9.77558 14.4271 9.63096 14.4706 9.47675 14.4743C9.41827 14.4759 9.35871 14.4717 9.29809 14.4616C9.20026 14.4457 9.10082 14.4144 9.00245 14.3672C8.4484 14.1005 8.12298 13.4239 8.27505 12.855C8.28197 12.8285 8.28994 12.803 8.29898 12.7781C8.37395 12.5665 8.51008 12.4064 8.68182 12.3088C8.68714 12.3056 8.69299 12.3025 8.69884 12.2998C8.7116 12.2929 8.72489 12.286 8.73819 12.2802C8.74404 12.2775 8.74935 12.2749 8.7552 12.2722C8.77169 12.2648 8.78817 12.2585 8.80465 12.2521C8.80731 12.251 8.80944 12.25 8.8121 12.2494C8.83177 12.2426 8.85144 12.2362 8.87165 12.2309C8.87697 12.2293 8.88175 12.2282 8.88707 12.2272C8.90196 12.2235 8.91738 12.2198 8.9328 12.2166C8.93918 12.2155 8.94609 12.2139 8.95247 12.2129C8.96736 12.2102 8.98225 12.2081 8.99767 12.2065C9.00405 12.206 9.0099 12.2049 9.01628 12.2044C9.03755 12.2023 9.05882 12.2007 9.08009 12.2001C9.23269 12.1959 9.39434 12.2304 9.55439 12.3072V12.3067Z" fill="url(#paint5_radial_1867_14903)"/>
    <path d="M32.3808 11.0614L32.4217 11.4644L32.0352 10.9453C32.0437 10.9496 32.0516 10.9538 32.0601 10.9575C32.1601 11.0026 32.267 11.037 32.3808 11.0609V11.0614Z" fill="url(#paint6_radial_1867_14903)"/>
    <path d="M35.2815 8.93226L34.8647 8.86174C34.8439 8.71593 34.8014 8.57912 34.7402 8.45399L34.8349 8.33203L35.2815 8.93226Z" fill="url(#paint7_radial_1867_14903)"/>
    <path d="M33.3891 8.68955C33.3918 8.67046 33.3934 8.6519 33.3944 8.63281C33.4364 8.64289 33.4763 8.65614 33.5135 8.67311C33.6124 8.71765 33.6938 8.78499 33.7539 8.86877C33.7608 8.87831 33.7672 8.88786 33.7735 8.89793C33.7767 8.90324 33.7805 8.90907 33.7836 8.91437C33.7895 8.92444 33.7953 8.93505 33.8007 8.94618C33.8033 8.95149 33.806 8.95679 33.8086 8.96209C33.815 8.97535 33.8203 8.98966 33.8257 9.00345L33.8288 9.01193C33.8347 9.0289 33.84 9.0464 33.8443 9.0639C33.8453 9.0692 33.8464 9.0745 33.8475 9.07927C33.8501 9.092 33.8528 9.10526 33.8549 9.11851C33.856 9.12541 33.8565 9.13177 33.8576 9.13866C33.8592 9.15086 33.8602 9.16305 33.8613 9.17578C33.8613 9.18267 33.8623 9.1901 33.8623 9.19699C33.8623 9.21024 33.8623 9.2235 33.8623 9.23729C33.8623 9.24365 33.8623 9.25001 33.8623 9.25637C33.8613 9.27599 33.8597 9.29614 33.857 9.31682C33.8001 9.72723 33.4045 10.0777 32.9722 10.1C32.8473 10.1064 32.733 10.0846 32.6351 10.0406C32.6213 10.0342 32.608 10.0279 32.5947 10.0205C32.591 10.0183 32.5873 10.0162 32.5835 10.0141C32.574 10.0088 32.5649 10.0035 32.5559 9.99765C32.5516 9.995 32.5479 9.99235 32.5442 9.9897C32.5352 9.98333 32.5261 9.97697 32.5176 9.97061C32.5144 9.96849 32.5118 9.96637 32.5086 9.96425C32.4969 9.95523 32.4857 9.94569 32.4751 9.93614L32.4708 9.93243C32.4618 9.92395 32.4527 9.91493 32.4442 9.90592C32.441 9.90274 32.4384 9.89956 32.4352 9.89638C32.4283 9.88895 32.4214 9.881 32.415 9.87304C32.4123 9.86933 32.4091 9.86615 32.4065 9.86244C32.3219 9.75268 32.2773 9.61164 32.2863 9.45415C32.3538 9.47059 32.4272 9.47749 32.5043 9.47324C32.9361 9.45097 33.3322 9.10048 33.3891 8.69008V8.68955Z" fill="url(#paint8_radial_1867_14903)"/>
    <path d="M34.174 7.86782C34.1432 7.85085 34.1113 7.83494 34.0783 7.82062C33.9789 7.77555 33.872 7.74109 33.7588 7.71776L33.7178 7.31477L32.9888 7.35242L32.8351 7.76495C32.674 7.81214 32.5188 7.87842 32.372 7.96061L32.0301 7.75646L31.4473 8.27239L31.6334 8.61439C31.5367 8.74748 31.4558 8.89065 31.3942 9.04071L30.9518 9.15524L30.8561 9.84773L31.0677 9.88326L31.2724 9.91772C31.2931 10.0635 31.3357 10.2003 31.3968 10.3255L31.1129 10.6919L30.646 10.0646L30.8353 9.82016L30.3887 9.22046L30.4844 8.52796L30.9268 8.41343C30.9885 8.26337 31.0693 8.12021 31.1661 7.98712L30.98 7.64511L31.5627 7.12919L31.9046 7.33333C32.0514 7.25168 32.2066 7.18487 32.3678 7.13767L32.5214 6.72515L33.2504 6.6875L33.6365 7.20661C33.6599 7.21774 33.6838 7.22888 33.7061 7.24107L34.1097 6.99875L34.5574 7.46165L35.0243 8.08893L34.5765 7.62603L34.173 7.86834L34.174 7.86782Z" fill="url(#paint9_radial_1867_14903)"/>
    <g style="mix-blend-mode:multiply">
      <path d="M31.3936 9.04134L30.9512 9.15587L30.4844 8.52859L30.9268 8.41406L31.3936 9.04134Z" fill="#FFD1CD"/>
    </g>
    <g style="mix-blend-mode:multiply">
      <path d="M34.5773 7.62674L34.1738 7.86906C34.1429 7.8521 34.111 7.83619 34.0781 7.82187C33.9786 7.7768 33.8717 7.74234 33.7585 7.71901L33.7175 7.31602L33.6367 7.20785C33.6601 7.21899 33.684 7.23012 33.7064 7.24232L34.11 7L34.5577 7.4629L35.0245 8.09017L34.5768 7.62727L34.5773 7.62674Z" fill="#FFD1CD"/>
    </g>
    <g style="mix-blend-mode:multiply">
      <path d="M32.8345 7.76399C32.6733 7.81118 32.5181 7.87746 32.3713 7.95965L32.0294 7.75551L31.5977 7.14944L31.9039 7.33238C32.0507 7.25072 32.2059 7.18391 32.3671 7.13672L32.8339 7.76399H32.8345Z" fill="#FFD1CD"/>
    </g>
    <path d="M34.7408 8.45589L34.8354 8.33394L35.0247 8.09003L34.577 7.62713L34.1734 7.86945C34.1426 7.85248 34.1107 7.83657 34.0777 7.82226C33.9783 7.77719 33.8714 7.74272 33.7582 7.71939L33.7172 7.31641L32.9882 7.35405L32.8346 7.76658C32.6734 7.81377 32.5182 7.88005 32.3714 7.96224L32.0295 7.7581L31.4467 8.27402L31.6329 8.61603C31.5361 8.74912 31.4553 8.89228 31.3936 9.04234L30.9512 9.15687L30.8555 9.84936L31.0671 9.88489L31.2718 9.91936C31.2925 10.0652 31.3351 10.202 31.3962 10.3271L31.1123 10.6935L31.56 11.1564L31.9636 10.9141C31.9865 10.9263 32.0098 10.9374 32.0332 10.9486C32.0418 10.9528 32.0497 10.957 32.0582 10.9607C32.1582 11.0058 32.2651 11.0403 32.3789 11.0641L32.4198 11.4671L33.1488 11.4295L33.3025 11.0164C33.4636 10.9692 33.6189 10.903 33.7651 10.8208L34.107 11.0249L34.6903 10.509L34.5042 10.167C34.6009 10.0339 34.6823 9.89072 34.744 9.74066L35.1858 9.62613L35.2816 8.93364L34.8647 8.86312C34.8439 8.7173 34.8014 8.5805 34.7403 8.45536L34.7408 8.45589ZM32.6341 10.0434C32.6203 10.0371 32.607 10.0307 32.5937 10.0233C32.59 10.0212 32.5862 10.019 32.5825 10.0169C32.5729 10.0116 32.5639 10.0063 32.5549 10.0005C32.5506 9.99783 32.5469 9.99518 32.5432 9.99253C32.5341 9.98617 32.5251 9.9798 32.5166 9.97344C32.5134 9.97132 32.5107 9.9692 32.5075 9.96655C32.4958 9.95753 32.4847 9.94799 32.474 9.93844C32.4724 9.93738 32.4714 9.93579 32.4698 9.93473C32.4607 9.92625 32.4517 9.91724 32.4432 9.90822C32.44 9.90504 32.4374 9.90186 32.4342 9.89868C32.4273 9.89125 32.4203 9.8833 32.414 9.87535C32.4113 9.87163 32.4081 9.86845 32.4055 9.86474C32.3209 9.75498 32.2762 9.61394 32.2853 9.45646C32.2863 9.4379 32.2879 9.41881 32.2906 9.39972C32.3475 8.98931 32.7431 8.63883 33.1754 8.61656C33.2525 8.61284 33.3253 8.61921 33.3929 8.63564C33.4349 8.64572 33.4748 8.65897 33.512 8.67594C33.6109 8.72048 33.6922 8.78782 33.7523 8.8716C33.7592 8.88115 33.7656 8.89069 33.772 8.90076C33.7752 8.90607 33.7789 8.9119 33.7821 8.9172C33.7879 8.92728 33.7938 8.93788 33.7991 8.94902C33.8018 8.95432 33.8044 8.95962 33.8071 8.96492C33.8135 8.97871 33.8188 8.9925 33.8241 9.00628C33.8252 9.00893 33.8262 9.01158 33.8273 9.01477C33.8331 9.03173 33.8385 9.04923 33.8427 9.06673C33.8438 9.07203 33.8448 9.0768 33.8459 9.08211C33.8486 9.09483 33.8512 9.10809 33.8533 9.12134C33.8544 9.12824 33.8549 9.1346 33.856 9.14149C33.8576 9.15369 33.8587 9.16588 33.8597 9.17861C33.8597 9.1855 33.8608 9.19293 33.8608 9.19982C33.8608 9.21308 33.8608 9.22633 33.8608 9.24012C33.8608 9.24648 33.8608 9.25284 33.8608 9.25921C33.8597 9.27936 33.8581 9.29897 33.8549 9.31965C33.798 9.73006 33.4024 10.0805 32.9701 10.1028C32.8452 10.1092 32.7309 10.0874 32.633 10.0434H32.6341Z" fill="url(#paint10_radial_1867_14903)"/>
    <path d="M23.7038 12.3492L19.0571 9.89844L19.5394 16.413L13.9062 19.1278C13.9062 19.1278 20.02 25.3009 25.5223 24.12C31.0241 22.9386 30.0994 18.1553 30.0994 18.1553L24.9125 16.589L23.7038 12.3492Z" fill="url(#paint11_radial_1867_14903)"/>
    <g style="mix-blend-mode:multiply">
      <path d="M20.2278 14.7745L22.059 16.2756C23.0066 16.7937 24.3279 16.2793 24.3721 15.9061C24.4162 15.5328 23.7047 12.3492 23.7047 12.3492L19.058 9.89844L19.5403 16.413L18.0137 17.0238L24.1392 20.3033L22.2563 17.632L22.8125 17.6129L20.3208 15.7868L20.2267 14.774L20.2278 14.7745Z" fill="#FFCBCC"/>
    </g>
    <g style="mix-blend-mode:multiply">
      <path d="M23.8926 17.405L24.9151 16.5938L24.7327 17.3043L23.8926 17.405Z" fill="#FFCBCC"/>
    </g>
    <path d="M17.4545 41.6608L17.0254 46.7463C19.298 47.5576 21.7471 47.9998 24.2994 47.9998C27.5281 47.9998 30.5908 47.2925 33.3409 46.0257L32.8666 41.6094L17.454 41.6608H17.4545Z" fill="url(#paint12_linear_1867_14903)"/>
    <g style="mix-blend-mode:multiply">
      <path d="M33.1016 43.794L32.8671 41.6094L17.4545 41.6608L17.0254 46.7463C17.5343 46.9277 18.0516 47.0905 18.577 47.2336C19.7877 47.1997 20.0307 45.987 20.0307 45.987L20.0456 45.2261C20.0456 45.2261 28.2331 46.5491 33.1016 43.794Z" fill="#B2B2B2"/>
    </g>
    <g style="mix-blend-mode:multiply">
      <path d="M28.2599 42.8677L28.0201 42.8879C28.0201 42.8879 28.0206 42.8937 28.0217 42.9064C28.0286 42.9934 28.0557 43.3805 28.0557 43.8974C28.0557 44.591 28.0052 45.5194 27.7941 46.2607C27.6888 46.6314 27.5431 46.9532 27.3533 47.1743C27.2587 47.2851 27.1539 47.371 27.0369 47.4294C26.92 47.4877 26.7913 47.52 26.6419 47.52C26.6238 47.52 26.6052 47.519 26.5866 47.5179V42.8778H26.3457V47.9034C26.426 47.896 26.5063 47.8875 26.5866 47.879V47.7576C26.6052 47.7581 26.6238 47.7597 26.6419 47.7597H26.6429C26.8269 47.7597 26.996 47.7184 27.1454 47.6436C27.2762 47.5778 27.3921 47.4866 27.4937 47.3774C27.6718 47.186 27.8074 46.9394 27.9143 46.6616C28.0738 46.2453 28.1685 45.757 28.2243 45.2713C28.2801 44.7856 28.2966 44.302 28.2966 43.8969C28.2966 43.2967 28.2604 42.8698 28.2599 42.8672" fill="#B2B2B2"/>
    </g>
    <path d="M40.2738 25.4445C39.5538 24.3104 32.4399 17.3303 30.7341 17.1792C29.0283 17.028 26.4633 16.7311 26.4633 16.7311C25.7688 14.8106 24.4634 15.0041 24.4634 15.0041L24.9149 16.5948L24.0125 19.9767L21.7771 17.6426L19.5067 15.8143L19.4248 14.9336L18.792 15.1839C18.792 15.1839 17.8892 15.7952 17.827 16.7189C17.8195 16.8266 17.8424 16.9512 17.886 17.0864C16.4338 17.7195 13.3918 19.3892 13.3918 19.3892L5.9668 27.9637L11.9535 31.5381L14.9274 28.8222L17.3447 36.122L16.671 43.6397C18.0162 45.0221 26.2043 45.0194 26.2043 45.0194L27.1896 43.7723L27.9478 44.6986L33.6527 43.4892L32.4207 31.9416L32.4776 28.3126C32.4776 28.3126 33.615 30.467 36.5145 30.467C39.414 30.467 40.9937 26.5798 40.2732 25.4461L40.2738 25.4445ZM20.9195 19.0488L20.9221 19.0472L20.9285 19.0509C20.9253 19.0504 20.9227 19.0498 20.9195 19.0488Z" fill="url(#paint13_radial_1867_14903)"/>
    <g style="mix-blend-mode:multiply">
      <path d="M20.9199 19.0485L20.9226 19.0469L20.929 19.0506C20.9258 19.0501 20.9231 19.0495 20.9199 19.0485Z" fill="#B2B2B2"/>
    </g>
    <path style="mix-blend-mode:multiply" opacity="0.5" d="M18.3018 9.40838C18.3018 9.40838 18.3029 9.40731 18.3029 9.40625C18.3029 9.40678 18.2901 9.42486 18.3018 9.40838Z" fill="url(#paint14_radial_1867_14903)"/>
    <path style="mix-blend-mode:multiply" opacity="0.5" d="M17.8056 7.81125C17.8056 7.81125 17.8067 7.80966 17.8072 7.80859C17.8072 7.80966 17.7939 7.83359 17.8056 7.81125Z" fill="url(#paint15_radial_1867_14903)"/>
    <path d="M20.0238 2.72754C20.0238 2.72754 16.0864 3.7525 15.3074 6.52671C14.9299 7.87193 17.2121 12.1489 18.0389 11.915L18.3345 11.7008C18.6078 12.1679 19.5772 13.1924 19.5772 13.1924C19.5772 13.1924 22.0364 14.4994 23.1078 14.3912C24.1793 14.2831 25.0556 13.6659 25.0556 13.6659L25.7628 9.83541C25.7628 9.83541 25.2778 8.11903 24.9694 6.5055C23.8921 0.867459 20.0238 2.72754 20.0238 2.72754Z" fill="url(#paint16_radial_1867_14903)"/>
    <g style="mix-blend-mode:multiply">
      <path d="M19.6155 12.4262L18.5813 10.5731C18.208 9.9198 18.7716 9.07407 18.7716 9.07407L18.3021 8.23788C18.3021 8.23788 20.1972 8.23788 22.8319 5.53524L24.6892 5.21392L20.0238 2.72656C20.0238 2.72656 16.0864 3.75152 15.3074 6.52573C14.9299 7.87095 17.2121 12.1479 18.0389 11.914L18.3345 11.6998C18.6078 12.167 19.5772 13.1914 19.5772 13.1914C19.5772 13.1914 22.0364 14.4984 23.1078 14.3903C23.2636 14.3744 23.4147 14.3478 23.5598 14.3144C22.2273 14.4406 20.2216 13.3876 19.6149 12.4262H19.6155Z" fill="#FFD1CD"/>
    </g>
    <path d="M25.6162 9.81121L24.9185 13.5584C24.9185 13.5584 24.2076 14.1974 23.1426 14.3888C24.1523 14.2758 24.9797 13.7191 25.0488 13.6714C25.0488 13.6714 25.0499 13.6703 25.0509 13.6698C25.0531 13.6682 25.0541 13.6676 25.0541 13.6676L25.7613 9.83719C25.7613 9.83719 25.2764 8.12133 24.968 6.50781C24.7941 7.3965 25.6156 9.81068 25.6156 9.81068L25.6162 9.81121Z" fill="#FFD9E8"/>
    <path d="M16.7253 10.2468C16.7253 10.2468 16.6211 9.8661 16.846 9.85231C17.1608 9.83322 17.3001 10.1858 17.3001 10.1858L17.7185 11.1206C17.7185 11.1206 17.0773 11.1689 17.0193 10.1906C17.0076 9.98911 16.8534 9.99176 16.7253 10.2468Z" fill="#672B3A"/>
    <path d="M23.2735 10.2549L23.709 9.60638L22.7109 7.98438L23.5436 9.64403L23.2735 10.2549Z" fill="#FFD9E8"/>
    <g style="mix-blend-mode:multiply">
      <path d="M23.5472 9.6427C23.5472 9.6427 23.1829 9.72807 23.1069 9.74769L22.6363 9.01172C22.6156 9.32721 22.4752 10.0022 22.5337 10.095C22.665 10.3039 23.2271 10.2997 23.2271 10.2997L23.5477 9.64217L23.5472 9.6427Z" fill="#FFD1CD"/>
    </g>
    <g style="mix-blend-mode:multiply">
      <path d="M23.5471 9.64115C23.5471 9.64115 23.1829 9.72652 23.1069 9.74614C23.1069 9.74614 22.4746 10.0007 22.5331 10.0934C22.6645 10.3024 23.2265 10.2981 23.2265 10.2981L23.5471 9.64062V9.64115Z" fill="#FFD1CD"/>
    </g>
    <path style="mix-blend-mode:multiply" d="M18.865 8.3407C19.0639 9.0035 19.7477 9.95953 20.4278 9.70872C21.1982 9.42452 21.3519 7.91227 20.9733 7.27545C20.741 6.88466 20.4017 6.86027 19.8136 7.06229C19.1282 7.29772 18.6656 7.6779 18.865 8.3407Z" fill="url(#paint17_radial_1867_14903)"/>
    <path d="M20.7427 8.36783C20.797 8.63454 20.7071 8.87739 20.5428 8.91079C20.378 8.9442 20.2009 8.7549 20.1467 8.48819C20.0924 8.22148 20.1823 7.97863 20.3466 7.94523C20.5114 7.91182 20.6885 8.10112 20.7427 8.36836V8.36783Z" fill="#672B3A"/>
    <path d="M20.5219 8.19754C20.5512 8.34336 20.5022 8.47592 20.4124 8.49394C20.3225 8.51197 20.2257 8.40858 20.196 8.26329C20.1667 8.11747 20.2156 7.98491 20.305 7.96689C20.3948 7.94886 20.4916 8.05225 20.5214 8.19754H20.5219Z" fill="white"/>
    <path d="M20.9783 7.27169C20.7007 7.13329 20.3104 7.15822 20.0121 7.23616C19.1624 7.4578 18.6387 7.96736 18.6387 7.96736C18.6387 7.96736 18.6445 7.6068 19.1832 7.26161C19.4373 7.09883 19.8569 6.86924 20.3652 6.81144C20.7592 6.76637 20.9777 7.27169 20.9777 7.27169H20.9783Z" fill="#672B3A"/>
    <path style="mix-blend-mode:multiply" d="M24.2923 6.29113C24.1121 6.08751 23.7133 6.11986 23.4559 6.15486C23.1289 6.1994 22.6503 6.44914 22.6503 6.44914C22.1292 7.18935 23.1821 8.78061 23.768 8.72016C24.7177 8.62259 24.8017 7.50485 24.6028 6.84205C24.5289 6.59602 24.4279 6.4152 24.2928 6.29113H24.2923Z" fill="url(#paint18_radial_1867_14903)"/>
    <path d="M23.7038 7.55379C23.7554 7.80936 23.6698 8.04267 23.5118 8.07448C23.3539 8.1063 23.1843 7.92495 23.1322 7.66885C23.0806 7.41327 23.1662 7.17997 23.3241 7.14815C23.4821 7.11634 23.6517 7.29768 23.7038 7.55379Z" fill="#672B3A"/>
    <path d="M23.4941 7.38717C23.5223 7.52663 23.4755 7.65389 23.3894 7.67138C23.3033 7.68888 23.2102 7.58973 23.182 7.45027C23.1538 7.31082 23.2006 7.18356 23.2868 7.16606C23.3729 7.14857 23.4654 7.24772 23.4941 7.38717Z" fill="white"/>
    <path d="M22.5079 6.79158C23.0593 6.19665 24.3865 6.2396 24.3865 6.2396C24.3865 6.2396 24.2568 6.16059 23.9595 6.06356C23.4714 5.90343 22.7158 6.18923 22.6504 6.26876C22.4686 6.48987 22.5074 6.79158 22.5074 6.79158H22.5079Z" fill="#672B3A"/>
    <path d="M23.7995 10.7461L21.4004 11.4354C21.4004 11.4354 22.0039 13.1529 23.2604 12.7451C23.3981 12.7006 23.765 12.3082 23.8633 12.2398C23.5183 11.753 23.7602 10.8617 23.7995 10.7466V10.7461Z" fill="#672B3A"/>
    <path d="M21.8301 12.2005C21.8301 12.2005 22.3958 13.0823 23.2599 12.7456C23.346 12.7122 23.5279 12.5483 23.6725 12.4115C23.1727 11.981 21.8301 12.2005 21.8301 12.2005Z" fill="#E30613"/>
    <path d="M23.3384 10.9347C23.3427 10.9135 23.3475 10.8923 23.3517 10.8711L21.5332 11.3934C21.5332 11.3934 21.6518 11.5991 22.0277 11.5106C22.3388 11.4374 22.7025 11.3637 22.9359 11.2995C23.1954 11.2279 23.2831 11.1977 23.3384 10.9347Z" fill="white"/>
    <path d="M23.512 10.5625L23.3397 10.5864L23.2158 10.711C23.2158 10.711 23.0579 10.6558 22.9723 10.6802C21.869 10.9989 21.4314 11.4056 21.3809 11.4395L23.8693 10.7253C23.8693 10.7253 23.9698 10.5116 23.5115 10.5625H23.512Z" fill="#FF6966"/>
    <path d="M23.8833 13C23.8833 13 23.8205 13.1235 23.7403 13.1798C23.66 13.236 23.4531 13.2699 23.4531 13.2699C23.4531 13.2699 23.6839 13.3134 23.7897 13.2238C23.895 13.1342 23.8833 13 23.8833 13Z" fill="#FF6966"/>
    <path d="M21.8287 12.2174C21.8287 12.2174 22.2461 12.7244 22.8501 12.762C23.2983 12.7896 23.7668 12.3055 23.8646 12.2365C23.7934 12.1363 23.7477 12.0186 23.7195 11.8945C23.7195 11.8945 24.0555 12.1061 23.9864 12.4343C23.9173 12.7625 23.4573 12.954 23.1527 13.0287C22.455 13.2 21.8281 12.218 21.8281 12.218L21.8287 12.2174Z" fill="#FF6966"/>
    <path style="mix-blend-mode:multiply" opacity="0.5" d="M18.0079 7.50994C18.0079 7.50994 18.009 7.50888 18.0095 7.50781C18.0095 7.50834 17.9936 7.52642 18.0079 7.50994Z" fill="url(#paint19_radial_1867_14903)"/>
    <path style="mix-blend-mode:multiply" opacity="0.5" d="M18.1042 6.44016C18.1042 6.44016 18.1053 6.43856 18.1058 6.4375C18.1053 6.43856 18.0888 6.46302 18.1042 6.44016Z" fill="url(#paint20_radial_1867_14903)"/>
    <path d="M24.8205 4.57097C24.7908 4.43735 23.2402 0.604239 18.0862 2.61173C14.3684 4.69398 15.7615 9.58068 15.7615 9.58068C15.7615 9.58068 17.8799 12.8162 18.7179 12.8692L19.273 12.8374L18.3792 11.4545C18.3202 11.4652 18.2234 11.4158 18.1995 11.471C17.7698 12.4652 16.5315 10.3734 16.5315 10.3734C16.5315 10.3734 16.3129 8.57375 17.1429 9.22011L17.9129 11.0479L18.1585 11.0007C17.8236 10.0192 18.2569 9.23602 18.2569 9.23602C18.0006 8.72805 17.5045 8.00215 17.5045 8.00215C21.082 7.31125 21.0963 4.78041 21.0963 4.78041C21.8131 6.29213 20.5093 7.53236 20.5093 7.53236C22.7447 6.61186 22.6968 4.89706 22.6575 4.48507C22.9797 4.6346 23.8198 5.72477 23.8528 5.72742C23.8555 5.30058 23.6646 4.92888 23.4359 4.63725C23.9496 4.85889 24.5876 5.15529 25.0199 6.72745C25.0199 6.72745 25.1018 5.8446 24.8205 4.57097Z" fill="url(#paint21_radial_1867_14903)"/>
    <path d="M32.6495 32.4496L32.877 28.0836C32.877 28.0836 32.081 18.1045 30.6752 16.7794C30.6752 16.7794 30.5183 16.4798 30.1477 16.4226C29.2129 16.2789 27.4194 16.2926 27.0392 16.3467C26.5085 16.4226 26.5048 16.6909 26.5048 16.6909C26.525 16.7444 27.589 19.2763 27.589 19.2763L26.5277 19.314L25.0303 23.8311C25.0303 23.8311 23.1767 22.1311 21.3535 20.4858L19.8561 20.9959C19.8561 20.9959 17.8776 17.2582 17.827 17.1591C16.9492 16.2524 14.341 18.0287 13.5828 18.6337C12.8246 19.2387 12.7267 19.9243 12.806 20.0133C12.8597 20.0738 13.8965 19.1506 13.9476 19.2127C17.1161 23.0543 15.2609 29.3138 15.1658 29.5375L17.3458 36.121C17.3458 36.121 14.7957 40.558 15.3646 41.7484C15.9336 42.9388 22.6929 44.8509 25.3717 44.073C26.9244 43.6223 27.4189 41.635 27.4189 41.635C27.4189 41.635 27.5895 42.9956 29.2953 43.4494C31.0011 43.9033 34.1282 42.2023 34.4696 40.8979C34.8109 39.5935 32.65 32.4496 32.65 32.4496H32.6495Z" fill="url(#paint22_linear_1867_14903)"/>
    <g style="mix-blend-mode:multiply">
      <path d="M20.1591 20.4308C20.1591 20.4308 17.8647 17.0962 17.8355 17.1094C17.8355 17.1094 17.835 17.1094 17.8344 17.1094C17.7993 17.1248 19.8561 20.9786 19.8561 20.9786L21.7511 20.3168L23.9748 21.7405L24.8846 23.4039L24.1769 21.5645L21.9027 19.3343L20.1591 20.4303V20.4308Z" fill="#B2B2B2"/>
    </g>
    <g style="mix-blend-mode:multiply">
      <path d="M27.6262 19.3336L26.5394 16.8516L27.0956 18.691L25.6929 18.6724L24.5273 21.4413L25.9582 19.296L27.6262 19.3336Z" fill="#B2B2B2"/>
    </g>
    <path d="M32.8601 28.397C32.2726 28.538 31.6318 28.6727 30.9523 28.8005C30.9858 26.257 30.922 20.2393 29.7128 16.3712C29.046 16.3112 28.1916 16.3001 27.6141 16.3139C28.3564 18.394 29.3204 22.461 29.0264 29.1319C26.6017 29.5142 23.9112 29.8255 21.4982 30.0651C20.8426 27.4617 18.8619 20.2854 16.2341 17.0902C15.6396 17.3007 15.0021 17.6591 14.4805 17.9963C15.6253 19.4534 17.9207 23.0766 19.5755 30.247C17.8957 30.3981 16.4622 30.5084 15.5104 30.5768L16.2915 32.9353C19.6786 32.6543 27.5567 31.9162 32.7378 30.7587L32.8607 28.3975L32.8601 28.397Z" fill="#FFDBDC"/>
    <g style="mix-blend-mode:multiply">
      <path d="M23.6208 28.3359C23.6118 28.3311 19.0597 29.5019 17.4677 27.9711C15.8757 26.4403 15.1786 23.1751 13.9939 21.5117C13.987 21.9492 13.9599 22.3749 13.8721 22.8272C13.7126 23.647 14.3406 25.8729 14.3406 25.8729L12.4641 27.8576C12.4641 27.8576 10.1899 25.76 8.37035 26.8369C6.55079 27.9138 7.62487 28.4499 7.1543 28.6716L11.9547 31.537L14.9287 28.8211L15.9384 31.8705L17.3459 36.1204C17.3459 36.1204 14.7957 40.5574 15.3647 41.7478C15.5045 42.0405 16.0198 42.3772 16.7557 42.7065L16.6722 43.6376C17.2188 44.1991 19.0113 44.5257 20.9467 44.7161L20.8165 44.2426C20.8165 44.2426 27.1908 45.915 27.4184 41.6815C27.4184 41.6815 26.9483 43.6774 25.1123 44.1418C23.4193 44.5703 20.6469 43.8873 20.6469 43.8873L19.6286 41.0675C20.6745 40.5389 21.2615 39.8623 21.5854 39.2175L20.9744 38.0626C20.9744 38.0626 21.865 38.0435 21.9219 37.0987L19.9131 36.0779L19.0602 30.9182C19.0602 30.9182 22.8822 29.2988 23.6213 28.3349L23.6208 28.3359Z" fill="#B2B2B2"/>
    </g>
    <path d="M21.2034 39.0999L20.5462 38.0415C20.5462 38.0415 19.3333 37.2897 19.4136 37.2382C19.4359 37.2239 20.2357 37.4158 20.2357 37.4158C20.2357 37.4158 21.7197 38.2006 21.6426 37.191C21.6426 37.191 18.6937 35.928 18.6915 35.9349L17.2984 35.8055L16.9347 35.0038L16.2435 35.6459L15.3847 35.8055C15.3847 35.8055 14.1442 34.8983 13.2764 33.6358C12.4358 32.412 11.9918 30.8568 10.513 29.3626C6.98877 25.5289 6.00454 28.0645 6.00454 28.0645C4.76296 34.5738 13.1329 38.0548 13.1329 38.0548C13.1329 38.0548 14.4542 39.0532 15.1619 39.3995C15.8697 39.7457 16.6864 39.6794 16.6864 39.6794C16.6864 39.6794 16.6896 39.6794 16.6938 39.6784C17.0405 39.8062 17.4601 40.0119 17.8743 40.3433C17.8743 40.3433 17.8711 40.644 18.1481 40.9054C18.5389 41.2739 18.775 40.7638 18.775 40.7638C18.4597 39.7463 18.4852 39.5798 18.4852 39.5798L17.5154 38.4853C17.5154 38.4853 18.6346 39.4117 18.6426 39.4C18.6426 39.4 18.8798 39.9796 19.2887 40.3412C19.6976 40.7028 19.9464 40.2913 19.9666 40.0305C19.9677 40.0167 19.6407 39.1937 19.4679 38.9376C19.3945 38.8289 18.5916 37.9164 18.5916 37.9164C18.5916 37.9164 19.8725 38.724 19.9576 38.839C20.9567 40.1954 21.2018 39.0999 21.2018 39.0999H21.2034Z" fill="url(#paint23_radial_1867_14903)"/>
    <g style="mix-blend-mode:multiply">
      <path d="M18.3298 40.5288C18.3287 40.5257 18.3271 40.5219 18.3261 40.5188C18.2819 40.4647 18.2405 40.3194 18.2176 40.2743C18.1761 40.1937 18.1421 40.1121 18.1144 40.0304C17.6619 39.7907 16.7527 39.1428 16.7527 39.1428C16.7527 39.1428 15.7833 39.0558 15.3909 38.8231C14.8177 38.4826 14.5364 37.4121 14.5364 37.4121C14.5364 37.4121 15.3213 36.4561 15.3909 36.2408C15.3075 36.2816 14.2467 36.8654 14.1626 36.8797C13.431 37.0059 13.0981 36.9635 12.4521 36.596C6.39359 33.1521 8.02227 29.6913 8.02227 29.6913C8.02227 29.6913 9.87267 29.0481 10.3151 29.1451C6.95403 25.6217 6.00649 28.0602 6.00649 28.0602C4.76491 34.5695 13.1348 38.0505 13.1348 38.0505C13.1348 38.0505 14.4562 39.0489 15.1639 39.3952C15.8716 39.7414 16.6883 39.6752 16.6883 39.6752C16.6883 39.6752 16.6915 39.6751 16.6958 39.6741C17.0425 39.8019 17.462 40.0076 17.8762 40.339C17.8762 40.339 17.873 40.6397 18.1501 40.9011C18.2867 41.0299 18.4042 41.0511 18.4994 41.0246C18.4436 40.8586 18.3893 40.6922 18.3298 40.5278V40.5288Z" fill="#FFD1CD"/>
    </g>
    <path d="M12.1469 31.5831C12.1469 31.5831 12.2139 29.2803 11.6131 28.242C9.01028 25.5267 5.92626 27.6832 5.92626 27.6832C5.92626 27.6832 4.56451 29.4404 5.36582 31.5566L6.82754 32.7947C6.82754 32.7947 5.96667 31.397 6.14693 30.4982C6.24955 29.9865 8.22492 28.8258 9.85147 29.2405C11.0792 29.5539 12.1475 31.5831 12.1475 31.5831H12.1469Z" fill="url(#paint24_radial_1867_14903)"/>
    <g style="mix-blend-mode:multiply">
      <path d="M11.6126 28.2424C11.5775 28.2059 11.5424 28.1703 11.5068 28.1353C11.4909 28.1194 11.4744 28.1041 11.4584 28.0881C11.4403 28.0706 11.4217 28.0532 11.4037 28.0357C11.3824 28.0155 11.3611 27.9964 11.3398 27.9768C11.3271 27.9651 11.3149 27.954 11.3021 27.9429C11.2782 27.9217 11.2542 27.9004 11.2303 27.8803C11.2266 27.8771 11.2223 27.8734 11.2186 27.8702C10.1078 26.9264 8.94389 26.7811 7.99103 26.9126C8.08036 26.9784 8.16703 27.0494 8.25052 27.1258C8.71099 27.5473 8.92474 28.1634 8.97154 28.7706C5.42279 29.5961 5.7732 30.5596 5.7732 30.5596H5.94389C5.94389 30.5596 5.92474 31.8258 6.4368 32.4632L6.82815 32.7946C6.82815 32.7946 5.96728 31.3968 6.14754 30.4981C6.23208 30.0765 7.58532 29.217 8.96781 29.1566C9.0396 29.1534 9.11138 29.1523 9.1837 29.1539C9.18689 29.1539 9.18954 29.1539 9.19273 29.1539C9.22198 29.1545 9.25176 29.1561 9.281 29.1571C9.29855 29.1582 9.3161 29.1592 9.33311 29.1603C9.3581 29.1619 9.38309 29.1635 9.40808 29.1656C9.4485 29.1693 9.48891 29.1735 9.52932 29.1789C9.54474 29.181 9.56016 29.1836 9.57558 29.1857C9.60801 29.1905 9.64045 29.1958 9.67288 29.2017C9.68724 29.2043 9.7016 29.207 9.71595 29.2096C9.76115 29.2186 9.80635 29.2287 9.85154 29.2398C11.0793 29.5532 12.1475 31.5824 12.1475 31.5824C12.1475 31.5824 12.2145 29.2796 11.6137 28.2414L11.6126 28.2424Z" fill="#B2B2B2"/>
    </g>
    <g style="mix-blend-mode:multiply">
      <path d="M25.0859 24.2109C25.0859 24.2109 27.6637 34.8704 27.2846 41.1452C28.1439 36.7856 26.3499 26.2524 25.0859 24.2109Z" fill="#B2B2B2"/>
    </g>
    <g style="mix-blend-mode:multiply">
      <path d="M34.3728 25.6211C34.3728 25.6211 33.9182 27.3852 34.0819 28.4436C33.8294 28.3428 33.463 26.7298 34.3728 25.6211Z" fill="#B2B2B2"/>
    </g>
    <g style="mix-blend-mode:multiply">
      <path d="M35.9729 28.8959C36.6344 29.1807 37.8999 28.9542 38.2774 28.5772C37.2842 28.7665 36.5414 28.5428 36.0974 28.327C36.5945 26.3179 37.7877 22.7626 37.7877 22.7626C37.7728 22.8777 34.9919 22.3464 34.4362 25.1689L33.0718 24.5893C33.0718 24.5893 32.3731 18.6443 31.348 17.9258C31.3565 17.9883 31.365 18.0509 31.3735 18.1135C31.3735 18.1135 32.4332 22.0463 32.6172 25.1943C32.7688 27.7898 27.7147 27.6387 27.7147 27.6387C27.7147 27.6387 29.9384 28.8737 31.4549 28.7225V33.6866C31.4549 33.6866 33.3893 38.7876 33.5775 39.4572C33.6849 40.2563 34.3102 41.3974 32.0812 42.9855C32.1525 42.9531 31.0662 43.4892 30.0899 43.5274C29.0562 43.5677 27.8694 43.0136 27.5312 42.0438C28.0066 44.1011 30.6679 44.1509 32.639 42.9791C32.639 42.9791 32.6704 43.6228 32.689 43.7029L33.653 43.4897L33.5073 42.1238C34.005 41.7267 34.3645 41.2956 34.4681 40.9C34.8095 39.5962 32.6486 32.4517 32.6486 32.4517L32.8379 28.8212C33.3717 29.458 34.5304 30.467 36.5153 30.467C37.0864 30.467 37.6059 30.3159 38.0669 30.0651C38.0669 30.0651 35.7369 30.5847 35.9729 28.8959Z" fill="#B2B2B2"/>
    </g>
    <path d="M39.9881 26.6932C39.9881 26.6932 41.1569 21.009 41.0819 20.3552C40.9809 19.4734 37.8602 19.9395 37.8602 19.9395C37.8602 19.9395 35.017 24.3999 35.4344 25.6852C35.8518 26.9705 38.8571 27.8151 39.9887 26.6932H39.9881Z" fill="url(#paint25_radial_1867_14903)"/>
    <g style="mix-blend-mode:multiply">
      <path d="M36.8871 25.6235L37.3295 24.0232L40.2673 22.5868L41.3286 19.8359L37.8602 19.9409C37.8602 19.9409 35.017 24.4013 35.4344 25.6866C35.8364 26.9253 38.6418 27.754 39.8579 26.8086C37.5698 27.5387 36.8876 25.6235 36.8876 25.6235H36.8871Z" fill="#FFD1CD"/>
    </g>
    <path d="M30.7676 22.9639C33.9436 25.4019 38.735 20.608 38.735 20.608L45.3082 11.0547C45.3082 11.0547 37.7592 13.3432 37.7651 13.4084C37.7651 13.4084 33.2954 20.2798 32.694 21.3005C32.0921 22.3212 30.7676 22.9634 30.7676 22.9634V22.9639Z" fill="#F9F9F9"/>
    <path d="M31.7441 25.7179L31.9956 25.8648L40.1034 22.4321L45.8211 11.0314L45.7514 10.9375L37.8654 13.506L31.7441 25.7179Z" fill="url(#paint26_linear_1867_14903)"/>
    <g style="mix-blend-mode:multiply">
      <path d="M31.9941 25.8647L40.1019 22.4319L45.8196 11.0312L38.0792 13.6846L31.9941 25.8647Z" fill="#B2B2B2"/>
    </g>
    <path d="M33.9648 24.0576L40.8294 20.9769L45.5288 11.4353C45.7091 10.9257 45.2608 11.0429 45.2608 11.0429L38.1203 13.4162C38.1203 13.4162 38.3245 13.553 38.3308 13.6188L33.9648 24.0576Z" fill="#F9F9F9"/>
    <g style="mix-blend-mode:multiply">
      <path d="M38.2798 14.4336L34.4434 23.6068L40.6263 20.832L42.4304 17.1686L38.2798 14.4336Z" fill="#DADADA"/>
    </g>
    <path d="M43.3423 15.9609C43.3423 15.9609 43.8703 16.6237 43.9512 17.557C43.9847 17.9435 43.6358 18.7961 43.6358 18.7961C43.6991 19.3677 43.0132 19.8126 43.0132 19.8126C43.0132 19.8126 43.5417 20.3906 42.1949 20.8842L40.8703 20.9966L40.0919 20.6626C39.3767 20.3582 39.7628 19.7909 39.7628 19.7909L39.0019 19.4223C39.0019 19.4223 38.7695 18.8067 39.231 18.6291C39.3475 17.444 40.4444 17.8327 40.4444 17.8327C40.4444 17.8327 40.1945 16.5055 41.9402 17.0172L43.0042 16.6481L43.3423 15.9609Z" fill="url(#paint27_linear_1867_14903)"/>
    <g style="mix-blend-mode:multiply">
      <path d="M41.9689 17.2579C40.2232 16.7463 40.4444 17.8343 40.4444 17.8343C40.4444 17.8343 39.3475 17.4451 39.231 18.6307C38.7695 18.8078 39.0019 19.424 39.0019 19.424L39.7628 19.7925C39.7628 19.7925 39.3773 20.3598 40.0919 20.6642L40.7108 20.9299C40.8613 20.4892 41.6249 18.9775 41.6249 18.9775L41.8455 18.0188L41.9689 17.259V17.2579Z" fill="#FFCBCC"/>
    </g>
    <g style="mix-blend-mode:multiply">
      <path d="M43.263 16.125L43.0052 16.6494L42.6133 16.7851C42.7728 16.791 42.9323 16.8021 43.0913 16.8154C43.1402 16.5837 43.1987 16.353 43.263 16.125Z" fill="#FFCBCC"/>
    </g>
    <g style="mix-blend-mode:multiply">
      <path d="M41.3311 19.981C41.3311 19.981 39.771 19.7837 39.7912 19.8325L41.3593 20.2016L42.8976 19.7461L41.3311 19.981Z" fill="#FFCBCC"/>
    </g>
    <g style="mix-blend-mode:multiply">
      <path d="M41.7059 18.9719C41.7059 18.9719 39.3254 18.7147 39.1903 18.6484C39.1398 18.6702 41.2689 19.2831 41.2689 19.2831C41.2689 19.2831 42.6194 18.9385 43.0815 18.6659C42.9635 18.6628 41.7059 18.9724 41.7059 18.9724V18.9719Z" fill="#FFCBCC"/>
    </g>
    <g style="mix-blend-mode:multiply">
      <path d="M42.626 17.7712C42.626 17.7712 40.5895 17.9404 40.4544 17.8741C40.4039 17.8958 41.838 18.0226 41.838 18.0226L42.4734 18.082C42.4734 18.082 43.1854 17.6079 43.4677 17.4414C43.3497 17.4382 42.626 17.7707 42.626 17.7707V17.7712Z" fill="#FFCBCC"/>
    </g>
    <path d="M24.6252 4.26873C24.2839 3.50413 23.516 2.029 22.3175 1.04275C21.8645 0.669993 18.3822 -0.290802 15.5003 2.42721C12.1791 5.55881 15.7815 9.29806 15.7815 9.29806C15.7815 9.29806 16.4207 8.56898 17.0077 8.03238C18.1903 6.95175 19.9508 5.73379 22.2649 5.1887C22.3505 5.16855 24.2817 4.40978 24.6252 4.2682V4.26873Z" fill="url(#paint28_radial_1867_14903)"/>
    <g style="mix-blend-mode:multiply">
      <path d="M17.2347 6.09194L15.4928 3.67033C15.4928 3.67033 15.2902 3.02078 15.6693 2.48047C15.6379 2.5091 15.6066 2.53773 15.5752 2.5669C12.3955 5.56541 15.8442 9.14506 15.8442 9.14506C15.8442 9.14506 16.4563 8.44726 17.0183 7.93346C17.4182 7.56812 17.9318 6.996 17.9318 6.996L17.2347 6.09194Z" fill="#F9B233"/>
    </g>
    <path d="M21.3869 4.0487C17.3713 5.12561 14.7473 8.02073 14.8137 8.69837C14.9275 9.8649 16.0303 9.99322 16.0303 9.99322L15.6943 9.42957C15.6943 9.42957 16.4211 8.56793 17.0082 8.03133C17.3751 7.69622 17.7973 7.34785 18.2742 7.01062C18.5411 7.17128 19.0394 7.34838 19.7705 7.11561C20.2443 6.96502 21.4034 5.97453 22.5849 5.12933L25.8274 3.642C25.8274 3.642 24.6236 3.18069 21.3869 4.0487Z" fill="url(#paint29_radial_1867_14903)"/>
    <path d="M25.5991 3.62503C25.6395 3.62821 25.6783 3.61442 25.7171 3.61071C25.5236 3.56405 25.0642 3.4861 24.2655 3.53542C23.8481 2.75755 23.1994 1.76706 22.3173 1.04117C22.1147 0.87467 21.3054 0.590462 20.2148 0.570312C20.7168 0.692268 21.7106 0.85081 22.0977 1.06662C22.7102 1.40862 23.3377 2.41184 23.7173 2.94685C23.9688 3.30158 24.0826 3.54708 24.0826 3.54708C24.0826 3.54708 24.8302 3.55928 25.5986 3.62503H25.5991Z" fill="#F9CA00"/>
    <g style="mix-blend-mode:multiply">
      <path d="M17.2956 6.12109C15.7419 7.22717 14.8545 8.3322 14.8938 8.73041C15.0076 9.89693 16.0301 9.99503 16.0301 9.99503L15.6941 9.43138C15.6941 9.43138 16.421 8.56974 17.008 8.03314C17.3329 7.73621 17.7019 7.4292 18.1134 7.12855C17.8104 6.81041 17.5376 6.47476 17.2956 6.12109Z" fill="#F9B233"/>
    </g>
    <path d="M15.901 7.10759C15.901 7.10759 17.5504 5.81592 18.0146 5.48558L17.5675 4.85565C17.468 4.71514 17.2739 4.68068 17.1314 4.77771C16.6221 5.12449 15.5357 5.90235 15.515 6.24594C15.4873 6.69506 15.901 7.10759 15.901 7.10759Z" fill="url(#paint30_radial_1867_14903)"/>
    <g style="mix-blend-mode:multiply">
      <path d="M17.4693 5.01865C17.3221 4.8458 17.1274 4.96722 17.1274 4.96722C17.1274 4.96722 15.6758 5.92112 15.6556 6.2451C15.6296 6.66823 15.9965 7.05637 15.9965 7.05637C15.9965 7.05637 17.3635 5.9646 17.8836 5.58389L17.4693 5.01918V5.01865Z" fill="#F9B233"/>
    </g>
    <path d="M26.6072 4.52491C26.0744 2.97714 24.2517 3.96816 22.5879 5.14742C22.7713 5.11825 23.7167 4.71103 24.0836 4.98463C24.8164 5.53131 25.061 6.99159 25.061 6.99159C25.061 6.99159 27.1708 6.1623 26.6072 4.52491Z" fill="url(#paint31_radial_1867_14903)"/>
    <g style="mix-blend-mode:multiply">
      <path d="M25.0482 6.74758C25.0391 6.54662 24.6047 4.82917 26.1393 3.96064C26.1696 3.95639 26.2004 3.95268 26.2307 3.94844C25.4592 3.32329 23.9693 4.17167 22.5879 5.15049C22.7713 5.12133 23.7167 4.71411 24.0836 4.98771C24.8164 5.53439 25.061 6.99467 25.061 6.99467C25.061 6.99467 25.0684 6.99149 25.0822 6.98566C25.0631 6.90824 25.0514 6.8287 25.0477 6.74705L25.0482 6.74758Z" fill="#F9B233"/>
    </g>
    <path d="M26.4701 3.99791C26.2436 3.75983 25.9134 3.61613 25.5157 3.61719C25.3615 3.61719 25.1972 3.6384 25.0244 3.68294C24.6431 3.78157 24.2119 3.97723 23.7615 4.22697C23.0862 4.60132 22.3673 5.09762 21.7261 5.57166C21.0848 6.04569 20.5207 6.49746 20.1586 6.78061C19.8289 7.03777 19.4875 7.11837 19.177 7.1189C18.9021 7.1189 18.6538 7.05368 18.4751 6.98793C18.3858 6.95506 18.314 6.92218 18.2651 6.89779C18.2406 6.88559 18.222 6.87552 18.2092 6.86863C18.2029 6.86544 18.1986 6.86279 18.1954 6.86067L18.1922 6.85908H18.1917L18.1263 6.81931L18.0694 6.87075C18.0694 6.87075 17.4372 7.44235 16.8039 8.06591C16.4875 8.37822 16.1738 8.70591 15.9308 8.97898C15.5315 9.42757 15.7059 9.64284 15.7059 9.64284H15.7176C15.7176 9.64284 15.7176 9.63701 15.7208 9.62694C15.7261 9.60785 15.7404 9.57497 15.7633 9.53573C15.8064 9.4615 15.8782 9.36341 15.9696 9.25153C16.1302 9.05534 16.3509 8.81673 16.5912 8.5707C16.9517 8.20112 17.3564 7.81351 17.6701 7.51923C17.8269 7.37182 17.9615 7.24775 18.0566 7.16026C18.0965 7.12367 18.129 7.09451 18.1534 7.07171C18.2082 7.09981 18.2933 7.13958 18.4033 7.18041C18.5985 7.25199 18.8691 7.3241 19.1765 7.3241C19.5226 7.3241 19.9166 7.23078 20.2851 6.9418C20.77 6.56215 21.6075 5.88874 22.5061 5.26359C22.9554 4.95128 23.4196 4.65063 23.861 4.40566C24.3023 4.16069 24.7213 3.97192 25.0754 3.88072C25.2334 3.83989 25.3801 3.82134 25.5152 3.82134C25.864 3.82187 26.133 3.94329 26.3197 4.13842C26.5063 4.33408 26.6111 4.60768 26.6111 4.92158C26.6111 5.27207 26.4792 5.67134 26.1804 6.05365C25.9432 6.35694 25.5051 6.6788 25.0318 6.91688C25.0361 6.93438 25.0749 7.11837 25.0749 7.11837C25.0776 7.12526 25.1329 7.1014 25.1355 7.10776C25.6598 6.84158 26.0772 6.52026 26.3431 6.17984C26.6664 5.76573 26.8174 5.32298 26.8174 4.92105C26.8174 4.56155 26.6956 4.23386 26.4691 3.99631L26.4701 3.99791Z" fill="#F9B233"/>
    <path d="M20.321 0.609905C20.321 0.609905 18.2185 0.596119 16.291 1.7828C16.8951 1.9827 18.2313 3.67788 18.9917 4.96L20.2843 5.14929C20.2843 5.14929 20.7176 5.20974 21.001 5.00878L23.5836 3.68901L22.7595 3.32845C22.7595 3.32845 22.0762 1.3427 20.321 0.609375V0.609905Z" fill="url(#paint32_radial_1867_14903)"/>
    <path d="M16.3379 1.78117L16.6133 1.18624L19.2922 0.214844L20.563 0.707437C22.1778 1.7992 22.6867 3.35122 22.6867 3.35122L23.2993 3.76692L21.1426 4.7203L19.5187 4.65932C19.5187 4.65932 18.2138 1.84904 16.3384 1.7817L16.3379 1.78117Z" fill="url(#paint33_radial_1867_14903)"/>
    <path d="M22.6861 3.35156C22.6861 3.35156 21.2462 3.69993 19.4941 4.65277L20.4683 5.03773C20.4683 5.03773 21.033 5.14059 21.5434 4.80548C22.7015 4.04459 23.6023 3.67819 23.6023 3.67819L22.6861 3.35156Z" fill="url(#paint34_linear_1867_14903)"/>
    <path d="M19.2928 0.290668L20.512 0.773187C21.3208 1.38402 22.037 2.02084 22.5857 3.38515C22.5857 3.38515 23.4158 3.62005 23.4588 3.62641L22.6868 3.35122C22.6868 3.35122 22.1784 1.7992 20.563 0.707437L19.2922 0.214844L16.6134 1.18624L16.5703 1.27957C16.8452 1.25677 19.2922 0.290138 19.2922 0.290138L19.2928 0.290668Z" fill="#F9CA00"/>
  </g>
  <defs>
    <radialGradient id="paint0_radial_1867_14903" cx="0" cy="0" r="1" gradientUnits="userSpaceOnUse" gradientTransform="translate(24.9752 4.35267) scale(32.2471 32.157)">
      <stop stop-color="#91B1F6"/>
      <stop offset="1" stop-color="#6882F8"/>
    </radialGradient>
    <radialGradient id="paint1_radial_1867_14903" cx="0" cy="0" r="1" gradientUnits="userSpaceOnUse" gradientTransform="translate(6.16586 7.10212) rotate(9.44401) scale(7.53133 7.51142)">
      <stop offset="0.05" stop-color="#FFD87C"/>
      <stop offset="1" stop-color="#F96F00"/>
    </radialGradient>
    <radialGradient id="paint2_radial_1867_14903" cx="0" cy="0" r="1" gradientUnits="userSpaceOnUse" gradientTransform="translate(6.16563 7.10366) rotate(9.44403) scale(7.53133 7.51143)">
      <stop offset="0.05" stop-color="#FFD87C"/>
      <stop offset="1" stop-color="#F96F00"/>
    </radialGradient>
    <radialGradient id="paint3_radial_1867_14903" cx="0" cy="0" r="1" gradientUnits="userSpaceOnUse" gradientTransform="translate(12.7467 11.875) scale(3.54661 3.5367)">
      <stop offset="0.05" stop-color="#FFD87C"/>
      <stop offset="1" stop-color="#F95200"/>
    </radialGradient>
    <radialGradient id="paint4_radial_1867_14903" cx="0" cy="0" r="1" gradientUnits="userSpaceOnUse" gradientTransform="translate(12.5919 11.4513) scale(7.01719 6.99758)">
      <stop offset="0.05" stop-color="#FFD87C"/>
      <stop offset="1" stop-color="#F95200"/>
    </radialGradient>
    <radialGradient id="paint5_radial_1867_14903" cx="0" cy="0" r="1" gradientUnits="userSpaceOnUse" gradientTransform="translate(11.2134 9.4572) scale(8.35768 8.33432)">
      <stop offset="0.05" stop-color="#FFD87C"/>
      <stop offset="1" stop-color="#F96F00"/>
    </radialGradient>
    <radialGradient id="paint6_radial_1867_14903" cx="0" cy="0" r="1" gradientUnits="userSpaceOnUse" gradientTransform="translate(29.354 12.5548) rotate(13.2741) scale(5.29576 5.2825)">
      <stop offset="0.05" stop-color="#FFD87C"/>
      <stop offset="1" stop-color="#F96F00"/>
    </radialGradient>
    <radialGradient id="paint7_radial_1867_14903" cx="0" cy="0" r="1" gradientUnits="userSpaceOnUse" gradientTransform="translate(29.3526 12.5556) rotate(13.2741) scale(5.29574 5.28251)">
      <stop offset="0.05" stop-color="#FFD87C"/>
      <stop offset="1" stop-color="#F96F00"/>
    </radialGradient>
    <radialGradient id="paint8_radial_1867_14903" cx="0" cy="0" r="1" gradientUnits="userSpaceOnUse" gradientTransform="translate(34.9238 11.2463) rotate(22.7228) scale(2.49275 2.48787)">
      <stop offset="0.05" stop-color="#FFD87C"/>
      <stop offset="1" stop-color="#F95200"/>
    </radialGradient>
    <radialGradient id="paint9_radial_1867_14903" cx="0" cy="0" r="1" gradientUnits="userSpaceOnUse" gradientTransform="translate(34.7073 11.4785) rotate(22.7228) scale(4.93236 4.92269)">
      <stop offset="0.05" stop-color="#FFD87C"/>
      <stop offset="1" stop-color="#F95200"/>
    </radialGradient>
    <radialGradient id="paint10_radial_1867_14903" cx="0" cy="0" r="1" gradientUnits="userSpaceOnUse" gradientTransform="translate(35.048 10.3902) rotate(74.2381) scale(6.15471 6.16941)">
      <stop offset="0.05" stop-color="#FFD87C"/>
      <stop offset="1" stop-color="#F96F00"/>
    </radialGradient>
    <radialGradient id="paint11_radial_1867_14903" cx="0" cy="0" r="1" gradientUnits="userSpaceOnUse" gradientTransform="translate(33.8045 6.9731) scale(23.1227 23.058)">
      <stop stop-color="#FFBFA6"/>
      <stop offset="0.19" stop-color="#FFB8A2"/>
      <stop offset="0.43" stop-color="#FFA799"/>
      <stop offset="0.72" stop-color="#FF8B8A"/>
      <stop offset="1" stop-color="#FF6978"/>
    </radialGradient>
    <linearGradient id="paint12_linear_1867_14903" x1="17.0254" y1="44.8046" x2="33.3409" y2="44.8046" gradientUnits="userSpaceOnUse">
      <stop stop-color="#39376F"/>
      <stop offset="1" stop-color="#4A487C"/>
    </linearGradient>
    <radialGradient id="paint13_radial_1867_14903" cx="0" cy="0" r="1" gradientUnits="userSpaceOnUse" gradientTransform="translate(15.4326 0.935249) scale(56.414 56.2564)">
      <stop stop-color="#3D88F8"/>
      <stop offset="0.97" stop-color="#1B4FB8"/>
    </radialGradient>
    <radialGradient id="paint14_radial_1867_14903" cx="0" cy="0" r="1" gradientUnits="userSpaceOnUse" gradientTransform="translate(25.5437 7.42088) rotate(-10.5083) scale(14.0697 10.9727)">
      <stop offset="0.03" stop-color="#FFFFCB"/>
      <stop offset="0.45" stop-color="#FFCCCB"/>
      <stop offset="0.58" stop-color="#FFC5C4"/>
      <stop offset="0.77" stop-color="#FFB2B1"/>
      <stop offset="0.99" stop-color="#FF9393"/>
      <stop offset="1" stop-color="#FF9292"/>
    </radialGradient>
    <radialGradient id="paint15_radial_1867_14903" cx="0" cy="0" r="1" gradientUnits="userSpaceOnUse" gradientTransform="translate(27.0308 1.43659) rotate(-10.5102) scale(15.3455 15.3458)">
      <stop offset="0.03" stop-color="#FFFFCB"/>
      <stop offset="0.45" stop-color="#FFCCCB"/>
      <stop offset="0.58" stop-color="#FFC5C4"/>
      <stop offset="0.77" stop-color="#FFB2B1"/>
      <stop offset="0.99" stop-color="#FF9393"/>
      <stop offset="1" stop-color="#FF9292"/>
    </radialGradient>
    <radialGradient id="paint16_radial_1867_14903" cx="0" cy="0" r="1" gradientUnits="userSpaceOnUse" gradientTransform="translate(0.0272039 6.4424) scale(23.1227 23.058)">
      <stop stop-color="#FFBFA6"/>
      <stop offset="0.19" stop-color="#FFB8A2"/>
      <stop offset="0.43" stop-color="#FFA799"/>
      <stop offset="0.72" stop-color="#FF8B8A"/>
      <stop offset="1" stop-color="#FF6978"/>
    </radialGradient>
    <radialGradient id="paint17_radial_1867_14903" cx="0" cy="0" r="1" gradientUnits="userSpaceOnUse" gradientTransform="translate(20.5081 9.05688) rotate(163.374) scale(3.63883 3.63033)">
      <stop offset="0.33" stop-color="white"/>
      <stop offset="0.45" stop-color="#FFE1E2"/>
      <stop offset="1" stop-color="#FF5459"/>
    </radialGradient>
    <radialGradient id="paint18_radial_1867_14903" cx="0" cy="0" r="1" gradientUnits="userSpaceOnUse" gradientTransform="translate(23.8851 8.56793) rotate(-16.626) scale(3.78609 3.77724)">
      <stop offset="0.33" stop-color="white"/>
      <stop offset="0.45" stop-color="#FFE1E2"/>
      <stop offset="1" stop-color="#FF5459"/>
    </radialGradient>
    <radialGradient id="paint19_radial_1867_14903" cx="0" cy="0" r="1" gradientUnits="userSpaceOnUse" gradientTransform="translate(25.9713 6.00879) rotate(-4.61021) scale(15.1594 11.8249)">
      <stop offset="0.03" stop-color="#FFFFCB"/>
      <stop offset="0.45" stop-color="#FFCCCB"/>
      <stop offset="0.58" stop-color="#FFC5C4"/>
      <stop offset="0.77" stop-color="#FFB2B1"/>
      <stop offset="0.99" stop-color="#FF9393"/>
      <stop offset="1" stop-color="#FF9292"/>
    </radialGradient>
    <radialGradient id="paint20_radial_1867_14903" cx="0" cy="0" r="1" gradientUnits="userSpaceOnUse" gradientTransform="translate(28.6934 0.612428) rotate(-4.61007) scale(16.5361 16.5363)">
      <stop offset="0.03" stop-color="#FFFFCB"/>
      <stop offset="0.45" stop-color="#FFCCCB"/>
      <stop offset="0.58" stop-color="#FFC5C4"/>
      <stop offset="0.77" stop-color="#FFB2B1"/>
      <stop offset="0.99" stop-color="#FF9393"/>
      <stop offset="1" stop-color="#FF9292"/>
    </radialGradient>
    <radialGradient id="paint21_radial_1867_14903" cx="0" cy="0" r="1" gradientUnits="userSpaceOnUse" gradientTransform="translate(22.3363 2.12232) scale(10.9344 10.9039)">
      <stop stop-color="#A86100"/>
      <stop offset="1" stop-color="#672B3A"/>
    </radialGradient>
    <linearGradient id="paint22_linear_1867_14903" x1="19.4318" y1="13.9622" x2="27.4635" y2="46.8014" gradientUnits="userSpaceOnUse">
      <stop stop-color="#FF9D43"/>
      <stop offset="0.31" stop-color="#FF8943"/>
      <stop offset="0.95" stop-color="#FF5743"/>
      <stop offset="1" stop-color="#FF5343"/>
    </linearGradient>
    <radialGradient id="paint23_radial_1867_14903" cx="0" cy="0" r="1" gradientUnits="userSpaceOnUse" gradientTransform="translate(21.674 26.5555) scale(23.9234 23.8566)">
      <stop stop-color="#FFBFA6"/>
      <stop offset="0.19" stop-color="#FFB8A2"/>
      <stop offset="0.43" stop-color="#FFA799"/>
      <stop offset="0.72" stop-color="#FF8B8A"/>
      <stop offset="1" stop-color="#FF6978"/>
    </radialGradient>
    <radialGradient id="paint24_radial_1867_14903" cx="0" cy="0" r="1" gradientUnits="userSpaceOnUse" gradientTransform="translate(2.6838 29.8412) scale(12.2058 12.1717)">
      <stop stop-color="#3D88F8"/>
      <stop offset="0.97" stop-color="#1B4FB8"/>
    </radialGradient>
    <radialGradient id="paint25_radial_1867_14903" cx="0" cy="0" r="1" gradientUnits="userSpaceOnUse" gradientTransform="translate(50.6462 23.7366) rotate(45.3098) scale(20.8078 20.8085)">
      <stop stop-color="#FFBFA6"/>
      <stop offset="0.19" stop-color="#FFB8A2"/>
      <stop offset="0.43" stop-color="#FFA799"/>
      <stop offset="0.72" stop-color="#FF8B8A"/>
      <stop offset="1" stop-color="#FF6978"/>
    </radialGradient>
    <linearGradient id="paint26_linear_1867_14903" x1="31.7441" y1="18.4012" x2="45.8211" y2="18.4012" gradientUnits="userSpaceOnUse">
      <stop stop-color="#39376F"/>
      <stop offset="1" stop-color="#4A487C"/>
    </linearGradient>
    <linearGradient id="paint27_linear_1867_14903" x1="42.1595" y1="13.7334" x2="40.6943" y2="23.3132" gradientUnits="userSpaceOnUse">
      <stop stop-color="#FFBFA6"/>
      <stop offset="0.18" stop-color="#FFB8A2"/>
      <stop offset="0.45" stop-color="#FFA598"/>
      <stop offset="0.75" stop-color="#FF8687"/>
      <stop offset="1" stop-color="#FF6978"/>
    </linearGradient>
    <radialGradient id="paint28_radial_1867_14903" cx="0" cy="0" r="1" gradientUnits="userSpaceOnUse" gradientTransform="translate(31.2888 -1.66412) scale(23.1631 23.0983)">
      <stop offset="0.05" stop-color="#FFD87C"/>
      <stop offset="1" stop-color="#F96F00"/>
    </radialGradient>
    <radialGradient id="paint29_radial_1867_14903" cx="0" cy="0" r="1" gradientUnits="userSpaceOnUse" gradientTransform="translate(25.5424 7.18878) scale(11.924 11.8906)">
      <stop offset="0.05" stop-color="#FFD87C"/>
      <stop offset="1" stop-color="#F96F00"/>
    </radialGradient>
    <radialGradient id="paint30_radial_1867_14903" cx="0" cy="0" r="1" gradientUnits="userSpaceOnUse" gradientTransform="translate(18.0472 2.54597) rotate(102.173) scale(5.52051 5.53461)">
      <stop stop-color="#FFD87C"/>
      <stop offset="0.05" stop-color="#FFD87C"/>
      <stop offset="1" stop-color="#F96F00"/>
    </radialGradient>
    <radialGradient id="paint31_radial_1867_14903" cx="0" cy="0" r="1" gradientUnits="userSpaceOnUse" gradientTransform="translate(26.8757 8.44392) scale(4.11184 4.10035)">
      <stop stop-color="#FFD87C"/>
      <stop offset="1" stop-color="#F96F00"/>
    </radialGradient>
    <radialGradient id="paint32_radial_1867_14903" cx="0" cy="0" r="1" gradientUnits="userSpaceOnUse" gradientTransform="translate(22.4436 -4.60925) scale(7.35856 7.33799)">
      <stop offset="0.05" stop-color="#FFD87C"/>
      <stop offset="1" stop-color="#F96F00"/>
    </radialGradient>
    <radialGradient id="paint33_radial_1867_14903" cx="0" cy="0" r="1" gradientUnits="userSpaceOnUse" gradientTransform="translate(23.2987 -0.877451) scale(9.21801 9.19225)">
      <stop stop-color="#FFD87C"/>
      <stop offset="1" stop-color="#F96F00"/>
    </radialGradient>
    <linearGradient id="paint34_linear_1867_14903" x1="23.6092" y1="2.54401" x2="18.4004" y2="6.66383" gradientUnits="userSpaceOnUse">
      <stop offset="0.05" stop-color="#FFD87C"/>
      <stop offset="1" stop-color="#F96F00"/>
    </linearGradient>
    <clipPath id="clip0_1867_14903">
      <rect width="48" height="48" fill="white"/>
    </clipPath>
  </defs>
</svg>