<svg xmlns="http://www.w3.org/2000/svg" width="21" height="22" viewBox="0 0 21 22" fill="none">
  <path
    d="M10.5 5.30227V18.4273M19.25 4.58477V15.146C19.25 15.986 18.5675 16.7735 17.7275 16.8785L17.4388 16.9135C15.5313 17.1673 12.5913 18.1385 10.9113 19.066C10.6838 19.1973 10.3075 19.1973 10.0713 19.066L10.0363 19.0485C8.35625 18.1298 5.425 17.1673 3.52625 16.9135L3.2725 16.8785C2.4325 16.7735 1.75 15.986 1.75 15.146V4.57602C1.75 3.53477 2.59875 2.74727 3.64 2.83477C5.4775 2.98352 8.26 3.91102 9.8175 4.88227L10.0363 5.01352C10.29 5.17102 10.71 5.17102 10.9637 5.01352L11.1125 4.91727C11.6637 4.57602 12.3637 4.23477 13.125 3.92852V7.49852L14.875 6.33477L16.625 7.49852V2.93102C16.8613 2.88727 17.0888 2.86102 17.2988 2.84352H17.3512C18.3925 2.75602 19.25 3.53477 19.25 4.58477Z"
    stroke="currentColor" stroke-width="1.5" stroke-linecap="round" stroke-linejoin="round" />
  <path
    d="M16.625 2.93359V7.50109L14.875 6.33734L13.125 7.50109V3.93109C14.2712 3.47609 15.5487 3.10859 16.625 2.93359Z"
    stroke="currentColor" stroke-width="1.5" stroke-linecap="round" stroke-linejoin="round" />
</svg>