<svg xmlns="http://www.w3.org/2000/svg" width="22" height="22" viewBox="0 0 22 22" fill="none">
  <path
    d="M21.0824 16.4171C21.1008 17.1046 20.9174 17.7555 20.5874 18.3146C20.4041 18.6446 20.1566 18.9471 19.8816 19.1946C19.2491 19.7813 18.4149 20.1388 17.4891 20.1663C16.1508 20.1938 14.9683 19.5063 14.3174 18.4521C13.9691 17.9113 13.7583 17.2605 13.7491 16.573C13.7216 15.418 14.2349 14.373 15.0599 13.6855C15.6833 13.1721 16.4716 12.8513 17.3333 12.833C17.8148 12.822 18.2938 12.9061 18.7429 13.0803C19.1919 13.2545 19.6023 13.5155 19.9504 13.8483C20.2986 14.1812 20.5778 14.5793 20.772 15.0201C20.9662 15.4609 21.0717 15.9356 21.0824 16.4171Z"
    stroke="currentColor" stroke-width="1.2" stroke-miterlimit="10" stroke-linecap="round" stroke-linejoin="round" />
  <path
    d="M15.9871 16.5278L16.9129 17.4078L18.8288 15.5561M2.90625 6.82031L11.0004 11.5045L19.0396 6.84781M11.0004 19.8095V11.4953"
    stroke="currentColor" stroke-width="1.2" stroke-linecap="round" stroke-linejoin="round" />
  <path
    d="M19.8097 8.40453V13.5929C19.8097 13.6387 19.8097 13.6754 19.8006 13.7212C19.1589 13.162 18.3339 12.832 17.4172 12.832C16.5556 12.832 15.7581 13.1345 15.1256 13.6387C14.6953 13.9806 14.3481 14.4156 14.1099 14.9109C13.8718 15.4063 13.7489 15.9491 13.7506 16.4987C13.7506 17.1862 13.9431 17.837 14.2822 18.387C14.3647 18.5337 14.4656 18.6712 14.5756 18.7995L12.8981 19.7254C11.8531 20.312 10.1481 20.312 9.10307 19.7254L4.20807 17.012C3.09891 16.3979 2.19141 14.8579 2.19141 13.5929V8.40453C2.19141 7.13953 3.09891 5.59953 4.20807 4.98536L9.10307 2.27203C10.1481 1.68536 11.8531 1.68536 12.8981 2.27203L17.7931 4.98536C18.9022 5.59953 19.8097 7.13953 19.8097 8.40453Z"
    stroke="currentColor" stroke-width="1.2" stroke-linecap="round" stroke-linejoin="round" />
</svg>