<svg xmlns="http://www.w3.org/2000/svg" width="32" height="32" viewBox="0 0 32 32" fill="none">
  <path
    d="M28.1213 9.30604C26.988 8.05271 25.108 7.42604 22.348 7.42604H22.028V7.37271C22.028 5.13271 22.028 2.35938 17.0147 2.35938H14.988C9.97469 2.35938 9.97468 5.13271 9.97468 7.37271V7.42604H9.65469C6.89469 7.42604 5.00135 8.05271 3.88135 9.30604C2.56135 10.786 2.60135 12.746 2.73469 14.0927L2.74802 14.186L2.84135 15.2594C2.84977 15.3608 2.88131 15.459 2.93354 15.5463C2.98577 15.6337 3.05732 15.7079 3.14269 15.7634C3.52002 16.0074 3.92268 16.2647 4.30802 16.4794C4.49468 16.5994 4.69468 16.706 4.89469 16.8127C6.40135 17.6394 8.01468 18.2927 9.66802 18.746C9.69078 20.4113 10.3679 22.0007 11.553 23.1708C12.738 24.341 14.3359 24.9978 16.0014 24.9994C19.4947 24.9994 22.3347 22.1594 22.3347 18.666V18.6127C24.0147 18.106 25.628 17.3994 27.1347 16.5194C27.2147 16.4794 27.268 16.4394 27.3347 16.3994C27.8613 16.1127 28.4067 15.738 28.9054 15.386C28.9818 15.3315 29.0458 15.2613 29.0932 15.1802C29.1405 15.099 29.1701 15.0088 29.18 14.9154L29.268 14.106C29.2813 14.026 29.2814 13.9594 29.2947 13.866C29.4014 12.5327 29.3747 10.6927 28.1213 9.30604ZM11.8814 7.37271C11.8814 5.10604 11.8814 4.25271 14.988 4.25271H17.0147C20.1214 4.25271 20.1214 5.10604 20.1214 7.37271V7.42604H11.8814V7.37271ZM16.0014 22.9994C14.9477 22.9981 13.9306 22.6129 13.1404 21.9159C12.3502 21.219 11.8409 20.258 11.708 19.2127C11.6814 19.0394 11.668 18.8527 11.668 18.666C11.668 16.2794 13.6147 14.3327 16.0014 14.3327C18.388 14.3327 20.3347 16.2794 20.3347 18.666C20.3347 18.826 20.3214 18.9727 20.308 19.1194V19.1327C20.1907 20.1938 19.6868 21.1745 18.8924 21.8877C18.0981 22.6009 17.0689 22.9967 16.0014 22.9994Z"
    fill="currentColor" />
  <path
    d="M15.2388 21.3725C14.9855 21.3725 14.7321 21.2792 14.5321 21.0792L13.2121 19.7725C13.0262 19.5843 12.9219 19.3304 12.9219 19.0658C12.9219 18.8013 13.0262 18.5473 13.2121 18.3592C13.5988 17.9725 14.2388 17.9725 14.6255 18.3592L15.2655 18.9992L17.4121 17.0258C17.8121 16.6525 18.4521 16.6792 18.8255 17.0792C19.1988 17.4792 19.1721 18.1192 18.7721 18.4925L15.9321 21.1192C15.7188 21.2792 15.4788 21.3725 15.2388 21.3725Z"
    fill="currentColor" />
  <path
    d="M27.8369 18.3096C28.1675 18.1256 28.5969 18.3923 28.5635 18.7696L28.0902 23.9496C27.8102 26.6163 26.7169 29.3363 20.8502 29.3363H10.6902C4.82355 29.3363 3.73022 26.6163 3.46355 23.963L3.00222 19.0256C2.96622 18.6416 3.37555 18.383 3.71688 18.563C4.75688 19.1363 5.83688 19.643 6.94355 20.043C7.14541 20.1181 7.32605 20.2411 7.47001 20.4013C7.61398 20.5615 7.71699 20.7542 7.77022 20.963C8.77022 24.4296 11.9969 27.003 15.7836 27.003C19.6369 27.003 22.8902 24.3763 23.8369 20.7763C23.8869 20.5666 23.987 20.3721 24.1287 20.2095C24.2703 20.047 24.4493 19.9212 24.6502 19.843C25.7702 19.403 26.8369 18.883 27.8369 18.3096Z"
    fill="currentColor" />
</svg>