<svg xmlns="http://www.w3.org/2000/svg" width="22" height="24" viewBox="0 0 22 24" fill="none">
  <path
    d="M14.2594 8.53763C13.7927 8.53763 13.4056 8.15059 13.4056 7.68387V3.69964C13.4056 2.47022 12.6429 1.70753 11.4135 1.70753H7.99847C6.76905 1.70753 6.00635 2.47022 6.00635 3.69964V7.68387C6.00635 8.15059 5.61931 8.53763 5.15259 8.53763C4.68587 8.53763 4.29883 8.15059 4.29883 7.68387V3.69964C4.29883 1.52539 5.82422 0 7.99847 0H11.4135C13.5878 0 15.1132 1.52539 15.1132 3.69964V7.68387C15.1132 8.15059 14.7261 8.53763 14.2594 8.53763Z"
    fill="currentColor" />
  <path
    d="M5.15242 16.8927C4.92598 16.8927 4.70883 16.8162 4.54871 16.6801C4.3886 16.544 4.29865 16.3594 4.29865 16.1669C4.29865 15.9744 4.3886 15.7898 4.54871 15.6537C4.70883 15.5175 4.92598 15.4411 5.15242 15.4411H18.5394C18.8809 15.4411 19.1427 15.1895 19.1086 14.8991L18.3345 9.39269C18.0613 7.51527 17.6743 5.97656 13.8039 5.97656H5.60776C1.73736 5.97656 1.35032 7.51527 1.0885 9.39269L0.0639883 16.6508C-0.266133 19.0314 0.599013 20.9766 4.59462 20.9766H14.817C18.4142 20.9766 19.4729 19.3991 19.4159 17.3475C19.41 17.2235 19.3471 17.1063 19.2407 17.0213C19.1342 16.9362 18.9928 16.8901 18.8468 16.8927H5.15242Z"
    fill="currentColor" />
</svg>