<svg xmlns="http://www.w3.org/2000/svg" width="32" height="32" viewBox="0 0 32 32" fill="none">
  <path
    d="M30.6673 25.3333C30.6673 26.0406 30.3864 26.7189 29.8863 27.219C29.3862 27.719 28.7079 28 28.0007 28H4.00065C3.29341 28 2.61513 27.719 2.11503 27.219C1.61494 26.7189 1.33398 26.0406 1.33398 25.3333V10.6667C1.33398 9.95942 1.61494 9.28115 2.11503 8.78105C2.61513 8.28095 3.29341 8 4.00065 8H9.33398L12.0007 4H20.0007L22.6673 8H28.0007C28.7079 8 29.3862 8.28095 29.8863 8.78105C30.3864 9.28115 30.6673 9.95942 30.6673 10.6667V25.3333Z"
    stroke="#808080" stroke-width="2" stroke-linecap="round" stroke-linejoin="round" />
  <path
    d="M15.9993 12C14.5849 12 13.2283 12.5619 12.2281 13.5621C11.2279 14.5623 10.666 15.9188 10.666 17.3333C10.666 18.7478 11.2279 20.1044 12.2281 21.1046C13.2283 22.1048 14.5849 22.6667 15.9993 22.6667C17.4138 22.6667 18.7704 22.1048 19.7706 21.1046C20.7708 20.1044 21.3327 18.7478 21.3327 17.3333C21.3327 15.9188 20.7708 14.5623 19.7706 13.5621C18.7704 12.5619 17.4138 12 15.9993 12Z"
    stroke="#808080" stroke-width="2" stroke-linecap="round" stroke-linejoin="round" />
</svg>