<svg xmlns="http://www.w3.org/2000/svg" width="30" height="38" viewBox="0 0 30 38" fill="none">
  <path
    d="M9.16602 24.0026H20.8327M9.16602 29.0026H14.9993M11.666 16.5026L18.3327 9.83594M18.3327 16.5026L11.666 9.83594M26.666 2.33594H3.33268C2.89065 2.33594 2.46673 2.51153 2.15417 2.82409C1.84161 3.13665 1.66602 3.56058 1.66602 4.0026V34.0026C1.66602 34.4446 1.84161 34.8686 2.15417 35.1811C2.46673 35.4937 2.89065 35.6693 3.33268 35.6693H26.666C27.108 35.6693 27.532 35.4937 27.8445 35.1811C28.1571 34.8686 28.3327 34.4446 28.3327 34.0026V4.0026C28.3327 3.56058 28.1571 3.13665 27.8445 2.82409C27.532 2.51153 27.108 2.33594 26.666 2.33594Z"
    stroke="#0057FF" stroke-width="3" stroke-linecap="round" stroke-linejoin="round" />
</svg>