<svg xmlns="http://www.w3.org/2000/svg" width="16" height="16" viewBox="0 0 16 16" fill="none">
  <path d="M0.666016 2H10.666V10.6667H0.666016V2Z" stroke="#0057FF" stroke-width="1.33333" stroke-linecap="round"
    stroke-linejoin="round" />
  <path d="M10.666 5.33203H13.3327L15.3327 7.33203V10.6654H10.666V5.33203Z" stroke="#0057FF" stroke-width="1.33333"
    stroke-linecap="round" stroke-linejoin="round" />
  <path
    d="M3.66667 10.668C3.22464 10.668 2.80072 10.8436 2.48816 11.1561C2.17559 11.4687 2 11.8926 2 12.3346C2 12.7767 2.17559 13.2006 2.48816 13.5131C2.80072 13.8257 3.22464 14.0013 3.66667 14.0013C4.10869 14.0013 4.53262 13.8257 4.84518 13.5131C5.15774 13.2006 5.33333 12.7767 5.33333 12.3346C5.33333 11.8926 5.15774 11.4687 4.84518 11.1561C4.53262 10.8436 4.10869 10.668 3.66667 10.668Z"
    stroke="#0057FF" stroke-width="1.33333" stroke-linecap="round" stroke-linejoin="round" />
  <path
    d="M12.3327 10.668C11.8907 10.668 11.4667 10.8436 11.1542 11.1561C10.8416 11.4687 10.666 11.8926 10.666 12.3346C10.666 12.7767 10.8416 13.2006 11.1542 13.5131C11.4667 13.8257 11.8907 14.0013 12.3327 14.0013C12.7747 14.0013 13.1986 13.8257 13.5112 13.5131C13.8238 13.2006 13.9993 12.7767 13.9993 12.3346C13.9993 11.8926 13.8238 11.4687 13.5112 11.1561C13.1986 10.8436 12.7747 10.668 12.3327 10.668Z"
    stroke="#0057FF" stroke-width="1.33333" stroke-linecap="round" stroke-linejoin="round" />
</svg>