<svg width="22" height="17" viewBox="0 0 22 17" fill="none" xmlns="http://www.w3.org/2000/svg">
  <path
    d="M1.6407 0C1.14102 0 0.726649 0.416656 0.751023 0.916644C0.775398 1.38092 1.18977 1.73805 1.66507 1.73805H3.61505L5.94283 10.845C6.13783 11.6188 6.85688 12.1664 7.67343 12.1664H17.862C18.6664 12.1664 19.3489 11.6426 19.5561 10.8926L21.7376 3.07135C21.7986 2.84517 21.6279 2.60708 21.372 2.60708H6.97875L7.4175 4.34513H19.5561L17.862 10.4283H7.67343L5.33346 1.3214C5.13846 0.547605 4.41941 0 3.60286 0H1.6407ZM16.753 12.7021C15.2783 12.4878 13.9987 13.7258 14.2302 15.1663C14.3765 16.0948 15.1321 16.8329 16.0827 16.9758C17.5574 17.19 18.837 15.952 18.6055 14.5115C18.4592 13.583 17.7036 12.8449 16.753 12.7021ZM9.03841 12.7021C7.56375 12.4878 6.28407 13.7258 6.51563 15.1663C6.66188 16.0948 7.4175 16.8329 8.36811 16.9758C9.84278 17.19 11.1224 15.952 10.8909 14.5115C10.7446 13.583 9.98903 12.8449 9.03841 12.7021ZM8.69717 14.1187C9.11154 14.1187 9.4406 14.4401 9.4406 14.8449C9.4406 15.2496 9.11154 15.571 8.69717 15.571C8.2828 15.571 7.95374 15.2496 7.95374 14.8449C7.95374 14.4401 8.2828 14.1187 8.69717 14.1187ZM16.4118 14.1187C16.8261 14.1187 17.1552 14.4401 17.1552 14.8449C17.1552 15.2496 16.8261 15.571 16.4118 15.571C15.9974 15.571 15.6683 15.2496 15.6683 14.8449C15.6683 14.4401 15.9974 14.1187 16.4118 14.1187Z"
    fill="currentColor" />
</svg>