<svg xmlns="http://www.w3.org/2000/svg" width="18" height="16" viewBox="0 0 18 16" fill="none">
  <g clip-path="url(#clip0_1861_22756)">
    <path
      d="M17.9732 15.28L17.1506 12.8421C17.1049 12.7021 17.1187 12.5531 17.1872 12.4222C17.8041 11.2349 18.06 9.8353 17.795 8.359C17.3837 6.09715 15.7066 4.21454 13.5315 3.49219C14.0935 4.83305 14.2626 6.32289 13.9839 7.79919C13.4126 10.8014 10.9816 13.1852 7.92902 13.7224C7.53602 13.7947 7.13389 13.8263 6.73633 13.8353C7.66397 14.824 8.90236 15.5238 10.2824 15.7721C11.7676 16.0339 13.1796 15.7902 14.3768 15.1897C14.5094 15.122 14.6602 15.1084 14.7973 15.1536L17.274 15.9707C17.7081 16.1152 18.1194 15.7044 17.9778 15.2755L17.9732 15.28Z"
      fill="currentColor" />
    <path
      d="M5.3059 0.113779C2.73316 0.58782 0.672232 2.65103 0.210694 5.1973C-0.0589178 6.6736 0.196985 8.07315 0.818462 9.26051C0.887008 9.39143 0.900717 9.54042 0.85502 9.68037L0.0279062 12.1183C-0.118324 12.5472 0.297518 12.9535 0.731638 12.8136L3.20841 11.9964C3.35007 11.9513 3.50087 11.9648 3.62882 12.0325C4.82608 12.633 6.23811 12.8768 7.72326 12.6149C10.2914 12.1589 12.3752 10.1273 12.8596 7.59459C13.705 3.12507 9.82532 -0.716921 5.3059 0.113779ZM6.94184 8.335H3.74306C3.42775 8.335 3.17185 8.08218 3.17185 7.77066C3.17185 7.45915 3.42775 7.20633 3.74306 7.20633H6.94184C7.25715 7.20633 7.51306 7.45915 7.51306 7.77066C7.51306 8.08218 7.25715 8.335 6.94184 8.335ZM9.22669 6.07766H3.74306C3.42775 6.07766 3.17185 5.82484 3.17185 5.51333C3.17185 5.20182 3.42775 4.94899 3.74306 4.94899H9.22669C9.542 4.94899 9.7979 5.20182 9.7979 5.51333C9.7979 5.82484 9.542 6.07766 9.22669 6.07766Z"
      fill="currentColor" />
  </g>
  <defs>
    <clipPath id="clip0_1861_22756">
      <rect width="18" height="16" fill="white" />
    </clipPath>
  </defs>
</svg>