<svg xmlns="http://www.w3.org/2000/svg" width="120" height="120" viewBox="0 0 120 120" fill="none">
  <g clip-path="url(#clip0_1867_15442)">
    <path
      d="M60 7.77202C31.2047 7.77202 7.77202 31.2047 7.77202 60C7.77202 88.7953 31.2047 112.228 60 112.228C88.7953 112.228 112.228 88.7953 112.228 60C112.228 31.2047 88.8051 7.77202 60 7.77202ZM60 0C93.138 0 120 26.862 120 60C120 93.138 93.138 120 60 120C26.862 120 0 93.138 0 60C0 26.862 26.862 0 60 0Z"
      fill="currentColor" />
    <path
      d="M49.2547 86.7373C47.8849 86.7373 46.515 86.2127 45.4755 85.1731L28.0273 67.725L35.5856 60.1667L49.2547 73.8357L85.2974 37.793L92.8557 45.3513L53.0338 85.1731C51.9943 86.2127 50.6245 86.7373 49.2547 86.7373Z"
      fill="currentColor" />
  </g>
  <defs>
    <clipPath id="clip0_1867_15442">
      <rect width="120" height="120" fill="white" />
    </clipPath>
  </defs>
</svg>