<svg xmlns="http://www.w3.org/2000/svg" width="12" height="12" viewBox="0 0 12 12" fill="none">
  <path
    d="M6 0C2.694 0 0 2.694 0 6C0 9.306 2.694 12 6 12C9.306 12 12 9.306 12 6C12 2.694 9.306 0 6 0ZM7.674 6.318L5.556 8.436C5.466 8.526 5.352 8.568 5.238 8.568C5.124 8.568 5.01 8.526 4.92 8.436C4.83631 8.35132 4.78938 8.23706 4.78938 8.118C4.78938 7.99894 4.83631 7.88468 4.92 7.8L6.72 6L4.92 4.2C4.83631 4.11532 4.78938 4.00106 4.78938 3.882C4.78938 3.76294 4.83631 3.64868 4.92 3.564C5.094 3.39 5.382 3.39 5.556 3.564L7.674 5.682C7.854 5.856 7.854 6.144 7.674 6.318Z"
    fill="currentColor" />
</svg>