<svg xmlns="http://www.w3.org/2000/svg" width="17" height="16" viewBox="0 0 17 16" fill="none">
  <path
    d="M14.5007 3.33594H2.50065C2.32384 3.33594 2.15427 3.40618 2.02925 3.5312C1.90422 3.65622 1.83398 3.82579 1.83398 4.0026V6.66927H2.42932C3.09332 6.66927 3.70932 7.12327 3.81598 7.7786C3.84848 7.96996 3.83882 8.16611 3.78769 8.35335C3.73656 8.54059 3.64519 8.71442 3.51995 8.8627C3.3947 9.01099 3.23861 9.13016 3.06256 9.21189C2.88651 9.29363 2.69475 9.33596 2.50065 9.33594H1.83398V12.0026C1.83398 12.1794 1.90422 12.349 2.02925 12.474C2.15427 12.599 2.32384 12.6693 2.50065 12.6693H14.5007C14.6775 12.6693 14.847 12.599 14.9721 12.474C15.0971 12.349 15.1673 12.1794 15.1673 12.0026V9.33594H14.5007C14.3066 9.33596 14.1148 9.29363 13.9387 9.21189C13.7627 9.13016 13.6066 9.01099 13.4814 8.8627C13.3561 8.71442 13.2647 8.54059 13.2136 8.35335C13.1625 8.16611 13.1528 7.96996 13.1853 7.7786C13.292 7.12327 13.908 6.66927 14.572 6.66927H15.1673V4.0026C15.1673 3.82579 15.0971 3.65622 14.9721 3.5312C14.847 3.40618 14.6775 3.33594 14.5007 3.33594ZM7.83398 11.3359H6.50065V10.0026H7.83398V11.3359ZM7.83398 8.66927H6.50065V7.33594H7.83398V8.66927ZM7.83398 6.0026H6.50065V4.66927H7.83398V6.0026Z"
    fill="currentColor" />
</svg>