<svg xmlns="http://www.w3.org/2000/svg" width="20" height="19" viewBox="0 0 20 19" fill="none">
  <g clip-path="url(#clip0_1861_21848)">
    <path d="M5.70898 6.97656H6.8V8.08984H5.70898V6.97656Z" fill="currentColor" />
    <path d="M9.05469 10.9062H10.1457V12.0195H9.05469V10.9062Z" fill="currentColor" />
    <path d="M5.94922 10.7266L9.12967 7.48121L9.90101 8.2683L6.72057 11.5137L5.94922 10.7266Z" fill="currentColor" />
    <path d="M14 7.70312H15.091V8.81641H14V7.70312Z" fill="currentColor" />
    <path d="M14 10.1797H15.091V11.293H14V10.1797Z" fill="currentColor" />
    <path
      d="M18.7639 8.38477H19.3095V4.11719H0.689453V8.38477H1.23496C1.83655 8.38477 2.32598 8.88418 2.32598 9.49805C2.32598 10.1119 1.83655 10.6113 1.23496 10.6113H0.689453V14.8789H19.3095V10.6113H18.7639C18.1624 10.6113 17.6729 10.1119 17.6729 9.49805C17.6729 8.88418 18.1624 8.38477 18.7639 8.38477ZM18.2184 11.6542V13.7656H15.0909V12.6523H13.9998V13.7656H1.78047V11.6542C2.72056 11.4064 3.41699 10.5337 3.41699 9.49805C3.41699 8.46244 2.72056 7.5897 1.78047 7.34192V5.23047H13.9998V6.34375H15.0909V5.23047H18.2184V7.34192C17.2783 7.5897 16.5819 8.46244 16.5819 9.49805C16.5819 10.5337 17.2783 11.4064 18.2184 11.6542Z"
      fill="currentColor" />
  </g>
  <defs>
    <clipPath id="clip0_1861_21848">
      <rect width="18.62" height="19" fill="currentColor" transform="translate(0.689453)" />
    </clipPath>
  </defs>
</svg>