<svg xmlns="http://www.w3.org/2000/svg" width="18" height="16" viewBox="0 0 18 16" fill="none">
  <g clip-path="url(#clip0_1861_22748)">
    <path
      d="M12.4294 10.1561C12.328 9.73934 12.3322 9.28542 12.4927 8.81087C12.7081 8.17125 13.2065 7.64718 13.8273 7.3542C14.3637 7.10248 14.8747 7.06121 15.3435 7.13962C15.4702 7.16025 15.58 7.06121 15.58 6.93329V1.32531C15.58 0.871389 15.1999 0.5 14.7353 0.5H3.33224C2.86767 0.5 2.48756 0.871389 2.48756 1.32531V6.92916C2.48756 7.05296 2.59737 7.15199 2.72407 7.13136C3.26889 7.05296 3.86861 7.13549 4.51056 7.5564C4.96246 7.85351 5.32145 8.28267 5.4946 8.78611C5.66354 9.26891 5.67199 9.73521 5.5664 10.1561C5.53684 10.284 5.6382 10.4037 5.77335 10.4037H6.32238C6.41952 10.4037 6.50399 10.3377 6.52511 10.2428C6.7954 9.15337 7.80056 8.34457 9 8.34457C10.1994 8.34457 11.2004 9.1575 11.4749 10.2428C11.5002 10.3377 11.5805 10.4037 11.6776 10.4037H12.2267C12.3618 10.4037 12.4632 10.284 12.4336 10.1561H12.4294ZM11.0568 5.55915L8.50164 7.08597C8.08775 7.33356 7.55138 7.04058 7.55138 6.56602V3.51238C7.55138 3.03783 8.08353 2.74484 8.50164 2.99243L11.0568 4.51926C11.4538 4.7586 11.4538 5.31981 11.0568 5.55915ZM3.08728 11.2579C4.02909 11.2579 4.79352 10.511 4.79352 9.59491C4.79352 8.67882 4.02909 7.93191 3.08728 7.93191C2.14547 7.93191 1.38527 8.67882 1.38527 9.59491C1.38527 10.511 2.14969 11.2579 3.08728 11.2579ZM13.2107 9.59491C13.2107 10.5151 13.9751 11.2579 14.9127 11.2579C15.8503 11.2579 16.619 10.511 16.619 9.59491C16.619 8.67882 15.8545 7.93191 14.9127 7.93191C13.9709 7.93191 13.2107 8.67882 13.2107 9.59491ZM16.6105 12.0997H13.2149C12.725 12.0997 12.2985 12.3473 12.0493 12.7228C11.9859 12.8177 12.007 12.9374 12.0957 13.0076C12.4505 13.2882 12.7166 13.6678 12.8433 14.1094C12.8686 14.2001 12.9489 14.2662 13.046 14.2662H17.5734C17.8057 14.2662 17.9958 14.0805 17.9958 13.8535V13.4615C17.9958 12.7105 17.3749 12.1039 16.6063 12.1039L16.6105 12.0997ZM4.78508 12.0997H1.38949C0.620835 12.0997 0 12.7063 0 13.4574V13.8494C0 14.0763 0.190052 14.262 0.422337 14.262H4.94979C5.04693 14.262 5.12717 14.196 5.15251 14.1052C5.27921 13.6637 5.54528 13.284 5.90005 13.0034C5.98874 12.9333 6.00985 12.8136 5.9465 12.7187C5.70155 12.3473 5.27076 12.0956 4.78085 12.0956L4.78508 12.0997Z"
      fill="currentColor" />
    <path
      d="M8.99939 12.4979C9.9412 12.4979 10.7056 11.751 10.7056 10.8349C10.7056 9.91878 9.9412 9.17188 8.99939 9.17188C8.05758 9.17188 7.29737 9.91878 7.29737 10.8349C7.29737 11.751 8.0618 12.4979 8.99939 12.4979ZM10.6972 13.3356H7.3016C6.53295 13.3356 5.91211 13.9422 5.91211 14.6932V15.0852C5.91211 15.3122 6.10216 15.4979 6.33445 15.4979H11.6643C11.8966 15.4979 12.0867 15.3122 12.0867 15.0852V14.6932C12.0867 13.9422 11.4658 13.3356 10.6972 13.3356Z"
      fill="currentColor" />
  </g>
  <defs>
    <clipPath id="clip0_1861_22748">
      <rect width="18" height="15" fill="white" transform="translate(0 0.5)" />
    </clipPath>
  </defs>
</svg>