<svg width="25" height="24" viewBox="0 0 25 24" fill="none" xmlns="http://www.w3.org/2000/svg">
  <g id="Iconsax/Bold/book1">
    <path id="Vector"
      d="M22.5003 4.84969V16.7397C22.5003 17.7097 21.7103 18.5997 20.7403 18.7197L20.4303 18.7597C18.7903 18.9797 16.4803 19.6597 14.6203 20.4397C13.9703 20.7097 13.2503 20.2197 13.2503 19.5097V5.59969C13.2503 5.22969 13.4603 4.88969 13.7903 4.70969C15.6203 3.71969 18.3903 2.83969 20.2703 2.67969H20.3303C21.5303 2.67969 22.5003 3.64969 22.5003 4.84969ZM11.2083 4.70969C9.37828 3.71969 6.60828 2.83969 4.72828 2.67969H4.65828C3.45828 2.67969 2.48828 3.64969 2.48828 4.84969V16.7397C2.48828 17.7097 3.27828 18.5997 4.24828 18.7197L4.55828 18.7597C6.19828 18.9797 8.50828 19.6597 10.3683 20.4397C11.0183 20.7097 11.7383 20.2197 11.7383 19.5097V5.59969C11.7396 5.41709 11.6909 5.23761 11.5975 5.08071C11.5041 4.92382 11.3695 4.79551 11.2083 4.70969ZM5.49828 7.73969H7.74828C7.94719 7.73969 8.13796 7.81871 8.27861 7.95936C8.41926 8.10001 8.49828 8.29077 8.49828 8.48969C8.49828 8.6886 8.41926 8.87937 8.27861 9.02002C8.13796 9.16067 7.94719 9.23969 7.74828 9.23969H5.49828C5.29937 9.23969 5.1086 9.16067 4.96795 9.02002C4.8273 8.87937 4.74828 8.6886 4.74828 8.48969C4.74828 8.29077 4.8273 8.10001 4.96795 7.95936C5.1086 7.81871 5.29937 7.73969 5.49828 7.73969ZM8.49828 12.2397H5.49828C5.29937 12.2397 5.1086 12.1607 4.96795 12.02C4.8273 11.8794 4.74828 11.6886 4.74828 11.4897C4.74828 11.2908 4.8273 11.1 4.96795 10.9594C5.1086 10.8187 5.29937 10.7397 5.49828 10.7397H8.49828C8.69719 10.7397 8.88796 10.8187 9.02861 10.9594C9.16926 11.1 9.24828 11.2908 9.24828 11.4897C9.24828 11.6886 9.16926 11.8794 9.02861 12.02C8.88796 12.1607 8.69719 12.2397 8.49828 12.2397Z"
      fill="currentColor" />
  </g>
</svg>