<svg xmlns="http://www.w3.org/2000/svg" width="16" height="16" viewBox="0 0 16 16" fill="none">
  <path d="M2 4H14" stroke="currentColor" stroke-width="1.33333" stroke-linecap="round" stroke-linejoin="round" />
  <path
    d="M12.6673 3.9987V13.332C12.6673 13.6857 12.5268 14.0248 12.2768 14.2748C12.0267 14.5249 11.6876 14.6654 11.334 14.6654H4.66732C4.3137 14.6654 3.97456 14.5249 3.72451 14.2748C3.47446 14.0248 3.33398 13.6857 3.33398 13.332V3.9987M5.33398 3.9987V2.66536C5.33398 2.31174 5.47446 1.9726 5.72451 1.72256C5.97456 1.47251 6.3137 1.33203 6.66732 1.33203H9.33398C9.68761 1.33203 10.0267 1.47251 10.2768 1.72256C10.5268 1.9726 10.6673 2.31174 10.6673 2.66536V3.9987"
    stroke="currentColor" stroke-width="1.33333" stroke-linecap="round" stroke-linejoin="round" />
  <path d="M6.66602 7.33203V11.332" stroke="currentColor" stroke-width="1.33333" stroke-linecap="round"
    stroke-linejoin="round" />
  <path d="M9.33398 7.33203V11.332" stroke="currentColor" stroke-width="1.33333" stroke-linecap="round"
    stroke-linejoin="round" />
</svg>