<svg xmlns="http://www.w3.org/2000/svg" width="16" height="16" viewBox="0 0 16 16" fill="none">
  <path
    d="M6.85303 13.5H11.333C13.173 13.5 14.6664 12.0067 14.6664 10.1667V5.83333C14.6664 3.99333 13.173 2.5 11.333 2.5H6.85303C5.91303 2.5 5.01969 2.89333 4.38636 3.59333L2.03303 6.18C1.57951 6.67765 1.32812 7.3267 1.32812 8C1.32812 8.6733 1.57951 9.32235 2.03303 9.82L4.38636 12.4067C4.69803 12.7515 5.07865 13.027 5.50357 13.2153C5.92849 13.4037 6.38823 13.5007 6.85303 13.5Z"
    stroke="currentColor" stroke-linecap="round" stroke-linejoin="round" />
  <path d="M10.6664 9.6449L7.37305 6.35156M7.37305 9.6449L10.6664 6.35156" stroke="currentColor" stroke-linecap="round" />
</svg>