<svg xmlns="http://www.w3.org/2000/svg" width="20" height="19" viewBox="0 0 20 19" fill="none">
  <path
    d="M15.9439 4.15625H12.9825V3.04297C12.9825 1.36507 11.6448 0 10.0004 0C8.35607 0 7.0183 1.36507 7.0183 3.04297V4.15625H4.05689L2.02734 19H17.9735L15.9439 4.15625ZM8.10932 3.04297C8.10932 1.97893 8.95766 1.11328 10.0004 1.11328C11.0432 1.11328 11.8915 1.97893 11.8915 3.04297V4.15625H8.10932V3.04297ZM5.00629 5.26953H7.0183V6.67969H8.10932V5.26953H11.8915V6.67969H12.9825V5.26953H14.9945L16.7197 17.8867H3.28114L5.00629 5.26953Z"
    fill="currentColor" />
  <path d="M7.01953 14.875L12.535 8.79114L13.3358 9.54706L7.82034 15.6309L7.01953 14.875Z" fill="currentColor" />
  <path
    d="M9.01914 9.99805C9.01914 9.07725 8.285 8.32812 7.38262 8.32812C6.48024 8.32812 5.74609 9.07725 5.74609 9.99805C5.74609 10.9188 6.48024 11.668 7.38262 11.668C8.285 11.668 9.01914 10.9188 9.01914 9.99805ZM6.83711 9.99805C6.83711 9.69112 7.08182 9.44141 7.38262 9.44141C7.68341 9.44141 7.92813 9.69112 7.92813 9.99805C7.92813 10.305 7.68341 10.5547 7.38262 10.5547C7.08182 10.5547 6.83711 10.305 6.83711 9.99805Z"
    fill="currentColor" />
  <path
    d="M12.91 12.75C12.0076 12.75 11.2734 13.4991 11.2734 14.4199C11.2734 15.3407 12.0076 16.0898 12.91 16.0898C13.8123 16.0898 14.5465 15.3407 14.5465 14.4199C14.5465 13.4991 13.8123 12.75 12.91 12.75ZM12.91 14.9766C12.6092 14.9766 12.3645 14.7269 12.3645 14.4199C12.3645 14.113 12.6092 13.8633 12.91 13.8633C13.2108 13.8633 13.4555 14.113 13.4555 14.4199C13.4555 14.7269 13.2108 14.9766 12.91 14.9766Z"
    fill="currentColor" />
</svg>