<svg xmlns="http://www.w3.org/2000/svg" width="51" height="50" viewBox="0 0 51 50" fill="none">
  <circle cx="25.437" cy="24.812" r="24.812" fill="#F2F4F7" />
  <path
    d="M36.7147 25.2646C36.7147 19.2849 31.8672 14.4375 25.8876 14.4375C19.908 14.4375 15.0605 19.2849 15.0605 25.2646C15.0605 30.6686 19.0198 35.1479 24.1959 35.9601V28.3943H21.4468V25.2646H24.1959V22.8792C24.1959 20.1657 25.8123 18.6668 28.2854 18.6668C29.4696 18.6668 30.709 18.8783 30.709 18.8783V21.5428H29.3438C27.9989 21.5428 27.5793 22.3774 27.5793 23.2345V25.2646H30.5822L30.1021 28.3943H27.5793V35.9601C32.7554 35.1479 36.7147 30.6686 36.7147 25.2646Z"
    fill="#475467" />
</svg>