<svg xmlns="http://www.w3.org/2000/svg" width="51" height="50" viewBox="0 0 51 50" fill="none">
  <circle cx="25.189" cy="24.812" r="24.812" fill="#F2F4F7" />
  <path
    d="M35.3616 25.0525C35.3616 24.3471 35.3044 23.638 35.1824 22.9441H25.3955V26.9397H31C30.7674 28.2283 30.0201 29.3683 28.9259 30.0927V32.6853H32.2696C34.2331 30.8781 35.3616 28.2093 35.3616 25.0525Z"
    fill="#475467" />
  <path
    d="M25.3955 35.1901C28.1939 35.1901 30.5539 34.2713 32.2734 32.6852L28.9297 30.0927C27.9995 30.7256 26.7985 31.0839 25.3993 31.0839C22.6923 31.0839 20.3972 29.2577 19.5737 26.8024H16.1233V29.475C17.8847 32.9788 21.4723 35.1901 25.3955 35.1901Z"
    fill="#475467" />
  <path
    d="M19.5699 26.8024C19.1352 25.5137 19.1352 24.1183 19.5699 22.8297V20.1571H16.1233C14.6516 23.0889 14.6516 26.5432 16.1233 29.475L19.5699 26.8024Z"
    fill="#475467" />
  <path
    d="M25.3955 18.5443C26.8747 18.5215 28.3045 19.0781 29.3758 20.0999L32.3382 17.1375C30.4624 15.3761 27.9728 14.4077 25.3955 14.4382C21.4723 14.4382 17.8847 16.6495 16.1233 20.1571L19.5699 22.8297C20.3896 20.3706 22.6885 18.5443 25.3955 18.5443Z"
    fill="#475467" />
</svg>