<svg xmlns="http://www.w3.org/2000/svg" width="15" height="20" viewBox="0 0 15 20" fill="none">
  <g clip-path="url(#clip0_1861_22784)">
    <path
      d="M6.58829 17.6142C6.49712 17.5251 6.34357 17.5205 6.2524 17.6142C6.09405 17.7641 5.87332 17.9843 5.76296 18.0873C5.72457 18.1248 5.70058 18.1764 5.69578 18.2326L5.57582 19.7505C5.56622 19.8957 5.69098 20.0175 5.84453 20.0035L7.33685 19.8348C7.38964 19.8301 7.44242 19.8067 7.48081 19.7692L7.97025 19.2914C8.06622 19.1977 8.06622 19.0524 7.97025 18.9587L6.59309 17.6142H6.58829ZM13.0278 14.0161L11.6507 12.6716C11.5547 12.5779 11.4059 12.5779 11.31 12.6716L7.45202 16.4382C7.35605 16.5319 7.35605 16.6772 7.45202 16.7709L8.82917 18.1154C8.92514 18.2091 9.0739 18.2091 9.16987 18.1154L13.0278 14.3488C13.1238 14.2551 13.1238 14.1098 13.0278 14.0161ZM11.9914 4.4448C11.9914 3.92946 11.5595 3.50781 11.0317 3.50781H10.5086C10.3743 3.50781 10.2687 3.61088 10.2687 3.74206V5.14754C10.2687 5.27872 10.1631 5.38179 10.0288 5.38179H1.91459C1.78023 5.38179 1.67466 5.27872 1.67466 5.14754V3.74206C1.67466 3.61088 1.5691 3.50781 1.43474 3.50781H0.959693C0.431862 3.50781 0 3.92946 0 4.4448V16.6256C0 17.141 0.431862 17.5626 0.959693 17.5626H4.6881C4.75048 17.4549 4.82246 17.3518 4.91363 17.2628C5.08637 17.0941 5.57102 16.621 5.57102 16.621L11.9962 10.3478V4.44012L11.9914 4.4448ZM6.47313 11.1817H3.119C2.78791 11.1817 2.51919 10.9194 2.51919 10.5961C2.51919 10.2729 2.78791 10.0105 3.119 10.0105H6.47793C6.80902 10.0105 7.07773 10.2729 7.07773 10.5961C7.07773 10.9194 6.80902 11.1817 6.47793 11.1817H6.47313ZM8.87236 8.83927H3.119C2.78791 8.83927 2.51919 8.57692 2.51919 8.25366C2.51919 7.93039 2.78791 7.66804 3.119 7.66804H8.87716C9.20825 7.66804 9.47697 7.93039 9.47697 8.25366C9.47697 8.57692 9.20825 8.83927 8.87716 8.83927H8.87236Z"
      fill="currentColor" />
    <path
      d="M7.80693 1.97549C7.45184 1.85836 7.19273 1.5351 7.19752 1.16968C7.20712 0.527841 6.67929 0.0078125 6.0219 0.0078125H5.97392C5.34052 0.0078125 4.7743 0.499731 4.79829 1.12283C4.81269 1.51168 4.56317 1.85836 4.19369 1.98017C3.43073 2.23316 2.87891 2.46272 2.87891 3.29195V3.99469C2.87891 4.12587 2.98447 4.22894 3.11883 4.22894H8.88179C9.01614 4.22894 9.12171 4.12587 9.12171 3.99469V3.29195C9.12171 2.46272 8.56989 2.23316 7.81173 1.98486L7.80693 1.97549ZM14.9279 12.1652L13.5507 10.8206C13.4547 10.727 13.306 10.727 13.21 10.8206L12.4854 11.5281C12.3895 11.6218 12.3895 11.767 12.4854 11.8607L13.8626 13.2053C13.9586 13.299 14.1073 13.299 14.2033 13.2053L14.9279 12.4979C15.0238 12.4042 15.0238 12.2589 14.9279 12.1652Z"
      fill="currentColor" />
  </g>
  <defs>
    <clipPath id="clip0_1861_22784">
      <rect width="15" height="20" fill="white" />
    </clipPath>
  </defs>
</svg>