<svg xmlns="http://www.w3.org/2000/svg" width="17" height="20" viewBox="0 0 17 20" fill="none">
  <g clip-path="url(#clip0_1861_22738)">
    <path
      d="M16.1626 11.7992C16.1074 11.7895 16.0472 11.7847 15.992 11.7847C15.666 11.7847 15.3249 11.9151 15.0791 12.118C14.9787 11.7171 14.5825 11.3789 14.1611 11.3113C14.1059 11.3016 14.0457 11.2968 13.9905 11.2968C13.6846 11.2968 13.3635 11.4127 13.1227 11.6011C12.9923 11.2146 12.5659 10.8958 12.1546 10.8282C12.1044 10.8185 12.0543 10.8185 12.0041 10.8185C11.6279 10.8185 11.1865 11.0069 10.9858 11.2533V8.20014C10.9858 7.77985 10.73 7.36923 10.3086 7.24362C10.1983 7.20981 10.0879 7.19531 9.98258 7.19531C9.43079 7.19531 8.97933 7.6301 8.97933 8.1615V15.891C8.42755 15.891 7.97608 15.4562 7.97608 14.9248V14.0504C7.97608 13.8668 7.82058 13.7171 7.62997 13.7171H7.32899C6.58157 13.7171 5.97461 14.3016 5.97461 15.0214V17.4079C5.97461 17.8233 6.16021 18.2243 6.48627 18.4997L7.83563 19.6398C8.11152 19.8716 8.46266 19.9972 8.82884 19.9972H14.3818C14.7831 19.9972 15.1643 19.8427 15.4453 19.5721L16.5689 18.49C16.8498 18.2195 17.0103 17.8475 17.0103 17.4658V12.804C17.0103 12.3209 16.6692 11.8765 16.1776 11.7992H16.1626Z"
      fill="currentColor" />
    <path
      d="M12.967 5.36047C12.9469 5.22037 12.8165 5.11892 12.671 5.11892H12.059C11.8634 5.06578 11.7079 4.91603 11.6427 4.72279C11.5273 4.37496 11.3768 4.04163 11.1912 3.73245C11.126 3.62134 11.141 3.48124 11.2364 3.38945L11.7279 2.91602C11.8333 2.81458 11.8483 2.65516 11.758 2.53921C11.3818 2.05129 10.9354 1.62134 10.4287 1.25419C10.3084 1.16723 10.1428 1.18173 10.0375 1.28317L9.54588 1.7566C9.45058 1.84839 9.30511 1.86288 9.18973 1.80008C8.79847 1.58752 8.38212 1.41844 7.94069 1.3025C7.81529 1.26868 7.72499 1.1624 7.72499 1.03197V0.360469C7.72499 0.220373 7.61965 0.094769 7.47418 0.0754453C7.16819 0.0319671 6.85217 0.0078125 6.53113 0.0078125C6.21009 0.0078125 5.89407 0.0319671 5.58808 0.0754453C5.44261 0.094769 5.33727 0.220373 5.33727 0.360469V1.04646C5.33727 1.16723 5.25701 1.27351 5.13662 1.31216C4.81558 1.41361 4.18354 1.62617 3.85748 1.80974C3.74211 1.87255 3.60165 1.85322 3.51136 1.76144L3.01977 1.28801C2.91443 1.18656 2.74889 1.17206 2.6285 1.25902C2.12186 1.62134 1.67542 2.05612 1.2992 2.54404C1.20891 2.65999 1.22898 2.81941 1.3293 2.92086L1.82089 3.39429C1.9162 3.48607 1.93125 3.62617 1.86604 3.73728C1.68044 4.04646 1.52995 4.37979 1.41458 4.72762C1.34937 4.92569 1.19386 5.07061 0.99823 5.12375H0.371201C0.22573 5.12375 0.0953084 5.2252 0.0752434 5.3653C0.0300974 5.66482 0 5.974 0 6.28801C0 6.60202 0.0250811 6.91119 0.0752434 7.21071C0.0953084 7.35081 0.22573 7.45226 0.371201 7.45226H0.983181C1.17881 7.5054 1.33432 7.65516 1.39953 7.84839C1.5149 8.19622 1.66539 8.52955 1.85099 8.83873C1.9162 8.94984 1.90115 9.08994 1.80584 9.18173L1.31425 9.65516C1.20891 9.7566 1.19386 9.91603 1.28415 10.032C1.66037 10.5199 2.10682 10.9498 2.61346 11.317C2.73384 11.4039 2.89938 11.3895 3.00472 11.288L3.49631 10.8146C3.59162 10.7228 3.73709 10.7083 3.85246 10.7711C4.24373 10.9837 4.66008 11.1527 5.10151 11.2687C5.22691 11.3025 5.3172 11.4088 5.3172 11.5392V12.2155C5.3172 12.3556 5.42254 12.4812 5.56801 12.5006C5.874 12.544 6.19003 12.5682 6.51107 12.5682C6.8321 12.5682 7.14813 12.544 7.45412 12.5006C7.59959 12.4812 7.70493 12.3556 7.70493 12.2155V11.3218V8.17689C7.70493 8.14791 7.71496 8.11892 7.71496 8.08994C7.45913 8.24936 7.17321 8.3653 6.8622 8.41361C5.35733 8.63583 4.07819 7.40395 4.30894 5.95467C4.45441 5.05129 5.22189 4.31216 6.15993 4.17206C7.56949 3.96433 8.7784 5.02714 8.73827 6.35564C9.09944 6.12858 9.5208 6.00298 9.96725 6.00298C10.203 6.00298 10.4438 6.0368 10.6745 6.10926C11.3467 6.31699 11.8584 6.81941 12.0891 7.45709H12.666C12.8114 7.45709 12.9419 7.35564 12.9619 7.21554C13.0071 6.91602 13.0372 6.60685 13.0372 6.29284C13.0372 5.97883 13.0121 5.66965 12.9619 5.37013L12.967 5.36047Z"
      fill="currentColor" />
  </g>
  <defs>
    <clipPath id="clip0_1861_22738">
      <rect width="17" height="20" fill="white" />
    </clipPath>
  </defs>
</svg>