<svg xmlns="http://www.w3.org/2000/svg" width="17" height="18" viewBox="0 0 17 18" fill="none">
  <path
    d="M12.4073 9.16535H10.3184V7.54883C10.3184 5.96248 8.95572 4.67188 7.28073 4.67188H6.68099V7.96425L4.78321 10.07V9.12791H0.552734V17.8153H4.78321V16.911L5.43276 17.2177C6.24869 17.6031 7.20596 17.8153 8.12821 17.8153H11.9174C13.2283 17.8153 14.3394 16.8863 14.5018 15.6544C14.6462 14.5592 14.8364 13.1167 14.9917 11.9372C15.0841 11.2356 14.8537 10.5292 14.3596 9.99931C13.8655 9.4693 13.1539 9.16535 12.4073 9.16535ZM3.59709 16.6919H1.73885V10.2513H3.59709V16.6919ZM13.8147 11.7982C13.6593 12.9776 13.4692 14.4201 13.3248 15.5153C13.2364 16.1861 12.6314 16.6919 11.9174 16.6919H8.12821C7.38609 16.6919 6.61678 16.5216 5.96205 16.2124L4.78321 15.6556V11.8003L7.8671 8.37851V5.88538C8.60158 6.11818 9.13229 6.77591 9.13229 7.54886V10.2887H12.4073C12.8139 10.2887 13.2015 10.4543 13.4705 10.7429C13.7396 11.0315 13.865 11.4161 13.8147 11.7982Z"
    fill="currentColor" />
  <path d="M2.00391 1L2.81402 0.17994L4.67254 1.82682L3.86242 2.64688L2.00391 1Z" fill="currentColor" />
  <path d="M12.3223 1.82812L14.1808 0.18125L14.9909 1.00134L13.1324 2.64821L12.3223 1.82812Z" fill="currentColor" />
  <path d="M0.228516 4.88281L0.446761 3.77854L3.00625 4.23229L2.78801 5.33656L0.228516 4.88281Z" fill="currentColor" />
  <path d="M13.9941 4.23438L16.5536 3.78063L16.7719 4.8849L14.2124 5.33865L13.9941 4.23438Z" fill="currentColor" />
</svg>