<svg xmlns="http://www.w3.org/2000/svg" width="50" height="50" viewBox="0 0 50 50" fill="none">
  <circle cx="24.812" cy="24.812" r="24.812" fill="#F2F4F7" />
  <path
    d="M24.5719 15.3398C30.9337 15.3398 36.0911 19.4699 36.0911 24.5642C36.0911 26.3437 35.4611 28.0052 34.3714 29.414C34.3174 29.4947 34.2467 29.5828 34.1578 29.6808L34.1511 29.6883C33.7788 30.1338 33.3599 30.5519 32.8986 30.9384C29.7127 33.8832 24.4697 37.3883 23.7773 36.8472C23.1755 36.3767 24.7681 34.0777 22.9312 33.6954C22.8032 33.6804 22.6752 33.6646 22.5488 33.6472H22.5464C17.1504 32.88 13.0527 29.1057 13.0527 24.565C13.0527 19.4708 18.2101 15.3407 24.5719 15.3407V15.3398Z"
    fill="#475467" />
  <path
    d="M17.888 27.5054H20.2112C20.542 27.5054 20.8121 27.2353 20.8121 26.9045V26.8546C20.8121 26.5238 20.542 26.2537 20.2112 26.2537H18.5389V22.4486C18.5389 22.1178 18.2687 21.8477 17.9379 21.8477H17.888C17.5572 21.8477 17.2871 22.1178 17.2871 22.4486V26.9045C17.2871 27.2353 17.5572 27.5054 17.888 27.5054ZM32.2839 24.7127V24.6628C32.2839 24.332 32.0138 24.0619 31.683 24.0619H30.0107V23.111H31.683C32.0138 23.111 32.2839 22.8409 32.2839 22.5101V22.4602C32.2839 22.1294 32.0138 21.8593 31.683 21.8593H29.3598C29.029 21.8593 28.7589 22.1294 28.7589 22.4602V26.9161C28.7589 27.2469 29.029 27.5171 29.3598 27.5171H31.683C32.0138 27.5171 32.2839 27.2469 32.2839 26.9161V26.8663C32.2839 26.5355 32.0138 26.2653 31.683 26.2653H30.0107V25.3145H31.683C32.0138 25.3145 32.2839 25.0443 32.2839 24.7135V24.7127ZM27.8164 27.3267C27.9236 27.2178 27.9901 27.0691 27.9901 26.9053V22.4494C27.9901 22.1186 27.7199 21.8485 27.3891 21.8485H27.3393C27.0085 21.8485 26.7383 22.1186 26.7383 22.4494V25.0651L24.5665 22.1527C24.4626 21.9715 24.2673 21.8485 24.0445 21.8485H23.9946C23.6638 21.8485 23.3937 22.1186 23.3937 22.4494V26.9053C23.3937 27.2361 23.6638 27.5063 23.9946 27.5063H24.0445C24.3753 27.5063 24.6455 27.2361 24.6455 26.9053V24.2406L26.8323 27.2278C26.8456 27.2486 26.8605 27.2685 26.8763 27.2877C26.9362 27.3699 27.0184 27.4256 27.1099 27.4605C27.1805 27.4896 27.257 27.5054 27.3376 27.5054H27.3875C27.4889 27.5054 27.5845 27.4797 27.6684 27.4356C27.7283 27.4073 27.779 27.3699 27.8147 27.3267H27.8164ZM21.8976 27.5063H21.9475C22.2783 27.5063 22.5484 27.2361 22.5484 26.9053V22.4494C22.5484 22.1186 22.2783 21.8485 21.9475 21.8485H21.8976C21.5668 21.8485 21.2967 22.1186 21.2967 22.4494V26.9053C21.2967 27.2361 21.5668 27.5063 21.8976 27.5063Z"
    fill="#F9FAFB" />
</svg>