<svg width="21" height="20" viewBox="0 0 21 20" fill="none" xmlns="http://www.w3.org/2000/svg">
  <g clip-path="url(#clip0_1863_24524)">
    <path
      d="M18 8.33203C18 14.1654 10.5 19.1654 10.5 19.1654C10.5 19.1654 3 14.1654 3 8.33203C3 6.34291 3.79018 4.43525 5.1967 3.02873C6.60322 1.62221 8.51088 0.832031 10.5 0.832031C12.4891 0.832031 14.3968 1.62221 15.8033 3.02873C17.2098 4.43525 18 6.34291 18 8.33203Z"
      stroke="currentColor" stroke-width="2" stroke-linecap="round" stroke-linejoin="round" />
    <path
      d="M10.5 5.83203C9.83696 5.83203 9.20107 6.09542 8.73223 6.56426C8.26339 7.03311 8 7.66899 8 8.33203C8 8.99507 8.26339 9.63096 8.73223 10.0998C9.20107 10.5686 9.83696 10.832 10.5 10.832C11.163 10.832 11.7989 10.5686 12.2678 10.0998C12.7366 9.63096 13 8.99507 13 8.33203C13 7.66899 12.7366 7.03311 12.2678 6.56426C11.7989 6.09542 11.163 5.83203 10.5 5.83203Z"
      stroke="currentColor" stroke-width="2" stroke-linecap="round" stroke-linejoin="round" />
  </g>
  <defs>
    <clipPath id="clip0_1863_24524">
      <rect width="20" height="20" fill="white" transform="translate(0.5)" />
    </clipPath>
  </defs>
</svg>