<svg xmlns="http://www.w3.org/2000/svg" width="14" height="18" viewBox="0 0 14 18" fill="none">
  <g clip-path="url(#clip0_1861_22775)">
    <path
      d="M6.37496 0.0324889C3.34891 0.356489 1.06267 3.27249 1.32982 6.31192C1.67405 10.2925 5.33203 13.2599 6.5856 14.1651C6.83221 14.3451 7.16616 14.3399 7.40762 14.1496C8.70744 13.1313 12.7045 9.68563 12.7045 5.70506C12.6994 2.35192 9.80175 -0.327511 6.37496 0.0324889ZM7.00175 7.96792C5.75331 7.96792 4.7412 6.95477 4.7412 5.70506C4.7412 4.45535 5.75331 3.4422 7.00175 3.4422C8.25019 3.4422 9.2623 4.45535 9.2623 5.70506C9.2623 6.95477 8.25019 7.96792 7.00175 7.96792Z"
      fill="currentColor" />
    <path
      d="M13.9739 16.7166L13.0388 12.4789C12.9309 11.9955 12.5045 11.6458 12.0062 11.6458H11.7082C10.8707 12.7618 9.74047 13.9498 8.19919 15.1583C7.85497 15.4258 7.42341 15.5749 6.98671 15.5749C6.55001 15.5749 6.16983 15.4463 5.83075 15.1995C4.95735 14.5669 3.44689 13.3378 2.18304 11.6406H1.96212C1.46377 11.6406 1.03221 11.9903 0.929462 12.4789L0.0252414 16.7218C-0.113474 17.3801 0.384874 18.0023 1.0579 18.0023H12.9412C13.6194 18.0023 14.1177 17.3749 13.9739 16.7166Z"
      fill="currentColor" />
  </g>
  <defs>
    <clipPath id="clip0_1861_22775">
      <rect width="14" height="18" fill="white" />
    </clipPath>
  </defs>
</svg>