<svg xmlns="http://www.w3.org/2000/svg" width="33" height="21" viewBox="0 0 33 21" fill="none">
  <g clip-path="url(#clip0_1868_16802)">
    <path fill-rule="evenodd" clip-rule="evenodd" d="M12.6113 17.8595H21.2692V2.13281H12.6113V17.8595Z"
      fill="#FF5F00" />
    <path fill-rule="evenodd" clip-rule="evenodd"
      d="M13.1596 10.002C13.1596 6.81155 14.6355 3.96673 16.9387 2.13863C15.2002 0.751274 13.0456 0 10.8267 0C5.36353 0 0.935547 4.47759 0.935547 10.002C0.935547 15.5263 5.36353 20.0039 10.8267 20.0039C13.1348 20.0039 15.2547 19.2026 16.9387 17.8653C14.6355 16.0322 13.1596 13.1924 13.1596 10.002Z"
      fill="#EB001B" />
    <path fill-rule="evenodd" clip-rule="evenodd"
      d="M32.9446 10.002C32.9446 15.5263 28.5166 20.0039 23.0534 20.0039C20.8345 20.0039 18.6799 19.2527 16.9414 17.8653C19.2446 16.0322 20.7205 13.1924 20.7205 10.002C20.7205 6.81155 19.2446 3.97174 16.9414 2.13863C18.6849 0.751274 20.8394 0 23.0534 0C28.5166 0 32.9446 4.47759 32.9446 10.002Z"
      fill="#F79E1B" />
  </g>
  <defs>
    <clipPath id="clip0_1868_16802">
      <rect width="32.0063" height="20.0039" fill="white" transform="translate(0.935547)" />
    </clipPath>
  </defs>
</svg>