<svg width="21" height="22" viewBox="0 0 21 22" fill="none" xmlns="http://www.w3.org/2000/svg">
<path d="M8.75 14.9375L14 11L8.75 7.0625M19.25 11C19.25 6.1525 15.3475 2.25 10.5 2.25C9.47625 2.25 8.4875 2.41625 7.5425 2.74L8.155 4.4375C8.89875 4.14 9.6775 3.97375 10.5 3.97375C14.3587 3.97375 17.5263 7.14125 17.5263 11C17.5263 14.8587 14.3587 18.0263 10.5 18.0263C6.64125 18.0263 3.47375 14.8587 3.47375 11C3.47375 10.1775 3.64 9.355 3.9375 8.62L2.24 8.0425C1.91625 8.9875 1.75 9.97625 1.75 11C1.75 15.8475 5.6525 19.75 10.5 19.75C15.3475 19.75 19.25 15.8475 19.25 11ZM4.78625 3.97375C5.53 3.97375 6.125 4.595 6.125 5.28625C6.125 6.03 5.53 6.625 4.78625 6.625C4.095 6.625 3.47375 6.03 3.47375 5.28625C3.47375 4.595 4.095 3.97375 4.78625 3.97375Z" fill="black"/>
</svg>
