<svg xmlns="http://www.w3.org/2000/svg" width="15" height="14" viewBox="0 0 15 14" fill="none">
  <g clip-path="url(#clip0_1861_22767)">
    <path
      d="M13.6239 0H1.37528C1.01956 0 0.732422 0.307541 0.732422 0.688525C0.732422 1.06951 1.01956 1.37705 1.37528 1.37705H13.6239C13.9796 1.37705 14.2667 1.06951 14.2667 0.688525C14.2667 0.307541 13.9796 0 13.6239 0Z"
      fill="currentColor" />
    <path
      d="M14.1429 2.52344H0.857143C0.385714 2.52344 0 2.93655 0 3.44147V13.0808C0 13.5857 0.385714 13.9988 0.857143 13.9988H14.1429C14.6143 13.9988 15 13.5857 15 13.0808V3.44147C15 2.93655 14.6143 2.52344 14.1429 2.52344ZM3.42857 4.3595C4.14 4.3595 4.71429 4.97459 4.71429 5.73655C4.71429 6.49852 4.14 7.1136 3.42857 7.1136C2.71714 7.1136 2.14286 6.49852 2.14286 5.73655C2.14286 4.97459 2.71714 4.3595 3.42857 4.3595ZM4.5 12.048H2.78571C2.49 12.048 2.25 11.791 2.25 11.4743C2.25 11.1575 2.49 10.9005 2.78571 10.9005H4.5C4.79571 10.9005 5.03571 11.1575 5.03571 11.4743C5.03571 11.791 4.79571 12.048 4.5 12.048ZM8.35714 12.048H6.64286C6.34714 12.048 6.10714 11.791 6.10714 11.4743C6.10714 11.1575 6.34714 10.9005 6.64286 10.9005H8.35714C8.65286 10.9005 8.89286 11.1575 8.89286 11.4743C8.89286 11.791 8.65286 12.048 8.35714 12.048ZM12.2143 12.048H10.5C10.2043 12.048 9.96429 11.791 9.96429 11.4743C9.96429 11.1575 10.2043 10.9005 10.5 10.9005H12.2143C12.51 10.9005 12.75 11.1575 12.75 11.4743C12.75 11.791 12.51 12.048 12.2143 12.048ZM12.2143 6.53983H6.64286C6.34714 6.53983 6.10714 6.28278 6.10714 5.96606C6.10714 5.64934 6.34714 5.39229 6.64286 5.39229H12.2143C12.51 5.39229 12.75 5.64934 12.75 5.96606C12.75 6.28278 12.51 6.53983 12.2143 6.53983Z"
      fill="currentColor" />
  </g>
  <defs>
    <clipPath id="clip0_1861_22767">
      <rect width="15" height="14" fill="white" />
    </clipPath>
  </defs>
</svg>