<svg xmlns="http://www.w3.org/2000/svg" width="18" height="18" viewBox="0 0 18 18" fill="none">
  <g clip-path="url(#clip0_1861_21878)">
    <path d="M15.8384 0.125H2.16098C1.06847 0.125 0.179688 1.03196 0.179688 2.14673V7.59546C0.179688 8.71023 1.06847 9.61719 2.16098 9.61719H10.1112C10.1058 9.68687 10.1022 9.75704 10.1022 9.82812V12.7831C9.84279 12.6471 9.54883 12.5703 9.23769 12.5703H8.035V14.9866C8.035 16.5814 9.30653 17.8789 10.8695 17.8789H16.6138V14.4271C16.6138 12.7636 15.2875 11.4102 13.6572 11.4102H13.203V9.61719H15.8384C16.9309 9.61719 17.8197 8.71023 17.8197 7.59546V2.14673C17.8197 1.03196 16.9309 0.125 15.8384 0.125ZM1.21328 3.53252L2.17797 3.86633V5.87586L1.21328 6.20967V3.53252ZM13.6572 12.4648C14.7176 12.4648 15.5802 13.3451 15.5802 14.4271V16.8242H10.8695C9.87648 16.8242 9.06859 15.9999 9.06859 14.9866V13.625H9.23766C9.71435 13.625 10.1022 14.0208 10.1022 14.5072V15.0741H11.1358V9.82812C11.1358 9.14057 11.5678 8.5541 12.1694 8.33645V12.4648H13.6572ZM12.6862 7.19141C11.7106 7.19141 10.8597 7.7461 10.4201 8.5625H2.16098C1.6384 8.5625 1.21328 8.12867 1.21328 7.59546V7.32331L3.21156 6.63193V3.11026L1.21328 2.41887V2.14673C1.21328 1.61352 1.6384 1.17969 2.16098 1.17969H14.7189V8.5625H13.203V7.19141H12.6862ZM16.7861 7.59546C16.7861 8.12867 16.361 8.5625 15.8384 8.5625H15.7525V1.17969H15.8384C16.361 1.17969 16.7861 1.61352 16.7861 2.14673V7.59546Z" fill="currentColor"/>
    <path d="M8.71128 2.3125L7.73226 2.65067L8.08416 3.71158H6.57508L6.92702 2.6507L5.948 2.31254L5.48391 3.71161H4.5625L5.17549 7.33675H9.48378L10.0968 3.71161H9.17536L8.71128 2.3125ZM8.61326 6.28206H6.04602L5.78972 4.7663H8.86955L8.61326 6.28206Z" fill="currentColor"/>
    <path d="M11.2402 2.5625H13.5817V3.61719H11.2402V2.5625Z" fill="currentColor"/>
    <path d="M11.2402 4.65625H13.5817V5.71094H11.2402V4.65625Z" fill="currentColor"/>
  </g>
  <defs>
    <clipPath id="clip0_1861_21878">
      <rect width="17.64" height="18" fill="white" transform="translate(0.179688)"/>
    </clipPath>
  </defs>
</svg>