<svg width="25" height="24" viewBox="0 0 25 24" fill="none" xmlns="http://www.w3.org/2000/svg">
  <g id="Iconsax/Bold/profile2user">
    <path id="Vector"
      d="M9.50094 2C6.88094 2 4.75094 4.13 4.75094 6.75C4.75094 9.32 6.76094 11.4 9.38094 11.49C9.46094 11.48 9.54094 11.48 9.60094 11.49H9.67094C10.9003 11.449 12.0655 10.9315 12.9202 10.0469C13.7749 9.16234 14.2521 7.98004 14.2509 6.75C14.2509 4.13 12.1209 2 9.50094 2ZM14.5809 14.149C11.7909 12.289 7.24094 12.289 4.43094 14.149C3.16094 14.999 2.46094 16.149 2.46094 17.379C2.46094 18.609 3.16094 19.749 4.42094 20.589C5.82094 21.529 7.66094 21.999 9.50094 21.999C11.3409 21.999 13.1809 21.529 14.5809 20.589C15.8409 19.739 16.5409 18.599 16.5409 17.359C16.5309 16.129 15.8409 14.989 14.5809 14.149ZM20.4909 7.338C20.6509 9.278 19.2709 10.978 17.3609 11.208H17.3109C17.2509 11.208 17.1909 11.208 17.1409 11.228C16.1709 11.278 15.2809 10.968 14.6109 10.398C15.6409 9.478 16.2309 8.098 16.1109 6.598C16.0423 5.818 15.7774 5.06806 15.3409 4.418C15.8649 4.16308 16.4431 4.03947 17.0255 4.05782C17.6079 4.07617 18.1771 4.23595 18.684 4.52335C19.1909 4.81076 19.6203 5.21717 19.9351 5.70753C20.2499 6.19789 20.4406 6.75747 20.4909 7.338Z"
      fill="currentColor" />
    <path id="Vector_2"
      d="M22.4883 16.5904C22.4083 17.5604 21.7883 18.4004 20.7483 18.9704C19.7483 19.5204 18.4883 19.7804 17.2383 19.7504C17.9583 19.1004 18.3783 18.2904 18.4583 17.4304C18.5583 16.1904 17.9683 15.0004 16.7883 14.0504C16.1183 13.5204 15.3383 13.1004 14.4883 12.7904C16.6983 12.1504 19.4783 12.5804 21.1883 13.9604C22.1083 14.7004 22.5783 15.6304 22.4883 16.5904Z"
      fill="currentColor" />
  </g>
</svg>