<svg xmlns="http://www.w3.org/2000/svg" width="33" height="33" viewBox="0 0 33 33" fill="none">
  <path
    d="M9.625 2.75H8.25C4.125 2.75 2.75 5.21125 2.75 8.25V28.875C2.75 30.0163 4.0425 30.6625 4.95 29.975L7.30125 28.215C7.85125 27.8025 8.62125 27.8575 9.11625 28.3525L11.3988 30.6488C11.935 31.185 12.815 31.185 13.3512 30.6488L15.6613 28.3388C16.1425 27.8575 16.9125 27.8025 17.4487 28.215L19.8 29.975C20.7075 30.6487 22 30.0025 22 28.875V5.5C22 3.9875 23.2375 2.75 24.75 2.75H9.625ZM8.20875 19.2638C7.4525 19.2638 6.83375 18.645 6.83375 17.8888C6.83375 17.1325 7.4525 16.5138 8.20875 16.5138C8.965 16.5138 9.58375 17.1325 9.58375 17.8888C9.58375 18.645 8.965 19.2638 8.20875 19.2638ZM8.20875 13.7638C7.4525 13.7638 6.83375 13.145 6.83375 12.3888C6.83375 11.6325 7.4525 11.0138 8.20875 11.0138C8.965 11.0138 9.58375 11.6325 9.58375 12.3888C9.58375 13.145 8.965 13.7638 8.20875 13.7638ZM16.5 18.92H12.375C11.8112 18.92 11.3438 18.4525 11.3438 17.8888C11.3438 17.325 11.8112 16.8575 12.375 16.8575H16.5C17.0638 16.8575 17.5312 17.325 17.5312 17.8888C17.5312 18.4525 17.0638 18.92 16.5 18.92ZM16.5 13.42H12.375C11.8112 13.42 11.3438 12.9525 11.3438 12.3888C11.3438 11.825 11.8112 11.3575 12.375 11.3575H16.5C17.0638 11.3575 17.5312 11.825 17.5312 12.3888C17.5312 12.9525 17.0638 13.42 16.5 13.42Z"
    fill="currentColor" />
  <path
    d="M24.7638 4.8125C25.6713 4.8125 26.5375 5.18375 27.17 5.8025C27.83 6.47625 28.1875 7.3425 28.1875 8.25V11.5775C28.1875 12.595 27.7338 13.0625 26.7025 13.0625H24.0625V5.51375C24.0625 5.12875 24.3788 4.8125 24.7638 4.8125ZM24.7638 2.75C23.2375 2.75 22 3.9875 22 5.51375V15.125H26.7025C28.875 15.125 30.25 13.75 30.25 11.5775V8.25C30.25 6.7375 29.6312 5.3625 28.6412 4.35875C27.6086 3.33646 26.2168 2.75901 24.7638 2.75Z"
    fill="currentColor" />
</svg>