<svg xmlns="http://www.w3.org/2000/svg" width="17" height="23" viewBox="0 0 17 23" fill="none">
  <path
    d="M8.5 17.9269C6.9087 17.9269 5.38258 17.2853 4.25736 16.1432C3.13214 15.0011 2.5 13.452 2.5 11.8369C2.5 10.8219 2.75 9.83733 3.2 8.99487L1.74 7.51297C0.96 8.76143 0.5 10.2433 0.5 11.8369C0.5 13.9904 1.34285 16.0558 2.84315 17.5786C4.34344 19.1014 6.37827 19.9569 8.5 19.9569V23.0019L12.5 18.9419L8.5 14.8819M8.5 3.71688V0.671875L4.5 4.73187L8.5 8.79187V5.74687C10.0913 5.74687 11.6174 6.3885 12.7426 7.53059C13.8679 8.67269 14.5 10.2217 14.5 11.8369C14.5 12.8519 14.25 13.8364 13.8 14.6789L15.26 16.1608C16.04 14.9123 16.5 13.4304 16.5 11.8369C16.5 9.68332 15.6571 7.61796 14.1569 6.09517C12.6566 4.57237 10.6217 3.71688 8.5 3.71688Z"
    fill="currentColor" />
</svg>