<svg xmlns="http://www.w3.org/2000/svg" width="20" height="20" viewBox="0 0 20 20" fill="none">
  <g clip-path="url(#clip0_1861_21868)">
    <path d="M16.6076 9.17969L16.3813 9.55414C16.1199 9.9868 15.8001 10.37 15.4352 10.6955V0H2.61094V7.10938H0.199219V13.3594C0.199219 14.3544 0.98743 15.1647 1.96016 15.1753V15.1758H8.26309C8.48634 16.2069 9.28539 17.0195 10.2975 17.2429L11.4663 19.8892L12.5134 19.4077L11.5845 17.3047H12.9048C14.3492 17.5132 15.6149 18.3573 16.3813 19.6255L16.6076 20H19.7992V9.17969H16.6076ZM3.75938 1.17188H14.2867V11.4584C13.8543 11.6636 13.3896 11.805 12.9048 11.875H10.8605C9.59068 11.875 8.52642 12.7878 8.26309 14.0039H3.64319C3.71803 13.8035 3.75938 13.5863 3.75938 13.3594V1.17188ZM1.34766 13.3594V8.28125H2.61094V11.3672V13.3594C2.61094 13.7148 2.32758 14.0039 1.9793 14.0039C1.63101 14.0039 1.34766 13.7148 1.34766 13.3594ZM12.3727 16.1328H10.8605C10.0268 16.1328 9.34844 15.4406 9.34844 14.5898C9.34844 13.7391 10.0268 13.0469 10.8605 13.0469H12.3727V16.1328ZM13.5211 16.2279V12.9517C14.5924 12.7116 15.5671 12.1829 16.3539 11.4271V17.7525C15.5671 16.9967 14.5924 16.4681 13.5211 16.2279ZM18.6508 18.8281H17.5023V10.3516H18.6508V18.8281Z" fill="currentColor"/>
    <path d="M13.1387 2.34375H4.9082V5.85938H13.1387V2.34375ZM11.9902 4.6875H6.05664V3.51562H11.9902V4.6875Z" fill="currentColor"/>
    <path d="M4.9082 7.03125H13.1387V8.20312H4.9082V7.03125Z" fill="currentColor"/>
    <path d="M4.9082 9.375H9.46367V10.5469H4.9082V9.375Z" fill="currentColor"/>
    <path d="M4.9082 11.7188H6.63086V12.8906H4.9082V11.7188Z" fill="currentColor"/>
  </g>
  <defs>
    <clipPath id="clip0_1861_21868">
      <rect width="19.6" height="20" fill="white" transform="translate(0.199219)"/>
    </clipPath>
  </defs>
</svg>