<svg width="17" height="17" viewBox="0 0 17 17" fill="none" xmlns="http://www.w3.org/2000/svg">
  <path
    d="M6.70833 0.25C8.28858 0.25 9.80411 0.877751 10.9215 1.99516C12.0389 3.11256 12.6667 4.62809 12.6667 6.20833C12.6667 7.68417 12.1258 9.04083 11.2367 10.0858L11.4842 10.3333H12.2083L16.7917 14.9167L15.4167 16.2917L10.8333 11.7083V10.9842L10.5858 10.7367C9.54083 11.6258 8.18417 12.1667 6.70833 12.1667C5.12809 12.1667 3.61256 11.5389 2.49516 10.4215C1.37775 9.30411 0.75 7.78858 0.75 6.20833C0.75 4.62809 1.37775 3.11256 2.49516 1.99516C3.61256 0.877751 5.12809 0.25 6.70833 0.25ZM6.70833 2.08333C4.41667 2.08333 2.58333 3.91667 2.58333 6.20833C2.58333 8.5 4.41667 10.3333 6.70833 10.3333C9 10.3333 10.8333 8.5 10.8333 6.20833C10.8333 3.91667 9 2.08333 6.70833 2.08333Z"
    fill="currentColor" />
</svg>