<svg width="12" height="12" viewBox="0 0 12 12" fill="none" xmlns="http://www.w3.org/2000/svg">
  <g id="Group 14540">
    <circle id="Ellipse 70" cx="6" cy="6" r="6" fill="black" />
    <path id="Vector"
      d="M4.78395 2.93901C4.73047 2.99238 4.68804 3.05578 4.65909 3.12557C4.63014 3.19536 4.61523 3.27018 4.61523 3.34574C4.61523 3.4213 4.63014 3.49612 4.65909 3.56591C4.68804 3.6357 4.73047 3.6991 4.78395 3.75247L7.02241 5.99093L4.78395 8.22939C4.67608 8.33727 4.61548 8.48357 4.61548 8.63612C4.61548 8.78868 4.67608 8.93498 4.78395 9.04286C4.89182 9.15073 5.03813 9.21133 5.19068 9.21133C5.34324 9.21133 5.48954 9.15073 5.59741 9.04286L8.24549 6.39478C8.29897 6.34141 8.3414 6.27801 8.37036 6.20822C8.39931 6.13842 8.41421 6.06361 8.41421 5.98805C8.41421 5.91249 8.39931 5.83767 8.37036 5.76788C8.3414 5.69809 8.29897 5.63469 8.24549 5.58132L5.59741 2.93324C5.37818 2.71401 5.00895 2.71401 4.78395 2.93901Z"
      fill="currentColor" />
  </g>
</svg>