<svg width="21" height="17" viewBox="0 0 21 17" fill="none" xmlns="http://www.w3.org/2000/svg">
  <g id="Group">
    <path id="Vector"
      d="M18.7051 9.24219H2.29487C1.30359 9.24219 0.5 10.0458 0.5 11.0371V15.1396C0.5 16.1309 1.30359 16.9345 2.29487 16.9345H18.7051C19.6964 16.9345 20.5 16.1309 20.5 15.1396V11.0371C20.5 10.0458 19.6964 9.24219 18.7051 9.24219Z"
      fill="currentColor" />
    <path id="Vector_2"
      d="M8.58203 7.70142H12.4179C12.0077 7.08604 11.3 6.67578 10.5 6.67578C9.69998 6.67578 9.00254 7.08604 8.58203 7.70142Z"
      fill="currentColor" />
    <path id="Vector_3"
      d="M2.35596 7.70256H6.88929C7.42263 6.21538 8.82775 5.13846 10.4995 5.13846C12.1713 5.13846 13.5765 6.21538 14.1098 7.70256H18.7047C18.7047 7.70256 18.797 7.71282 18.8483 7.71282L18.0995 7.02564C18.0995 7.02564 18.0175 6.82051 18.0278 6.75898L18.4175 5.55897C18.5406 5.18974 18.4995 4.78974 18.3047 4.46154C18.1201 4.13333 17.7919 3.89744 17.4124 3.80513L16.1816 3.52821C16.1201 3.50769 16.0072 3.39487 15.9867 3.33333L15.7201 2.10256C15.638 1.72308 15.4021 1.39487 15.0739 1.2C14.7457 1.00513 14.3457 0.964103 13.9765 1.07692L12.7765 1.45641C12.7047 1.47692 12.5611 1.4359 12.5098 1.38462L11.6688 0.451282C11.4124 0.164103 11.0431 0 10.6637 0C10.2842 0 9.91493 0.164103 9.65852 0.451282L8.80724 1.37436C8.80724 1.37436 8.60211 1.46667 8.54057 1.44615L7.34057 1.05641C6.97134 0.933334 6.57134 0.974359 6.24314 1.16923C5.91493 1.35385 5.67904 1.68205 5.58673 2.06154L5.30981 3.29231C5.28929 3.35385 5.17647 3.46667 5.11493 3.48718L3.88416 3.75385C3.50468 3.8359 3.17647 4.07179 2.9816 4.4C2.78673 4.72821 2.7457 5.12821 2.85852 5.49744L3.23801 6.69744C3.25852 6.75898 3.2175 6.91282 3.16622 6.9641L2.3457 7.70256H2.35596Z"
      fill="currentColor" />
  </g>
</svg>