<svg xmlns="http://www.w3.org/2000/svg" width="32" height="32" viewBox="0 0 32 32" fill="none">
  <path
    d="M26.7994 12.2965C24.386 12.2965 23.3994 10.5898 24.5993 8.4965C25.2927 7.28317 24.8793 5.7365 23.666 5.04317L21.3594 3.72317C20.306 3.0965 18.946 3.46984 18.3193 4.52317L18.1727 4.7765C16.9727 6.86984 14.9993 6.86984 13.786 4.7765L13.6393 4.52317C13.4956 4.27115 13.3032 4.05022 13.0733 3.87326C12.8434 3.69629 12.5806 3.56682 12.3002 3.49237C12.0197 3.41793 11.7273 3.39999 11.4399 3.43961C11.1525 3.47924 10.8758 3.57563 10.626 3.72317L8.31935 5.04317C7.10602 5.7365 6.69268 7.2965 7.38602 8.50984C8.59935 10.5898 7.61268 12.2965 5.19935 12.2965C3.81268 12.2965 2.66602 13.4298 2.66602 14.8298V17.1765C2.66602 18.5632 3.79935 19.7098 5.19935 19.7098C7.61268 19.7098 8.59935 21.4165 7.38602 23.5098C6.69268 24.7232 7.10602 26.2698 8.31935 26.9632L10.626 28.2832C11.6793 28.9098 13.0393 28.5365 13.666 27.4832L13.8127 27.2298C15.0127 25.1365 16.986 25.1365 18.1993 27.2298L18.346 27.4832C18.9727 28.5365 20.3327 28.9098 21.386 28.2832L23.6927 26.9632C24.906 26.2698 25.3193 24.7098 24.626 23.5098C23.4127 21.4165 24.3994 19.7098 26.8127 19.7098C28.1994 19.7098 29.346 18.5765 29.346 17.1765V14.8298C29.339 14.1578 29.0681 13.5155 28.5916 13.0415C28.1151 12.5676 27.4714 12.3 26.7994 12.2965ZM15.9993 20.3365C13.6127 20.3365 11.666 18.3898 11.666 16.0032C11.666 13.6165 13.6127 11.6698 15.9993 11.6698C18.386 11.6698 20.3327 13.6165 20.3327 16.0032C20.3327 18.3898 18.386 20.3365 15.9993 20.3365Z"
    fill="currentColor" />
</svg>