<svg width="23" height="23" viewBox="0 0 23 23" fill="none" xmlns="http://www.w3.org/2000/svg">
  <g id="Iconsax/Bold/shoppingcart">
    <path id="Vector"
      d="M15.653 21.4253C16.0905 21.4253 16.5101 21.2515 16.8195 20.9421C17.1288 20.6328 17.3026 20.2132 17.3026 19.7757C17.3026 19.3382 17.1288 18.9186 16.8195 18.6092C16.5101 18.2999 16.0905 18.1261 15.653 18.1261C15.2155 18.1261 14.7959 18.2999 14.4866 18.6092C14.1772 18.9186 14.0034 19.3382 14.0034 19.7757C14.0034 20.2132 14.1772 20.6328 14.4866 20.9421C14.7959 21.2515 15.2155 21.4253 15.653 21.4253ZM8.11203 21.4253C8.54953 21.4253 8.96911 21.2515 9.27847 20.9421C9.58783 20.6328 9.76162 20.2132 9.76162 19.7757C9.76162 19.3382 9.58783 18.9186 9.27847 18.6092C8.96911 18.2999 8.54953 18.1261 8.11203 18.1261C7.67453 18.1261 7.25495 18.2999 6.9456 18.6092C6.63624 18.9186 6.46244 19.3382 6.46244 19.7757C6.46244 20.2132 6.63624 20.6328 6.9456 20.9421C7.25495 21.2515 7.67453 21.4253 8.11203 21.4253ZM4.89769 3.93019L4.70916 6.23961C4.67146 6.68265 5.02023 7.05027 5.46326 7.05027H19.8948C20.2907 7.05027 20.6206 6.74863 20.6489 6.35273C20.7715 4.68429 19.4989 3.32691 17.8305 3.32691H6.24564C6.15138 2.91215 5.96285 2.51625 5.67064 2.18633C5.19933 1.68674 4.53949 1.39453 3.8608 1.39453H2.22064C1.83416 1.39453 1.51367 1.71502 1.51367 2.1015C1.51367 2.48797 1.83416 2.80847 2.22064 2.80847H3.8608C4.15302 2.80847 4.42638 2.93101 4.62433 3.13838C4.82228 3.35519 4.91654 3.63797 4.89769 3.93019ZM19.6686 8.4642H5.20875C4.81285 8.4642 4.49236 8.76584 4.45466 9.15232L4.11531 13.2527C4.08295 13.6326 4.12982 14.0151 4.25296 14.376C4.3761 14.7369 4.57282 15.0682 4.83067 15.3491C5.08852 15.63 5.40188 15.8543 5.75092 16.0078C6.09995 16.1613 6.47705 16.2407 6.85834 16.2408H17.3403C18.7542 16.2408 19.9985 15.0814 20.1022 13.6675L20.4133 9.26543C20.4222 9.16274 20.4096 9.05931 20.3761 8.96182C20.3426 8.86433 20.289 8.77494 20.2189 8.69944C20.1487 8.62393 20.0635 8.56398 19.9687 8.52346C19.8739 8.48295 19.7717 8.46276 19.6686 8.4642Z"
      fill="currentColor" />
  </g>
</svg>