<svg xmlns="http://www.w3.org/2000/svg" width="22" height="22" viewBox="0 0 22 22" fill="none">
  <path
    d="M15.584 19.4779H6.41732C3.07148 19.4779 1.14648 17.5529 1.14648 14.207V7.79036C1.14648 4.44453 3.07148 2.51953 6.41732 2.51953H15.584C18.9298 2.51953 20.8548 4.44453 20.8548 7.79036V14.207C20.8548 17.5529 18.9298 19.4779 15.584 19.4779ZM6.41732 3.89453C3.79565 3.89453 2.52148 5.1687 2.52148 7.79036V14.207C2.52148 16.8287 3.79565 18.1029 6.41732 18.1029H15.584C18.2057 18.1029 19.4798 16.8287 19.4798 14.207V7.79036C19.4798 5.1687 18.2057 3.89453 15.584 3.89453H6.41732Z"
    fill="#475467" />
  <path
    d="M10.9983 11.795C10.2283 11.795 9.44917 11.5567 8.85334 11.0709L5.98417 8.7792C5.85075 8.66335 5.7672 8.50047 5.75095 8.32452C5.73471 8.14857 5.78701 7.97314 5.89696 7.83482C6.00691 7.69649 6.16601 7.60595 6.34109 7.58209C6.51617 7.55822 6.6937 7.60286 6.83667 7.7067L9.70583 9.99837C10.4025 10.5575 11.585 10.5575 12.2817 9.99837L15.1508 7.7067C15.4442 7.46837 15.8842 7.5142 16.1133 7.8167C16.3517 8.11003 16.3058 8.55003 16.0033 8.7792L13.1342 11.0709C12.5475 11.5567 11.7683 11.795 10.9983 11.795Z"
    fill="currentColor" />
</svg>