<svg width="160" height="107" viewBox="0 0 160 107" fill="none" xmlns="http://www.w3.org/2000/svg">
  <g id="Illustration">
    <g id="Remote proofreading">
      <path id="Vector"
        d="M0 82.4194C0 84.214 1.45734 85.669 3.25553 85.669C3.38976 85.669 3.52108 85.6585 3.65065 85.6428C3.97515 86.9472 4.48992 88.1764 5.16694 89.2975C5.06422 89.3781 4.96383 89.4633 4.86928 89.5578C3.59812 90.8272 3.59812 92.8846 4.86928 94.154C6.14045 95.4234 8.20185 95.4234 9.4736 94.154C9.56815 94.0594 9.65394 93.959 9.73448 93.8569C10.8574 94.5327 12.0889 95.0469 13.3956 95.3708C13.3799 95.5004 13.3694 95.6317 13.3694 95.7654C13.3694 97.5601 14.8267 99.0151 16.6249 99.0151C18.4231 99.0151 19.8804 97.5601 19.8804 95.7654C19.8804 95.6317 19.8699 95.5004 19.8542 95.3708C21.1609 95.0469 22.3924 94.5327 23.5153 93.8569C23.5959 93.9596 23.6817 94.0594 23.7762 94.154C25.0474 95.4234 27.1088 95.4234 28.3805 94.154C29.6517 92.8846 29.6517 90.8272 28.3805 89.5578C28.286 89.4633 28.1856 89.3781 28.0829 89.2975C28.7599 88.1764 29.2752 86.9472 29.5992 85.6428C29.7287 85.6585 29.86 85.669 29.9943 85.669C31.7925 85.669 33.2498 84.214 33.2498 82.4194C33.2498 80.6247 31.7925 79.1697 29.9943 79.1697C29.86 79.1697 29.7287 79.1802 29.5992 79.1959C29.2746 77.8915 28.7599 76.6624 28.0829 75.5412C28.1856 75.4607 28.286 75.3754 28.3805 75.2809C29.6517 74.0115 29.6517 71.9542 28.3805 70.6847C27.1094 69.4153 25.048 69.4153 23.7762 70.6847C23.6817 70.7793 23.5959 70.8797 23.5153 70.9818C22.3924 70.306 21.1609 69.7918 19.8542 69.4685C19.8699 69.3389 19.8804 69.2076 19.8804 69.0739C19.8804 67.2792 18.4231 65.8242 16.6249 65.8242C14.8267 65.8242 13.3694 67.2792 13.3694 69.0739C13.3694 69.2076 13.3799 69.3389 13.3956 69.4685C12.0889 69.7924 10.8574 70.3066 9.73448 70.9818C9.65394 70.8791 9.56815 70.7793 9.4736 70.6847C8.20244 69.4153 6.14103 69.4153 4.86928 70.6847C3.59812 71.9542 3.59812 74.0115 4.86928 75.2809C4.96383 75.3754 5.06422 75.4607 5.16694 75.5412C4.48992 76.6624 3.97457 77.8915 3.65065 79.1959C3.52108 79.1802 3.38976 79.1697 3.25553 79.1697C1.45734 79.1697 0 80.6247 0 82.4194ZM10.579 82.4194C10.579 79.0862 13.2859 76.384 16.6249 76.384C19.9639 76.384 22.6708 79.0862 22.6708 82.4194C22.6708 85.7525 19.9639 88.4547 16.6249 88.4547C13.2859 88.4547 10.579 85.7525 10.579 82.4194Z"
        fill="#E0E8FD" />
      <g id="Group">
        <g id="Group_2">
          <g id="Group_3">
            <path id="Vector_2" d="M60.7394 2.36719H14.9805V59.3809H60.7394V2.36719Z" fill="white" />
            <path id="Vector_3"
              d="M60.7389 59.5094H14.98C14.9088 59.5094 14.8516 59.4516 14.8516 59.381V2.36668C14.8516 2.29548 14.9093 2.23828 14.98 2.23828H60.7389C60.8101 2.23828 60.8673 2.29606 60.8673 2.36668V59.3804C60.8673 59.4516 60.8095 59.5088 60.7389 59.5088V59.5094ZM15.1089 59.2526H60.6105V2.49508H15.1089V59.252V59.2526Z"
              fill="black" />
          </g>
          <path id="Vector_4"
            d="M60.7389 21.8466H14.98C14.9088 21.8466 14.8516 21.7889 14.8516 21.7182C14.8516 21.6476 14.9093 21.5898 14.98 21.5898H60.7389C60.8101 21.5898 60.8673 21.6476 60.8673 21.7182C60.8673 21.7889 60.8095 21.8466 60.7389 21.8466Z"
            fill="black" />
          <path id="Vector_5"
            d="M60.7389 40.7256H14.98C14.9088 40.7256 14.8516 40.6678 14.8516 40.5972C14.8516 40.5265 14.9093 40.4688 14.98 40.4688H60.7389C60.8101 40.4688 60.8673 40.5265 60.8673 40.5972C60.8673 40.6678 60.8095 40.7256 60.7389 40.7256Z"
            fill="black" />
          <path id="Vector_6"
            d="M45.6362 59.5094C45.565 59.5094 45.5078 59.4516 45.5078 59.381V2.36668C45.5078 2.29548 45.5656 2.23828 45.6362 2.23828C45.7068 2.23828 45.7646 2.29606 45.7646 2.36668V59.3804C45.7646 59.4516 45.7068 59.5088 45.6362 59.5088V59.5094Z"
            fill="black" />
          <path id="Vector_7"
            d="M29.5893 59.5094C29.5181 59.5094 29.4609 59.4516 29.4609 59.381V2.36668C29.4609 2.29548 29.5187 2.23828 29.5893 2.23828C29.66 2.23828 29.7177 2.29606 29.7177 2.36668V59.3804C29.7177 59.4516 29.66 59.5088 29.5893 59.5088V59.5094Z"
            fill="black" />
        </g>
        <g id="Group_4">
          <path id="Vector_8" d="M67.5979 57.7227H8.29688V60.0053H67.5979V57.7227Z" fill="white" />
          <path id="Vector_9"
            d="M67.5974 60.1332H8.29637C8.22517 60.1332 8.16797 60.0754 8.16797 60.0048V57.7222C8.16797 57.6509 8.22575 57.5938 8.29637 57.5938H67.5974C67.6686 57.5938 67.7258 57.6515 67.7258 57.7222V60.0048C67.7258 60.076 67.668 60.1332 67.5974 60.1332ZM8.42477 59.8764H67.469V57.8506H8.42477V59.8764Z"
            fill="black" />
        </g>
        <g id="Group_5">
          <path id="Vector_10"
            d="M16.8611 0.128906C16.1252 0.853783 15.0951 0.980433 14.7641 0.980433C14.5108 0.980433 13.4124 0.892303 12.6683 0.130074C12.6683 0.130074 12.6683 0.12949 12.6683 0.128906C12.6683 0.128906 12.6683 0.12949 12.6683 0.130074C11.9323 0.854367 10.9028 0.980433 10.5725 0.980433C10.3192 0.980433 9.22017 0.892303 8.47662 0.130074V0.128906C8.47662 0.128906 8.47662 0.128906 8.47603 0.12949C7.74007 0.854367 6.71053 0.980433 6.38019 0.980433C6.12689 0.980433 5.02849 0.892303 4.28435 0.130074C4.28435 0.130074 4.28435 0.12949 4.28435 0.128906C4.28435 0.128906 4.28435 0.12949 4.28435 0.130074C3.54839 0.854367 2.51885 0.980433 2.18851 0.980433C1.93463 0.980433 0.83564 0.892303 0.0915026 0.128906C0.0815808 0.25789 0.0664062 1.28859 0.0664062 1.39948V60.2126C0.0664062 61.3845 1.01657 62.3347 2.18851 62.3347C3.2484 62.3347 4.12677 61.5579 4.28494 60.5423C4.4431 61.5579 5.32147 62.3347 6.38136 62.3347C7.44124 62.3347 8.31962 61.5573 8.47778 60.5418C8.63595 61.5579 9.51432 62.3353 10.5742 62.3353C11.6341 62.3353 12.5125 61.5584 12.6706 60.5429C12.8288 61.5584 13.7072 62.3353 14.7671 62.3353C15.939 62.3353 16.8892 61.3851 16.8892 60.2132V1.39948C16.8892 1.28859 16.8804 0.235712 16.8641 0.128906H16.8611Z"
            fill="#E0E8FD" />
          <path id="Vector_11"
            d="M12.8139 55.1798C12.7427 55.1798 12.6855 55.122 12.6855 55.0514V2.61278C12.6855 2.54157 12.7433 2.48438 12.8139 2.48438C12.8846 2.48438 12.9423 2.54216 12.9423 2.61278V55.0514C12.9423 55.1226 12.8846 55.1798 12.8139 55.1798Z"
            fill="white" />
          <path id="Vector_12"
            d="M8.56785 58.9548C8.49665 58.9548 8.43945 58.897 8.43945 58.8264V7.33153C8.43945 7.26032 8.49723 7.20312 8.56785 7.20312C8.63847 7.20312 8.69625 7.26091 8.69625 7.33153V58.8264C8.69625 58.8976 8.63847 58.9548 8.56785 58.9548Z"
            fill="white" />
          <path id="Vector_13"
            d="M4.2241 58.9553C4.1529 58.9553 4.0957 58.8976 4.0957 58.8269V2.61278C4.0957 2.54157 4.15348 2.48438 4.2241 2.48438C4.29472 2.48438 4.3525 2.54216 4.3525 2.61278V58.8269C4.3525 58.8981 4.29472 58.9553 4.2241 58.9553Z"
            fill="white" />
        </g>
        <g id="Group_6">
          <path id="Vector_14"
            d="M75.7479 0.128906C75.0119 0.853783 73.9818 0.980433 73.6509 0.980433C73.3976 0.980433 72.2992 0.892303 71.555 0.130074C71.555 0.130074 71.555 0.12949 71.555 0.128906C71.555 0.128906 71.555 0.12949 71.555 0.130074C70.819 0.854367 69.7895 0.980433 69.4592 0.980433C69.2059 0.980433 68.1069 0.892303 67.3633 0.130074V0.128906C67.3633 0.128906 67.3633 0.128906 67.3628 0.12949C66.6268 0.854367 65.5972 0.980433 65.2669 0.980433C65.0136 0.980433 63.9152 0.892303 63.1711 0.130074C63.1711 0.130074 63.1711 0.12949 63.1711 0.128906C63.1711 0.128906 63.1711 0.12949 63.1711 0.130074C62.4351 0.854367 61.4056 0.980433 61.0752 0.980433C60.8213 0.980433 59.7224 0.892303 58.9782 0.128906C58.9683 0.25789 58.9531 1.28859 58.9531 1.39948V60.2126C58.9531 61.3845 59.9033 62.3347 61.0752 62.3347C62.1351 62.3347 63.0135 61.5579 63.1717 60.5423C63.3298 61.5579 64.2082 62.3347 65.2681 62.3347C66.328 62.3347 67.2063 61.5573 67.3645 60.5418C67.5227 61.5579 68.401 62.3353 69.4609 62.3353C70.5208 62.3353 71.3992 61.5584 71.5574 60.5429C71.7155 61.5584 72.5939 62.3353 73.6538 62.3353C74.8257 62.3353 75.7759 61.3851 75.7759 60.2132V1.39948C75.7759 1.28859 75.7671 0.235712 75.7508 0.128906H75.7479Z"
            fill="#E0E8FD" />
          <path id="Vector_15"
            d="M71.7007 55.1798C71.6295 55.1798 71.5723 55.122 71.5723 55.0514V2.61278C71.5723 2.54157 71.63 2.48438 71.7007 2.48438C71.7713 2.48438 71.8291 2.54216 71.8291 2.61278V55.0514C71.8291 55.1226 71.7713 55.1798 71.7007 55.1798Z"
            fill="white" />
          <path id="Vector_16"
            d="M67.4546 58.9548C67.3834 58.9548 67.3262 58.897 67.3262 58.8264V7.33153C67.3262 7.26032 67.3839 7.20312 67.4546 7.20312C67.5252 7.20312 67.583 7.26091 67.583 7.33153V58.8264C67.583 58.8976 67.5252 58.9548 67.4546 58.9548Z"
            fill="white" />
          <path id="Vector_17"
            d="M63.1108 58.9553C63.0396 58.9553 62.9824 58.8976 62.9824 58.8269V2.61278C62.9824 2.54157 63.0402 2.48438 63.1108 2.48438C63.1814 2.48438 63.2392 2.54216 63.2392 2.61278V58.8269C63.2392 58.8981 63.1814 58.9553 63.1108 58.9553Z"
            fill="white" />
        </g>
      </g>
      <g id="Group_7">
        <g id="Group_8">
          <path id="Vector_18" d="M154.733 5.26562H82.7734V92.9635H154.733V5.26562Z" fill="white" />
          <path id="Vector_19"
            d="M154.732 93.092H82.7729C82.7017 93.092 82.6445 93.0342 82.6445 92.9636V5.26512C82.6445 5.19392 82.7023 5.13672 82.7729 5.13672H154.732C154.804 5.13672 154.861 5.1945 154.861 5.26512V92.963C154.861 93.0342 154.803 93.0914 154.732 93.0914V93.092ZM82.9013 92.8352H154.604V5.39352H82.9013V92.8346V92.8352Z"
            fill="black" />
        </g>
        <g id="Group_9">
          <path id="Vector_20" d="M157.301 2.69922H85.3418V90.3971H157.301V2.69922Z" fill="white" />
          <path id="Vector_21"
            d="M157.303 90.5256H85.3432C85.272 90.5256 85.2148 90.4678 85.2148 90.3972V2.69871C85.2148 2.62751 85.2726 2.57031 85.3432 2.57031H157.303C157.374 2.57031 157.431 2.62809 157.431 2.69871V90.3966C157.431 90.4678 157.373 90.525 157.303 90.525V90.5256ZM85.4716 90.2688H157.174V2.82711H85.4716V90.2682V90.2688Z"
            fill="black" />
        </g>
        <g id="Group_10">
          <g id="Group_11">
            <path id="Vector_22" d="M159.872 0.128906H87.9121V87.8268H159.872V0.128906Z" fill="white" />
            <path id="Vector_23"
              d="M159.871 87.9553H87.9116C87.8404 87.9553 87.7832 87.8975 87.7832 87.8269V0.1284C87.7832 0.0571964 87.841 0 87.9116 0H159.871C159.942 0 160 0.0577801 160 0.1284V87.8263C160 87.8975 159.942 87.9547 159.871 87.9547V87.9553ZM88.04 87.6985H159.743V0.2568H88.04V87.6979V87.6985Z"
              fill="black" />
          </g>
          <g id="Group_12">
            <path id="Vector_24"
              d="M128.474 55.6396H94.3999C94.3287 55.6396 94.2715 55.5818 94.2715 55.5112C94.2715 55.4406 94.3293 55.3828 94.3999 55.3828H128.474C128.545 55.3828 128.602 55.4406 128.602 55.5112C128.602 55.5818 128.544 55.6396 128.474 55.6396Z"
              fill="black" />
            <path id="Vector_25"
              d="M144.178 49.3584H94.3999C94.3287 49.3584 94.2715 49.3006 94.2715 49.23C94.2715 49.1593 94.3293 49.1016 94.3999 49.1016H144.178C144.249 49.1016 144.307 49.1593 144.307 49.23C144.307 49.3006 144.249 49.3584 144.178 49.3584Z"
              fill="black" />
            <path id="Vector_26"
              d="M147.319 43.0771H94.3999C94.3287 43.0771 94.2715 43.0193 94.2715 42.9487C94.2715 42.8781 94.3293 42.8203 94.3999 42.8203H147.319C147.391 42.8203 147.448 42.8781 147.448 42.9487C147.448 43.0193 147.39 43.0771 147.319 43.0771Z"
              fill="black" />
            <path id="Vector_27"
              d="M150.461 36.7959H94.3999C94.3287 36.7959 94.2715 36.7381 94.2715 36.6675C94.2715 36.5968 94.3293 36.5391 94.3999 36.5391H150.461C150.532 36.5391 150.589 36.5968 150.589 36.6675C150.589 36.7381 150.531 36.7959 150.461 36.7959Z"
              fill="black" />
            <path id="Vector_28"
              d="M153.601 30.5107H94.3999C94.3287 30.5107 94.2715 30.4529 94.2715 30.3823C94.2715 30.3117 94.3293 30.2539 94.3999 30.2539H153.601C153.672 30.2539 153.73 30.3117 153.73 30.3823C153.73 30.4529 153.672 30.5107 153.601 30.5107Z"
              fill="black" />
            <path id="Vector_29"
              d="M147.319 24.2295H94.3999C94.3287 24.2295 94.2715 24.1717 94.2715 24.1011C94.2715 24.0304 94.3293 23.9727 94.3999 23.9727H147.319C147.391 23.9727 147.448 24.0304 147.448 24.1011C147.448 24.1717 147.39 24.2295 147.319 24.2295Z"
              fill="black" />
            <path id="Vector_30"
              d="M150.46 17.9482H107.253C107.182 17.9482 107.125 17.8904 107.125 17.8198C107.125 17.7492 107.183 17.6914 107.253 17.6914H150.46C150.531 17.6914 150.588 17.7492 150.588 17.8198C150.588 17.8904 150.531 17.9482 150.46 17.9482Z"
              fill="black" />
            <path id="Vector_31"
              d="M144.178 11.667H107.253C107.182 11.667 107.125 11.6092 107.125 11.5386C107.125 11.4679 107.183 11.4102 107.253 11.4102H144.178C144.249 11.4102 144.306 11.4679 144.306 11.5386C144.306 11.6092 144.248 11.667 144.178 11.667Z"
              fill="black" />
          </g>
          <g id="Group_13">
            <g id="Group_14">
              <path id="Vector_32" d="M115.765 62.6445H94.4004V84.0092H115.765V62.6445Z" fill="white" />
              <path id="Vector_33"
                d="M115.765 84.137H94.3999C94.3287 84.137 94.2715 84.0793 94.2715 84.0086V62.644C94.2715 62.5728 94.3293 62.5156 94.3999 62.5156H115.765C115.836 62.5156 115.893 62.5734 115.893 62.644V84.0086C115.893 84.0798 115.835 84.137 115.765 84.137ZM94.5283 83.8802H115.636V62.773H94.5283V83.8802Z"
                fill="black" />
            </g>
            <g id="Group_15">
              <path id="Vector_34"
                d="M96.4936 79.2197C96.4708 79.2197 96.4481 79.2139 96.4271 79.201C96.3664 79.1643 96.3471 79.0849 96.3839 79.0248L102.6 68.8158C102.623 68.7784 102.663 68.7551 102.706 68.7539C102.75 68.7533 102.792 68.7738 102.816 68.8099L109.746 79.0189C109.786 79.0779 109.771 79.1572 109.712 79.1975C109.653 79.2372 109.574 79.222 109.534 79.1637L102.716 69.1199L96.6033 79.1578C96.5794 79.1975 96.5368 79.2197 96.4936 79.2197Z"
                fill="black" />
              <path id="Vector_35"
                d="M113.67 75.8258C113.632 75.8258 113.594 75.8088 113.569 75.7762L109.294 70.2585L107.1 73.343C107.059 73.4008 106.979 73.4142 106.921 73.3733C106.863 73.3325 106.85 73.2519 106.891 73.1942L109.184 69.9684C109.207 69.9351 109.245 69.9153 109.286 69.9141C109.326 69.9129 109.365 69.9316 109.391 69.9637L113.772 75.6186C113.815 75.6746 113.805 75.7552 113.749 75.7989C113.726 75.817 113.698 75.8258 113.67 75.8258Z"
                fill="black" />
              <path id="Vector_36"
                d="M111.732 68.34C110.894 68.34 110.211 67.6577 110.211 66.8184C110.211 65.9791 110.893 65.2969 111.732 65.2969C112.572 65.2969 113.254 65.9791 113.254 66.8184C113.254 67.6577 112.572 68.34 111.732 68.34ZM111.732 65.5537C111.035 65.5537 110.468 66.121 110.468 66.8184C110.468 67.5159 111.035 68.0832 111.732 68.0832C112.43 68.0832 112.997 67.5159 112.997 66.8184C112.997 66.121 112.43 65.5537 111.732 65.5537Z"
                fill="black" />
              <path id="Vector_37"
                d="M103.806 77.2508C103.737 77.2508 103.668 77.2455 103.6 77.235C102.958 77.1352 102.468 76.5778 102.113 76.1039C102.061 76.0356 102.011 75.9662 101.959 75.8961C101.647 75.4724 101.326 75.0335 100.902 74.7948C100.636 74.6454 100.3 74.6069 100.025 74.6944C99.8715 74.7435 99.6631 74.8549 99.5435 75.1082C99.5131 75.1724 99.4367 75.1998 99.3725 75.1695C99.3083 75.1392 99.2808 75.0627 99.3112 74.9985C99.4373 74.7318 99.6567 74.5421 99.9468 74.4499C100.293 74.3396 100.697 74.3851 101.028 74.5713C101.5 74.8374 101.839 75.2985 102.166 75.7444C102.217 75.8133 102.267 75.8821 102.319 75.9498C102.645 76.3852 103.09 76.8953 103.641 76.9811C104.077 77.0488 104.577 76.8305 104.979 76.3963C105.357 75.9878 105.618 75.4567 105.871 74.9425C105.902 74.8789 105.979 74.8526 106.043 74.8841C106.106 74.9156 106.133 74.9927 106.101 75.0563C105.84 75.5868 105.571 76.1354 105.167 76.5714C104.761 77.0109 104.275 77.2513 103.807 77.2513L103.806 77.2508Z"
                fill="black" />
            </g>
          </g>
          <g id="Group_16">
            <path id="Vector_38"
              d="M136.829 77.8545H122.431C122.36 77.8545 122.303 77.7967 122.303 77.7261C122.303 77.6554 122.361 77.5977 122.431 77.5977H136.829C136.9 77.5977 136.957 77.6554 136.957 77.7261C136.957 77.7967 136.899 77.8545 136.829 77.8545Z"
              fill="black" />
            <path id="Vector_39"
              d="M149.392 71.5732H122.431C122.36 71.5732 122.303 71.5154 122.303 71.4448C122.303 71.3742 122.361 71.3164 122.431 71.3164H149.392C149.463 71.3164 149.521 71.3742 149.521 71.4448C149.521 71.5154 149.463 71.5732 149.392 71.5732Z"
              fill="black" />
            <path id="Vector_40"
              d="M143.111 65.292H122.431C122.36 65.292 122.303 65.2342 122.303 65.1636C122.303 65.0929 122.361 65.0352 122.431 65.0352H143.111C143.182 65.0352 143.239 65.0929 143.239 65.1636C143.239 65.2342 143.181 65.292 143.111 65.292Z"
              fill="black" />
          </g>
          <g id="Group_17">
            <path id="Vector_41"
              d="M105.082 9.55554C105.011 9.55554 104.954 9.49776 104.954 9.42714V7.89742H94.5283V9.42714C94.5283 9.49834 94.4705 9.55554 94.3999 9.55554C94.3293 9.55554 94.2715 9.49776 94.2715 9.42714V7.76902C94.2715 7.69782 94.3293 7.64062 94.3999 7.64062H105.082C105.153 7.64062 105.211 7.6984 105.211 7.76902V9.42714C105.211 9.49834 105.153 9.55554 105.082 9.55554Z"
              fill="#5479F5" />
            <path id="Vector_42"
              d="M99.7417 17.9447C99.6705 17.9447 99.6133 17.8869 99.6133 17.8163V8.59715C99.6133 8.52595 99.6711 8.46875 99.7417 8.46875C99.8123 8.46875 99.8701 8.52653 99.8701 8.59715V17.8163C99.8701 17.8875 99.8123 17.9447 99.7417 17.9447Z"
              fill="#5479F5" />
            <path id="Vector_43"
              d="M101.497 17.9443H97.9858C97.9146 17.9443 97.8574 17.8865 97.8574 17.8159C97.8574 17.7453 97.9152 17.6875 97.9858 17.6875H101.497C101.568 17.6875 101.625 17.7453 101.625 17.8159C101.625 17.8865 101.568 17.9443 101.497 17.9443Z"
              fill="#5479F5" />
          </g>
        </g>
      </g>
      <g id="Group_18">
        <path id="Vector_44"
          d="M88.9223 105.406H0.64025C0.286566 105.406 0 105.693 0 106.046C0 106.4 0.286566 106.687 0.64025 106.687H88.9218C89.2755 106.687 89.562 106.4 89.562 106.046C89.562 105.693 89.2755 105.406 88.9218 105.406H88.9223Z"
          fill="#E0E8FD" />
        <g id="Group_19">
          <path id="Vector_45"
            d="M62.2302 50.5818L61.3122 43.4013C61.3122 43.4013 66.7569 38.2589 63.0106 34.3771C60.3066 31.5757 56.1569 35.9448 52.7351 36.3551C49.3126 36.7654 46.3781 37.5288 43.977 44.547C41.5759 51.5653 36.4551 62.5505 35.3164 65.8597L61.1003 64.2909L62.2302 50.5812V50.5818Z"
            fill="black" />
          <g id="Group_20">
            <path id="Vector_46"
              d="M78.1473 79.2601C78.1473 79.2601 71.3766 71.5397 68.623 67.9311C66.3456 64.9464 62.9599 63.0169 59.2352 62.5686C57.085 62.3101 54.4091 61.3757 51.3391 61.336C47.1895 61.2817 42.3721 61.7877 38.1501 62.5686C32.5256 63.6093 27.5589 66.8794 24.3273 71.6039L16.625 82.8658L25.3574 87.1281L23.0964 105.406H70.0307L78.1468 79.2601H78.1473Z"
              fill="#0057FF" />
            <g id="Group_21">
              <path id="Vector_47"
                d="M27.7396 86.9428L18.7446 83.9003C18.7446 83.9003 7.8423 98.9207 14.6434 105.407C21.4445 111.894 39.6056 91.6591 42.9107 87.0951C42.9107 87.0951 45.0387 87.5894 44.7346 86.1823C44.7346 86.1823 47.3183 87.133 47.3183 85.1936C47.3183 85.1936 49.978 85.8829 49.4457 83.3703C49.4457 83.3703 52.0009 86.3644 52.7853 85.9652C53.9899 85.3524 52.5232 82.8357 51.4219 80.9342C50.32 79.0327 46.4867 74.3292 38.0478 79.4909C31.1685 83.6983 27.7396 86.9439 27.7396 86.9439V86.9428Z"
                fill="white" />
              <path id="Vector_48"
                d="M17.9824 106.804C16.6126 106.804 15.4669 106.368 14.5541 105.498C12.9754 103.992 12.2126 101.909 12.2861 99.3046C12.3445 97.2362 12.9293 94.8357 14.0242 92.1702C15.8842 87.6423 18.6127 83.8604 18.6402 83.8224C18.6816 83.7652 18.7621 83.7524 18.8193 83.7938C18.8765 83.8353 18.8894 83.9158 18.8479 83.973C18.8205 84.0104 16.1078 87.7713 14.26 92.2712C12.5651 96.3986 11.2712 102.011 14.731 105.311C16.5216 107.019 19.2868 106.953 22.9509 105.115C23.0139 105.083 23.0916 105.108 23.1231 105.172C23.1546 105.236 23.1295 105.313 23.0659 105.344C21.1282 106.316 19.4298 106.803 17.9818 106.803L17.9824 106.804Z"
                fill="black" />
              <path id="Vector_49"
                d="M17.5582 95.5328C17.5208 95.5328 17.484 95.5171 17.4589 95.4861C17.414 95.4313 17.4216 95.3502 17.4765 95.3052L27.1928 87.3222C27.2477 87.2773 27.3288 87.2849 27.3738 87.3397C27.4187 87.3946 27.4111 87.4757 27.3563 87.5207L17.6399 95.5037C17.6159 95.5235 17.5873 95.5328 17.5582 95.5328Z"
                fill="black" />
              <path id="Vector_50"
                d="M42.6178 87.2217C42.6126 87.2217 42.6073 87.2217 42.6021 87.2205C41.5089 87.0886 40.4671 86.6667 39.5899 86.0002C39.5333 85.957 39.5222 85.8764 39.5654 85.8204C39.608 85.7638 39.6886 85.7527 39.7452 85.7959C40.5862 86.435 41.5848 86.8394 42.633 86.9661C42.7036 86.9748 42.7538 87.0385 42.7451 87.1091C42.7375 87.1744 42.682 87.2223 42.6178 87.2223V87.2217Z"
                fill="black" />
              <path id="Vector_51"
                d="M44.8619 86.3268C44.8397 86.3268 44.8175 86.321 44.7971 86.3093C44.3868 86.0694 44.008 85.7776 43.6707 85.442C43.6205 85.3918 43.6199 85.3107 43.6707 85.2605C43.7209 85.2103 43.802 85.2097 43.8522 85.2605C44.1738 85.5804 44.5356 85.8593 44.9267 86.0881C44.9879 86.1237 45.0084 86.2025 44.9728 86.2638C44.9488 86.3047 44.9057 86.3274 44.8619 86.3274V86.3268Z"
                fill="black" />
              <path id="Vector_52"
                d="M47.4047 85.2644C47.3697 85.2644 47.3352 85.2504 47.3101 85.223L46.3775 84.2075C46.3296 84.1549 46.3331 84.0738 46.3851 84.0259C46.4376 83.9781 46.5187 83.9816 46.5666 84.0335L47.4992 85.0491C47.5471 85.1016 47.5436 85.1827 47.4917 85.2306C47.4671 85.2533 47.4356 85.2644 47.4047 85.2644Z"
                fill="black" />
              <path id="Vector_53"
                d="M49.4455 83.4972C49.4093 83.4972 49.3731 83.482 49.348 83.4523C49.2179 83.3005 49.1198 83.1721 49.016 83.0367C48.894 82.8774 48.7679 82.7122 48.5829 82.5027C48.5362 82.4496 48.5409 82.3685 48.594 82.3212C48.6471 82.2745 48.7282 82.2792 48.7755 82.3323C48.9669 82.5482 49.0959 82.7169 49.2202 82.8803C49.3218 83.0134 49.4181 83.1389 49.543 83.2848C49.5891 83.3385 49.5833 83.4196 49.529 83.4657C49.505 83.4867 49.4747 83.4966 49.4455 83.4966V83.4972Z"
                fill="black" />
            </g>
            <g id="Group_22">
              <path id="Vector_54"
                d="M64.5039 86.457L91.2158 63.1658C91.2158 63.1658 95.2843 58.6467 98.0397 59.4667C101.321 60.4431 95.6643 62.7199 95.2832 66.0886C94.9021 69.4568 95.0287 73.966 95.0287 73.966C95.0287 73.966 81.8525 92.9015 71.643 93.1227C67.8301 93.2056 64.5039 86.4575 64.5039 86.4575V86.457Z"
                fill="white" />
              <path id="Vector_55"
                d="M87.7282 82.9972C87.6967 82.9972 87.6657 82.9861 87.6406 82.9627C87.5887 82.9143 87.5858 82.8332 87.6336 82.7812C89.2083 81.084 92.2601 77.7071 92.5391 77.0727C92.5677 77.0079 92.6436 76.9787 92.7083 77.0067C92.7731 77.0353 92.8029 77.1112 92.7743 77.176C92.4078 78.0077 88.0089 82.7544 87.8216 82.9557C87.7965 82.9832 87.762 82.9966 87.7276 82.9966L87.7282 82.9972Z"
                fill="black" />
            </g>
            <g id="Group_23">
              <path id="Vector_56"
                d="M110.51 56.7475C120.644 56.7475 128.859 48.5327 128.859 38.3992C128.859 28.2656 120.644 20.0508 110.51 20.0508C100.377 20.0508 92.1621 28.2656 92.1621 38.3992C92.1621 48.5327 100.377 56.7475 110.51 56.7475Z"
                fill="#DFE9FF" />
              <g id="Group_24">
                <path id="Vector_57"
                  d="M119.288 49.3584H101.496C101.424 49.3584 101.367 49.3006 101.367 49.23C101.367 49.1593 101.425 49.1016 101.496 49.1016H119.288C119.36 49.1016 119.417 49.1593 119.417 49.23C119.417 49.3006 119.359 49.3584 119.288 49.3584Z"
                  fill="white" />
                <path id="Vector_58"
                  d="M124.001 43.0732H97.8979C97.8267 43.0732 97.7695 43.0154 97.7695 42.9448C97.7695 42.8742 97.8273 42.8164 97.8979 42.8164H124.001C124.072 42.8164 124.13 42.8742 124.13 42.9448C124.13 43.0154 124.072 43.0732 124.001 43.0732Z"
                  fill="white" />
                <path id="Vector_59"
                  d="M125.716 36.792H94.3999C94.3287 36.792 94.2715 36.7342 94.2715 36.6636C94.2715 36.5929 94.3293 36.5352 94.3999 36.5352H125.716C125.787 36.5352 125.844 36.5929 125.844 36.6636C125.844 36.7342 125.787 36.792 125.716 36.792Z"
                  fill="white" />
                <path id="Vector_60"
                  d="M124.002 30.5107H98.1557C98.0845 30.5107 98.0273 30.4529 98.0273 30.3823C98.0273 30.3117 98.0851 30.2539 98.1557 30.2539H124.002C124.073 30.2539 124.13 30.3117 124.13 30.3823C124.13 30.4529 124.072 30.5107 124.002 30.5107Z"
                  fill="white" />
                <path id="Vector_61"
                  d="M119.29 24.2295H102.3C102.229 24.2295 102.172 24.1717 102.172 24.1011C102.172 24.0304 102.23 23.9727 102.3 23.9727H119.29C119.361 23.9727 119.418 24.0304 119.418 24.1011C119.418 24.1717 119.361 24.2295 119.29 24.2295Z"
                  fill="white" />
              </g>
              <path id="Vector_62"
                d="M117.389 58.1756C112.671 59.8262 107.575 59.738 102.87 57.8967C92.1175 53.6869 86.7947 41.514 91.0045 30.761C95.2143 20.0081 107.387 14.6853 118.14 18.8951C123.349 20.9343 127.452 24.8803 129.693 30.0052C131.934 35.1307 132.046 40.8218 130.006 46.0307C127.967 51.2397 124.021 55.3427 118.896 57.5838C118.399 57.801 117.896 57.9988 117.389 58.1762V58.1756ZM93.4651 31.7246C89.7864 41.1206 94.438 51.7574 103.834 55.4361C108.386 57.2179 113.359 57.121 117.837 55.1623C122.315 53.2036 125.764 49.6189 127.545 45.0672C129.327 40.5154 129.23 35.5422 127.272 31.064C125.314 26.5857 121.728 23.1376 117.177 21.3557C107.781 17.6771 97.1438 22.3287 93.4651 31.7246Z"
                fill="black" />
              <path id="Vector_63"
                d="M89.7831 82.5383C89.427 82.6626 89.0238 82.6515 88.6566 82.4747C87.9236 82.1216 87.6154 81.2408 87.9685 80.5072L99.9045 55.7289C100.258 54.9959 101.138 54.6877 101.872 55.0408C102.605 55.3939 102.913 56.2746 102.56 57.0082L90.6241 81.7865C90.4472 82.1531 90.1391 82.4134 89.7831 82.5383Z"
                fill="black" />
            </g>
            <g id="Group_25">
              <path id="Vector_64"
                d="M88.3551 67.158C88.6895 68.2161 89.2393 69.3186 90.1766 69.9653C91.1664 70.6482 92.1224 70.3558 93.1806 69.8848C93.8704 69.5772 94.185 68.9188 94.5936 68.299C94.6356 67.4154 95.19 66.914 95.2834 66.0847C95.6645 62.7165 101.329 60.417 98.0399 59.4628C95.2145 58.6427 91.216 63.1618 91.216 63.1618L88.0527 65.9195C88.1286 66.3386 88.2272 66.7524 88.3551 67.1574V67.158Z"
                fill="white" />
              <path id="Vector_65"
                d="M91.1447 70.5975C90.9761 70.5975 90.8745 70.5853 90.8687 70.5841C90.7986 70.5742 90.7496 70.5094 90.759 70.4393C90.7683 70.3693 90.8325 70.3203 90.9037 70.3296C91.0473 70.3489 94.4213 70.7528 95.1561 66.0667C95.4438 64.2312 96.7862 62.8614 97.7667 61.8616C98.6561 60.9541 99.1411 60.4224 98.7694 60.0395C98.0392 59.2872 96.8451 59.3555 95.0107 60.2543C94.9471 60.2858 94.8701 60.259 94.8392 60.1953C94.8076 60.1317 94.8345 60.0547 94.8981 60.0238C96.8469 59.0689 98.1355 59.0176 98.9544 59.8609C99.5188 60.4422 98.8266 61.1484 97.9505 62.042C96.9414 63.0715 95.6854 64.3526 95.4105 66.107C94.7604 70.2555 92.0278 70.5981 91.1453 70.5981L91.1447 70.5975Z"
                fill="black" />
              <path id="Vector_66"
                d="M75.8238 76.7113C75.7882 76.7113 75.752 76.6962 75.7269 76.6676C75.6802 76.6139 75.6861 76.5327 75.7392 76.4861L91.125 63.0706C91.2347 62.9474 92.8024 61.2064 94.8906 60.0246C94.9525 59.9896 95.0307 60.0112 95.0657 60.073C95.1007 60.1349 95.0792 60.2131 95.0173 60.2481C92.9016 61.4451 91.3275 63.2287 91.3124 63.2463C91.3083 63.2503 91.3042 63.2544 91.3001 63.2585L75.9084 76.6792C75.8839 76.7003 75.8542 76.7108 75.8238 76.7108V76.7113Z"
                fill="black" />
            </g>
            <g id="Group_26">
              <g id="Group_27">
                <path id="Vector_67"
                  d="M95.6519 71.6124C95.6519 71.6124 96.9038 72.1616 97.547 71.24C98.1902 70.3185 97.2943 69.2633 96.35 69.2936C95.4056 69.324 94.1578 70.9657 95.6519 71.6124Z"
                  fill="white" />
                <path id="Vector_68"
                  d="M96.4642 71.8992C96.0038 71.8992 95.6186 71.7375 95.6005 71.7299C94.812 71.3885 94.7921 70.8241 94.8499 70.5183C94.9783 69.843 95.7049 69.1858 96.3452 69.1648C96.9014 69.1461 97.4617 69.4718 97.7337 69.9737C97.9706 70.4103 97.9408 70.8988 97.6519 71.3126C97.3298 71.7749 96.8681 71.8992 96.4642 71.8992ZM96.3884 69.421C96.3767 69.421 96.365 69.421 96.3534 69.421C95.8386 69.4374 95.2071 70.0152 95.102 70.5656C95.025 70.9694 95.2328 71.2904 95.702 71.4935C95.7493 71.514 96.8664 71.9879 97.4401 71.165C97.757 70.7109 97.6181 70.3 97.5072 70.0951C97.2895 69.6936 96.8331 69.4199 96.3878 69.4199L96.3884 69.421Z"
                  fill="black" />
              </g>
              <g id="Group_28">
                <path id="Vector_69"
                  d="M98.597 65.0382C98.597 65.0382 99.9924 65.8949 100.875 65.1333C101.759 64.3716 100.852 63.0976 99.7386 62.8956C98.625 62.6931 96.9307 64.0244 98.5975 65.0382H98.597Z"
                  fill="white" />
                <path id="Vector_70"
                  d="M99.9686 65.5793C99.2472 65.5793 98.5749 65.1754 98.53 65.1479C97.6633 64.6203 97.7204 64.0513 97.8313 63.7589C98.0765 63.1146 99.0138 62.6336 99.7608 62.769C100.489 62.9015 101.143 63.4583 101.316 64.0933C101.434 64.5264 101.307 64.9302 100.958 65.2308C100.657 65.4905 100.307 65.5798 99.968 65.5798L99.9686 65.5793ZM99.504 63.0037C98.9233 63.0037 98.2475 63.386 98.0712 63.8499C97.9265 64.2316 98.1307 64.6046 98.663 64.9285C98.6759 64.9367 99.989 65.7263 100.79 65.0359C101.136 64.7382 101.132 64.3956 101.068 64.1604C100.922 63.6247 100.34 63.135 99.7142 63.0218C99.6465 63.0095 99.5752 63.0037 99.5035 63.0037H99.504Z"
                  fill="black" />
              </g>
              <g id="Group_29">
                <path id="Vector_71"
                  d="M96.8595 69.4304C96.8595 69.4304 98.4954 70.1558 99.11 69.3854C99.7246 68.615 99.3948 67.875 99.3948 67.875C99.3948 67.875 100.456 67.5014 100.586 66.5355C100.716 65.5696 98.4511 64.3084 97.2896 64.6626C96.1282 65.0169 96.2117 66.232 96.6803 66.7894C96.6803 66.7894 94.3971 68.3921 96.8601 69.4304H96.8595Z"
                  fill="white" />
                <path id="Vector_72"
                  d="M98.2112 69.8672C97.5482 69.8672 96.863 69.5707 96.8087 69.5468C96.0546 69.2287 95.6461 68.8196 95.5936 68.3299C95.5177 67.6202 96.2245 66.9829 96.4999 66.7634C96.2455 66.3911 96.1591 65.8804 96.2863 65.4502C96.378 65.1409 96.6202 64.7312 97.2517 64.5386C98.0763 64.2871 99.3662 64.7936 100.089 65.4071C100.539 65.7899 100.761 66.1961 100.713 66.5516C100.599 67.3949 99.8506 67.8134 99.5553 67.9465C99.6282 68.205 99.721 68.8242 99.2104 69.4645C98.9676 69.7692 98.5929 69.8672 98.2112 69.8672ZM97.7373 64.7289C97.5896 64.7289 97.4507 64.7464 97.327 64.7843C96.9132 64.9104 96.6388 65.166 96.5332 65.5232C96.4182 65.9107 96.5192 66.3969 96.7783 66.7056C96.8017 66.7331 96.8122 66.7693 96.8075 66.8049C96.8028 66.8405 96.7836 66.8726 96.7538 66.8936C96.7439 66.9006 95.7727 67.5928 95.8492 68.3031C95.8912 68.6929 96.2478 69.0314 96.9097 69.3104C96.9102 69.3104 96.9108 69.311 96.912 69.3116C96.9272 69.3186 98.4645 69.988 99.0096 69.304C99.5687 68.6025 99.2804 67.9325 99.2775 67.926C99.2629 67.8933 99.2629 67.856 99.2769 67.8233C99.2909 67.7906 99.3183 67.7649 99.3522 67.7527C99.3621 67.7492 100.341 67.392 100.459 66.5171C100.494 66.2551 100.299 65.9218 99.923 65.6026C99.3656 65.1292 98.4458 64.7289 97.7378 64.7289H97.7373Z"
                  fill="black" />
              </g>
              <path id="Vector_73"
                d="M98.8646 67.7948C98.8383 67.7948 98.8121 67.7872 98.7893 67.7703C98.0253 67.2194 96.6678 66.917 96.6538 66.9141C96.5843 66.899 96.5406 66.8307 96.5557 66.7612C96.5709 66.6918 96.6398 66.648 96.7087 66.6632C96.7664 66.676 98.1316 66.9795 98.9393 67.562C98.9971 67.6034 99.0099 67.6839 98.9685 67.7411C98.9434 67.7762 98.9043 67.7942 98.864 67.7942L98.8646 67.7948Z"
                fill="black" />
            </g>
          </g>
          <g id="Group_30">
            <path id="Vector_74"
              d="M56.7133 62.164L60.2747 62.7313C60.2747 62.7313 59.6864 66.8769 57.2456 68.0494C53.0907 70.0449 41.3105 62.0502 41.3105 62.0502L47.1259 61.3137C48.3825 60.929 49.3577 59.9316 49.7155 58.6657L52.0763 50.3086L58.6428 53.6091L56.7139 62.1646L56.7133 62.164Z"
              fill="white" />
            <g id="Group_31">
              <path id="Vector_75"
                d="M52.4744 48.2823C52.4744 48.2823 50.8834 45.5917 49.1407 46.1345C46.4851 46.9621 46.6567 51.7135 51.0334 51.4847C51.0334 51.4847 56.2108 58.1067 61.1788 56.2688C66.1467 54.4309 62.503 43.2327 61.5395 41.3125C61.5395 41.3125 55.2467 41.8845 54.4477 44.4157C53.745 46.6417 54.7173 48.2823 52.4744 48.2823Z"
                fill="white" />
              <path id="Vector_76"
                d="M59.3774 56.7147C57.7578 56.7147 55.9888 56.0248 54.1667 54.669C52.4497 53.3909 51.2129 51.9108 50.9742 51.616C48.6146 51.7141 47.5354 50.4172 47.3107 49.1613C47.0604 47.7623 47.8308 46.4088 49.1025 46.0119C50.788 45.4867 52.2827 47.7313 52.546 48.1533C53.8638 48.1317 53.9111 47.5008 53.9957 46.3715C54.0377 45.8147 54.0897 45.1219 54.3249 44.3766C55.1402 41.794 61.2672 41.208 61.5276 41.1841C61.5801 41.1794 61.6303 41.2074 61.6542 41.2541C62.4293 42.799 64.9144 50.2369 63.359 54.1805C62.9248 55.2819 62.2063 56.0248 61.2235 56.3884C60.6358 56.6061 60.0177 56.7141 59.3769 56.7141L59.3774 56.7147ZM51.0338 51.3563C51.0729 51.3563 51.1108 51.3744 51.1347 51.4059C51.1861 51.4713 56.3122 57.9327 61.1342 56.1486C62.0452 55.8112 62.7135 55.1179 63.1203 54.0877C64.6197 50.2865 62.2688 43.1334 61.4639 41.4502C60.7052 41.5319 55.285 42.1932 54.5706 44.4548C54.3441 45.1715 54.2957 45.8193 54.2525 46.3913C54.1644 47.5638 54.1008 48.4113 52.4748 48.4113C52.4292 48.4113 52.3872 48.3873 52.3644 48.3482C52.3493 48.322 50.805 45.7516 49.1795 46.2577C47.871 46.6656 47.3703 48.0348 47.564 49.1163C47.7718 50.276 48.7879 51.4736 51.0273 51.3569C51.0297 51.3569 51.032 51.3569 51.0338 51.3569V51.3563Z"
                fill="black" />
            </g>
            <path id="Vector_77"
              d="M51.5509 49.9592C51.5194 49.9592 51.4873 49.9475 51.4622 49.9236C50.8453 49.3376 49.9442 49.0773 49.1107 49.2437C49.0413 49.2577 48.9736 49.2122 48.9596 49.1427C48.9456 49.0733 48.9911 49.0056 49.0605 48.9915C49.9745 48.8095 50.9626 49.0948 51.639 49.7369C51.6904 49.7859 51.6927 49.867 51.6437 49.9184C51.6186 49.9452 51.5848 49.9586 51.5503 49.9586L51.5509 49.9592Z"
              fill="black" />
          </g>
        </g>
        <path id="Vector_78"
          d="M65.6818 83.5407L58.1605 103.858H35.0595C34.7356 103.858 34.4467 104.059 34.3341 104.363C34.1467 104.869 34.5208 105.407 35.0595 105.407H80.6334C81.1984 105.407 81.7038 105.055 81.8999 104.524L89.4026 84.258C89.6523 83.5839 89.1539 82.8672 88.4355 82.8672H66.6483C66.217 82.8672 65.8312 83.1357 65.6812 83.5407H65.6818Z"
          fill="black" />
        <path id="Vector_79"
          d="M125.718 99.1435H83.9409C83.8697 99.1435 83.8125 99.0858 83.8125 99.0151C83.8125 98.9445 83.8703 98.8867 83.9409 98.8867H125.589V93.1245C125.589 93.0533 125.647 92.9961 125.718 92.9961C125.788 92.9961 125.846 93.0539 125.846 93.1245V99.0151C125.846 99.0863 125.788 99.1435 125.718 99.1435Z"
          fill="black" />
      </g>
    </g>
  </g>
</svg>