<svg width="23" height="22" viewBox="0 0 23 22" fill="none" xmlns="http://www.w3.org/2000/svg">
<g id="Group 13899">
<path id="Star 2" d="M10.5489 2.92705C10.8483 2.00574 12.1517 2.00574 12.4511 2.92705L13.7451 6.90983C13.879 7.32185 14.263 7.60081 14.6962 7.60081H18.8839C19.8527 7.60081 20.2554 8.84043 19.4717 9.40983L16.0838 11.8713C15.7333 12.126 15.5866 12.5773 15.7205 12.9894L17.0146 16.9721C17.3139 17.8934 16.2595 18.6596 15.4757 18.0902L12.0878 15.6287C11.7373 15.374 11.2627 15.374 10.9122 15.6287L7.52426 18.0902C6.74054 18.6596 5.68607 17.8934 5.98542 16.9721L7.2795 12.9894C7.41338 12.5773 7.26672 12.126 6.91623 11.8713L3.52827 9.40983C2.74456 8.84043 3.14734 7.60081 4.11606 7.60081H8.3038C8.73703 7.60081 9.12099 7.32185 9.25486 6.90983L10.5489 2.92705Z" fill="#FF9811"/>
</g>
</svg>
