<svg xmlns="http://www.w3.org/2000/svg" width="65" height="21" viewBox="0 0 65 21" fill="none">
  <g clip-path="url(#clip0_1868_16817)">
    <path d="M64.1252 0.0078125H0V20.0117H64.1252V0.0078125Z" fill="#1A3763" />
    <path
      d="M45.5292 12.2482V13.2688H47.3428V14.034H45.5305V14.9627H47.5551V15.7635H44.6406V11.4531H47.4574V12.2489H45.5299L45.5292 12.2482Z"
      fill="white" />
    <path
      d="M35.1229 15.7594H35.0722C34.7967 15.7594 34.5211 15.7588 34.2456 15.76C34.2068 15.76 34.1886 15.75 34.1748 15.7101C34.0721 15.4121 33.9663 15.1155 33.863 14.8182C33.8511 14.7838 33.8354 14.7713 33.7991 14.7713C33.2969 14.7726 32.7953 14.7726 32.293 14.7713C32.2542 14.7713 32.2392 14.7838 32.226 14.8207C32.1208 15.1155 32.0125 15.4096 31.9054 15.7045C31.8991 15.7213 31.8929 15.7376 31.8854 15.7569H31.0137C31.0594 15.6376 31.1045 15.5214 31.1496 15.4053C31.6549 14.103 32.1609 12.8001 32.665 11.4972C32.6807 11.4572 32.6995 11.4447 32.7408 11.4453C32.9625 11.4478 33.1842 11.4472 33.4058 11.4453C33.439 11.4453 33.4553 11.4541 33.4685 11.4878C34.0139 12.8963 34.5612 14.3047 35.1073 15.7132C35.1123 15.7263 35.1161 15.7401 35.1223 15.7594H35.1229ZM33.0508 12.5465C33.047 12.5465 33.0439 12.5452 33.0401 12.5452C32.861 13.0437 32.6819 13.5427 32.5022 14.0443H33.5824C33.4046 13.5427 33.2274 13.0443 33.0508 12.5465Z"
      fill="white" />
    <path
      d="M28.1875 11.4491C28.2 11.4478 28.2113 11.4459 28.2219 11.4459C28.8031 11.4472 29.3842 11.4409 29.9653 11.4522C30.3248 11.4591 30.6567 11.5665 30.9366 11.8045C31.1552 11.99 31.2773 12.2286 31.3199 12.5084C31.3593 12.7682 31.3487 13.0255 31.2572 13.2741C31.1332 13.612 30.884 13.8263 30.5578 13.9593C30.3442 14.0461 30.12 14.083 29.8902 14.0849C29.6134 14.0874 29.336 14.0861 29.0586 14.0861C29.0442 14.0861 29.0304 14.0861 29.011 14.0861V15.76H28.1875V11.4497V11.4491ZM29.0104 13.3322C29.021 13.3335 29.0273 13.3347 29.0335 13.3347C29.3072 13.3347 29.5815 13.3378 29.8551 13.3316C29.9472 13.3297 30.0411 13.311 30.13 13.286C30.2991 13.2392 30.4219 13.138 30.4644 12.9593C30.4939 12.8357 30.4945 12.7126 30.4644 12.5889C30.4325 12.4578 30.3549 12.3641 30.2327 12.306C30.1332 12.2579 30.0273 12.2292 29.9178 12.2267C29.6234 12.2211 29.3291 12.2211 29.0348 12.2192C29.0273 12.2192 29.0197 12.2223 29.011 12.2242V13.3316L29.0104 13.3322Z"
      fill="white" />
    <path
      d="M37.0005 15.7606H36.1751C36.1751 15.74 36.1751 15.7207 36.1751 15.7019C36.1751 15.1317 36.1751 14.5614 36.1739 13.9918C36.1739 13.9612 36.1639 13.9268 36.1482 13.9012C35.6547 13.103 35.16 12.3054 34.6659 11.5078C34.6553 11.4903 34.6446 11.4728 34.6309 11.4491C34.6534 11.4478 34.6684 11.4466 34.6835 11.4466C34.964 11.4466 35.2439 11.4472 35.5245 11.4453C35.5614 11.4453 35.5802 11.4578 35.599 11.4897C35.9196 12.0318 36.2415 12.5727 36.5634 13.1142C36.5721 13.1292 36.5815 13.1442 36.5941 13.1648C36.6072 13.1442 36.6185 13.1273 36.6285 13.1099C36.9523 12.5715 37.276 12.0337 37.5979 11.4947C37.6198 11.4578 37.6436 11.4453 37.6849 11.4459C37.9542 11.4478 38.2235 11.4472 38.4928 11.4472H38.5535C38.5391 11.4722 38.5291 11.4897 38.5184 11.5065C38.0225 12.3035 37.5265 13.0999 37.0318 13.8975C37.0136 13.9268 37.0024 13.9662 37.0017 14.0012C36.9999 14.5683 37.0005 15.1348 37.0005 15.7019V15.7619V15.7606Z"
      fill="white" />
    <path d="M55.8896 12.2495H54.5545V15.7635H53.7292V12.2526H52.3984V11.4531H55.8903V12.2495H55.8896Z" fill="white" />
    <path
      d="M42.9207 11.4497V11.4453H42.4742L41.3652 14.4877L40.1923 11.4497H39.9368H39.1133V12.4072V15.76H39.9368V12.722L40.9506 15.4271H41.7134L42.7297 12.8856V15.76H43.5532V12.4072V11.4497H42.9207Z"
      fill="white" />
    <path
      d="M51.0737 11.4531V14.5268L49.1875 11.4531H48.4316V15.7635H49.1875V12.8466L51.0737 15.7635H51.8295V11.4531H51.0737Z"
      fill="white" />
    <path
      d="M54.5739 7.81906C55.011 8.50549 55.4468 9.18942 55.8889 9.88272H55.825C55.5032 9.88272 55.1819 9.8821 54.86 9.88397C54.82 9.88397 54.7987 9.87148 54.7774 9.8365C54.4073 9.21753 54.0353 8.59918 53.6658 7.9802C53.6427 7.94148 53.6176 7.92774 53.5744 7.92836C53.4091 7.93086 53.2438 7.92961 53.0728 7.92961V9.87898H52.1172V4.8947C52.1328 4.89345 52.1454 4.89095 52.1579 4.89095C52.8305 4.8922 53.503 4.88658 54.1756 4.89782C54.5601 4.90469 54.9233 5.0065 55.2408 5.24447C55.5533 5.4787 55.7104 5.80161 55.7468 6.19136C55.7737 6.4793 55.7499 6.76162 55.6284 7.02707C55.4643 7.38684 55.1813 7.60794 54.8256 7.73973C54.7454 7.76971 54.6622 7.79095 54.5726 7.81906H54.5739ZM53.0734 7.04206C53.0966 7.04331 53.1129 7.04456 53.1292 7.04456C53.4216 7.04456 53.7134 7.04581 54.0059 7.04393C54.0867 7.04393 54.1674 7.03644 54.2476 7.0252C54.5964 6.9746 54.7811 6.7485 54.7649 6.39311C54.7548 6.16575 54.6684 5.984 54.4524 5.89843C54.3559 5.86033 54.2507 5.83097 54.1487 5.82785C53.7998 5.81723 53.4504 5.81973 53.101 5.81723C53.0922 5.81723 53.0841 5.82098 53.0734 5.82347V7.04269V7.04206Z"
      fill="white" />
    <path
      d="M36.7731 9.88459H35.8212V7.85028H33.7591V9.88271H32.8047V4.89906H33.7559V6.91401H35.8187V4.89844H36.7737V9.88459H36.7731Z"
      fill="white" />
    <path
      d="M42.2732 9.88429C42.0039 9.88429 41.7434 9.88429 41.4823 9.88429C41.4034 9.88429 41.3239 9.88179 41.245 9.88554C41.2055 9.88741 41.188 9.87367 41.1742 9.83494C41.0546 9.49017 40.9312 9.14726 40.8122 8.80249C40.796 8.75564 40.7747 8.74128 40.7264 8.74128C40.1472 8.74315 39.5686 8.74315 38.9893 8.74128C38.9461 8.74128 38.9261 8.75189 38.9098 8.79624C38.7877 9.13789 38.6624 9.4783 38.5378 9.8187C38.5303 9.83994 38.5215 9.86055 38.5134 9.88241H37.5039C37.512 9.85868 37.5183 9.83744 37.5265 9.81745C38.1583 8.19413 38.7902 6.5708 39.4208 4.94748C39.4364 4.90688 39.4546 4.89002 39.5003 4.89064C39.7596 4.89314 40.0188 4.89314 40.2781 4.89064C40.3194 4.89064 40.3382 4.90313 40.3538 4.94311C40.9863 6.57205 41.6207 8.20038 42.2544 9.8287C42.2607 9.84431 42.2651 9.85993 42.2732 9.88366V9.88429ZM39.231 7.89745H40.4841C40.2768 7.31532 40.0714 6.7382 39.861 6.1467C39.6475 6.74007 39.4402 7.31595 39.231 7.89745Z"
      fill="white" />
    <path d="M29.6259 5.82097H28.1875V4.89844H32.0281V5.81722H30.5847V9.88271H29.6266V5.82097H29.6259Z" fill="white" />
    <path d="M42.8574 4.89844H43.8055V9.88396H42.8574V4.89844Z" fill="white" />
    <path
      d="M51.3247 9.80682L50.5813 9.0698C50.6734 8.95924 50.7554 8.83807 50.8268 8.70566C51.0341 8.31966 51.1381 7.88244 51.1381 7.39338C51.1381 6.90432 51.0397 6.4796 50.8425 6.09922C50.6452 5.71884 50.359 5.42216 49.9839 5.20979C49.6082 4.99743 49.1867 4.89062 48.719 4.89062C48.0051 4.89062 47.422 5.11673 46.9705 5.56956C46.519 6.02239 46.293 6.64886 46.293 7.44897C46.293 7.87182 46.3894 8.27344 46.5835 8.65257C46.777 9.0317 47.0613 9.33088 47.4371 9.55011C47.8128 9.76934 48.2386 9.87865 48.7158 9.87865C49.1561 9.87865 49.5656 9.77934 49.9457 9.58134C49.9576 9.57509 49.9683 9.56822 49.9795 9.56198L50.7755 10.3515L51.3247 9.80682ZM48.7158 9.10165C48.3783 9.10165 48.0902 9.0292 47.8354 8.88054C47.5899 8.73689 47.4095 8.54763 47.2837 8.30154C47.1453 8.03047 47.0776 7.75127 47.0776 7.44897C47.0776 6.85623 47.2248 6.42088 47.5285 6.11671C47.8335 5.81065 48.2117 5.66825 48.7196 5.66825C49.0515 5.66825 49.3383 5.73883 49.5957 5.88498C49.8386 6.02239 50.0184 6.20852 50.1455 6.45461C50.2858 6.72569 50.354 7.03299 50.354 7.39338C50.354 7.75377 50.2826 8.06545 50.1355 8.33964C50.1017 8.40273 50.0641 8.46144 50.024 8.5164L49.2656 7.76439L48.7165 8.30904L49.3921 8.97923C49.1799 9.06105 48.9575 9.10165 48.7165 9.10165H48.7158Z"
      fill="white" />
    <path
      d="M11.9316 3.18196C12.1532 3.17071 12.3755 3.15447 12.5972 3.17134C14.5755 3.17321 16.5543 3.17134 18.5326 3.17196C19.4218 3.17633 20.3423 3.36746 21.0782 3.889C21.6981 4.32122 22.1365 4.97954 22.3657 5.69283C22.5072 6.1288 22.5842 6.586 22.5967 7.04383C22.5949 8.99757 22.5974 10.9519 22.5955 12.9057C24.0245 14.2804 25.4567 15.6526 26.8864 17.0267C26.934 17.0736 26.9985 17.1342 26.9797 17.2079C26.9452 17.2741 26.8588 17.2803 26.7931 17.2878C22.0613 17.2866 17.3296 17.2878 12.5985 17.2878C11.7675 17.2922 10.9152 17.1692 10.17 16.7838C9.73665 16.5608 9.34964 16.2454 9.05281 15.8594C8.55559 15.2167 8.30636 14.4103 8.25188 13.6077C8.23246 13.4103 8.24248 13.2117 8.24561 13.0137C8.24561 10.8264 8.24561 8.63905 8.24561 6.45172C8.2619 5.7809 8.45415 5.09884 8.87184 4.56419C9.2889 4.02016 9.90322 3.65852 10.5476 3.44741C10.9954 3.3 11.4625 3.21881 11.9316 3.18196ZM11.0993 4.99641C10.7856 5.09822 10.4969 5.29559 10.3172 5.57478C10.133 5.8596 10.0473 6.20438 10.0579 6.54166C10.0579 7.49354 10.0579 8.44543 10.0579 9.39731C10.8908 9.39731 11.7237 9.39793 12.5572 9.39731V8.03382C12.5546 7.80896 12.6548 7.57911 12.8408 7.44732C13.0281 7.31241 13.2673 7.27681 13.494 7.28243C13.8735 7.28243 14.253 7.28243 14.6325 7.28243C14.6343 6.48732 14.6318 5.69221 14.6337 4.8971C13.7714 4.8946 12.9091 4.8971 12.0474 4.89585C11.7293 4.86524 11.4037 4.89772 11.0993 4.99641ZM16.317 4.8946C16.3132 5.69033 16.3157 6.48607 16.3157 7.2818C16.7178 7.28243 17.1204 7.2818 17.5225 7.2818C17.7373 7.28305 17.9633 7.33052 18.1343 7.46731C18.304 7.60097 18.3935 7.81958 18.391 8.03257C18.391 8.48727 18.3867 8.94198 18.3885 9.39668C19.2227 9.39793 20.0568 9.39668 20.8903 9.39668V6.49544C20.8959 6.26496 20.859 6.03261 20.7776 5.8165C20.6649 5.51107 20.4325 5.25436 20.1432 5.10571C19.7637 4.90896 19.3222 4.85837 18.9008 4.89522C18.0397 4.8946 17.1787 4.8971 16.3176 4.89397L16.317 4.8946ZM10.0585 11.0544C10.0579 12.0593 10.0585 13.0637 10.0585 14.0687C10.0654 14.3073 10.1124 14.549 10.2276 14.7607C10.3647 15.0199 10.599 15.2198 10.8638 15.3422C11.2452 15.5202 11.6748 15.5746 12.0919 15.5558C12.9391 15.5564 13.7864 15.5558 14.6331 15.5558C14.6331 14.7607 14.6337 13.965 14.6331 13.1699C14.2304 13.1699 13.8284 13.1699 13.4264 13.1699C13.2116 13.1692 12.9855 13.1212 12.8145 12.9844C12.6448 12.8501 12.5559 12.6315 12.5584 12.4179V11.0544C11.7255 11.0544 10.8927 11.0544 10.0592 11.0544H10.0585ZM18.386 11.1518C18.3835 11.5809 18.3854 12.01 18.3854 12.4385C18.3923 12.6215 18.3453 12.8145 18.2182 12.9519C18.0761 13.1012 17.8638 13.1661 17.6615 13.1636C17.1968 13.1617 16.7322 13.1661 16.2675 13.1611C16.2569 13.2648 16.265 13.3685 16.2625 13.4728C16.2619 14.1555 16.2644 14.8375 16.2613 15.5202C16.4585 15.5277 16.6564 15.5215 16.8537 15.5233C18.8294 15.5221 20.8051 15.5258 22.7809 15.5215C21.9317 14.6708 21.0769 13.8263 20.2271 12.9762C19.6109 12.371 19.0079 11.7514 18.3867 11.1518H18.386Z"
      fill="white" />
    <path
      d="M18.3852 11.1562C19.007 11.7559 19.6094 12.3755 20.2256 12.9807C21.0754 13.8308 21.9302 14.6752 22.7794 15.5259C20.8036 15.5303 18.8279 15.5265 16.8522 15.5278C16.6543 15.5259 16.457 15.5322 16.2598 15.5247C16.2629 14.842 16.2598 14.1599 16.261 13.4772C16.2635 13.3729 16.2554 13.2686 16.266 13.1656C16.7307 13.1706 17.1953 13.1656 17.66 13.1681C17.8623 13.1706 18.0752 13.1056 18.2167 12.9563C18.3438 12.8189 18.3908 12.6259 18.3839 12.4429C18.3839 12.0138 18.382 11.5847 18.3845 11.1562H18.3852Z"
      fill="#54A69A" />
  </g>
  <defs>
    <clipPath id="clip0_1868_16817">
      <rect width="64.1252" height="20.0039" fill="white" transform="translate(0 0.0078125)" />
    </clipPath>
  </defs>
</svg>