<svg xmlns="http://www.w3.org/2000/svg" width="16" height="17" viewBox="0 0 16 17" fill="none">
  <path
    d="M6.66602 7.83333V11.8333M9.33268 7.83333V11.8333M2.66602 5.16667H13.3327M12.666 5.16667L12.088 13.2613C12.0641 13.5977 11.9135 13.9125 11.6668 14.1424C11.42 14.3722 11.0953 14.5 10.758 14.5H5.24068C4.90344 14.5 4.57873 14.3722 4.33194 14.1424C4.08515 13.9125 3.93463 13.5977 3.91068 13.2613L3.33268 5.16667H12.666ZM9.99935 5.16667V3.16667C9.99935 2.98986 9.92911 2.82029 9.80409 2.69526C9.67906 2.57024 9.50949 2.5 9.33268 2.5H6.66602C6.4892 2.5 6.31964 2.57024 6.19461 2.69526C6.06959 2.82029 5.99935 2.98986 5.99935 3.16667V5.16667H9.99935Z"
    stroke="#8F8F8F" stroke-width="1.33333" stroke-linecap="round" stroke-linejoin="round" />
</svg>