<svg xmlns="http://www.w3.org/2000/svg" width="22" height="22" viewBox="0 0 22 22" fill="none">
  <path
    d="M10.9999 12.832H11.9166C12.9249 12.832 13.7499 12.007 13.7499 10.9987V1.83203H5.49995C4.12495 1.83203 2.92411 2.59286 2.30078 3.7112"
    stroke="currentColor" stroke-width="1.2" stroke-linecap="round" stroke-linejoin="round" />
  <path
    d="M1.83398 15.582C1.83398 17.1037 3.06232 18.332 4.58398 18.332H5.50065C5.50065 17.3237 6.32565 16.4987 7.33398 16.4987C8.34232 16.4987 9.16732 17.3237 9.16732 18.332H12.834C12.834 17.3237 13.659 16.4987 14.6673 16.4987C15.6757 16.4987 16.5007 17.3237 16.5007 18.332H17.4173C18.939 18.332 20.1673 17.1037 20.1673 15.582V12.832H17.4173C16.9132 12.832 16.5007 12.4195 16.5007 11.9154V9.16536C16.5007 8.6612 16.9132 8.2487 17.4173 8.2487H18.5998L17.0323 5.50786C16.8708 5.22739 16.6385 4.99424 16.3586 4.83176C16.0786 4.66928 15.761 4.58317 15.4373 4.58203H13.7507V10.9987C13.7507 12.007 12.9257 12.832 11.9173 12.832H11.0007"
    stroke="currentColor" stroke-width="1.2" stroke-linecap="round" stroke-linejoin="round" />
  <path
    d="M1.83398 7.33203H7.33398M1.83398 10.082H5.50065M1.83398 12.832H3.66732M7.33398 20.1654C7.82021 20.1654 8.28653 19.9722 8.63035 19.6284C8.97416 19.2846 9.16732 18.8183 9.16732 18.332C9.16732 17.8458 8.97416 17.3795 8.63035 17.0357C8.28653 16.6919 7.82021 16.4987 7.33398 16.4987C6.84775 16.4987 6.38144 16.6919 6.03762 17.0357C5.69381 17.3795 5.50065 17.8458 5.50065 18.332C5.50065 18.8183 5.69381 19.2846 6.03762 19.6284C6.38144 19.9722 6.84775 20.1654 7.33398 20.1654ZM14.6673 20.1654C15.1535 20.1654 15.6199 19.9722 15.9637 19.6284C16.3075 19.2846 16.5007 18.8183 16.5007 18.332C16.5007 17.8458 16.3075 17.3795 15.9637 17.0357C15.6199 16.6919 15.1535 16.4987 14.6673 16.4987C14.1811 16.4987 13.7148 16.6919 13.371 17.0357C13.0271 17.3795 12.834 17.8458 12.834 18.332C12.834 18.8183 13.0271 19.2846 13.371 19.6284C13.7148 19.9722 14.1811 20.1654 14.6673 20.1654ZM20.1673 10.9987V12.832H17.4173C16.9132 12.832 16.5007 12.4195 16.5007 11.9154V9.16536C16.5007 8.6612 16.9132 8.2487 17.4173 8.2487H18.5998L20.1673 10.9987Z"
    stroke="currentColor" stroke-width="1.2" stroke-linecap="round" stroke-linejoin="round" />
</svg>