<svg width="88" height="20" viewBox="0 0 88 20" fill="none" xmlns="http://www.w3.org/2000/svg">
<g id="Group 18514">
<g id="Group 18513">
<g id="Group">
<g id="Layer 1">
<g id="Group_2">
<path id="Vector" fill-rule="evenodd" clip-rule="evenodd" d="M31.9937 0.769531C31.9051 0.769531 31.832 0.838524 31.832 0.922569V19.6094C31.832 19.6935 31.9051 19.7625 31.9937 19.7625H34.8636C34.9523 19.7625 35.0253 19.6935 35.0253 19.6094V0.922569C35.0253 0.838524 34.9523 0.769531 34.8636 0.769531H31.9937Z" fill="#231F20"/>
<path id="Vector_2" d="M21.0006 5.1476C20.3707 5.04976 19.7152 5.04976 19.0853 5.1476C16.0437 5.61926 13.75 8.30557 13.75 11.3964V19.4422C13.75 19.6184 13.893 19.7621 14.0684 19.7621H16.6967C16.8721 19.7621 17.0151 19.6184 17.0151 19.4422V11.3964C17.0151 9.98647 18.0102 8.73834 19.3818 8.4285C19.8151 8.33066 20.2714 8.33066 20.7041 8.4285C22.0757 8.73896 23.0708 9.9871 23.0708 11.397V19.4428C23.0708 19.6191 23.2138 19.7627 23.3892 19.7627H26.0175C26.1929 19.7627 26.3359 19.6191 26.3359 19.4428V11.3964C26.3359 8.30557 24.0422 5.61926 21 5.1476H21.0006Z" fill="#231F20"/>
<path id="Vector_3" d="M82.6647 5.1476C82.0348 5.04976 81.3792 5.04976 80.7493 5.1476C77.7077 5.61926 75.4141 8.30557 75.4141 11.3964V19.4422C75.4141 19.6184 75.557 19.7621 75.7325 19.7621H78.3608C78.5362 19.7621 78.6792 19.6184 78.6792 19.4422V11.3964C78.6792 9.98647 79.6743 8.73834 81.0459 8.4285C81.4791 8.33066 81.9355 8.33066 82.3681 8.4285C83.7397 8.73896 84.7349 9.9871 84.7349 11.397V19.4428C84.7349 19.6191 84.8778 19.7627 85.0533 19.7627H87.6816C87.857 19.7627 87.9999 19.6191 87.9999 19.4428V11.3964C87.9999 8.30557 85.7063 5.61926 82.6641 5.1476H82.6647Z" fill="#231F20"/>
<path id="Vector_4" d="M12.2675 5.07422H9.63919C9.46376 5.07422 9.3208 5.21785 9.3208 5.39409V13.4398C9.3208 14.8498 8.32566 16.0979 6.95408 16.4078C6.52144 16.5062 6.06445 16.5056 5.63181 16.4078C4.26085 16.0973 3.26509 14.8492 3.26509 13.4392V5.39409C3.26509 5.21785 3.12212 5.07422 2.9467 5.07422H0.318393C0.142965 5.07422 0 5.21785 0 5.39409V13.4398C0 16.5307 2.29368 19.217 5.33527 19.6887C5.65054 19.7376 5.97268 19.7621 6.29294 19.7621C6.61321 19.7621 6.93535 19.7376 7.25062 19.6887C10.2922 19.217 12.5859 16.5307 12.5859 13.4398V5.39409C12.5859 5.21785 12.4429 5.07422 12.2675 5.07422Z" fill="#231F20"/>
<g id="Group_3">
<path id="Vector_5" d="M27.962 5.14062H30.5229C30.6939 5.14062 30.8332 5.28049 30.8332 5.45234V19.4509C30.8332 19.6227 30.6939 19.7626 30.5229 19.7626H27.9626C27.7916 19.7626 27.6523 19.6227 27.6523 19.4509V5.45234C27.6523 5.28049 27.7916 5.14062 27.9626 5.14062H27.962Z" fill="#231F20"/>
<path id="Vector_6" d="M31.0766 2.61225C31.0766 1.59618 30.2538 0.769531 29.2424 0.769531C28.231 0.769531 27.4082 1.59618 27.4082 2.61225C27.4082 3.62832 28.231 4.45497 29.2424 4.45497C30.2538 4.45497 31.0766 3.62832 31.0766 2.61225Z" fill="#231F20"/>
</g>
<path id="Vector_7" fill-rule="evenodd" clip-rule="evenodd" d="M46.3853 15.551C45.9046 16.0333 45.329 16.3921 44.7016 16.6085C44.6885 16.6129 44.6748 16.6173 44.6616 16.6223C44.2234 16.769 43.7545 16.8481 43.267 16.8481C42.2487 16.8481 41.2848 16.4943 40.5188 15.8828C39.9444 15.4243 39.4818 14.8209 39.1903 14.1122C39.1878 14.1066 39.1859 14.1003 39.184 14.094C38.9736 13.5766 38.8575 13.0108 38.8575 12.4175C38.8575 11.8242 38.9736 11.2578 39.1847 10.7404C39.1865 10.7347 39.1884 10.7291 39.1903 10.7234C39.4793 10.0197 39.9382 9.41948 40.5069 8.96225C40.5069 8.96225 40.5082 8.96162 40.5088 8.96099C41.2642 8.35198 42.2238 7.98695 43.2676 7.98695C44.3114 7.98695 45.2585 8.34383 46.0264 8.96099C46.5957 9.41885 47.0552 10.0191 47.3443 10.7234C47.3468 10.7291 47.3486 10.7347 47.3505 10.7404C47.3798 10.8131 47.4079 10.8865 47.4335 10.9611H40.3883C40.2304 11.4171 40.1442 11.9076 40.1442 12.4175C40.1442 12.9274 40.2304 13.4185 40.3883 13.8745H50.324C50.399 13.8745 50.4608 13.8199 50.4701 13.7453L50.5213 13.3276C50.5588 13.0259 50.5769 12.7223 50.5769 12.4181C50.5769 12.1139 50.5582 11.8104 50.5213 11.5087C50.0693 7.83454 46.9503 5.07422 43.267 5.07422C39.5836 5.07422 36.4646 7.83454 36.0126 11.5087C35.9751 11.8104 35.957 12.1139 35.957 12.4181C35.957 12.7223 35.9751 13.0259 36.0126 13.3276C36.4646 17.0017 39.5836 19.7621 43.267 19.7621C45.211 19.7621 47.0608 18.9925 48.4355 17.6114L48.7708 17.2746C48.8276 17.2175 48.8276 17.1234 48.7708 17.0657L46.9285 15.2142C46.8717 15.1565 46.778 15.1565 46.7206 15.2142L46.3853 15.551Z" fill="#231F20"/>
<path id="Vector_8" d="M75.1132 5.07422H74.6356C70.8461 5.07422 67.6385 7.91921 67.1746 11.6925C67.1365 12.0023 67.1172 12.3165 67.1172 12.6276V12.6753C67.1172 12.7054 67.1172 12.7355 67.1172 12.7669V19.4604C67.1172 19.6272 67.252 19.7627 67.4181 19.7627H70.0445C70.2106 19.7627 70.3454 19.6272 70.3454 19.4604V12.775C70.3454 12.7418 70.3454 12.7085 70.3454 12.6753V12.6282C70.3454 12.3912 70.3648 12.1516 70.4035 11.917C70.7475 9.83155 72.5274 8.31811 74.6356 8.31811H75.1132C75.2793 8.31811 75.4141 8.18264 75.4141 8.0158V5.37779C75.4141 5.21095 75.2793 5.07547 75.1132 5.07547V5.07422Z" fill="#231F20"/>
<g id="Group_4">
<path id="Vector_9" d="M66.1716 12.7869C66.1766 12.674 66.1479 12.5618 66.1479 12.4476C66.1479 8.37519 62.8616 5.07422 58.808 5.07422C54.7544 5.07422 51.4688 8.37581 51.4688 12.4476C51.4688 15.8019 53.5489 18.7999 56.4607 19.4033C57.0088 19.5168 57.9471 19.7664 58.6701 19.7621C59.8587 19.7533 60.8226 18.7937 60.8226 17.5988C60.8226 16.404 59.8587 15.4362 58.6701 15.4362C58.6701 15.4362 57.5026 15.5347 57.1305 15.4362C55.9781 15.1314 55.3919 13.7309 55.3919 12.4476C55.3919 10.5522 56.9214 9.01556 58.8086 9.01556C60.6959 9.01556 62.2073 10.5522 62.2073 12.4476C62.2073 12.5762 62.2186 14.4057 62.2186 14.4057V17.634C62.2186 18.8093 63.1444 19.7621 64.2195 19.7621C65.2945 19.7621 66.2203 18.8093 66.2203 17.634" fill="#0057FF"/>
<g id="Group_5" style="mix-blend-mode:overlay">
<path id="Vector_10" style="mix-blend-mode:soft-light" d="M59.2919 5.09178C59.1314 5.08175 58.971 5.07422 58.808 5.07422C54.7544 5.07422 51.4688 8.37581 51.4688 12.4476C51.4688 13.2492 51.5886 14.0288 51.809 14.762C54.0802 11.8192 57.1049 7.91419 59.2925 5.09178H59.2919Z" fill="url(#paint0_linear_2047_6825)"/>
<path id="Vector_11" style="mix-blend-mode:multiply" opacity="0.5" d="M58.6693 15.4359C58.6693 15.4359 57.5019 15.5344 57.1298 15.4359C56.9231 15.3807 56.7352 15.2898 56.5648 15.1719L53.3809 17.5897C54.2093 18.5036 55.2644 19.1552 56.4599 19.403C57.008 19.5165 57.9464 19.7661 58.6693 19.7617C59.858 19.753 60.8219 18.7933 60.8219 17.5985C60.8219 16.4037 59.858 15.4359 58.6693 15.4359Z" fill="url(#paint1_linear_2047_6825)"/>
<path id="Vector_12" style="mix-blend-mode:multiply" opacity="0.5" d="M66.1463 12.4485C66.1463 11.0712 65.7692 9.78294 65.1149 8.67969L61.9316 11.0969C62.1071 11.5121 62.2051 11.9687 62.2051 12.4492C62.2051 12.5778 62.2163 14.4073 62.2163 14.4073V17.6355C62.2163 18.8109 63.1422 19.7636 64.2172 19.7636C65.2922 19.7636 66.2181 18.8109 66.2181 17.6355" fill="url(#paint2_linear_2047_6825)"/>
</g>
</g>
</g>
</g>
</g>
</g>
</g>
<defs>
<linearGradient id="paint0_linear_2047_6825" x1="51.4681" y1="9.91811" x2="59.2919" y2="9.91811" gradientUnits="userSpaceOnUse">
<stop stop-color="white"/>
<stop offset="1"/>
</linearGradient>
<linearGradient id="paint1_linear_2047_6825" x1="53.3809" y1="17.4668" x2="60.8219" y2="17.4668" gradientUnits="userSpaceOnUse">
<stop stop-color="white"/>
<stop offset="1"/>
</linearGradient>
<linearGradient id="paint2_linear_2047_6825" x1="61.9316" y1="14.2217" x2="66.2181" y2="14.2217" gradientUnits="userSpaceOnUse">
<stop stop-color="white"/>
<stop offset="1"/>
</linearGradient>
</defs>
</svg>
