<svg xmlns="http://www.w3.org/2000/svg" width="168" height="43" viewBox="0 0 168 43" fill="none">
  <g clip-path="url(#clip0_1861_21700)">
    <path d="M40.2851 8.41956C39.0775 8.23515 37.8208 8.23515 36.6131 8.41956C30.782 9.30852 26.3848 14.3716 26.3848 20.1971V35.3615C26.3848 35.6937 26.6588 35.9644 26.9952 35.9644H32.034C32.3703 35.9644 32.6444 35.6937 32.6444 35.3615V20.1971C32.6444 17.5397 34.5521 15.1873 37.1817 14.6033C38.0123 14.4189 38.8872 14.4189 39.7166 14.6033C42.3461 15.1884 44.2539 17.5409 44.2539 20.1983V35.3627C44.2539 35.6949 44.528 35.9656 44.8643 35.9656H49.9031C50.2394 35.9656 50.5135 35.6949 50.5135 35.3627V20.1971C50.5135 14.3716 46.1162 9.30852 40.2839 8.41956H40.2851Z" fill="white"/>
    <path d="M145.862 8.41175C144.654 8.22733 143.397 8.22733 142.19 8.41175C136.357 9.30071 131.959 14.365 131.959 20.1905V35.3561C131.959 35.6894 132.233 35.9589 132.569 35.9589H137.608C137.944 35.9589 138.219 35.6882 138.219 35.3561V20.1905C138.219 17.5331 140.128 15.1806 142.757 14.5955C143.588 14.4111 144.463 14.4111 145.292 14.5955C147.922 15.1806 149.829 17.5331 149.829 20.1905V35.3561C149.829 35.6894 150.103 35.9589 150.44 35.9589H155.479C155.815 35.9589 156.089 35.6882 156.089 35.3561V20.1917C156.089 14.365 151.69 9.30071 145.858 8.41293L145.862 8.41175Z" fill="white"/>
    <path d="M23.5183 8.28125H18.4795C18.1432 8.28125 17.8691 8.55196 17.8691 8.88414V24.0485C17.8691 26.7059 15.9613 29.0584 13.3318 29.6423C12.5024 29.8279 11.6263 29.8268 10.7969 29.6423C8.16858 29.0572 6.25958 26.7048 6.25958 24.0473V8.88532C6.25958 8.55314 5.9855 8.28243 5.64919 8.28243H0.610399C0.274081 8.28243 0 8.55314 0 8.88532V24.0485C0 29.874 4.39727 34.9371 10.2284 35.8261C10.8328 35.9183 11.4504 35.9644 12.0644 35.9644C12.6784 35.9644 13.2959 35.9183 13.9003 35.8261C19.7315 34.9371 24.1287 29.874 24.1287 24.0485V8.88532C24.1287 8.55314 23.8546 8.28243 23.5183 8.28243V8.28125Z" fill="white"/>
    <path d="M53.8355 8.27344H58.7678C59.0981 8.27344 59.365 8.53823 59.365 8.86332V35.3691C59.365 35.6953 59.0969 35.9601 58.7666 35.9601H53.8355C53.5052 35.9601 53.2383 35.6953 53.2383 35.3702V8.8645C53.2383 8.53823 53.5064 8.27462 53.8355 8.27462V8.27344Z" fill="white"/>
    <path d="M59.8338 3.48965C59.8338 1.56514 58.2492 0 56.3007 0C54.3522 0 52.7676 1.56514 52.7676 3.48965C52.7676 5.41416 54.3522 6.9793 56.3007 6.9793C58.2492 6.9793 59.8338 5.41416 59.8338 3.48965Z" fill="white"/>
    <path d="M123.725 8.35156H128.643C128.972 8.35156 129.239 8.61518 129.239 8.94026V35.3703C129.239 35.6954 128.972 35.959 128.643 35.959H123.725C123.396 35.959 123.129 35.6954 123.129 35.3703V8.94026C123.129 8.61518 123.396 8.35156 123.725 8.35156Z" fill="white"/>
    <path d="M129.705 3.58057C129.705 1.66197 128.125 0.101562 126.183 0.101562C124.24 0.101562 122.66 1.66197 122.66 3.58057C122.66 5.49917 124.24 7.05958 126.183 7.05958C128.125 7.05958 129.705 5.49917 129.705 3.58057Z" fill="white"/>
    <path d="M164.583 14.4501H169.413C169.729 14.4501 169.988 14.1959 169.988 13.8826V8.8775C169.988 8.56542 169.73 8.31008 169.413 8.31008H164.583C164.56 8.31008 164.541 8.29117 164.541 8.26871V1.23149C164.541 0.919403 164.283 0.664062 163.966 0.664062H158.92C158.604 0.664062 158.346 0.91822 158.346 1.23149V31.3143C158.346 33.8748 160.455 35.9589 163.048 35.9589H169.412C169.728 35.9589 169.986 35.7048 169.986 35.3915V30.4076C169.986 30.0956 169.729 29.8402 169.412 29.8402H164.58C164.557 29.8402 164.538 29.8213 164.538 29.7988V14.4914C164.538 14.469 164.559 14.4501 164.581 14.4501H164.583Z" fill="white"/>
    <path d="M77.8398 8.37894C76.6884 8.23827 75.5155 8.23827 74.3689 8.37894C67.3672 9.23362 62.0879 15.1395 62.0879 22.1177V42.2163C62.0879 42.6477 62.4434 42.9988 62.8802 42.9988H67.6916C68.1285 42.9988 68.4839 42.6477 68.4839 42.2163V22.1177C68.4839 18.42 71.1589 15.298 74.8452 14.6939C75.6806 14.5568 76.5376 14.5579 77.361 14.6939L77.4616 14.7104C81.0905 15.35 83.7236 18.4649 83.7236 22.1177C83.7236 25.7704 81.0486 28.9374 77.3622 29.5414C76.528 29.6774 75.6759 29.6774 74.8464 29.5414L74.7399 29.5237C73.5718 29.3168 72.4527 28.831 71.5024 28.1182C71.257 27.9349 70.9459 27.9054 70.6718 28.0413C70.3965 28.1761 70.2313 28.4385 70.2313 28.7423V34.1825C70.2313 34.504 70.418 34.7806 70.7197 34.9048C71.8842 35.3824 73.1122 35.7027 74.3701 35.8564C75.5215 35.9971 76.6896 35.9971 77.841 35.8564C84.8426 35.0017 90.122 29.0958 90.122 22.1188C90.122 15.1419 84.8426 9.23481 77.841 8.38131L77.8398 8.37894Z" fill="white"/>
    <path d="M106.391 8.28125V15.2747C110.219 15.2747 113.323 18.34 113.323 22.1216H120.405V13.2273C120.405 10.4954 118.163 8.28125 115.397 8.28125H106.391Z" fill="url(#paint0_linear_1861_21700)"/>
    <path d="M106.391 11.875V15.2772C107.348 15.2772 108.26 15.4687 109.09 15.815C109.297 15.9013 109.499 15.9983 109.695 16.1035C109.99 16.2619 110.272 16.4404 110.539 16.6378C110.984 16.9664 111.388 17.3459 111.741 17.7691C111.882 17.9381 112.015 18.1143 112.139 18.2963C112.699 19.1155 113.086 20.0624 113.244 21.0826C113.297 21.4231 113.324 21.7706 113.324 22.1253H116.769C116.769 16.4652 112.122 11.8762 106.391 11.8762" fill="url(#paint1_linear_1861_21700)"/>
    <path d="M113.251 23.1088C112.768 26.4235 109.881 28.971 106.391 28.971C102.562 28.971 99.4576 25.9057 99.4576 22.1229C99.4576 18.6758 102.037 15.8245 105.393 15.3469V8.32031C98.1195 8.82626 92.377 14.8102 92.377 22.1229C92.377 29.4355 98.6509 35.9644 106.391 35.9644C114.131 35.9644 119.853 30.2926 120.366 23.1088H113.251Z" fill="white"/>
    <path d="M113.252 23.1096C112.769 26.4243 109.882 28.9717 106.392 28.9717C102.563 28.9717 99.4582 25.9065 99.4582 22.1237C99.4582 18.6766 102.037 15.8253 105.393 15.3477V11.9219C100.131 12.4184 96.0137 16.7958 96.0137 22.1237C96.0137 27.7849 100.66 32.3739 106.392 32.3739C111.786 32.3739 116.218 28.3074 116.719 23.1096H113.251H113.252Z" fill="#EAECF0"/>
  </g>
  <defs>
    <linearGradient id="paint0_linear_1861_21700" x1="106.391" y1="15.2026" x2="120.405" y2="15.2026" gradientUnits="userSpaceOnUse">
      <stop offset="0.74" stop-color="#F1F2F2"/>
      <stop offset="0.8" stop-color="#F1F2F2"/>
      <stop offset="1" stop-color="#E6E7E8"/>
    </linearGradient>
    <linearGradient id="paint1_linear_1861_21700" x1="106.391" y1="16.9995" x2="116.769" y2="16.9995" gradientUnits="userSpaceOnUse">
      <stop stop-color="#E6E7E8"/>
      <stop offset="1" stop-color="#E6E7E8"/>
    </linearGradient>
    <clipPath id="clip0_1861_21700">
      <rect width="167.969" height="43" fill="white"/>
    </clipPath>
  </defs>
</svg>