<svg width="123" height="22" viewBox="0 0 123 22" fill="none" xmlns="http://www.w3.org/2000/svg">
<g id="Layer_1" clip-path="url(#clip0_2047_6784)">
<path id="Vector" fill-rule="evenodd" clip-rule="evenodd" d="M85.1404 18.3741V9.52389C85.1404 9.4194 85.2241 9.33488 85.3253 9.33488H88.0147C88.1016 9.33488 88.173 9.26167 88.173 9.17249V6.27879C88.173 6.18961 88.1016 6.1164 88.0147 6.1164H85.3253C85.2234 6.1164 85.141 6.03121 85.141 5.92739V1.8577C85.141 1.76852 85.0697 1.69531 84.9827 1.69531H82.1739C82.087 1.69531 82.0156 1.76852 82.0156 1.8577V19.2499C82.0156 20.6368 83.1199 21.7696 84.4721 21.7696H88.0147C88.1016 21.7696 88.173 21.6964 88.173 21.6072V18.7261C88.173 18.6369 88.1016 18.5637 88.0147 18.5637H85.3247C85.2228 18.5637 85.1404 18.4785 85.1404 18.3747V18.3741Z" fill="#231F20"/>
<path id="Vector_2" fill-rule="evenodd" clip-rule="evenodd" d="M36.2991 10.2847C36.2737 10.1656 36.2763 10.0418 36.3016 9.92264C36.3853 9.52532 36.6916 9.27109 37.088 9.27109H44.9505C45.0375 9.27109 45.1089 9.19788 45.1089 9.10936V6.22098C45.1089 6.1318 45.0375 6.05859 44.9505 6.05859H37.088C35.6463 6.05859 34.2909 6.97569 33.6051 8.25616C33.439 8.56629 33.3125 8.89972 33.2398 9.2458C33.1555 9.64711 33.1139 10.0584 33.1373 10.469C33.1931 11.4347 33.598 12.2134 34.2468 12.9002C34.5952 13.2689 35.0098 13.5644 35.466 13.776L42.1839 16.8914C42.4162 16.9992 42.5875 17.1975 42.6414 17.4551C42.666 17.5749 42.6641 17.698 42.6388 17.8171C42.5551 18.2144 42.2488 18.4687 41.8524 18.4687H33.9717C33.8848 18.4687 33.8134 18.5419 33.8134 18.631V21.5194C33.8134 21.6086 33.8848 21.6818 33.9717 21.6818H41.8524C43.2941 21.6818 44.6495 20.7647 45.3353 19.4842C45.5014 19.1741 45.6279 18.8407 45.7006 18.4946C45.7849 18.0933 45.8265 17.682 45.8031 17.2714C45.7473 16.3057 45.3424 15.527 44.6936 14.8402C44.3452 14.4715 43.9306 14.176 43.4745 13.9644L36.7565 10.849C36.5242 10.7412 36.3529 10.5429 36.2991 10.2847Z" fill="#231F20"/>
<path id="Vector_3" fill-rule="evenodd" clip-rule="evenodd" d="M100.15 6.11849C96.3405 6.601 93.4785 9.93462 93.4785 13.8699C93.4785 17.8051 96.3405 21.1381 100.15 21.6212C100.463 21.6605 100.779 21.6811 101.094 21.6811C101.409 21.6811 101.724 21.6612 102.037 21.6212C105.847 21.1381 108.709 17.8051 108.709 13.8699C108.709 9.93462 105.847 6.60166 102.037 6.11849C101.724 6.07856 101.409 6.05859 101.094 6.05859C100.779 6.05859 100.464 6.07856 100.15 6.11849ZM101.911 9.23249C104.097 9.63247 105.687 11.5958 105.687 13.8699C105.687 16.144 104.064 18.1412 101.852 18.5172C101.601 18.5598 101.348 18.5818 101.094 18.5818C100.84 18.5818 100.586 18.5605 100.336 18.5179L100.272 18.5073C98.0891 18.1059 96.5008 16.1433 96.5008 13.8705C96.5008 11.5978 98.1235 9.59919 100.336 9.22317C100.586 9.18057 100.84 9.15861 101.094 9.15861C101.348 9.15861 101.601 9.17991 101.852 9.2225L101.911 9.23249Z" fill="#231F20"/>
<path id="Vector_4" fill-rule="evenodd" clip-rule="evenodd" d="M89.3025 6.1157C89.2155 6.1157 89.1442 6.18891 89.1442 6.27809V21.6071C89.1442 21.6963 89.2155 21.7695 89.3025 21.7695H92.1113C92.1982 21.7695 92.2696 21.6963 92.2696 21.6071V6.27809C92.2696 6.18891 92.1982 6.1157 92.1113 6.1157H89.3025ZM90.7072 0.769531C89.6788 0.769531 88.8457 1.62407 88.8457 2.67892C88.8457 3.73378 89.6788 4.58832 90.7072 4.58832C91.7356 4.58832 92.5687 3.73378 92.5687 2.67892C92.5687 1.62407 91.7356 0.769531 90.7072 0.769531Z" fill="#231F20"/>
<path id="Vector_5" fill-rule="evenodd" clip-rule="evenodd" d="M63.3321 1.43359C63.24 1.43359 63.1641 1.50747 63.1641 1.59731V21.6043C63.1641 21.6942 63.24 21.7681 63.3321 21.7681H66.3148C66.4069 21.7681 66.4828 21.6942 66.4828 21.6043V1.59731C66.4828 1.50747 66.4069 1.43359 66.3148 1.43359H63.3321Z" fill="#231F20"/>
<path id="Vector_6" d="M73.2512 21.6033C73.9079 21.7071 74.5904 21.7071 75.2464 21.6033C78.4153 21.1021 80.8049 18.2444 80.8049 14.9567V6.39934C80.8049 6.21166 80.6563 6.05859 80.4727 6.05859H77.7347C77.5517 6.05859 77.4031 6.211 77.4031 6.39934V14.9567C77.4031 16.4561 76.3663 17.7838 74.9375 18.1133C74.486 18.2177 74.011 18.2177 73.5601 18.1133C72.1314 17.7832 71.0945 16.4554 71.0945 14.956V6.39934C71.0945 6.21166 70.9459 6.05859 70.763 6.05859H68.0249C67.8419 6.05859 67.6934 6.211 67.6934 6.39934V14.9567C67.6934 18.2444 70.083 21.1015 73.2519 21.6033H73.2512Z" fill="#231F20"/>
<path id="Vector_7" d="M117.455 6.17552C116.801 6.0717 116.119 6.0717 115.465 6.17552C112.304 6.676 109.92 9.52645 109.92 12.8062V21.3435C109.92 21.5305 110.069 21.6829 110.251 21.6829H112.982C113.165 21.6829 113.313 21.5305 113.313 21.3435V12.8062C113.313 11.3101 114.348 9.98566 115.773 9.65689C116.223 9.55307 116.698 9.55307 117.147 9.65689C118.573 9.98632 119.607 11.3107 119.607 12.8068V21.3442C119.607 21.5312 119.756 21.6836 119.938 21.6836H122.669C122.852 21.6836 123 21.5312 123 21.3442V12.8062C123 9.52645 120.617 6.676 117.455 6.17552H117.455Z" fill="#231F20"/>
<path id="Vector_8" d="M21.8265 6.19115C21.1719 6.08733 20.4906 6.08733 19.8359 6.19115C16.6748 6.69162 14.291 9.54207 14.291 12.8218V21.3591C14.291 21.5462 14.4396 21.6986 14.6219 21.6986H17.3535C17.5358 21.6986 17.6844 21.5462 17.6844 21.3591V12.8218C17.6844 11.3257 18.7186 10.0013 20.1441 9.67251C20.5944 9.56869 21.0687 9.56869 21.5183 9.67251C22.9438 10.0019 23.978 11.3263 23.978 12.8224V21.3598C23.978 21.5468 24.1266 21.6992 24.309 21.6992H27.0405C27.2228 21.6992 27.3714 21.5468 27.3714 21.3598V12.8218C27.3714 9.54207 24.9876 6.69162 21.8259 6.19115H21.8265Z" fill="#231F20"/>
<path id="Vector_9" d="M12.7495 6.11328H10.0179C9.83561 6.11328 9.68703 6.26569 9.68703 6.4527V14.9901C9.68703 16.4862 8.6528 17.8106 7.22732 18.1393C6.77768 18.2438 6.30273 18.2432 5.8531 18.1393C4.42826 17.8099 3.39338 16.4855 3.39338 14.9894V6.4527C3.39338 6.26569 3.2448 6.11328 3.06248 6.11328H0.330903C0.148582 6.11328 0 6.26569 0 6.4527V14.9901C0 18.2698 2.3838 21.1202 5.5449 21.6207C5.87256 21.6726 6.20736 21.6986 6.54021 21.6986C6.87306 21.6986 7.20785 21.6726 7.53551 21.6207C10.6966 21.1202 13.0804 18.2698 13.0804 14.9901V6.4527C13.0804 6.26569 12.9318 6.11328 12.7495 6.11328Z" fill="#231F20"/>
<g id="Group">
<path id="Vector_10" d="M28.9234 6.09375H31.5972C31.7763 6.09375 31.921 6.24283 31.921 6.42585V21.3483C31.921 21.5319 31.7756 21.681 31.5966 21.681H28.9234C28.7443 21.681 28.5996 21.5319 28.5996 21.3489V6.42585C28.5996 6.24216 28.7449 6.09375 28.9234 6.09375Z" fill="#231F20"/>
<path id="Vector_11" d="M32.1764 3.39823C32.1764 2.31475 31.3173 1.43359 30.2611 1.43359C29.2048 1.43359 28.3457 2.31475 28.3457 3.39823C28.3457 4.4817 29.2048 5.36286 30.2611 5.36286C31.3173 5.36286 32.1764 4.4817 32.1764 3.39823Z" fill="#231F20"/>
</g>
<g id="Group_2">
<path id="Vector_12" fill-rule="evenodd" clip-rule="evenodd" d="M54.4868 5.875C58.7411 5.875 62.191 9.4136 62.191 13.7775C62.191 15.4599 61.6777 17.0192 60.8038 18.3004L58.505 15.9424C58.8372 15.2955 59.0253 14.5588 59.0253 13.7775C59.0253 11.2065 56.9932 9.1221 54.4868 9.1221C51.9803 9.1221 49.9482 11.2065 49.9482 13.7775C49.9482 16.3484 51.9803 18.4328 54.4868 18.4328C55.2654 18.4328 55.9979 18.2318 56.6383 17.8771L58.9332 20.2311C57.6771 21.1435 56.1432 21.6799 54.4874 21.6799C50.233 21.6799 46.7832 18.1413 46.7832 13.7775C46.7832 9.4136 50.233 5.875 54.4874 5.875" fill="#0057FF"/>
<path id="Vector_13" fill-rule="evenodd" clip-rule="evenodd" d="M58.8719 7.27734C60.8774 8.70423 62.1919 11.0822 62.1919 13.7749C62.1919 15.4573 61.6787 17.0166 60.8047 18.2978L58.5059 15.9398C58.8381 15.2929 59.0263 14.5562 59.0263 13.7749C59.0263 12.3307 58.3852 11.0402 57.3789 10.1864C57.6819 9.10821 58.1958 8.1219 58.8719 7.27734Z" fill="#0057FF"/>
<path id="Vector_14" fill-rule="evenodd" clip-rule="evenodd" d="M58.9293 20.2273L58.9332 20.2313C57.6771 21.1437 56.1432 21.6801 54.4874 21.6801C50.233 21.6801 46.7832 18.1415 46.7832 13.7777C46.7832 10.655 48.55 7.95501 51.1135 6.67188C49.7081 8.14202 48.8406 10.1559 48.8406 12.3768C48.8406 16.877 52.3988 20.5268 56.7862 20.5268C57.5285 20.5268 58.2467 20.4223 58.9286 20.2266" fill="#0057FF"/>
</g>
<path id="Vector_15" d="M54.4874 15.5339C55.3735 15.5339 56.0919 14.797 56.0919 13.888C56.0919 12.9791 55.3735 12.2422 54.4874 12.2422C53.6012 12.2422 52.8828 12.9791 52.8828 13.888C52.8828 14.797 53.6012 15.5339 54.4874 15.5339Z" fill="#0057FF"/>
</g>
<defs>
<clipPath id="clip0_2047_6784">
<rect width="123" height="21" fill="white" transform="translate(0 0.769531)"/>
</clipPath>
</defs>
</svg>
