<svg width="91" height="19" viewBox="0 0 91 19" fill="none" xmlns="http://www.w3.org/2000/svg">
<g id="Group 18823">
<path id="Vector" d="M76.4453 7.15715V4.56146C76.4453 4.43073 76.336 4.32422 76.2018 4.32422H75.7174C71.9048 4.32422 68.6771 7.10087 68.2101 10.7835C68.1716 11.0855 68.1523 11.3929 68.1523 11.6961V11.7427C68.1523 11.773 68.1523 11.8027 68.1523 11.8329V18.4187C68.1523 18.5494 68.2617 18.6559 68.3958 18.6559H71.0601C71.1943 18.6559 71.3036 18.5494 71.3036 18.4187V11.8396C71.3036 11.8075 71.3036 11.7748 71.3036 11.7427V11.6961C71.3036 11.4595 71.3234 11.2205 71.3632 10.9862C71.7172 8.90557 73.5481 7.395 75.7174 7.39439H76.2018C76.336 7.39439 76.4453 7.28788 76.4453 7.15715Z" fill="#212121"/>
<path id="Vector_2" d="M20.8926 4.60987C20.266 4.51546 19.6139 4.51546 18.9872 4.60987C15.9614 5.06498 13.6797 7.65704 13.6797 10.6395V18.4029C13.6797 18.573 13.8219 18.7116 13.9964 18.7116H16.6111C16.7856 18.7116 16.9278 18.573 16.9278 18.4029V10.6395C16.9278 9.27898 17.9178 8.07463 19.2822 7.77566C19.7132 7.68125 20.1672 7.68125 20.5976 7.77566C21.9621 8.07524 22.952 9.27958 22.952 10.6401V18.4036C22.952 18.5736 23.0942 18.7122 23.2688 18.7122H25.8834C26.0579 18.7122 26.2001 18.5736 26.2001 18.4036V10.6395C26.2001 7.65704 23.9184 5.06498 20.892 4.60987H20.8926Z" fill="#212121"/>
<path id="Vector_3" d="M12.2037 4.53906H9.58906C9.41455 4.53906 9.27233 4.67765 9.27233 4.84771V12.6112C9.27233 13.9717 8.28237 15.176 6.91791 15.475C6.48752 15.57 6.03291 15.5694 5.60252 15.475C4.23869 15.1754 3.24811 13.9711 3.24811 12.6106V4.84832C3.24811 4.67826 3.10589 4.53967 2.93137 4.53967H0.316737C0.142221 4.53967 0 4.67826 0 4.84832V12.6112C0 15.5936 2.28175 18.1857 5.30752 18.6408C5.62115 18.688 5.94162 18.7116 6.26022 18.7116C6.57882 18.7116 6.89928 18.688 7.21291 18.6408C10.2387 18.1857 12.5204 15.5936 12.5204 12.6112V4.84832C12.5204 4.67826 12.3782 4.53967 12.2037 4.53967V4.53906Z" fill="#212121"/>
<g id="Group">
<path id="Vector_4" d="M27.6849 4.51953H30.2443C30.4157 4.51953 30.5542 4.6551 30.5542 4.82153V18.3913C30.5542 18.5583 30.4151 18.6939 30.2436 18.6939H27.6849C27.5135 18.6939 27.375 18.5583 27.375 18.3919V4.82213C27.375 4.6551 27.5141 4.52014 27.6849 4.52014V4.51953Z" fill="#212121"/>
<path id="Vector_5" d="M30.7976 2.0717C30.7976 1.08644 29.9753 0.285156 28.9642 0.285156C27.9531 0.285156 27.1309 1.08644 27.1309 2.0717C27.1309 3.05697 27.9531 3.85825 28.9642 3.85825C29.9753 3.85825 30.7976 3.05697 30.7976 2.0717Z" fill="#212121"/>
</g>
<path id="Vector_6" d="M50.6843 4.4092H48.1336C48.0883 4.4092 48.0516 4.37349 48.0516 4.32931V0.663019C48.0516 0.532296 47.9423 0.425781 47.8082 0.425781H45.1438C45.0097 0.425781 44.9004 0.532296 44.9004 0.663019V16.3346C44.9004 17.6364 45.9872 18.6955 47.3231 18.6955H50.683C50.8172 18.6955 50.9265 18.589 50.9265 18.4583V15.862C50.9265 15.7312 50.8172 15.6247 50.683 15.6247H48.1317C48.0864 15.6247 48.0498 15.589 48.0498 15.5455V7.57075C48.0498 7.52657 48.087 7.49087 48.1324 7.49087H50.683C50.8172 7.49087 50.9265 7.38435 50.9265 7.25363V4.64583C50.9265 4.51511 50.8172 4.40859 50.683 4.40859L50.6843 4.4092Z" fill="#212121"/>
<path id="Vector_7" d="M42.7286 12.3661C42.3907 12.0266 41.9914 11.7536 41.5417 11.5557L35.1573 8.74338C34.9542 8.65381 34.8188 8.49585 34.7747 8.29735C34.7543 8.20475 34.7549 8.10792 34.7772 8.00867C34.8474 7.69033 35.0989 7.49243 35.4337 7.49243H42.9056C43.0397 7.49243 43.149 7.38592 43.149 7.25519V4.64739C43.149 4.51667 43.0397 4.41016 42.9056 4.41016H35.4337C34.0686 4.41016 32.7371 5.2072 32.0421 6.4412C31.8744 6.73896 31.7546 7.04822 31.6856 7.35929C31.5981 7.75448 31.5651 8.13455 31.5863 8.48798C31.6372 9.32437 31.9906 10.0609 32.6669 10.7405C33.0054 11.08 33.4047 11.353 33.8537 11.5509L40.2388 14.3632C40.4412 14.4522 40.5773 14.6108 40.6207 14.8087C40.6412 14.9013 40.64 14.9987 40.6182 15.0974C40.5474 15.4157 40.2959 15.6136 39.9618 15.6136H32.4725C32.3384 15.6136 32.2291 15.7201 32.2291 15.8508V18.4586C32.2291 18.5893 32.3384 18.6959 32.4725 18.6959H39.9618C41.3269 18.6959 42.6584 17.8988 43.3534 16.6648C43.521 16.3671 43.6409 16.0578 43.7098 15.7467C43.7974 15.3515 43.8303 14.9721 43.8086 14.618C43.7577 13.7817 43.4043 13.0451 42.728 12.3655L42.7286 12.3661Z" fill="#212121"/>
<path id="Vector_8" d="M90.9415 10.3929C90.4745 6.71085 87.2468 3.93359 83.4342 3.93359C79.6215 3.93359 76.3939 6.71024 75.9269 10.3923C75.889 10.6925 75.8691 10.9999 75.8691 11.3049C75.8691 11.6099 75.8884 11.9174 75.9269 12.2176C76.3939 15.8996 79.6215 18.6762 83.4342 18.6762C85.4551 18.6762 87.3543 17.9094 88.7833 16.5175L89.1261 16.1834C89.2212 16.0908 89.2212 15.9407 89.1261 15.8481L87.2431 14.0126C87.1972 13.9678 87.1363 13.943 87.0711 13.943C87.0059 13.943 86.945 13.9678 86.899 14.012L86.5562 14.3454C86.083 14.8066 85.4998 15.1618 84.8707 15.3724L84.8309 15.3858C84.3825 15.5316 83.913 15.6055 83.4348 15.6055C82.4411 15.6055 81.4642 15.2726 80.6835 14.668C80.0979 14.2147 79.6383 13.6204 79.3545 12.9504C79.3533 12.9474 79.352 12.9444 79.3514 12.9414L79.3483 12.9323C79.1309 12.4155 79.021 11.8677 79.021 11.3043C79.021 10.7409 79.1309 10.1932 79.3483 9.67572L79.3514 9.66664C79.3514 9.66664 79.3532 9.6618 79.3539 9.65938C79.6358 8.99305 80.0917 8.40177 80.6736 7.94788C81.4642 7.32936 82.4194 7.00256 83.4348 7.00256C84.4502 7.00256 85.4141 7.33844 86.1966 7.94848C86.7773 8.40117 87.2338 8.99245 87.5158 9.65877C87.517 9.6618 87.5182 9.66482 87.5195 9.66845L87.5226 9.67632C87.5356 9.70719 87.5481 9.73866 87.5605 9.77013H80.4264L80.4047 9.83125C80.2358 10.3045 80.1501 10.8002 80.1501 11.3049C80.1501 11.8096 80.2358 12.3065 80.4047 12.7792L80.4264 12.8403H90.6483C90.7732 12.8403 90.8744 12.7525 90.8899 12.6321L90.9427 12.2182C90.9812 11.918 91.0005 11.6105 91.0005 11.3055C91.0005 11.0005 90.9812 10.6937 90.9427 10.3929H90.9415Z" fill="#212121"/>
<g id="Group_2">
<g id="Group_3">
<path id="Vector_9" d="M66.7051 9.48889V13.7501C66.9231 13.0777 67.0404 12.3618 67.0404 11.6192C67.0404 10.8766 66.9224 10.1607 66.7051 9.48828V9.48889Z" fill="url(#paint0_linear_2047_6537)"/>
<g id="Group_4">
<path id="Vector_10" d="M58.8465 15.0193C58.8204 15.0193 58.7937 15.0181 58.7676 15.0169V18.6917C58.7937 18.6917 58.8197 18.6935 58.8465 18.6935C59.2731 18.6935 59.6905 18.6553 60.0966 18.587V14.793C59.7085 14.9382 59.2868 15.0187 58.8458 15.0187L58.8465 15.0193Z" fill="url(#paint1_linear_2047_6537)"/>
<path id="Vector_11" d="M58.8478 8.21383C59.2887 8.21383 59.7098 8.29432 60.0986 8.43957V4.64558C59.6924 4.57658 59.2751 4.53906 58.8484 4.53906C58.8217 4.53906 58.7956 4.54088 58.7695 4.54088V8.21564C58.7956 8.21504 58.8217 8.21322 58.8484 8.21383H58.8478Z" fill="url(#paint2_linear_2047_6537)"/>
</g>
<g id="Group_5">
<path id="Vector_12" d="M61.8307 5.09793C61.5469 4.98053 61.2537 4.88248 60.9531 4.80078V8.79691C61.2935 9.02083 61.5903 9.30285 61.8307 9.62663V5.09793Z" fill="url(#paint3_linear_2047_6537)"/>
<path id="Vector_13" d="M61.832 18.1381V13.6094C61.5917 13.9332 61.2948 14.2146 60.9551 14.4391V18.4352C61.2557 18.3535 61.5488 18.2555 61.832 18.1381Z" fill="url(#paint4_linear_2047_6537)"/>
</g>
<path id="Vector_14" d="M63.3124 17.457V5.77124C63.1118 5.63749 62.9043 5.51221 62.6895 5.39844V11.2943C62.7 11.3996 62.7056 11.5061 62.7056 11.6138C62.7056 11.7215 62.7 11.8281 62.6895 11.9334V17.8292C62.9043 17.7148 63.1118 17.5902 63.3124 17.4564V17.457Z" fill="url(#paint5_linear_2047_6537)"/>
<path id="Vector_15" d="M64.1699 6.27795V16.9615C64.3376 16.8199 64.4978 16.671 64.6512 16.5149V6.72459C64.4978 6.56844 64.337 6.41957 64.1699 6.27734V6.27795Z" fill="url(#paint6_linear_2047_6537)"/>
<path id="Vector_16" d="M65.8481 15.2399V7.99571C65.7426 7.82263 65.6283 7.65499 65.5078 7.49219V15.7441C65.6283 15.5813 65.7426 15.4136 65.8481 15.2405V15.2399Z" fill="url(#paint7_linear_2047_6537)"/>
</g>
<path id="Vector_17" d="M58.0329 14.9282C56.4964 14.5711 55.3531 13.2257 55.3531 11.6183C55.3531 10.0109 56.4958 8.66558 58.0329 8.30912V4.58594C54.4041 4.97992 51.582 7.97747 51.582 11.6183C51.582 15.2598 54.4041 18.2574 58.0329 18.6507V14.9276V14.9282Z" fill="url(#paint8_linear_2047_6537)"/>
</g>
</g>
<defs>
<linearGradient id="paint0_linear_2047_6537" x1="66.8728" y1="9.48828" x2="66.8728" y2="13.7501" gradientUnits="userSpaceOnUse">
<stop stop-color="#0075FF"/>
<stop offset="1" stop-color="#37C4F0"/>
<stop offset="1" stop-color="#376BF0"/>
</linearGradient>
<linearGradient id="paint1_linear_2047_6537" x1="59.4321" y1="14.793" x2="59.4321" y2="18.6935" gradientUnits="userSpaceOnUse">
<stop stop-color="#0075FF"/>
<stop offset="1" stop-color="#37C4F0"/>
<stop offset="1" stop-color="#376BF0"/>
</linearGradient>
<linearGradient id="paint2_linear_2047_6537" x1="59.4341" y1="4.53906" x2="59.4341" y2="8.43957" gradientUnits="userSpaceOnUse">
<stop stop-color="#0075FF"/>
<stop offset="1" stop-color="#37C4F0"/>
<stop offset="1" stop-color="#376BF0"/>
</linearGradient>
<linearGradient id="paint3_linear_2047_6537" x1="61.3919" y1="4.80078" x2="61.3919" y2="9.62663" gradientUnits="userSpaceOnUse">
<stop stop-color="#0075FF"/>
<stop offset="1" stop-color="#37C4F0"/>
<stop offset="1" stop-color="#376BF0"/>
</linearGradient>
<linearGradient id="paint4_linear_2047_6537" x1="61.3935" y1="13.6094" x2="61.3935" y2="18.4352" gradientUnits="userSpaceOnUse">
<stop stop-color="#0075FF"/>
<stop offset="1" stop-color="#37C4F0"/>
<stop offset="1" stop-color="#376BF0"/>
</linearGradient>
<linearGradient id="paint5_linear_2047_6537" x1="63.0009" y1="5.39844" x2="63.0009" y2="17.8292" gradientUnits="userSpaceOnUse">
<stop stop-color="#0075FF"/>
<stop offset="1" stop-color="#37C4F0"/>
<stop offset="1" stop-color="#376BF0"/>
</linearGradient>
<linearGradient id="paint6_linear_2047_6537" x1="64.4106" y1="6.27734" x2="64.4106" y2="16.9615" gradientUnits="userSpaceOnUse">
<stop stop-color="#0075FF"/>
<stop offset="1" stop-color="#37C4F0"/>
<stop offset="1" stop-color="#376BF0"/>
</linearGradient>
<linearGradient id="paint7_linear_2047_6537" x1="65.678" y1="7.49219" x2="65.678" y2="15.7441" gradientUnits="userSpaceOnUse">
<stop stop-color="#0075FF"/>
<stop offset="1" stop-color="#37C4F0"/>
<stop offset="1" stop-color="#376BF0"/>
</linearGradient>
<linearGradient id="paint8_linear_2047_6537" x1="51.6479" y1="11.6183" x2="66.3246" y2="11.6183" gradientUnits="userSpaceOnUse">
<stop stop-color="#0047FF"/>
<stop offset="0.723958" stop-color="#00A3FF"/>
</linearGradient>
</defs>
</svg>
