<svg xmlns="http://www.w3.org/2000/svg" width="45" height="16" viewBox="0 0 45 16" fill="none">
  <path
    d="M16.7501 1.14894L10.974 14.8897H7.20574L4.36266 3.92478C4.18905 3.25067 4.03995 3.00221 3.51504 2.71709C2.65926 2.25276 1.24385 1.81897 0 1.5481L0.0837402 1.14894H6.1498C6.92184 1.14894 7.61831 1.66215 7.79396 2.55009L9.29516 10.5009L13.0063 1.14894H16.7501ZM31.5149 10.4031C31.5312 6.77801 26.4864 6.57639 26.5211 4.95732C26.5313 4.46447 27.0031 3.94107 28.0325 3.80666C28.5431 3.73945 29.9504 3.68854 31.5476 4.4217L32.1746 1.50737C31.3168 1.19578 30.2139 0.898438 28.8393 0.898438C25.3161 0.898438 22.8366 2.76597 22.8161 5.43998C22.7916 7.41953 24.5869 8.52131 25.937 9.17912C27.3259 9.85323 27.7915 10.285 27.7854 10.8858C27.7752 11.8083 26.6784 12.2156 25.651 12.2299C23.8598 12.2584 22.8182 11.7472 21.9889 11.3623L21.3435 14.3744C22.1748 14.7552 23.7128 15.0872 25.3079 15.1035C29.0538 15.1035 31.5026 13.2604 31.5149 10.4031ZM40.8203 14.8897H44.1168L41.239 1.14894H38.1957C37.5115 1.14894 36.9335 1.54607 36.6782 2.15704L31.329 14.8897H35.0708L35.8142 12.8368H40.3873L40.8182 14.8897H40.8203ZM36.8416 10.0202L38.7186 4.8616L39.7991 10.0202H36.8416ZM21.8439 1.14894L18.8967 14.8897H15.3306L18.2799 1.14894H21.8439Z"
    fill="#0B0086" />
</svg>