<svg xmlns="http://www.w3.org/2000/svg" width="22" height="22" viewBox="0 0 22 22" fill="none">
  <path
    d="M11.0005 7.10286V11.9154M19.3238 7.8637V14.1337C19.3238 15.1604 18.7738 16.1137 17.8846 16.6362L12.4396 19.7804C11.5505 20.2937 10.4505 20.2937 9.55214 19.7804L4.10714 16.6362C3.66876 16.382 3.305 16.017 3.05238 15.5777C2.79976 15.1384 2.66718 14.6404 2.66797 14.1337V7.8637C2.66797 6.83703 3.21797 5.8837 4.10714 5.3612L9.55214 2.21703C10.4413 1.7037 11.5413 1.7037 12.4396 2.21703L17.8846 5.3612C18.7738 5.8837 19.3238 6.82786 19.3238 7.8637Z"
    stroke="currentColor" stroke-width="1.2" stroke-linecap="round" stroke-linejoin="round" />
  <path d="M11 14.8516V14.9432" stroke="currentColor" stroke-width="1.2" stroke-linecap="round" stroke-linejoin="round" />
</svg>