<svg width="89" height="25" viewBox="0 0 89 25" fill="none" xmlns="http://www.w3.org/2000/svg">
  <g id="Layer_1">
    <g clip-path="url(#clip0_2047_6971)">
      <path id="Vector"
        d="M20.6821 5.71673C20.0523 5.62046 19.3977 5.62046 18.7679 5.71673C15.7274 6.18034 13.4355 8.82269 13.4355 11.8631V19.7772C13.4355 19.9506 13.5785 20.0919 13.7539 20.0919H16.3807C16.5561 20.0919 16.699 19.9506 16.699 19.7772V11.8631C16.699 10.4764 17.6941 9.24874 19.0641 8.94354C19.4971 8.84727 19.9535 8.84727 20.3858 8.94354C21.7565 9.24874 22.7509 10.4764 22.7509 11.8631V19.7772C22.7509 19.9506 22.8938 20.0919 23.0692 20.0919H25.6961C25.8714 20.0919 26.0144 19.9506 26.0144 19.7772V11.8631C26.0144 8.82269 23.7218 6.18034 20.6821 5.71673Z"
        fill="#2E2E2E" />
      <path id="Vector_2"
        d="M76.1625 5.71673C75.5327 5.62046 74.8781 5.62046 74.2483 5.71673C71.2079 6.18034 68.916 8.82269 68.916 11.8631V19.7772C68.916 19.9506 69.059 20.0919 69.2344 20.0919H71.8612C72.0366 20.0919 72.1795 19.9506 72.1795 19.7772V11.8631C72.1795 10.4764 73.1746 9.24874 74.5446 8.94354C74.9776 8.84727 75.434 8.84727 75.8663 8.94354C77.237 9.24874 78.2314 10.4764 78.2314 11.8631V19.7772C78.2314 19.9506 78.3743 20.0919 78.5497 20.0919H81.1765C81.3519 20.0919 81.4949 19.9506 81.4949 19.7772V11.8631C81.4949 8.82269 79.2023 6.18034 76.1625 5.71673Z"
        fill="#2E2E2E" />
      <path id="Vector_3"
        d="M12.005 5.94599H9.43344C9.2615 5.94599 9.12201 6.0846 9.12201 6.25461V14.0034C9.12201 15.3615 8.14766 16.5632 6.80594 16.8622C6.38264 16.9571 5.93517 16.9565 5.51187 16.8622C4.17016 16.5632 3.19581 15.3608 3.19581 14.0034V6.25393C3.19581 6.08392 3.05563 5.94531 2.88369 5.94531H0.312123C0.140179 5.94531 0 6.08392 0 6.25393V14.0028C0 16.9797 2.24494 19.5674 5.22116 20.0214C5.52983 20.0686 5.84471 20.0925 6.15822 20.0925C6.47172 20.0925 6.7873 20.0686 7.09528 20.0214C10.0722 19.5674 12.3164 16.9804 12.3164 14.0028V6.25393C12.3164 6.08392 12.1763 5.94531 12.0043 5.94531L12.005 5.94599Z"
        fill="#2E2E2E" />
      <g id="Group">
        <path id="Vector_4"
          d="M27.4199 5.33662H30.0453C30.2207 5.33662 30.3637 5.47727 30.3637 5.65138V19.778C30.3637 19.9515 30.2207 20.0928 30.0453 20.0928H27.4199C27.2445 20.0928 27.1016 19.9515 27.1016 19.778V5.6507C27.1016 5.47727 27.2438 5.33594 27.4199 5.33594V5.33662Z"
          fill="#2E2E2E" />
        <path id="Vector_5"
          d="M30.6136 2.78567C30.6136 1.76013 29.7698 0.925781 28.7326 0.925781C27.6954 0.925781 26.8516 1.76013 26.8516 2.78567C26.8516 3.8112 27.6954 4.64555 28.7326 4.64555C29.7698 4.64555 30.6136 3.8112 30.6136 2.78567Z"
          fill="#2E2E2E" />
      </g>
      <g id="Group_2">
        <path id="Vector_6"
          d="M64.9023 5.33662H67.5277C67.7031 5.33662 67.8461 5.47727 67.8461 5.65138V19.778C67.8461 19.9515 67.7031 20.0928 67.5277 20.0928H64.9023C64.7269 20.0928 64.584 19.9515 64.584 19.778V5.6507C64.584 5.47727 64.7262 5.33594 64.9023 5.33594V5.33662Z"
          fill="#2E2E2E" />
        <path id="Vector_7"
          d="M68.096 2.78567C68.096 1.76013 67.2522 0.925781 66.215 0.925781C65.1778 0.925781 64.334 1.76013 64.334 2.78567C64.334 3.8112 65.1778 4.64555 66.215 4.64555C67.2522 4.64555 68.096 3.8112 68.096 2.78567Z"
          fill="#2E2E2E" />
      </g>
      <path id="Vector_8"
        d="M86.0202 8.37908H88.6836C88.8583 8.37908 88.9999 8.23843 88.9999 8.06637V5.30317C88.9999 5.13043 88.8576 4.99046 88.6836 4.99046H86.0202C86.0078 4.99046 85.9974 4.98022 85.9974 4.96793V1.08224C85.9974 0.909501 85.8552 0.769531 85.6805 0.769531H82.8983C82.7236 0.769531 82.582 0.910183 82.582 1.08224V17.6881C82.582 19.1014 83.7449 20.2519 85.175 20.2519H88.6843C88.859 20.2519 89.0006 20.1112 89.0006 19.9392V17.1883C89.0006 17.0155 88.8583 16.8756 88.6843 16.8756H86.0202C86.0078 16.8756 85.9974 16.8653 85.9974 16.853V8.40161C85.9974 8.38932 86.0085 8.37908 86.0209 8.37908H86.0202Z"
        fill="#2E2E2E" />
      <path id="Vector_9"
        d="M40.1396 5.11306C39.505 5.03523 38.8573 5.03523 38.2248 5.11306C34.3619 5.58486 31.4492 8.84717 31.4492 12.7008V23.8014C31.4492 24.0396 31.6453 24.2336 31.8863 24.2336H34.5408C34.7818 24.2336 34.9779 24.0396 34.9779 23.8014V12.7008C34.9779 10.6586 36.4542 8.93389 38.4879 8.60069C38.9485 8.5249 39.4215 8.52558 39.8759 8.60069L39.9311 8.60957C41.933 8.96324 43.3859 10.6832 43.3859 12.7008C43.3859 14.7184 41.9095 16.4676 39.8765 16.8008C39.416 16.8759 38.9457 16.8759 38.4886 16.8008L38.4299 16.7913C37.7856 16.6773 37.1676 16.4082 36.6434 16.015C36.5081 15.9139 36.3362 15.8975 36.1849 15.972C36.033 16.0464 35.9419 16.1911 35.9419 16.3591V19.3633C35.9419 19.5408 36.0448 19.6938 36.2112 19.7627C36.8534 20.027 37.5308 20.2038 38.2248 20.2885C38.8601 20.3656 39.505 20.3656 40.1396 20.2885C44.0025 19.8167 46.9152 16.5544 46.9152 12.7008C46.9152 8.84717 44.0025 5.58486 40.1396 5.11306Z"
        fill="#2E2E2E" />
      <g id="Group_3">
        <g id="Group_4">
          <path id="Vector_10"
            d="M55.7012 5.05469V8.89463C57.8011 8.89463 59.5033 10.5777 59.5033 12.654H63.3869V7.77009C63.3869 6.27071 62.157 5.05469 60.6406 5.05469H55.7012Z"
            fill="url(#paint0_linear_2047_6971)" />
          <path id="Vector_11"
            d="M55.7012 7.02734V8.89474C56.226 8.89474 56.7259 8.99989 57.181 9.19038C57.2949 9.23818 57.4054 9.29075 57.5131 9.34879C57.6747 9.4355 57.8294 9.53382 57.9758 9.6417C58.2196 9.82195 58.4412 10.0309 58.6346 10.263C58.7119 10.3559 58.7851 10.4528 58.8535 10.5525C59.1608 11.0025 59.3728 11.5221 59.4591 12.0819C59.4881 12.2683 59.5026 12.4595 59.5026 12.6541H61.3919C61.3919 9.54679 58.8438 7.02734 55.7012 7.02734Z"
            fill="url(#paint1_linear_2047_6971)" />
        </g>
        <g id="Group_5">
          <path id="Vector_12"
            d="M59.4627 13.1963C59.1975 15.0159 57.6141 16.415 55.7006 16.415C53.6007 16.415 51.8985 14.7319 51.8985 12.6556C51.8985 10.7629 53.3127 9.198 55.1537 8.93582V5.07812C51.1652 5.35602 48.0156 8.64086 48.0156 12.6556C48.0156 16.6703 51.4566 20.2542 55.7006 20.2542C59.9447 20.2542 63.0832 17.1401 63.3642 13.1963H59.4627Z"
            fill="url(#paint2_linear_2047_6971)" />
          <path id="Vector_13"
            d="M59.4625 13.1956C59.1974 15.0152 57.614 16.4142 55.7005 16.4142C53.6006 16.4142 51.8984 14.7312 51.8984 12.6548C51.8984 10.7622 53.3126 9.19724 55.1536 8.93506V7.05469C52.2671 7.32712 50.0098 9.72981 50.0098 12.6548C50.0098 15.7628 52.5578 18.2816 55.7005 18.2816C58.6588 18.2816 61.0895 16.0496 61.3643 13.1956H59.4625Z"
            fill="url(#paint3_linear_2047_6971)" />
        </g>
      </g>
    </g>
  </g>
  <defs>
    <linearGradient id="paint0_linear_2047_6971" x1="55.7012" y1="8.85366" x2="63.3862" y2="8.85366"
      gradientUnits="userSpaceOnUse">
      <stop offset="0.74" stop-color="#F1F2F2" />
      <stop offset="0.8" stop-color="#F1F2F2" />
      <stop offset="1" stop-color="#E6E7E8" />
    </linearGradient>
    <linearGradient id="paint1_linear_2047_6971" x1="55.7012" y1="9.84107" x2="61.3919" y2="9.84107"
      gradientUnits="userSpaceOnUse">
      <stop stop-color="#D3D3D3" />
      <stop offset="1" stop-color="#F1F0F0" />
    </linearGradient>
    <linearGradient id="paint2_linear_2047_6971" x1="48.0156" y1="12.6665" x2="63.3642" y2="12.6665"
      gradientUnits="userSpaceOnUse">
      <stop stop-color="#1F33FF" />
      <stop offset="0.5" stop-color="#1F6FFF" />
      <stop offset="1" stop-color="#1F21FF" />
    </linearGradient>
    <linearGradient id="paint3_linear_2047_6971" x1="50.0098" y1="12.6678" x2="61.3643" y2="12.6678"
      gradientUnits="userSpaceOnUse">
      <stop stop-color="#1F54FF" />
      <stop offset="1" stop-color="#1FA4FF" />
    </linearGradient>
    <clipPath id="clip0_2047_6971">
      <rect y="0.769531" width="89" height="23.4636" rx="4" fill="white" />
    </clipPath>
  </defs>
</svg>