<svg xmlns="http://www.w3.org/2000/svg" width="44" height="32" viewBox="0 0 44 32" fill="none">
  <path fill-rule="evenodd" clip-rule="evenodd"
    d="M15.109 24.503L19.2902 30.7219C19.6773 31.2967 20.3233 31.6411 21.0156 31.6411C21.7067 31.6411 22.3539 31.2967 22.7399 30.7219L26.9211 24.503H33.6566C36.3486 24.503 38.5312 22.3204 38.5312 19.6283V5.87469C38.5312 3.18262 36.3486 1 33.6566 1C27.2595 1 14.7706 1 8.37469 1C5.68263 1 3.5 3.18262 3.5 5.87469V19.6283C3.5 22.3204 5.68263 24.503 8.37469 24.503H15.109Z"
    fill="url(#paint0_linear_1861_21738)" />
  <path fill-rule="evenodd" clip-rule="evenodd"
    d="M21.7655 7.78469C21.6016 7.52937 21.319 7.375 21.0162 7.375C20.7122 7.375 20.4295 7.52937 20.2657 7.78469L18.9499 9.8355L16.5939 10.453C16.3006 10.5302 16.0667 10.7511 15.9728 11.0396C15.879 11.3282 15.9384 11.6441 16.1308 11.8792L17.6733 13.7638L17.5332 16.1957C17.5154 16.4986 17.6532 16.7895 17.899 16.9676C18.1448 17.1457 18.463 17.1873 18.7457 17.0769L21.0162 16.1922L23.2855 17.0769C23.5681 17.1873 23.8875 17.1457 24.1322 16.9676C24.378 16.7895 24.5157 16.4986 24.4979 16.1957L24.3578 13.7638L25.9015 11.8792C26.0927 11.6441 26.1521 11.3282 26.0583 11.0396C25.9657 10.7511 25.7305 10.5302 25.4372 10.453L23.0812 9.8355L21.7655 7.78469ZM11.5648 9.12656C11.401 8.87125 11.1183 8.71688 10.8155 8.71688C10.5115 8.71688 10.2289 8.87125 10.065 9.12656L9.20647 10.4649L7.66865 10.8674C7.37534 10.9446 7.1414 11.1655 7.04759 11.4541C6.95378 11.7426 7.01315 12.0585 7.20553 12.2936L8.21253 13.5239L8.12109 15.1104C8.10328 15.4132 8.24103 15.7041 8.48684 15.8822C8.73265 16.0604 9.0509 16.1019 9.33353 15.9915L10.8155 15.4144L12.2963 15.9915C12.579 16.1019 12.8984 16.0604 13.143 15.8822C13.3888 15.7041 13.5266 15.4132 13.5088 15.1104L13.4173 13.5239L14.4243 12.2936C14.6167 12.0585 14.6761 11.7426 14.5823 11.4541C14.4885 11.1655 14.2545 10.9446 13.9612 10.8674L12.4234 10.4649L11.5648 9.12656ZM31.9661 9.07906C31.8022 8.82375 31.5196 8.66938 31.2168 8.66938C30.9128 8.66938 30.6313 8.82375 30.4675 9.07906L29.6077 10.4162L28.0699 10.8199C27.7766 10.8971 27.5427 11.118 27.4488 11.4066C27.355 11.6951 27.4156 12.011 27.6068 12.2461L28.6138 13.4764C28.6138 13.4752 28.5223 15.0629 28.5223 15.0629C28.5057 15.3657 28.6435 15.6566 28.8881 15.8347C29.1339 16.0129 29.4533 16.0544 29.7348 15.944L31.2168 15.3669L32.6976 15.944C32.9802 16.0544 33.2997 16.0129 33.5443 15.8347C33.7901 15.6566 33.9278 15.3657 33.91 15.0629L33.8186 13.4752C33.8186 13.4764 34.8256 12.2461 34.8256 12.2461C35.018 12.011 35.0773 11.6951 34.9835 11.4066C34.8897 11.118 34.6558 10.8971 34.3625 10.8199L32.8247 10.4162L31.9661 9.07906Z"
    fill="url(#paint1_linear_1861_21738)" />
  <defs>
    <linearGradient id="paint0_linear_1861_21738" x1="23.3312" y1="21.8752" x2="23.3312" y2="38.5902"
      gradientUnits="userSpaceOnUse">
      <stop stop-color="#FDD34D" />
      <stop offset="1" stop-color="#D5A200" />
    </linearGradient>
    <linearGradient id="paint1_linear_1861_21738" x1="20.57" y1="12.2566" x2="20.57" y2="21.8708"
      gradientUnits="userSpaceOnUse">
      <stop stop-color="#FF9E4F" />
      <stop offset="1" stop-color="#D86100" />
    </linearGradient>
  </defs>
</svg>