<svg xmlns="http://www.w3.org/2000/svg" width="43" height="32" viewBox="0 0 43 32" fill="none">
  <g clip-path="url(#clip0_1861_21743)">
    <path fill-rule="evenodd" clip-rule="evenodd"
      d="M2.49763 15.9354C2.47609 15.9713 2.40156 16.0876 2.34028 16.156C2.173 16.344 1.94941 16.5287 1.68606 16.727C1.68109 16.7304 1.67613 16.7355 1.67116 16.739C0.626063 17.5528 0.0231875 18.8008 0.0165625 20.1275C-1.5425e-08 21.2594 0 23.1195 0 24.5471C0 25.6806 0.435594 26.7662 1.21238 27.5681C1.9875 28.3682 3.04088 28.8195 4.13897 28.8195C10.7308 28.8195 32.3018 28.8195 38.8937 28.8195C39.9918 28.8195 41.0452 28.3682 41.8203 27.5681C42.5971 26.7662 43.0327 25.6806 43.0327 24.5471V20.1019C43.0327 18.8111 42.4662 17.5904 41.494 16.78C41.4874 16.7749 41.4808 16.7697 41.4742 16.7646C41.2307 16.5697 41.0253 16.3851 40.8713 16.1987C40.7967 16.1115 40.7123 16.05 40.7139 15.9576C40.7173 15.8345 40.8166 15.7388 40.9127 15.6191C41.0733 15.4225 41.282 15.2276 41.5238 15.0242C41.5272 15.0207 41.5321 15.0173 41.5354 15.0139C42.4812 14.195 43.0194 13.0016 43.0194 11.7433C43.0327 10.6354 43.0327 8.72913 43.0327 7.27248C43.0327 6.13897 42.5971 5.05332 41.8203 4.25148C41.0452 3.45135 39.9918 3 38.8937 3C32.3018 3 10.7308 3 4.13897 3C1.85334 3 0 4.91313 0 7.27248V11.692C0.00165625 13.0119 0.591282 14.2548 1.59828 15.0618C1.60491 15.0669 1.60988 15.072 1.6165 15.0754C1.88813 15.2857 2.12 15.4841 2.29888 15.6824C2.385 15.7781 2.48106 15.8431 2.49763 15.9354Z"
      fill="url(#paint0_linear_1861_21743)" />
    <path fill-rule="evenodd" clip-rule="evenodd"
      d="M13.8264 3H4.13897C1.85334 3 0 4.91313 0 7.27248V11.692C0.00165625 13.0119 0.591282 14.2548 1.59828 15.0618C1.60491 15.0669 1.60988 15.072 1.6165 15.0754C1.88813 15.2857 2.12 15.4841 2.29888 15.6824C2.385 15.7781 2.48106 15.8431 2.49763 15.9354C2.47609 15.9713 2.40156 16.0876 2.34028 16.156C2.173 16.344 1.94941 16.5287 1.68606 16.727C1.68109 16.7304 1.67613 16.7355 1.67116 16.739C0.626063 17.5528 0.0231875 18.8008 0.0165625 20.1275C-1.5425e-08 21.2594 0 23.1195 0 24.5471C0 25.6806 0.435594 26.7662 1.21238 27.5681C1.9875 28.3682 3.04088 28.8195 4.13897 28.8195H13.8264V3Z"
      fill="url(#paint1_linear_1861_21743)" />
    <path fill-rule="evenodd" clip-rule="evenodd"
      d="M32.0957 18.375H22.5508C21.8651 18.375 21.3086 18.9495 21.3086 19.6573C21.3086 20.3651 21.8651 20.9395 22.5508 20.9395H32.0957C32.7814 20.9395 33.3379 20.3651 33.3379 19.6573C33.3379 18.9495 32.7814 18.375 32.0957 18.375Z"
      fill="url(#paint2_linear_1861_21743)" />
    <path fill-rule="evenodd" clip-rule="evenodd"
      d="M32.0957 11.4766H22.5508C21.8651 11.4766 21.3086 12.051 21.3086 12.7588C21.3086 13.4666 21.8651 14.0411 22.5508 14.0411H32.0957C32.7814 14.0411 33.3379 13.4666 33.3379 12.7588C33.3379 12.051 32.7814 11.4766 32.0957 11.4766Z"
      fill="url(#paint3_linear_1861_21743)" />
  </g>
  <defs>
    <linearGradient id="paint0_linear_1861_21743" x1="20.2708" y1="16.5415" x2="-1.67447" y2="16.5415"
      gradientUnits="userSpaceOnUse">
      <stop stop-color="#FFB53E" />
      <stop offset="1" stop-color="#CB7D00" />
    </linearGradient>
    <linearGradient id="paint1_linear_1861_21743" x1="9.91928" y1="15.95" x2="21.5165" y2="15.95"
      gradientUnits="userSpaceOnUse">
      <stop stop-color="#F58C40" />
      <stop offset="1" stop-color="#C45200" />
    </linearGradient>
    <linearGradient id="paint2_linear_1861_21743" x1="27.9458" y1="19.6567" x2="27.9458" y2="26.1814"
      gradientUnits="userSpaceOnUse">
      <stop stop-color="#FAFFFF" />
      <stop offset="1" stop-color="#62FFFF" />
    </linearGradient>
    <linearGradient id="paint3_linear_1861_21743" x1="28.139" y1="12.7593" x2="28.139" y2="18.3781"
      gradientUnits="userSpaceOnUse">
      <stop stop-color="#FAFFFF" />
      <stop offset="1" stop-color="#62FFFF" />
    </linearGradient>
    <clipPath id="clip0_1861_21743">
      <rect width="43" height="32" fill="white" />
    </clipPath>
  </defs>
</svg>