<svg width="36" height="36" viewBox="0 0 36 36" fill="none" xmlns="http://www.w3.org/2000/svg">
  <circle cx="18" cy="18" r="18" fill="#667085" />
  <path
    d="M16 19C16.4295 19.5741 16.9774 20.0491 17.6066 20.3929C18.2357 20.7367 18.9315 20.9411 19.6467 20.9923C20.3618 21.0435 21.0796 20.9403 21.7513 20.6897C22.4231 20.4392 23.0331 20.047 23.54 19.54L26.54 16.54C27.4508 15.597 27.9548 14.3339 27.9434 13.023C27.932 11.712 27.4061 10.4579 26.4791 9.53087C25.5521 8.60383 24.298 8.07799 22.987 8.0666C21.676 8.0552 20.413 8.55918 19.47 9.46997L17.75 11.18"
    stroke="white" stroke-width="2" stroke-linecap="round" stroke-linejoin="round" />
  <path
    d="M20.0002 17.0012C19.5707 16.4271 19.0228 15.952 18.3937 15.6083C17.7645 15.2645 17.0687 15.0601 16.3535 15.0089C15.6384 14.9577 14.9206 15.0608 14.2489 15.3114C13.5771 15.562 12.9671 15.9541 12.4602 16.4612L9.4602 19.4612C8.54941 20.4042 8.04544 21.6672 8.05683 22.9782C8.06822 24.2892 8.59407 25.5433 9.52111 26.4703C10.4481 27.3973 11.7022 27.9232 13.0132 27.9346C14.3242 27.946 15.5872 27.442 16.5302 26.5312L18.2402 24.8212"
    stroke="white" stroke-width="2" stroke-linecap="round" stroke-linejoin="round" />
</svg>