<svg xmlns="http://www.w3.org/2000/svg" width="56" height="56" viewBox="0 0 56 56" fill="none">
  <g filter="url(#filter0_d_1863_26062)">
    <path
      d="M45.9849 28.0051C45.9849 18.0593 37.9313 10 27.9925 10C18.0536 10 10 18.0593 10 28.0051C10 36.8642 16.4399 44.4103 25.1873 45.7837V33.2119H20.6175V28.0051H25.1873V24.0358C25.1873 19.5232 27.8718 17.033 31.9891 17.033C33.3314 17.0481 34.6887 17.1688 36.0159 17.3801V21.8172H33.7537C32.336 21.621 31.0239 22.6322 30.8278 24.0509C30.7977 24.2471 30.7977 24.4282 30.8278 24.6244V28.0051H35.8048L35.0054 33.2119H30.8127V45.7988C39.5601 44.4103 46 36.8642 46 28.0051"
      fill="#667085" />
    <path
      d="M34.9895 33.2135L35.7888 28.0067H30.7968V24.626C30.6611 23.1923 31.7168 21.9245 33.1495 21.8038C33.3456 21.7887 33.5266 21.8038 33.7226 21.8038H35.9849V17.3667C34.6577 17.1554 33.3003 17.0346 31.9581 17.0195C27.8559 17.0195 25.1562 19.5098 25.1562 24.0223V27.9916H20.6016V33.1984H25.1713V45.7854C27.0414 46.0721 28.9267 46.0721 30.7968 45.7854V33.2135H34.9895Z"
      fill="white" />
  </g>
  <defs>
    <filter id="filter0_d_1863_26062" x="0" y="0" width="56" height="56" filterUnits="userSpaceOnUse"
      color-interpolation-filters="sRGB">
      <feFlood flood-opacity="0" result="BackgroundImageFix" />
      <feColorMatrix in="SourceAlpha" type="matrix" values="0 0 0 0 0 0 0 0 0 0 0 0 0 0 0 0 0 0 127 0"
        result="hardAlpha" />
      <feOffset />
      <feGaussianBlur stdDeviation="5" />
      <feComposite in2="hardAlpha" operator="out" />
      <feColorMatrix type="matrix" values="0 0 0 0 0 0 0 0 0 0 0 0 0 0 0 0 0 0 0.2 0" />
      <feBlend mode="normal" in2="BackgroundImageFix" result="effect1_dropShadow_1863_26062" />
      <feBlend mode="normal" in="SourceGraphic" in2="effect1_dropShadow_1863_26062" result="shape" />
    </filter>
  </defs>
</svg>