<svg xmlns="http://www.w3.org/2000/svg" width="36" height="36" viewBox="0 0 36 36" fill="none">
  <path fill-rule="evenodd" clip-rule="evenodd"
    d="M36 18C36 27.9466 27.9357 36 18.0071 36C8.07846 36 0 27.9466 0 18C0 8.0675 8.06434 0 17.9929 0C27.9357 0 35.9859 8.05338 35.9859 18"
    fill="#667085" />
  <path
    d="M30.2097 17.4608C30.2097 11.9647 24.7017 7.5 17.9367 7.5C11.1717 7.5 5.67773 11.9647 5.67773 17.4608C5.67773 22.3776 10.0418 26.5031 15.9312 27.2802C16.3266 27.365 16.8774 27.5487 17.0045 27.8878C17.1034 28.2551 17.1175 28.6224 17.0469 28.9898C17.0469 28.9898 16.9057 29.8516 16.8774 30.0353C16.8209 30.3462 16.6373 31.2504 17.9367 30.6994C21.4957 28.8202 24.744 26.4184 27.5687 23.5785C29.207 21.9537 30.1532 19.7637 30.1956 17.4466"
    fill="white" />
  <path
    d="M15.4512 13.6211H14.5897C14.4626 13.6211 14.3496 13.7341 14.3496 13.8613V19.2019C14.3496 19.3291 14.4626 19.4421 14.5897 19.4421H15.4512C15.5783 19.4421 15.6913 19.3291 15.6913 19.2019V13.8613C15.6913 13.7341 15.5783 13.6211 15.4512 13.6211Z"
    fill="#667085" />
  <path
    d="M21.3674 13.6235H20.5059C20.3788 13.6235 20.2658 13.7365 20.2658 13.8637V17.0427L17.8225 13.7365V13.7083H17.7942V13.68H16.8338C16.7067 13.68 16.5938 13.793 16.5938 13.9202V19.2609C16.5938 19.388 16.7067 19.5011 16.8338 19.5011H17.6954C17.8225 19.5011 17.9355 19.388 17.9355 19.2609V16.0395L20.3788 19.3456C20.3788 19.3456 20.4211 19.388 20.4353 19.4022H20.4494H20.4917C20.4917 19.4022 20.5341 19.4022 20.5482 19.4022H21.4239C21.551 19.4022 21.664 19.2891 21.664 19.162V13.8496C21.664 13.7224 21.551 13.6094 21.4239 13.6094"
    fill="#667085" />
  <path
    d="M13.3752 18.1023H11.0448V13.8496C11.0448 13.7224 10.9318 13.6094 10.8047 13.6094H9.94322C9.81611 13.6094 9.70312 13.7224 9.70312 13.8496V19.1902C9.70312 19.1902 9.73137 19.3174 9.77374 19.3598C9.77374 19.3598 9.8726 19.4304 9.94322 19.4304H13.3752C13.5023 19.4304 13.6152 19.3174 13.6152 19.1902V18.3425C13.6152 18.2153 13.5023 18.1023 13.3752 18.1023Z"
    fill="#667085" />
  <path
    d="M26.1291 14.9633C26.2562 14.9633 26.3692 14.8503 26.3692 14.7231V13.8613C26.3692 13.7341 26.2562 13.6211 26.1291 13.6211H22.6971C22.6971 13.6211 22.57 13.6494 22.5276 13.6917C22.5276 13.6917 22.457 13.7906 22.457 13.8613V19.2019C22.457 19.2019 22.4853 19.3291 22.5276 19.3715C22.5276 19.3715 22.6265 19.4421 22.6971 19.4421H26.1291C26.2562 19.4421 26.3692 19.3291 26.3692 19.2019V18.3542C26.3692 18.2271 26.2562 18.114 26.1291 18.114H23.7987V17.2098H26.1291C26.2562 17.2098 26.3692 17.0968 26.3692 16.9696V16.1077C26.3692 15.9806 26.2562 15.8676 26.1291 15.8676H23.7987V14.9633H26.1291Z"
    fill="#667085" />
</svg>