<svg xmlns="http://www.w3.org/2000/svg" width="47" height="37" viewBox="0 0 47 37" fill="none">
  <g clip-path="url(#clip0_2058_7383)">
    <path opacity="0.12"
      d="M37.2035 21.9427C36.1799 20.9593 35.3848 22.661 35.3848 22.661C35.3848 22.661 38.4301 24.8757 41.4586 26.8424C42.8628 27.7488 42.406 26.3379 42.406 26.3379C42.406 26.3379 38.2271 22.9346 37.2035 21.9512V21.9427Z"
      fill="black" />
    <path opacity="0.12"
      d="M34.4044 16.4931C34.1422 16.3391 33.7531 16.2793 33.3216 16.322L21.2417 17.1087C20.8272 17.1515 20.4127 17.2883 20.0743 17.485L0.643278 29.1143C-0.0673049 29.5418 -0.211113 30.1318 0.321824 30.4482L11.2005 36.8187C11.7335 37.1265 12.7401 37.041 13.4507 36.6135L32.8818 24.9927C33.2117 24.796 33.4401 24.5481 33.5078 24.3001L34.7174 17.1429C34.7851 16.8864 34.6751 16.6555 34.4214 16.5016L34.4044 16.4931Z"
      fill="black" />
    <path
      d="M44.7075 5.47332L36.9503 0.094768C36.6712 -0.0591493 36.2989 -0.0163945 35.9098 0.214481L13.2219 13.4428C12.3929 13.9302 11.7246 15.1017 11.7246 16.068V35.8805C11.7246 36.8468 12.3929 37.2401 13.2219 36.7527L35.9014 23.5158C36.2905 23.285 36.6627 22.8916 36.9419 22.4128L44.6991 7.97875C44.9867 7.47425 45.1559 6.92698 45.1559 6.45668C45.1559 5.98638 44.9951 5.62724 44.6991 5.46477L44.7075 5.47332ZM40.4271 10.7749C39.6911 11.2025 39.099 10.8519 39.099 9.99678C39.099 9.14168 39.6911 8.09846 40.4271 7.67092C41.1631 7.24337 41.7552 7.59396 41.7552 8.44905C41.7552 9.30415 41.1631 10.3474 40.4271 10.7749Z"
      fill="#FFB600" />
    <path
      d="M35.1816 4.35156L14.2363 16.5794V32.4244L35.1816 20.1965L40.2572 10.8674C38.8953 11.0897 39.0221 8.95198 40.2572 7.7976L35.1816 4.36011V4.35156Z"
      fill="white" />
    <path
      d="M42.7289 8.17386C42.289 7.91733 41.8491 7.78906 41.4092 7.78906C40.7325 7.78906 40.1319 8.08835 39.6159 8.62706C38.7276 10.1662 39.5228 10.8589 39.8527 10.8503C40.2757 9.76433 40.8509 9.17432 41.4092 9.17432C41.6038 9.17432 41.8153 9.24273 42.0437 9.37099C43.7778 10.38 45.6304 14.8949 45.6304 20.0084C45.6304 23.9247 44.48 26.2677 43.3633 26.2677C43.1688 26.2677 42.9573 26.1993 42.7289 26.071C41.2993 25.2416 39.7935 22.0093 39.3113 18.0417L38.2539 20.0169C38.956 23.4373 40.3772 26.2933 42.0521 27.2767C42.492 27.5332 42.9319 27.6615 43.3718 27.6615C45.5458 27.6615 47.0008 24.5917 47.0008 20.0255C47.0008 14.7837 45.1229 9.58476 42.7373 8.19096L42.7289 8.17386Z"
      fill="#616161" />
    <path
      d="M22.0782 19.0342C22.0782 20.1117 22.1036 21.0608 22.1966 21.9501L22.1712 21.9672C21.9005 21.3173 21.5368 20.6418 21.173 20.0945L19.8957 18.2133L18.2715 19.1625V26.3282L19.5488 25.5843V23.4294C19.5488 22.2579 19.5319 21.2575 19.4981 20.334L19.5235 20.3083C19.828 20.9753 20.2256 21.6679 20.5893 22.2152L21.9005 24.2161L23.3555 23.361V16.1953L22.0782 16.9392V19.0342Z"
      fill="#FF0000" />
    <path
      d="M25.9602 18.8098L28.2189 17.493V16.1761L25.9602 17.493V16.0051L28.3542 14.6027V13.2773L24.5645 15.4835V22.6577L28.4811 20.3661V19.0407L25.9602 20.5115V18.8098Z"
      fill="#FF0000" />
    <path
      d="M34.9541 12.3632C34.8272 13.2867 34.6918 14.2102 34.5988 15.0568H34.5819C34.4888 14.3214 34.3873 13.6202 34.252 12.8592L33.7613 10.1229L32.2894 10.9865L31.7734 14.2273C31.6211 15.2021 31.4688 16.1513 31.3758 16.9807H31.3589C31.2574 16.3309 31.1305 15.4758 30.9951 14.7062L30.5299 12.0212L29.041 12.8848L30.496 19.204L32.0187 18.3147L32.6024 14.8858C32.7462 14.0734 32.8477 13.338 32.9577 12.4658H32.9746C33.0507 13.2354 33.1438 13.8425 33.2622 14.4924L33.7782 17.2715L35.284 16.3907L36.8659 8.29297L35.4532 9.11386L34.9541 12.3376V12.3632Z"
      fill="#FF0000" />
  </g>
  <defs>
    <clipPath id="clip0_2058_7383">
      <rect width="47" height="37" fill="white" />
    </clipPath>
  </defs>
</svg>