<svg width="46" height="45" viewBox="0 0 46 45" fill="none" xmlns="http://www.w3.org/2000/svg">
  <g id="Layer_1" clip-path="url(#clip0_2058_7259)">
    <path id="Vector" opacity="0.12"
      d="M34.4986 22.3852C34.4779 22.2899 34.471 22.1947 34.4572 22.0994L33.0703 20.4796C33.1738 20.1801 33.6361 18.8802 34.1122 18.0567C34.3882 17.5871 34.2157 17.2332 33.6568 17.1175C33.6568 17.1175 33.6499 17.1175 33.643 17.1175V17.0903L33.5188 17.1039C33.1669 17.0563 32.753 17.1039 32.3666 17.24L20.6924 18.5876C20.0231 18.4515 19.0778 18.7237 18.6363 19.2341C18.4638 19.4315 18.0222 20.1461 17.6634 20.8539L17.0148 20.7518C17.1735 20.2958 17.1735 19.8398 17.0286 19.4383L17.6841 19.0708C17.7669 19.0231 17.8014 18.9415 17.7669 18.887L17.3391 18.3085C17.3115 18.2745 17.2563 18.2609 17.1942 18.2677C17.1942 18.2677 16.3318 18.3562 16.0489 18.4106C15.7522 18.2609 15.421 18.1656 15.0691 18.1248L15.2347 17.5667C15.2554 17.4986 15.2002 17.4374 15.1105 17.4442L14.1308 17.4782L12.9854 17.6143C12.8958 17.6143 12.8061 17.6756 12.7854 17.7505L12.6198 18.3085C12.3093 18.363 11.9919 18.4515 11.6883 18.5672L11.5779 18.4855C11.5779 18.4855 11.5089 18.4583 11.4675 18.4651C11.4261 18.4651 10.3705 18.5944 10.3291 18.6012C10.2808 18.6012 10.2325 18.6216 10.198 18.6556L9.40453 19.275C9.32863 19.3294 9.32173 19.4111 9.37693 19.4587L9.82541 19.7854C9.42523 20.2142 9.15614 20.6702 9.04575 21.1261L8.31438 21.2691C8.31438 21.2691 8.26609 21.2827 8.24539 21.2895C8.18329 21.3235 8.14189 21.3712 8.14189 21.4256V22.1674C8.13499 22.2355 8.21089 22.2763 8.30058 22.2559L9.03195 22.113C9.13544 22.4873 9.36313 22.8276 9.72191 23.093C9.74261 23.1066 9.77021 23.1271 9.79091 23.1407L9.34933 23.6375L7.70721 23.828L6.31348 23.9914C6.13409 24.0118 5.9754 24.1411 5.9547 24.2704L5.85811 24.9034C5.65112 24.9646 5.45103 25.0327 5.25094 25.1075L5.12674 25.0191C5.07844 24.985 5.00945 24.9714 4.94045 24.9782C4.94045 24.9782 4.93355 24.9782 4.92665 24.9782C4.91285 24.9782 4.90595 24.9782 4.89215 24.9782C4.67137 25.0055 3.59502 25.128 3.52602 25.1348C3.44323 25.1416 3.35353 25.1756 3.28453 25.23L1.78041 26.4074C1.64242 26.5163 1.61482 26.6729 1.72521 26.7545L2.24269 27.1357C1.8908 27.5372 1.62172 27.9524 1.42853 28.3675L0.593669 28.4628C0.414278 28.4832 0.255586 28.6125 0.234887 28.7418L0.000298444 30.1983C-0.0204005 30.3344 0.103793 30.4229 0.283184 30.4025L1.11804 30.3072C1.18014 30.6951 1.33193 31.0626 1.56652 31.3893L0.904153 31.9065C0.76616 32.0154 0.738562 32.172 0.848956 32.2536L2.0357 33.118C2.09089 33.1588 2.16679 33.1724 2.24959 33.1656C2.32548 33.1588 3.55362 33.0091 3.63642 33.0023C3.63642 33.0023 3.63642 33.0023 3.64332 33.0023C3.71921 32.9887 3.80201 32.9614 3.87101 32.907L4.0297 32.7845C4.21599 32.8185 4.40228 32.8389 4.59547 32.8526L4.49887 33.4855C4.47818 33.6216 4.60237 33.7101 4.78176 33.6897L6.26519 33.5127L5.76151 33.9074L12.192 38.2427C12.1023 38.5218 12.4473 38.6579 12.8406 38.5626L12.8682 38.5762L14.1929 38.4197C14.255 38.5218 14.3378 38.6239 14.4482 38.7055C14.7587 38.9301 15.6418 39.5699 17.2977 39.3453C17.3322 39.3453 17.1735 38.7872 17.1873 38.7872C17.6565 38.7328 18.1464 38.5422 18.5535 38.2223C18.6984 38.1134 18.8088 37.9909 18.9123 37.8684L25.0184 37.147C25.0391 37.4465 25.736 37.4601 26.2121 37.0858C26.357 36.9701 27.0124 36.4596 27.9508 35.7246C27.6817 36.2282 27.7369 36.7523 28.1785 37.0722C28.489 37.2967 28.9168 37.3784 29.3721 37.3308C29.4066 37.3308 30.897 37.1538 30.9177 37.1538C31.3868 37.0994 31.8767 36.9088 32.2838 36.5889C33.091 35.956 33.229 35.0712 32.5943 34.6084C32.2493 34.3566 31.7525 34.2886 31.2419 34.3702C31.2626 34.3702 31.2833 34.3566 31.2833 34.3566C31.2833 34.3566 29.8413 34.52 29.8137 34.5268C29.6481 34.5472 29.4825 34.5948 29.31 34.6493C31.0763 33.2677 33.2773 31.5526 35.085 30.137C34.9471 27.544 34.9816 24.9102 34.4917 22.3716L34.4986 22.3852ZM9.79781 34.03L8.66627 33.2065C8.54897 33.1248 8.48687 33.0159 8.45928 32.8934L8.52137 32.4782C8.54207 32.4442 8.55587 32.4034 8.58347 32.3693C8.76976 32.3149 8.95605 32.2468 9.14234 32.1788L9.26654 32.2673C9.30793 32.2945 9.36313 32.3149 9.41833 32.3149C9.48732 32.3149 10.198 32.2264 10.6189 32.172L11.9367 33.1316L9.79091 34.03H9.79781ZM10.7638 24.284C10.6741 24.284 10.5775 24.3249 10.5016 24.3861L10.3429 24.5086C10.1566 24.4746 9.9703 24.4542 9.77711 24.4406L9.84611 24.0118L10.129 24.1207C10.1911 24.1479 11.0949 24.0254 11.3364 23.9982C11.3502 23.9982 11.364 23.9982 11.3778 23.9982H11.3916C11.4399 23.9846 11.4813 23.9642 11.5089 23.9301L11.8056 23.6035C12.054 23.5898 12.3024 23.5558 12.5577 23.5014L12.7164 23.9914C12.7371 24.0526 12.8268 24.0799 12.9165 24.0458L13.9652 23.9233C13.9652 23.9233 14.0273 23.9233 14.0687 23.9097L15.0484 23.549C15.1381 23.515 15.2002 23.4401 15.1795 23.3721L15.0208 22.882C15.2899 22.7391 15.5521 22.5758 15.7936 22.3852C15.9523 22.2627 16.0903 22.1266 16.2214 21.9973C16.5526 21.9633 17.0355 21.8952 17.1252 21.8884C17.1321 21.8884 17.139 21.8884 17.1459 21.8884C17.1804 21.8816 17.208 21.868 17.2356 21.8476C17.1528 22.0994 17.1252 22.2967 17.1804 22.3988C17.2356 22.4941 17.5875 22.8888 18.312 23.7123C18.3672 23.7736 18.4224 23.8417 18.4845 23.9029L14.3723 27.1425V27.1084C14.3999 26.9723 14.2757 26.8839 14.0963 26.9043L13.2614 26.9996C13.1993 26.6116 13.0475 26.2441 12.813 25.9174L13.4753 25.4002C13.6133 25.2913 13.6409 25.1348 13.5305 25.0531L12.3438 24.1888C12.3024 24.1547 12.2403 24.1479 12.1782 24.1479C12.1506 24.1479 12.123 24.1479 12.0885 24.1547C11.7918 24.1888 10.8259 24.2976 10.7638 24.3045V24.284ZM17.0493 32.7981C16.6009 33.152 15.9523 33.2269 15.6004 32.9682L12.6612 30.8244C12.7578 30.7223 12.7716 30.593 12.675 30.525L12.1575 30.1438C12.4542 29.8035 12.6957 29.4496 12.882 29.0889C13.22 28.9937 13.565 29.0209 13.7927 29.1842L17.2287 31.6956C17.5806 31.9542 17.5047 32.451 17.0562 32.7981H17.0493ZM20.5475 30.0554C20.099 30.4093 19.4504 30.4841 19.0985 30.2255L15.6625 27.7142C15.3106 27.4555 15.3865 26.9587 15.835 26.6116C16.2835 26.2577 16.9321 26.1829 17.2839 26.4415L20.72 28.9528C21.0718 29.2114 20.996 29.7083 20.5475 30.0554ZM30.0345 20.922C30.069 20.9764 30.3243 21.2827 30.7038 21.7251L21.0166 22.8616L20.237 21.9292C20.3267 21.6638 20.7131 20.5817 21.1546 19.7718L30.9522 18.642C30.4692 19.4723 29.862 20.6565 30.0276 20.922H30.0345Z"
      fill="black" />
    <g id="Group">
      <g id="Group_2">
        <path id="Vector_2"
          d="M37.7128 33.8593C36.6709 34.4514 35.8223 35.9011 35.8223 37.0853C35.8223 37.6638 36.0224 38.0721 36.3466 38.2763C36.3742 38.2899 37.4644 38.916 37.4644 38.916C37.4644 38.916 36.8917 38.2627 37.3954 37.9836C38.4372 37.3915 39.2859 35.9419 39.2859 34.7577C39.2859 34.1792 40.0794 34.3221 40.0794 34.3221C40.0794 34.3221 39.0375 33.7232 39.0168 33.7096C38.6787 33.5326 38.2164 33.5667 37.7128 33.8593Z"
          fill="#454545" />
        <path id="Vector_3"
          d="M38.8026 34.4873C37.7608 35.0794 36.9121 36.5291 36.9121 37.7133C36.9121 38.8975 37.7608 39.3807 38.8026 38.7886C39.8445 38.1965 40.6931 36.7469 40.6931 35.5627C40.6931 34.3784 39.8445 33.8952 38.8026 34.4873Z"
          fill="#1F1F1F" />
        <path id="Vector_4"
          d="M38.8026 35.3293C38.1679 35.69 37.6504 36.5748 37.6504 37.2962C37.6504 38.0176 38.1679 38.3171 38.8026 37.9495C39.4374 37.5888 39.9549 36.7041 39.9549 35.9827C39.9549 35.2613 39.4374 34.9618 38.8026 35.3293Z"
          fill="#B3B3B3" />
      </g>
      <g id="Group_3">
        <path id="Vector_5"
          d="M27.2538 39.8222C26.2119 40.4143 25.3633 41.8639 25.3633 43.0482C25.3633 43.6267 25.5634 44.035 25.8877 44.2392C25.9153 44.2528 27.0054 44.8789 27.0054 44.8789C27.0054 44.8789 26.4327 44.2256 26.9364 43.9465C27.9783 43.3544 28.8269 41.9048 28.8269 40.7206C28.8269 40.1421 29.6204 40.285 29.6204 40.285C29.6204 40.285 28.5785 39.6861 28.5578 39.6725C28.2197 39.4955 27.7575 39.5364 27.2538 39.8222Z"
          fill="#454545" />
        <path id="Vector_6"
          d="M28.3436 40.4405C27.3018 41.0326 26.4531 42.4822 26.4531 43.6664C26.4531 44.8506 27.3018 45.3338 28.3436 44.7417C29.3855 44.1496 30.2341 42.7 30.2341 41.5158C30.2341 40.3316 29.3855 39.8484 28.3436 40.4405Z"
          fill="#1F1F1F" />
        <path id="Vector_7"
          d="M28.3437 41.2863C27.7089 41.6471 27.1914 42.5318 27.1914 43.2532C27.1914 43.9746 27.7089 44.2741 28.3437 43.9066C28.9784 43.5459 29.4959 42.6611 29.4959 41.9397C29.4959 41.2183 28.9784 40.9188 28.3437 41.2863Z"
          fill="#B3B3B3" />
      </g>
    </g>
    <g id="Group_4">
      <path id="Vector_8"
        d="M17.2694 34.1581C16.2276 34.7502 15.3789 36.1999 15.3789 37.3841C15.3789 37.9626 15.579 38.3709 15.9033 38.5751C15.9309 38.5887 17.021 39.2149 17.021 39.2149C17.021 39.2149 16.4484 38.5615 16.952 38.2825C17.9939 37.6904 18.8425 36.2407 18.8425 35.0565C18.8425 34.478 19.636 34.6209 19.636 34.6209C19.636 34.6209 18.5941 34.022 18.5734 34.0084C18.2354 33.8315 17.7731 33.8723 17.2694 34.1581Z"
        fill="#454545" />
      <path id="Vector_9"
        d="M18.3593 34.7842C17.3174 35.3763 16.4688 36.8259 16.4688 38.0102C16.4688 39.1944 17.3174 39.6776 18.3593 39.0855C19.4011 38.4934 20.2498 37.0437 20.2498 35.8595C20.2498 34.6753 19.4011 34.1921 18.3593 34.7842Z"
        fill="#1F1F1F" />
      <path id="Vector_10"
        d="M18.3593 35.6223C17.7245 35.983 17.207 36.8677 17.207 37.5892C17.207 38.3106 17.7245 38.61 18.3593 38.2425C18.994 37.8818 19.5115 36.9971 19.5115 36.2756C19.5115 35.5542 18.994 35.2548 18.3593 35.6223Z"
        fill="#B3B3B3" />
    </g>
    <path id="Vector_11"
      d="M29.2261 26.6725C25.1691 28.9525 15.896 34.1657 14.9576 34.683C13.7433 35.3499 14.1296 36.5546 15.0059 36.0577C15.8063 35.6017 28.6327 28.4012 30.7992 27.1898C30.2817 26.9924 29.7643 26.795 29.2468 26.5977C29.2468 26.6181 29.2399 26.6453 29.233 26.6725H29.2261Z"
      fill="#FACA00" />
    <path id="Vector_12"
      d="M34.6854 6.31697C34.1541 6.77296 31.3046 9.95807 31.0976 10.8428C31.0493 11.0334 30.932 11.9454 30.6767 13.8102C30.2144 17.2335 29.4486 22.9708 28.8552 26.0266L28.7793 26.4281L29.8349 26.8297C30.1937 26.9658 30.5525 27.1019 30.9113 27.238L31.6772 27.5375L31.5875 26.7344C31.5392 26.3328 31.4909 25.8973 31.3322 25.6114L33.3745 11.9726C33.6712 11.5506 34.9476 9.76751 35.9411 8.65136C36.5759 7.93675 36.8105 7.08602 36.5276 6.48031C36.224 5.82695 35.3961 5.71125 34.6854 6.32377V6.31697Z"
      fill="#FACA00" />
    <path id="Vector_13"
      d="M14.5031 36.1923L30.4965 27.2359L31.9937 13.4609L12.9023 24.4047L14.51 36.1923H14.5031ZM25.5494 19.1438C25.5494 18.4836 26.0255 17.6737 26.6051 17.3402C27.1846 17.0068 27.6607 17.279 27.6607 17.9392V24.3979C27.6607 25.058 27.1846 25.8679 26.6051 26.2014C26.0255 26.5349 25.5494 26.2627 25.5494 25.6025V19.1438ZM21.0094 21.73C21.0094 21.0698 21.4855 20.2599 22.0651 19.9265C22.6447 19.593 23.1207 19.8652 23.1207 20.5254V26.9841C23.1207 27.6442 22.6447 28.4541 22.0651 28.7876C21.4855 29.1211 21.0094 28.8489 21.0094 28.1887V21.73ZM16.4695 24.3162C16.4695 23.656 16.9455 22.8461 17.5251 22.5127C18.1047 22.1792 18.5808 22.4514 18.5808 23.1116V29.5703C18.5808 30.2304 18.1047 31.0403 17.5251 31.3738C16.9455 31.7073 16.4695 31.4351 16.4695 30.7749V24.3162Z"
      fill="#CC2C21" />
    <path id="Vector_14"
      d="M24.1275 41.8485C25.0037 41.3517 40.0105 32.8512 40.0105 32.8512V31.4492C40.0105 31.4492 25.1969 39.9156 23.9826 40.5826C22.7683 41.2496 23.2512 42.3521 24.1275 41.8553V41.8485Z"
      fill="#FACA00" />
    <path id="Vector_15"
      d="M35.2013 6.23272C34.7735 6.47773 34.4492 7.029 34.4492 7.51902C34.4492 7.83209 34.5803 8.09751 34.8494 8.26766L44.6607 13.9097L45.9164 11.8679L36.0775 6.2055C36.0775 6.2055 35.6498 5.98091 35.2082 6.23272H35.2013Z"
      fill="#FA9800" />
    <path id="Vector_16" d="M14.5039 36.1913L23.3907 41.2481L39.3841 32.2916L30.5111 27.1328L14.5039 36.1913Z"
      fill="#93180C" />
    <path id="Vector_17"
      d="M44.9508 11.332C44.7024 11.332 44.316 11.4137 43.902 11.8016C43.5156 12.1623 40.5419 15.4291 40.3625 16.2662C40.2245 16.8856 38.1684 31.974 37.9338 33.6891L37.8027 34.1655L40.4729 32.6478L42.6463 17.3824C42.9706 16.9264 44.3712 14.9595 45.3717 13.8366C45.9512 13.19 46.1444 12.4754 45.8891 11.9309C45.7166 11.5566 45.3648 11.332 44.9508 11.332Z"
      fill="#FACA00" />
    <path id="Vector_18" d="M30.4961 27.2359L39.3829 32.2926L40.8801 18.5177L31.9933 13.4609L30.4961 27.2359Z"
      fill="#AF180C" />
    <path id="Vector_19"
      d="M23.3898 41.2509L39.3832 32.2945L40.8804 18.5195L21.7891 29.4633L23.3967 41.2509H23.3898ZM34.4361 24.2024C34.4361 23.5422 34.9122 22.7323 35.4918 22.3988C36.0713 22.0654 36.5474 22.3376 36.5474 22.9978V29.4565C36.5474 30.1166 36.0713 30.9265 35.4918 31.26C34.9122 31.5935 34.4361 31.3213 34.4361 30.6611V24.2024ZM29.8962 26.7886C29.8962 26.1284 30.3722 25.3185 30.9518 24.985C31.5314 24.6516 32.0075 24.9238 32.0075 25.584V32.0427C32.0075 32.7028 31.5314 33.5127 30.9518 33.8462C30.3722 34.1797 29.8962 33.9075 29.8962 33.2473V26.7886ZM25.3562 29.3748C25.3562 28.7146 25.8323 27.9047 26.4118 27.5713C26.9914 27.2378 27.4675 27.51 27.4675 28.1702V34.6289C27.4675 35.289 26.9914 36.0989 26.4118 36.4324C25.8323 36.7659 25.3562 36.4937 25.3562 35.8335V29.3748Z"
      fill="#FF3532" />
    <path id="Vector_20" d="M12.8945 24.4062L14.5022 36.1939L23.3889 41.2506L21.7813 29.463L12.8945 24.4062Z"
      fill="#AF180C" />
    <g id="Group_5">
      <path id="Vector_21"
        d="M25.1912 10.197L24.3356 10.687C24.1976 10.1289 23.9768 9.65252 23.6871 9.27139L24.2942 8.23691C24.4253 8.01912 24.4253 7.78092 24.2942 7.70606L22.9143 6.91658C22.7832 6.84172 22.5762 6.96422 22.452 7.18201L21.8449 8.21649C21.3688 8.15524 20.8375 8.20288 20.2786 8.37302L21.2101 7.78092C21.2101 7.78092 20.2441 7.22284 20.182 7.18881C20.1199 7.15479 20.0371 7.15479 19.9474 7.20923L17.9948 8.31858C17.8155 8.42067 17.6637 8.67248 17.6637 8.88346V9.85669C17.1048 10.3331 16.5735 10.8844 16.0974 11.4901L15.4903 11.143C15.3592 11.0681 15.1522 11.1906 15.028 11.4084L13.6481 13.77C13.517 13.9878 13.517 14.226 13.6481 14.3009L14.2552 14.648C13.9654 15.3626 13.7447 16.084 13.6067 16.8054L12.7511 17.2954C12.5717 17.3975 12.4199 17.6493 12.4199 17.8603V20.0858C12.4199 20.1879 12.4544 20.2628 12.5165 20.2968C12.5786 20.3308 13.5377 20.8753 13.5377 20.8753L13.6067 19.7864C13.7447 20.3444 13.9654 20.8208 14.2552 21.202L13.6481 22.2365C13.517 22.4542 13.517 22.6924 13.6481 22.7673L15.028 23.5568C15.1591 23.6316 15.3661 23.5091 15.4903 23.2914L16.0974 22.2569C16.5735 22.3181 17.1048 22.2705 17.6637 22.1003V23.0736C17.6637 23.1484 17.6844 23.2097 17.7189 23.2505C17.781 23.3186 18.8159 23.8698 18.8159 23.8698L19.9474 22.148C20.1268 22.0459 20.2786 21.7941 20.2786 21.5831V20.6099C20.8375 20.1335 21.3688 19.5822 21.8449 18.9765L22.452 19.3236C22.5831 19.3984 22.7901 19.2759 22.9143 19.0581L24.2942 16.6965C24.4253 16.4787 24.4253 16.2405 24.2942 16.1657L23.6871 15.8186C23.9768 15.104 24.1976 14.3826 24.3356 13.6611L25.1912 13.1711C25.3706 13.069 25.5224 12.8172 25.5224 12.6062L26.4676 10.7755C26.4676 10.7755 25.4948 10.2174 25.4465 10.1766C25.3844 10.1289 25.2947 10.1289 25.1981 10.1902L25.1912 10.197Z"
        fill="#1C1C1C" />
      <path id="Vector_22"
        d="M32.9745 3.50692C32.9745 3.46608 32.9745 3.41844 32.9745 3.37761C32.9745 2.69702 32.8296 2.13895 32.5674 1.72379L33.147 0.866262C33.2229 0.75737 33.3678 0.498749 33.3678 0.498749L32.5398 0.0223424C32.4777 -0.0252983 32.3743 0.0223424 32.2984 0.131235L31.7188 0.988767C31.2565 0.80501 30.6976 0.80501 30.0836 1.0228L30.8701 0.54639C30.8701 0.54639 30.0698 0.0904004 30.0422 0.069983C30.0077 0.0495656 29.9663 0.0495656 29.9111 0.0767888L28.883 0.662088C28.7864 0.716535 28.7105 0.845845 28.7105 0.954738V1.79866C28.0965 2.28868 27.5307 2.92162 27.0753 3.62942L26.4957 3.43205C26.4957 3.43205 26.4543 3.43205 26.4336 3.43205C26.3716 3.44566 26.2957 3.51372 26.2543 3.6022L25.6126 4.88169C25.5505 4.99739 25.5643 5.11989 25.6402 5.14031L26.2198 5.33768C25.9576 6.05229 25.8127 6.7737 25.8127 7.45428C25.8127 7.49512 25.8127 7.54276 25.8127 7.58359L25.0882 8.18251C24.9985 8.25737 24.9364 8.40029 24.9571 8.48877L25.1848 9.49603C25.2055 9.59131 26.0887 10.0473 26.0887 10.0473L26.1163 8.92434C26.3647 9.42797 26.7579 9.76145 27.2478 9.89757L26.9235 10.8436C26.8821 10.9661 26.9235 11.0614 27.0063 11.0614L27.8412 11.5378C27.8412 11.5378 28.1241 10.9389 28.1655 10.8232L28.4897 9.87715C28.7795 9.79548 29.0831 9.67298 29.4005 9.48922C29.7179 9.31227 30.0215 9.08768 30.3113 8.83586L30.6355 9.41436C30.6769 9.48922 31.5187 9.9316 31.5187 9.9316L31.7878 8.34584C31.8706 8.25056 31.912 8.11445 31.8706 8.03958L31.5463 7.46109C32.0362 6.7669 32.4295 5.98423 32.6778 5.19476L33.4023 4.97016C33.492 4.94294 33.5886 4.82044 33.6093 4.70474L34.6166 3.75192C34.6166 3.75192 33.8025 3.2483 33.7128 3.27552L32.9883 3.50011L32.9745 3.50692Z"
        fill="#1C1C1C" />
    </g>
    <path id="Vector_23"
      d="M29.3925 3.62223C28.461 4.15308 27.709 5.43938 27.709 6.50109C27.709 7.56279 28.461 7.99156 29.3925 7.46071C30.324 6.92985 31.076 5.64356 31.076 4.58185C31.076 3.52014 30.324 3.09138 29.3925 3.62223Z"
      fill="#1C1C1C" />
    <path id="Vector_24"
      d="M18.9605 12.024C17.4081 12.9088 16.1523 15.0526 16.1523 16.8221C16.1523 18.5916 17.4081 19.3062 18.9605 18.4215C20.5129 17.5367 21.7687 15.3929 21.7687 13.6234C21.7687 11.8539 20.5129 11.1393 18.9605 12.024Z"
      fill="#1C1C1C" />
    <g id="Group_6">
      <path id="Vector_25"
        d="M26.197 10.7673L25.3415 11.2573C25.2035 10.6992 24.9827 10.2228 24.6929 9.8417L25.3001 8.80722C25.4312 8.58944 25.4312 8.35123 25.3001 8.27637L23.9202 7.48689C23.7891 7.41203 23.5821 7.53454 23.4579 7.75232L22.8507 8.7868C22.3746 8.72555 21.8434 8.77319 21.2845 8.94334V7.97011C21.2845 7.76593 21.1396 7.67746 20.9533 7.77954L19.0007 8.8957C18.8213 8.99778 18.6695 9.2496 18.6695 9.46058V10.4338C18.1106 10.9102 17.5794 11.4615 17.1033 12.0672L16.4961 11.7201C16.365 11.6452 16.158 11.7677 16.0339 11.9855L14.6539 14.3471C14.5228 14.5649 14.5228 14.8031 14.6539 14.878L15.2611 15.2251C14.9713 15.9397 14.7505 16.6611 14.6125 17.3825L13.757 17.8726C13.5776 17.9746 13.4258 18.2265 13.4258 18.4374V20.6629C13.4258 20.8671 13.5707 20.9556 13.757 20.8535L14.6125 20.3635C14.7505 20.9216 14.9713 21.398 15.2611 21.7791L14.6539 22.8136C14.5228 23.0314 14.5228 23.2696 14.6539 23.3444L16.0339 24.1339C16.1649 24.2088 16.3719 24.0863 16.4961 23.8685L17.1033 22.834C17.5794 22.8952 18.1106 22.8476 18.6695 22.6775V23.6507C18.6695 23.8549 18.8144 23.9433 19.0007 23.8412L20.9533 22.7319C21.1327 22.6298 21.2845 22.378 21.2845 22.167V21.1938C21.8434 20.7174 22.3746 20.1661 22.8507 19.5604L23.4579 19.9075C23.589 19.9824 23.796 19.8599 23.9202 19.6421L25.3001 17.2805C25.4312 17.0627 25.4312 16.8245 25.3001 16.7496L24.6929 16.4025C24.9827 15.6879 25.2035 14.9665 25.3415 14.2451L26.197 13.755C26.3764 13.653 26.5282 13.4011 26.5282 13.1902V10.9647C26.5282 10.7605 26.3833 10.672 26.197 10.7741V10.7673Z"
        fill="#2F2F2F" />
      <path id="Vector_26"
        d="M34.5321 3.7579L33.8076 3.9825C33.8076 3.94166 33.8076 3.89402 33.8076 3.85319C33.8076 3.1726 33.6627 2.61453 33.4005 2.19937L33.9801 1.34184C34.056 1.23295 34.0698 1.10364 34.0077 1.04919L33.366 0.497922C33.3039 0.443476 33.2004 0.497922 33.1245 0.606815L32.545 1.46435C32.0827 1.28059 31.5238 1.28059 30.9097 1.49838V0.64765C30.9097 0.538757 30.8338 0.497922 30.7372 0.552369L29.7092 1.13767C29.6126 1.19211 29.5367 1.32142 29.5367 1.43032V2.27424C28.9226 2.76426 28.3569 3.3972 27.9015 4.105L27.3219 3.90763C27.246 3.88041 27.1356 3.95527 27.0804 4.07778L26.4388 5.35727C26.3767 5.47297 26.3905 5.59547 26.4664 5.61589L27.0459 5.81326C26.7837 6.52787 26.6389 7.24928 26.6389 7.92986C26.6389 7.9707 26.6389 8.01834 26.6389 8.05917L25.9144 8.65808C25.8247 8.73295 25.7626 8.87587 25.7833 8.96435L26.011 9.97161C26.0317 10.0669 26.1283 10.0805 26.218 9.99883L26.9424 9.39992C27.1908 9.90355 27.5841 10.237 28.074 10.3731L27.7497 11.3192C27.7083 11.4417 27.7497 11.5369 27.8325 11.5369L28.757 11.5165C28.8398 11.5165 28.9433 11.4144 28.9847 11.2919L29.309 10.3459C29.5988 10.2643 29.9024 10.1418 30.2198 9.95799C30.5372 9.78104 30.8407 9.55645 31.1305 9.30464L31.4548 9.88313C31.4962 9.95799 31.5997 9.93758 31.6825 9.8423L32.6071 8.80781C32.6898 8.71253 32.7312 8.57642 32.6898 8.50155L32.3656 7.92306C32.8554 7.22887 33.2487 6.4462 33.4971 5.65672L34.2216 5.43213C34.3113 5.40491 34.4079 5.2824 34.4286 5.16671L34.6562 3.90083C34.6769 3.78513 34.6218 3.71026 34.5252 3.73749L34.5321 3.7579Z"
        fill="#2F2F2F" />
    </g>
    <path id="Vector_27"
      d="M30.2265 4.09098C29.295 4.62183 28.543 5.90813 28.543 6.96984C28.543 8.03154 29.295 8.46031 30.2265 7.92946C31.1579 7.3986 31.91 6.11231 31.91 5.0506C31.91 3.98889 31.1579 3.56013 30.2265 4.09098Z"
      fill="white" />
    <path id="Vector_28"
      d="M19.9742 12.6061C18.4218 13.4908 17.166 15.6415 17.166 17.4042C17.166 19.1669 18.4218 19.8883 19.9742 19.0035C21.5266 18.1188 22.7823 15.9749 22.7823 14.2054C22.7823 12.4359 21.5266 11.7213 19.9742 12.6061Z"
      fill="white" />
  </g>
  <defs>
    <clipPath id="clip0_2058_7259">
      <rect width="46" height="45" fill="white" />
    </clipPath>
  </defs>
</svg>