<svg xmlns="http://www.w3.org/2000/svg" width="49" height="40" viewBox="0 0 49 40" fill="none">
  <g clip-path="url(#clip0_2058_7465)">
    <path opacity="0.12"
      d="M45.2877 23.6871L40.2826 19.9493L40.8191 19.6618C40.8191 19.6618 40.8485 19.647 40.8632 19.6397L40.8926 19.6249C41.4144 19.3079 41.3703 18.7918 40.5913 18.1283C38.989 16.7644 34.9688 15.3268 31.61 14.9139C29.971 14.7149 28.8024 14.796 28.2071 15.0909H28.1998L28.1704 15.1056H28.1483L24.9953 16.8308L8.82614 19.2858C8.40721 19.3521 8.03973 19.448 7.7237 19.5586C7.62815 19.5954 7.53261 19.6323 7.44441 19.6691C7.26802 19.7429 7.11368 19.8313 6.97404 19.9198C6.84174 20.0083 6.72415 20.1115 6.63595 20.2147C6.49631 20.3769 5.23217 22.2347 9.79629 25.0068C11.7072 26.1642 17.609 30.0863 22.6876 30.219C25.3628 30.2854 27.5824 28.6192 28.582 28.199C28.9347 28.0516 29.2508 28.199 29.4272 28.4644C29.6403 28.3317 29.8608 28.1916 30.0739 28.0368C30.3238 27.8599 30.6325 27.882 30.875 28.0221C31.169 27.6829 31.4704 27.3438 31.7643 26.9973C32.2421 26.437 33.2343 26.9383 33.102 27.5797C33.4989 27.1742 33.881 26.7614 34.2559 26.3338C34.3808 26.1937 34.5205 26.12 34.6748 26.0905C35.373 24.8224 36.0124 23.5175 36.5637 22.161C36.8797 21.3795 37.7763 21.3869 37.5706 22.2052C37.5118 22.4338 37.4015 22.6034 37.3354 22.8319L40.8117 25.1763C41.6643 25.9062 43.2592 26.4296 44.7217 25.9578C46.2358 25.4712 46.1549 24.417 45.3024 23.6871H45.2877Z"
      fill="black" />
    <path opacity="0.12"
      d="M4.7103 22.5159L6.29047 22.5823C6.35662 22.5823 6.37867 22.5601 6.35662 22.5307L5.58491 21.5575C5.58491 21.5575 5.49671 21.5059 5.43791 21.4985L0.190274 21.2773C0.146177 21.2773 0.124128 21.2773 0.116778 21.2995C0.116778 21.3142 0.124128 21.3363 0.160876 21.3511L2.24817 22.4422L0.0653306 22.3906C0.0653306 22.3906 0.0138831 22.3906 0.0065335 22.4053C-0.00816577 22.4127 -0.000816133 22.4274 0.0065335 22.4422L0.844392 23.4153C0.844392 23.4153 0.88114 23.4448 0.910538 23.4522C0.939937 23.4596 0.969335 23.4669 0.998734 23.4669L6.6506 23.607C6.6947 23.607 6.7388 23.5849 6.7094 23.5554C6.6947 23.5407 6.67265 23.5259 6.64325 23.5186L4.70295 22.5012L4.7103 22.5159Z"
      fill="black" />
    <path opacity="0.12"
      d="M18.6448 35.135L16.9544 34.0881L18.5052 32.5473L16.1533 31.9648L14.4629 33.5794C14.4629 33.5794 14.4629 33.6163 14.4776 33.6384C14.4923 33.6679 14.5217 33.6974 14.5511 33.7121L16.3444 34.8253L15.095 36.0492L17.0206 36.9191L18.7404 35.2677C18.7404 35.2677 18.7404 35.2308 18.7257 35.2013C18.711 35.1718 18.6816 35.1423 18.6522 35.1276L18.6448 35.135Z"
      fill="black" />
    <path opacity="0.12"
      d="M12.2799 28.4408L9.68546 27.9837L10.7071 27.5414C10.7438 27.5266 10.7291 27.4898 10.6777 27.4677L8.8623 26.6862C8.8623 26.6862 8.8035 26.6641 8.7741 26.6641C8.73735 26.6641 8.7153 26.6641 8.69326 26.6714L5.31242 28.1312C5.31242 28.1312 5.28303 28.1607 5.30507 28.1754C5.32712 28.1975 5.36387 28.2123 5.40797 28.2196L8.16408 28.6988L6.81175 29.3476C6.81175 29.3476 6.7897 29.3992 6.8485 29.4213L8.70796 30.1807C8.70796 30.1807 8.76675 30.1954 8.79615 30.2028C8.82555 30.2028 8.8476 30.2028 8.86965 30.1954L12.3828 28.5219C12.3828 28.5219 12.4048 28.4924 12.3828 28.4777C12.3607 28.4629 12.324 28.4408 12.2872 28.4334L12.2799 28.4408Z"
      fill="black" />
    <path
      d="M43.847 9.5625C42.2301 9.5625 40.9219 10.8748 40.9219 12.4967V23.1425C40.9219 24.7644 42.2301 26.0767 43.847 26.0767C45.4639 26.0767 46.7722 24.7644 46.7722 23.1425V12.4967C46.7722 10.8748 45.4639 9.5625 43.847 9.5625Z"
      fill="#DA2E10" />
    <path
      d="M44.2458 1.15003C42.9669 0.405421 41.8057 0.331697 40.9531 0.788786L40.909 0.810903L40.8796 0.825648L35.5879 3.89994L42.5553 15.4009L47.5751 12.5035C47.5751 12.5035 47.6192 12.4814 47.6413 12.4667L47.678 12.4446C48.4938 11.9211 49.001 10.8816 49.001 9.40712C49.001 6.36969 46.8696 2.66875 44.2531 1.15003H44.2458Z"
      fill="#FF3532" />
    <path
      d="M39.0927 4.13556C38.0858 3.55314 37.1524 3.37621 36.388 3.54577L18.793 5.05711L32.772 29.6588L43.2085 14.7444C43.6053 14.1694 43.8405 13.3732 43.8405 12.3779C43.8405 9.34048 41.7165 5.64691 39.0927 4.12082V4.13556Z"
      fill="#EFECE8" />
    <path
      d="M24.0404 6.43673C18.3665 3.14864 13.7656 5.81008 13.7656 12.3789C13.7656 18.9477 18.3665 26.9468 24.0404 30.2275C29.7143 33.5229 34.3152 30.8541 34.3152 24.2853C34.3152 17.7165 29.7143 9.71745 24.0404 6.43673Z"
      fill="#4DAFAB" />
    <path
      d="M24.0401 7.82698C19.0277 4.92226 14.9707 7.27405 14.9707 13.0761C14.9707 18.8782 19.0277 25.9336 24.0401 28.8383C29.0526 31.7504 33.1096 29.3913 33.1096 23.5892C33.1096 17.7871 29.0526 10.7317 24.0401 7.82698Z"
      fill="#CECECE" />
    <path
      d="M12.3694 10.1573L6.53376 9.69282C6.48966 9.68545 6.45291 9.70756 6.42351 9.74443C6.40147 9.78129 6.39412 9.82552 6.41616 9.86238L7.6362 12.3248L5.17408 12.2142C5.17408 12.2142 5.11528 12.2216 5.09323 12.2437C5.07118 12.2658 5.05648 12.2953 5.05648 12.3248L4.96094 14.5291C4.96094 14.5291 4.96829 14.5881 4.99034 14.6176C5.01238 14.6397 5.04178 14.6544 5.07118 14.6544L11.4654 14.942C11.5168 14.942 11.5903 14.8904 11.5903 14.824C11.5903 14.7871 11.5756 14.7577 11.5609 14.7355L10.4291 12.4427L12.1856 12.5828C12.2591 12.5902 12.3106 12.5386 12.3106 12.4722L12.487 10.2752C12.487 10.2089 12.4429 10.1499 12.3767 10.1499L12.3694 10.1573Z"
      fill="#427FE9" />
    <path
      d="M25.1724 33.6844L22.5927 33.6622L23.5114 32.1509C23.5114 32.1509 23.5334 32.0919 23.5261 32.0624C23.5261 32.0329 23.4967 32.0035 23.4747 31.9887L21.6005 30.8386C21.5417 30.8018 21.4682 30.8239 21.4388 30.8755L18.3887 35.8887C18.3887 35.8887 18.3667 35.9698 18.3887 36.0067C18.4108 36.0435 18.4475 36.0656 18.4916 36.0656L21.233 36.0878L20.0203 38.2405C20.0203 38.2405 19.9983 38.2995 20.0056 38.329C20.013 38.3585 20.035 38.388 20.0644 38.4027L21.9753 39.4864C21.9753 39.4864 22.0121 39.5012 22.0341 39.5012C22.0415 39.5012 22.0562 39.5012 22.0635 39.5012C22.0929 39.4938 22.1223 39.4717 22.137 39.4422L25.2753 33.8539C25.2974 33.8171 25.2974 33.7728 25.2753 33.736C25.2533 33.6991 25.2165 33.677 25.1724 33.677V33.6844Z"
      fill="#427FE9" />
    <path
      d="M13.3106 24.5705L14.876 23.7521C14.9348 23.7226 14.9569 23.6489 14.9275 23.5899L13.9132 21.6363C13.9132 21.6363 13.8765 21.5846 13.8471 21.5773C13.8103 21.5699 13.7809 21.5773 13.7589 21.5846L8.57005 24.2977C8.5333 24.3198 8.51126 24.3567 8.50391 24.4009C8.50391 24.4451 8.52596 24.482 8.5627 24.5041L10.8999 25.9417L8.75379 27.1582C8.695 27.1877 8.67295 27.2614 8.7097 27.3204L9.79009 29.2372C9.79009 29.2372 9.83419 29.2814 9.86359 29.2962C9.89299 29.2962 9.92239 29.2962 9.95178 29.2814L15.5155 26.1187C15.5155 26.1187 15.5743 26.0597 15.5743 26.0155C15.5743 25.9712 15.5522 25.9344 15.5155 25.9122L13.3179 24.5631L13.3106 24.5705Z"
      fill="#427FE9" />
    <path
      d="M28.208 10.5938C26.863 11.4342 25.959 12.9308 25.959 14.6412C25.959 17.2805 28.0904 19.4111 30.7142 19.4111C31.4859 19.4111 32.2135 19.2195 32.8603 18.8951C32.3385 17.6418 31.6843 16.4474 31.1552 15.1646C30.4276 13.4026 29.2149 12.1125 28.2006 10.5938H28.208Z"
      fill="#427FE9" />
    <path
      d="M24.0404 6.43673C18.3665 3.14864 13.7656 5.81008 13.7656 12.3789C13.7656 18.9477 18.3665 26.9468 24.0404 30.2275C29.7143 33.5229 34.3152 30.8541 34.3152 24.2853C34.3152 17.7165 29.7143 9.71745 24.0404 6.43673ZM24.0404 28.8415C19.028 25.9441 14.971 18.8887 14.971 13.0793C14.971 7.26982 19.028 4.92539 24.0404 7.83012C29.0529 10.7275 33.1099 17.7902 33.1099 23.5923C33.1099 29.3944 29.0529 31.7536 24.0404 28.8415Z"
      fill="#DA2E10" />
  </g>
  <defs>
    <clipPath id="clip0_2058_7465">
      <rect width="49" height="39" fill="white" transform="translate(0 0.507812)" />
    </clipPath>
  </defs>
</svg>