<svg xmlns="http://www.w3.org/2000/svg" width="50" height="50" viewBox="0 0 50 50" fill="none">
  <g filter="url(#filter0_d_2058_7341)">
    <path opacity="0.12"
      d="M38.645 22.0671C37.4204 21.0835 35.8707 20.6413 34.2077 20.7709C34.2077 20.7709 30.5338 21.0911 29.0673 21.6325C28.0846 21.9985 27.1396 22.5399 26.2401 23.2567C25.7714 23.6303 25.3707 24.0268 25.023 24.4233L24.0781 18.674C24.063 18.6054 23.9496 18.5596 23.7984 18.5672C23.7984 18.5672 21.0468 18.918 20.8956 18.9256C20.7368 18.9256 20.5705 18.9866 20.4722 19.0629L17.1461 21.7164C17.0932 21.7545 17.0705 21.8003 17.0781 21.8384L18.1666 28.3578C17.063 27.7554 15.7854 27.5114 14.4323 27.6487C14.4323 27.6487 10.8794 27.9613 9.44309 28.4951C8.46037 28.8611 7.51544 29.4025 6.61588 30.1192C3.5392 32.5745 3.131 35.6931 5.63315 37.7062C6.5932 38.461 7.78758 38.888 9.0878 38.9643C9.88909 39.0177 12.1116 38.7279 13.2455 38.5754C13.4647 38.5525 13.6839 38.522 13.9031 38.4839C13.9183 38.4839 13.9334 38.4839 13.9334 38.4839C14.4247 38.3924 14.9237 38.2552 15.415 38.0722C16.3977 37.7062 17.3124 37.1877 18.1515 36.5243C18.59 36.1735 18.983 35.7923 19.3308 35.3805L20.0187 39.4904C20.0338 39.5591 20.1472 39.6048 20.2984 39.5972C20.3513 39.5972 21.4625 40.0623 22.3545 40.4512C22.7325 39.8488 23.0954 39.2235 23.5414 38.7127C24.5165 37.5765 25.5975 36.6234 26.9355 35.96L26.1871 31.4384C27.1094 31.9111 28.1753 32.1399 29.3016 32.1246C30.2239 32.1094 35.2433 32.3534 35.2433 32.3534C35.8859 32.2695 34.3967 31.4536 35.0543 31.2096C36.0295 30.8436 36.9517 30.3251 37.7833 29.6617C40.2779 27.6716 41.6083 24.4462 38.6526 22.0671H38.645ZM12.9884 35.4263C12.8826 35.5101 12.7843 35.5788 12.6785 35.655C12.3383 35.5101 12.0057 35.3119 11.6958 35.0526C10.2671 33.9012 10.2897 32.5135 11.7638 31.3316C11.8394 31.2706 11.9226 31.2096 11.9982 31.1562C12.3686 31.324 12.7012 31.5451 12.9809 31.7662C14.455 32.9557 14.455 34.252 12.9884 35.4263ZM32.6278 28.5561C32.5219 28.64 32.4236 28.7086 32.3178 28.7848C31.9776 28.64 31.645 28.4417 31.3351 28.1824C29.9064 27.0311 29.9291 25.6433 31.4031 24.4614C31.4787 24.4004 31.5619 24.3394 31.6375 24.286C32.0079 24.4538 32.3405 24.6749 32.6202 24.896C34.0943 26.0856 34.0943 27.3818 32.6202 28.5561H32.6278Z"
      fill="black" />
    <path
      d="M36.1368 4.87205L32.3117 7.09857C32.2512 7.1367 32.2059 7.19007 32.1832 7.25107L20.1638 39.4746C20.1184 39.589 20.1562 39.7262 20.2469 39.8101C20.2998 39.8559 22.1821 40.9386 22.1821 40.9386C22.1821 40.9386 24.4877 37.5378 24.5104 37.4768L38.4121 6.03106C38.4121 6.03106 36.5752 4.98643 36.4769 4.90255C36.3862 4.81868 36.2426 4.81105 36.1368 4.87205Z"
      fill="#5F5F5F" />
    <path
      d="M36.4528 14.8138C32.915 16.8726 30.4355 21.5315 30.4355 26.1447C30.4507 28.1424 30.9571 29.6446 31.8492 30.491C32.3934 31.0095 34.3513 32.0312 34.3513 32.0312L33.8977 31.2763C34.7217 31.2763 35.6289 30.9942 36.5889 30.4376C39.4539 28.7677 42.5381 24.49 42.5381 19.0305C42.5381 17.7113 42.8405 15.5458 42.8405 15.5458C42.8405 15.5458 40.4895 13.9141 39.2498 13.9141C38.4258 13.9141 37.4809 14.2191 36.4528 14.8138ZM36.3394 26.8386C35.5608 27.2961 34.9485 27.3266 34.5479 26.9072C34.1321 26.4802 33.9129 25.5804 33.928 24.368C33.928 21.7298 34.9409 19.5566 36.6342 18.573C37.0576 18.3214 37.428 18.1994 37.7304 18.1994C38.7433 18.1994 38.955 19.7701 38.955 21.0893C38.955 23.8114 38.0252 25.8473 36.3319 26.8386H36.3394Z"
      fill="#5F5F5F" />
    <path
      d="M20.1931 14.1613C16.6553 16.2201 14.1758 20.8866 14.1758 25.4921C14.1909 27.2383 14.5764 28.5955 15.2643 29.4801C15.8464 30.2273 18.4166 31.5388 18.4166 31.5388C18.4166 31.5388 19.3615 30.3417 20.3216 29.7851C23.1866 28.1152 26.2708 23.8375 26.2708 18.378C26.2708 17.0131 26.4749 14.8247 26.4749 14.8247C26.4749 14.8247 24.192 13.2539 22.9825 13.2539C22.1585 13.2539 21.2136 13.5589 20.1855 14.1613H20.1931ZM20.0797 26.186C19.3011 26.6435 18.6887 26.674 18.2881 26.2546C17.8723 25.8276 17.6531 24.9279 17.6682 23.7155C17.6682 21.0772 18.6812 18.9041 20.3745 17.9204C20.7978 17.6688 21.1682 17.5468 21.4706 17.5468C22.4836 17.5468 22.6952 19.1176 22.6952 20.4367C22.6952 23.1589 21.7654 25.1948 20.0721 26.186H20.0797Z"
      fill="#5F5F5F" />
    <path
      d="M43.8906 4.69884L43.868 4.71409C43.868 4.71409 43.8302 4.74459 43.8226 4.76747C43.815 4.79034 43.8075 4.81322 43.815 4.83609C44.0343 5.79685 43.7319 7.18461 43.3312 8.00049C43.2405 8.19112 43.1423 8.34362 43.0515 8.43512C43.4673 6.73473 42.7643 6.04848 42.0159 5.3241C41.26 4.59209 40.3982 3.76096 40.5494 1.71744C40.5494 1.68694 40.5418 1.66406 40.5116 1.66406C40.4889 1.66406 40.4587 1.68694 40.4435 1.71744C38.9014 4.30996 39.0602 6.42211 39.1963 8.11487C39.2794 9.21288 39.3474 10.0898 38.9241 10.7684C38.6595 9.81526 37.2686 8.7935 36.2178 9.39588C36.1498 9.43401 36.0818 9.48738 36.0137 9.54076C35.9986 9.55601 35.9759 9.57888 35.9684 9.60176C35.9608 9.62464 35.9684 9.64751 35.9684 9.66276C36.8831 11.1039 36.3842 12.6442 35.7945 14.4208C35.1822 16.2737 34.4036 19.1788 35.3032 21.3901C35.409 21.6494 35.6358 21.8934 35.9457 22.0916C37.2535 20.0329 39.3626 18.5231 41.842 18.5231C42.2578 18.5231 42.6585 18.5536 43.0667 18.5993C43.679 17.6767 44.2762 16.5787 44.8356 15.2291C46.8464 10.4176 45.7654 5.9036 44.8053 4.92759C44.4954 4.60734 44.1628 4.53109 43.8755 4.69884H43.8906Z"
      fill="#FF4600" />
    <path
      d="M44.1937 8.01423C44.0274 8.81486 42.7423 11.0261 42.0241 11.1253C41.941 11.1405 42.5987 7.43473 39.9075 6.52734C40.3762 7.83886 39.9075 12.0784 38.9702 12.9019C38.6678 13.2755 38.9475 11.659 37.2391 12.1241C37.3222 14.8844 35.2283 17.2634 35.901 20.344C35.9993 20.8091 36.2185 21.1217 36.5133 21.3276C37.8211 19.673 39.7034 18.5216 41.8578 18.5216C42.009 18.5216 42.1602 18.5292 42.3038 18.5368C42.9464 17.7057 43.4982 16.7526 43.846 15.7003C45.4334 10.9041 45.0177 8.25061 44.1937 8.00661V8.01423Z"
      fill="#FFDC2D" />
    <path
      d="M25.5903 3.31691L25.5676 3.33216C25.5676 3.33216 25.5298 3.37028 25.5147 3.39316C25.4995 3.41603 25.4995 3.44653 25.4995 3.46178C25.7414 4.51404 25.4088 6.03143 24.9704 6.92356C24.8646 7.13707 24.7663 7.29719 24.668 7.39632C25.1291 5.5358 24.3505 4.78854 23.5341 3.99554C22.7026 3.1949 21.7652 2.28752 21.9315 0.0533755C21.9315 0.0228752 21.9164 0 21.8937 0C21.871 0 21.8408 0.0228752 21.8181 0.0610006C20.1324 2.89753 20.3062 5.2003 20.4499 7.06082C20.5406 8.25795 20.6162 9.21871 20.155 9.95834C19.8602 8.91371 18.3408 7.79282 17.1993 8.46383C17.1237 8.50958 17.0481 8.56295 16.9725 8.62395C16.9499 8.6392 16.9347 8.66971 16.9272 8.69258C16.9196 8.72308 16.9196 8.74596 16.9272 8.76121C17.9326 10.3396 17.3808 12.0171 16.7382 13.9615C16.073 15.9898 15.2188 19.1694 16.2015 21.5866C16.4207 22.128 17.0784 22.6007 17.9931 22.7456C17.9326 21.2816 18.3861 19.8481 19.3991 18.8797C20.1475 17.7359 21.4326 16.9429 23.2998 16.9429C24.0784 16.9429 24.7814 17.0878 25.4088 17.3318C25.8246 16.5922 26.2252 15.7686 26.6183 14.8308C28.8181 9.56946 27.6313 4.63604 26.5881 3.56853C26.2479 3.21778 25.8851 3.1339 25.5676 3.31691H25.5903Z"
      fill="#FF4600" />
    <path
      d="M25.9218 6.94445C25.7404 7.82134 24.3343 10.2385 23.5481 10.3452C23.4499 10.3605 24.1756 6.31157 21.235 5.32031C21.749 6.75383 21.2425 11.3899 20.2069 12.2973C19.8743 12.7014 20.1842 10.9324 18.3095 11.4509C18.4077 14.4704 16.1097 17.0705 16.8505 20.4408C17.0168 21.1957 17.4553 21.6075 18.0449 21.7676C18.181 20.662 18.627 19.6402 19.4131 18.9006C20.1615 17.7492 21.4466 16.9638 23.3138 16.9638C23.8203 16.9638 24.2889 17.0248 24.7274 17.1315C25.0449 16.5749 25.3321 15.9954 25.5362 15.3778C27.2673 10.1394 26.8213 7.23421 25.9142 6.96733L25.9218 6.94445Z"
      fill="#FFDC2D" />
    <path
      d="M38.0723 6.00096L34.2472 8.22748C34.1868 8.2656 34.1414 8.31898 34.1187 8.37998L22.0993 40.6035C22.0539 40.7179 22.0917 40.8552 22.1825 40.939C22.2354 40.9848 22.3034 41.0077 22.3714 41.0077C22.4244 41.0077 22.4773 40.9924 22.5226 40.9695L26.3174 38.7583C26.3779 38.7201 26.4233 38.6668 26.4459 38.6058L38.4956 6.36696C38.541 6.24496 38.5032 6.11533 38.4125 6.03146C38.3218 5.94758 38.1781 5.93996 38.0723 6.00096Z"
      fill="#CFCFCF" />
    <path
      d="M41.1932 15.043C40.3692 15.043 39.4243 15.348 38.3962 15.9427C34.8584 18.0015 32.3789 22.6604 32.3789 27.2736C32.4016 30.4914 33.6942 32.4129 35.8335 32.4129C36.6575 32.4129 37.5646 32.1308 38.5247 31.5741C41.3897 29.9042 44.4739 25.6266 44.4739 20.167C44.4739 16.9111 43.2796 15.043 41.1856 15.043H41.1932ZM38.2828 27.9751C37.5042 28.4326 36.8919 28.4631 36.4912 28.0437C36.0754 27.6167 35.8562 26.7169 35.8713 25.5046C35.8713 22.8663 36.8843 20.6931 38.5776 19.7095C39.0009 19.4579 39.3713 19.3359 39.6737 19.3359C40.6867 19.3359 40.8983 20.9066 40.8983 22.2258C40.8983 24.9479 39.9685 26.9838 38.2752 27.9751H38.2828Z"
      fill="#CFCFCF" />
    <path
      d="M24.9256 14.3826C24.1016 14.3826 23.1567 14.6876 22.1286 15.2824C18.5908 17.3412 16.1113 22.0077 16.1113 26.6132C16.134 29.831 17.4267 31.7525 19.566 31.7525C20.3899 31.7525 21.2971 31.4704 22.2571 30.9062C25.1221 29.2363 28.2064 24.9586 28.2064 19.499C28.2064 16.2431 27.012 14.375 24.918 14.375L24.9256 14.3826ZM22.0152 27.3147C21.2366 27.7723 20.6243 27.8028 20.2236 27.3834C19.8079 26.9564 19.5886 26.0566 19.6038 24.8442C19.6038 22.2059 20.6167 20.0328 22.31 19.0492C22.7334 18.7975 23.1038 18.6755 23.4061 18.6755C24.4191 18.6755 24.6308 20.2463 24.6308 21.5654C24.6308 24.2876 23.701 26.3235 22.0077 27.3147H22.0152Z"
      fill="#CFCFCF" />
  </g>
  <defs>
    <filter id="filter0_d_2058_7341" x="0" y="0" width="49.9707" height="49.0078" filterUnits="userSpaceOnUse"
      color-interpolation-filters="sRGB">
      <feFlood flood-opacity="0" result="BackgroundImageFix" />
      <feColorMatrix in="SourceAlpha" type="matrix" values="0 0 0 0 0 0 0 0 0 0 0 0 0 0 0 0 0 0 127 0"
        result="hardAlpha" />
      <feOffset dy="4" />
      <feGaussianBlur stdDeviation="2" />
      <feComposite in2="hardAlpha" operator="out" />
      <feColorMatrix type="matrix" values="0 0 0 0 0 0 0 0 0 0 0 0 0 0 0 0 0 0 0.25 0" />
      <feBlend mode="normal" in2="BackgroundImageFix" result="effect1_dropShadow_2058_7341" />
      <feBlend mode="normal" in="SourceGraphic" in2="effect1_dropShadow_2058_7341" result="shape" />
    </filter>
  </defs>
</svg>