<svg xmlns="http://www.w3.org/2000/svg" width="43" height="46" viewBox="0 0 43 46" fill="none">
  <g clip-path="url(#clip0_2058_7398)">
    <path opacity="0.12"
      d="M37.3364 36.4273C37.3364 36.4273 37.3201 36.4273 37.2875 36.4108H37.2712C37.092 36.3694 36.5867 36.2452 36.326 36.1872L36.8801 35.8726C37.1082 35.7484 37.0675 35.5083 36.7986 35.3179L33.8651 33.2894L30.3938 23.4619L29.2204 20.1336C29.139 19.8935 28.7397 19.6865 28.3404 19.6617C28.1204 19.6451 27.9493 19.6948 27.8433 19.7776C27.7537 19.7445 27.6641 19.7196 27.5744 19.6948L14.2841 16.5403C14.0071 16.4741 13.73 16.4658 13.4937 16.499L13.4611 16.4079C13.3796 16.1678 12.9803 15.9608 12.5811 15.936C12.1736 15.9111 11.9129 16.085 12.0025 16.3251L13.1107 19.4878L0.105595 29.1167C0.0567039 29.1581 0.0241096 29.1995 0.0159611 29.2491C0.0159611 29.2491 0.0078125 29.2491 0.0078125 29.2657C0.0078125 29.2657 0.0078125 29.274 0.0078125 29.2822C0.0078125 29.3319 0.0078125 29.3816 0.0322582 29.4313C0.0322582 29.4313 0.0322582 29.4396 0.0404068 29.4478C0.0567039 29.481 0.0730011 29.5058 0.0974468 29.5389L5.81774 35.9637C5.93182 36.0879 6.12739 36.1955 6.3474 36.2535C6.35555 36.2535 6.3637 36.2617 6.37999 36.2617L8.42528 36.7419C8.42528 36.7419 8.40899 36.7833 8.39269 36.8082C9.97351 37.0897 22.1393 39.9874 22.1393 39.9874C22.1393 39.9874 22.1556 39.9874 22.1638 39.9874C22.1638 39.9874 22.1801 39.9874 22.1882 39.9874C22.2208 39.9874 22.2534 39.9957 22.2941 40.004C22.3104 40.004 22.3349 40.004 22.3512 40.0123C22.4082 40.0123 22.4734 40.0123 22.5305 40.0123C22.5956 40.0123 22.6527 39.9957 22.7016 39.9792C22.7179 39.9792 22.7342 39.9709 22.7423 39.9626C22.7749 39.9543 22.7994 39.946 22.8238 39.9295L33.2703 33.9932L35.283 35.3758L20.2896 43.3902C20.0451 43.531 20.1103 43.8042 20.4444 43.9946C20.6644 44.1271 20.9496 44.1851 21.1859 44.1685C21.3 44.1685 21.406 44.1354 21.4874 44.0857L22.1393 43.7131C22.0986 44.0857 22.1882 44.4748 22.4245 44.8226C22.6934 45.2117 23.0927 45.4766 23.5409 45.6008C23.8587 45.6836 24.7713 45.8989 24.7713 45.8989C25.2276 45.9982 26.0588 46.0479 26.4825 45.8161C27.33 45.3442 27.224 44.2016 26.6618 43.382C26.3929 42.9928 25.9936 42.7279 25.5536 42.612C25.5536 42.612 25.5373 42.612 25.5047 42.5954H25.4884C25.3091 42.554 24.7958 42.4298 24.535 42.3636L33.9303 37.5285C33.8896 37.8928 33.9792 38.2819 34.2155 38.6296C34.4844 39.0187 34.8837 39.2837 35.3319 39.4079C35.5193 39.4576 36.4808 39.59 36.766 39.6563C36.7905 39.5817 36.929 38.7621 36.9616 38.6876C37.1979 38.1825 36.8719 38.6296 37.3446 38.3978C37.7927 38.1743 38.2572 38.1329 38.7461 38.1743C38.7543 37.8431 38.6565 37.4953 38.4446 37.189C38.1757 36.7999 37.7764 36.5349 37.3364 36.419V36.4273ZM30.5487 27.9658L31.3146 30.1433L28.5604 31.8654L28.3974 31.824L27.7048 29.8949L30.5487 27.9576V27.9658ZM29.3182 24.472L30.1168 26.7405L27.2648 28.6861L26.4988 26.5583L29.3101 24.472H29.3182ZM6.99114 31.7826L6.48593 31.2196L7.32523 31.4183L7.40671 31.5259L6.99114 31.7826ZM7.1867 33.6455L6.56741 33.4964L6.8852 33.2977L7.19485 33.6455H7.1867ZM5.94812 30.2592L6.29851 30.0191L6.58371 30.4082L5.94812 30.2592ZM7.26004 29.365L10.6661 27.0468L11.5543 28.9262L8.46603 30.8636L8.3275 30.8305L7.26004 29.3733V29.365ZM9.19125 31.8488L10.6824 32.2049L11.0165 32.5857L10.0306 33.1487L9.11791 31.8985L9.19125 31.8571V31.8488ZM10.1528 31.2445L12.084 30.0357L12.8092 31.5673L12.4181 31.7909L10.1446 31.2527L10.1528 31.2445ZM12.6625 28.2225L11.7499 26.3017L14.7975 24.2236L15.5634 26.401L12.6625 28.2225ZM15.9872 27.5933L16.6227 29.3982L13.9337 30.9216L13.184 29.3402L15.979 27.5933H15.9872ZM13.1107 32.7761L14.993 33.2232L13.7056 33.9518L12.8092 32.9417L13.1107 32.7679V32.7761ZM14.1374 32.1883L17.5109 30.2758L18.4399 30.9298L17.731 31.4597C17.4295 31.4597 17.1361 31.5259 16.8591 31.675C16.4761 31.8902 16.2316 32.2131 16.1094 32.5857L16.0198 32.6354L14.1374 32.1883ZM16.7613 34.4403C16.8672 34.5231 16.9813 34.5893 17.0954 34.6473L17.8124 35.4504L18.6028 36.3362L15.0908 35.5083L15.0256 35.4338L16.7694 34.4486L16.7613 34.4403ZM18.0406 29.365L14.8382 20.3074L18.1791 21.094L20.9822 29.0256L19.9311 29.8038L18.0324 29.3568L18.0406 29.365ZM25.8795 29.6134L24.1276 30.8056L22.946 30.5241L22.5712 29.4561L24.9669 27.6761L25.8795 29.6051V29.6134ZM25.138 22.7498L28.4219 23.5281L26.0506 25.2833L25.138 22.7498ZM22.123 28.1977L19.7518 21.4748L23.5735 22.3773L24.918 26.1195L22.123 28.1894V28.1977ZM21.3163 32.7265L20.7948 33.0825C20.7459 32.9003 20.6726 32.7265 20.5585 32.5609C20.5096 32.4946 20.4607 32.4367 20.4037 32.3787L20.86 32.1221L21.3082 32.7347L21.3163 32.7265ZM22.0578 33.7448L22.6608 34.5645L19.8822 36.1375L19.377 35.5663L22.0578 33.7365V33.7448ZM22.2697 32.0724L21.8786 31.5342L22.4164 31.2279L23.2231 31.4183L22.2697 32.0724ZM24.8772 31.8157L26.7188 32.2545L23.6631 33.9849L23.0031 33.0907L24.8691 31.8157H24.8772ZM25.7817 31.2031L26.4173 30.7725L26.727 31.4349L25.7817 31.2113V31.2031ZM27.2648 21.1188C27.5011 21.1768 27.7374 21.1933 27.9574 21.1851C28.0226 21.1851 28.0796 21.1685 28.1448 21.1519L28.7152 22.7747L14.5204 19.4133L14.0152 17.9644L27.2648 21.1105V21.1188ZM13.5507 20.738L14.3493 23.0065L11.1958 25.1591L10.2587 23.1804L13.5507 20.738ZM9.1994 23.9586L10.112 25.8877L6.50222 28.3467L5.36957 26.7984L9.1994 23.9586ZM4.44063 27.4856L5.54884 29.0007L4.28581 29.8618L1.97977 29.3154L4.44063 27.4856ZM2.77833 30.8884L2.15089 30.1847L3.38132 30.4745L2.77833 30.8884ZM4.70954 33.0493L3.62578 31.8323L4.83991 31.0044L6.0459 32.3622L4.88066 33.0907L4.70954 33.0493ZM6.54296 35.1109L5.63847 34.1008L7.53709 34.5479L6.54296 35.1109ZM8.12379 32.5029L9.01198 33.7117L8.81642 33.8276L7.81414 32.7016L8.12379 32.5029ZM9.13421 36.0713L7.83044 35.765L8.65344 35.293L9.28903 36.0051C9.24014 36.0216 9.1831 36.0465 9.13421 36.0713ZM10.5276 35.7484L9.97351 35.1192L11.1469 35.3924L10.5358 35.7401L10.5276 35.7484ZM10.2832 34.3658L11.8232 33.4882L12.7196 34.4982L12.1655 34.8128L10.2832 34.3658ZM12.6381 36.8992C12.6381 36.8992 12.5892 36.8413 12.5648 36.8164L13.9011 36.0547L14.1537 36.1127L15.4494 37.5616L12.6381 36.8992ZM17.0628 37.7272L16.0116 36.5515L18.2117 37.0731L17.0546 37.7272H17.0628ZM18.5132 38.2902L19.7192 37.603L20.8193 38.8366L18.5132 38.2902ZM22.2941 38.8449L21.3734 37.81L23.8913 36.2369L24.7795 37.4457L22.3023 38.8532L22.2941 38.8449ZM25.7817 36.8661L24.8691 35.6159L27.8352 33.7614L28.5604 35.293L25.7817 36.8661ZM29.6849 34.6473L28.9352 33.0659L29.2775 32.8506L31.7954 33.4468L29.6849 34.6473ZM30.239 32.2545L31.7302 31.319L32.2273 32.7265L30.239 32.2545Z"
      fill="black" />
    <path
      d="M25.5697 22.1456C25.4231 21.7813 25.0075 21.6074 24.649 21.7565C24.2904 21.9055 24.1193 22.3277 24.266 22.692L25.1786 24.9109L10.0712 33.7698C9.73707 33.9685 9.61484 34.4073 9.81041 34.7467C9.94079 34.9786 10.1771 35.1028 10.4216 35.1028C10.5438 35.1028 10.666 35.0696 10.7719 35.0034L26.409 25.8299C26.7187 25.6478 26.8409 25.2669 26.7105 24.9357L25.5616 22.1373L25.5697 22.1456Z"
      fill="#5F5F60" />
    <path
      d="M29.4983 0.0159173C29.1153 -0.0668761 28.7405 0.181504 28.6672 0.570633L27.5508 6.01016C27.4693 6.39929 27.7138 6.78014 28.0968 6.85465C28.1457 6.86293 28.1946 6.87121 28.2434 6.87121C28.5694 6.87121 28.8627 6.63939 28.9361 6.29993L30.0524 0.86041C30.1339 0.471281 29.8895 0.0904313 29.5065 0.0159173H29.4983Z"
      fill="#ED6021" />
    <path
      d="M42.4378 7.60967C42.0548 7.52687 41.68 7.77525 41.6066 8.16438L40.4903 13.6039C40.4088 13.993 40.6532 14.3739 41.0362 14.4484C41.0851 14.4567 41.134 14.465 41.1829 14.465C41.5088 14.465 41.8022 14.2331 41.8755 13.8937L42.9919 8.45416C43.0734 8.06503 42.8289 7.68418 42.4459 7.60967H42.4378Z"
      fill="#ED6021" />
    <path
      d="M41.6628 7.59305L30.76 1.17657C30.1733 0.828834 29.3584 1.05238 29.0243 1.64849C28.8532 1.94654 28.8125 2.30256 28.894 2.63373C28.9836 2.9649 29.1955 3.2464 29.4888 3.42027L40.3916 9.83675C40.5872 9.95266 40.8072 10.0106 41.0272 10.0106C41.4835 10.0106 41.9072 9.76224 42.1272 9.36483C42.2984 9.06678 42.3391 8.71076 42.2576 8.37959C42.168 8.04842 41.9561 7.76692 41.6628 7.59305Z"
      fill="#5F5F60" />
    <path
      d="M41.6639 12.9007L28.724 5.30856C28.2758 5.04362 27.6647 5.21749 27.4039 5.66457C27.135 6.1365 27.298 6.73261 27.7543 7.00583L31.1767 9.01771L28.2677 23.2582L25.3994 21.5775C24.9512 21.3125 24.3401 21.4864 24.0793 21.9335C23.8104 22.4054 23.9734 23.0015 24.4297 23.2747L37.3696 30.8669C37.5163 30.9497 37.6793 30.9993 37.8504 30.9993C38.1926 30.9993 38.5186 30.8089 38.6897 30.5109C38.9586 30.0389 38.7956 29.4428 38.3393 29.1696L34.5095 26.9176L37.3696 12.6441L40.6943 14.598C41.1343 14.8629 41.7617 14.6891 42.0143 14.242C42.2832 13.77 42.1203 13.1739 41.6639 12.9007ZM32.7494 25.8827L30.0359 24.2931L32.945 10.0526L35.6095 11.6174L32.7494 25.891V25.8827Z"
      fill="#A12B1A" />
    <path
      d="M12.2723 31.9092C11.1152 32.5798 10.1699 34.2274 10.1699 35.5769C10.1699 36.231 10.3818 36.6946 10.7322 36.9264C10.9848 37.092 11.7344 37.5225 11.7344 37.5225C11.7344 37.5225 12.0522 36.9264 12.2478 36.8105C13.4049 36.1399 14.3501 34.4923 14.3501 33.1428C14.3501 32.7205 14.7331 32.3562 14.7331 32.3562C14.7331 32.3562 13.9183 31.8678 13.7879 31.7932C13.3723 31.5614 12.8671 31.5531 12.2641 31.9092H12.2723Z"
      fill="#5F5F60" />
    <path
      d="M13.2176 32.4738C12.0605 33.1444 11.1152 34.792 11.1152 36.1415C11.1152 37.4993 12.0442 38.0458 13.2013 37.3751C14.3584 36.7045 15.3036 35.0569 15.3036 33.7074C15.3036 32.3496 14.3747 31.8031 13.2176 32.4738Z"
      fill="#505051" />
    <path
      d="M13.2168 33.2768C12.4426 33.7239 11.8071 34.8334 11.7989 35.7358C11.7908 36.6383 12.4182 37.0191 13.2005 36.5637C13.9746 36.1084 14.6102 35.0072 14.6183 34.0965C14.6183 33.1858 13.999 32.8132 13.2168 33.2686V33.2768Z"
      fill="#DBDBDB" />
    <path
      d="M22.9871 25.6162C21.83 26.2868 20.8848 27.9344 20.8848 29.2839C20.8848 29.938 21.0966 30.4016 21.447 30.6335C21.6996 30.7991 22.4493 31.2296 22.4493 31.2296C22.4493 31.2296 22.7671 30.6335 22.9627 30.5176C24.1197 29.8469 25.065 28.1993 25.065 26.8498C25.065 26.4276 25.448 26.0633 25.448 26.0633C25.448 26.0633 24.6331 25.5748 24.5027 25.5003C24.0872 25.2685 23.5819 25.2602 22.9789 25.6162H22.9871Z"
      fill="#5F5F60" />
    <path
      d="M23.9324 26.1808C22.7753 26.8514 21.8301 28.499 21.8301 29.8486C21.8301 31.2064 22.759 31.7528 23.9161 31.0822C25.0732 30.4115 26.0184 28.764 26.0266 27.4144C26.0266 26.0566 25.0977 25.5102 23.9406 26.1808H23.9324Z"
      fill="#505051" />
    <path
      d="M23.9315 26.9834C23.1574 27.4305 22.5218 28.5399 22.5137 29.4507C22.5137 30.3614 23.133 30.7339 23.9152 30.2786C24.6893 29.8315 25.3249 28.7221 25.3331 27.8113C25.3331 26.9006 24.7138 26.528 23.9315 26.9834Z"
      fill="#DBDBDB" />
    <path
      d="M28.7733 5.33125C28.4473 5.11599 27.9992 5.12427 27.6814 5.35609L8.11666 19.5717C7.83146 19.7787 7.67664 20.1264 7.71738 20.4824L8.96411 31.3284C9.00485 31.6595 9.20042 31.941 9.48562 32.0901C9.616 32.1563 9.77082 32.1977 9.91749 32.1977C10.0886 32.1977 10.2516 32.148 10.3983 32.0652L25.3916 23.2726C25.6279 23.1318 25.7991 22.8917 25.8561 22.6185L29.1807 6.34961C29.2622 5.9522 29.0992 5.54651 28.7651 5.33125H28.7733ZM9.89305 22.4529L9.70563 20.8384L13.3969 18.1559L13.4377 20.0354L9.89305 22.4529ZM10.3331 26.278L10.1457 24.6387L13.4947 22.3618L13.5436 24.2413L10.3331 26.278ZM10.7161 29.6228L10.5775 28.4389L13.5925 26.5181L13.6251 27.9173L10.7161 29.6228ZM18.8402 24.8539L15.5319 26.7913L15.4993 25.301L19.0846 23.0242L18.8483 24.8539H18.8402ZM19.4106 20.499L15.4422 23.0242L15.3933 21.062L19.7202 18.1145L19.4106 20.499ZM20.0625 15.5231L15.3363 18.7355L15.2874 16.765L20.3803 13.0641L20.0625 15.5148V15.5231ZM24.0634 21.7906L20.9507 23.6203L21.2033 21.6747L24.5197 19.5634L24.0634 21.7906ZM25.0575 16.9058L21.5292 19.1495L21.8551 16.6657L25.6279 14.0991L25.0575 16.914V16.9058ZM26.1902 11.3503L22.1974 14.0659L22.5315 11.5076L26.785 8.41116L26.182 11.342L26.1902 11.3503Z"
      fill="#CC321B" />
    <path
      d="M38.5095 29.7393C38.3629 29.3751 37.9473 29.2012 37.5887 29.3502C37.2302 29.4992 37.0591 29.9215 37.2058 30.2858L38.1103 32.5046L23.0028 41.3635C22.6687 41.5622 22.5465 42.001 22.742 42.3405C22.8724 42.5723 23.1087 42.6965 23.3532 42.6965C23.4754 42.6965 23.5976 42.6634 23.7036 42.5972L39.3407 33.4237C39.6503 33.2415 39.7726 32.8607 39.6422 32.5295L38.4932 29.7311L38.5095 29.7393Z"
      fill="#5F5F60" />
    <path
      d="M28.6006 23.9922C28.6006 23.9922 28.5272 23.9922 28.4865 23.9922L13.6805 32.6772C13.3464 32.8759 13.2242 33.3147 13.4198 33.6542C13.5502 33.886 13.7865 34.0102 14.0309 34.0102C14.1532 34.0102 14.2754 33.9771 14.3813 33.9108L29.7821 24.8781C29.3176 24.6794 28.9184 24.3813 28.5924 23.9922H28.6006Z"
      fill="#A12B1A" />
    <path
      d="M33.5146 26.918C33.5146 26.918 33.4413 26.918 33.4006 26.918L18.5946 35.603C18.2605 35.8017 18.1383 36.2405 18.3338 36.58C18.4642 36.8118 18.7005 36.936 18.945 36.936C19.0672 36.936 19.1894 36.9029 19.2954 36.8366L34.6962 27.8039C34.2317 27.6052 33.8324 27.3071 33.5065 26.918H33.5146Z"
      fill="#A12B1A" />
    <path
      d="M26.2469 40.2138C25.0898 40.8845 24.1445 42.5321 24.1445 43.8816C24.1445 44.5357 24.3564 44.9993 24.7068 45.2311C24.9594 45.3967 25.7091 45.8272 25.7091 45.8272C25.7091 45.8272 26.0269 45.2311 26.2224 45.1152C27.3795 44.4446 28.3247 42.797 28.3247 41.4475C28.3247 41.0252 28.7077 40.6609 28.7077 40.6609C28.7077 40.6609 27.8929 40.1725 27.7625 40.0979C27.3469 39.8661 26.8417 39.8578 26.2387 40.2138H26.2469Z"
      fill="#5F5F60" />
    <path
      d="M27.1922 40.777C26.0351 41.4476 25.0898 43.0952 25.0898 44.4447C25.0898 45.8025 26.0188 46.349 27.1759 45.6784C28.333 45.0077 29.2782 43.3601 29.2782 42.0106C29.2782 40.6611 28.3493 40.1064 27.1922 40.777Z"
      fill="#505051" />
    <path
      d="M27.1913 41.5806C26.4172 42.0277 25.7816 43.1371 25.7734 44.0478C25.7734 44.9586 26.3927 45.3311 27.175 44.8758C27.9491 44.4204 28.5847 43.3193 28.5928 42.4168C28.5928 41.5061 27.9736 41.1335 27.1913 41.5889V41.5806Z"
      fill="#DBDBDB" />
    <path
      d="M36.9617 33.9209C35.8046 34.5915 34.8594 36.2391 34.8594 37.5886C34.8594 38.2427 35.0712 38.7063 35.4216 38.9382C35.6742 39.1037 36.4239 39.5343 36.4239 39.5343C36.4239 39.5343 36.7417 38.9382 36.9373 38.8222C38.0944 38.1516 39.0396 36.504 39.0396 35.1545C39.0396 34.7323 39.4226 34.368 39.4226 34.368C39.4226 34.368 38.6077 33.8795 38.4773 33.805C38.0618 33.5731 37.5566 33.5649 36.9536 33.9209H36.9617Z"
      fill="#5F5F60" />
    <path
      d="M37.907 34.4855C36.7499 35.1561 35.8047 36.8037 35.8047 38.1532C35.8047 39.5111 36.7336 40.0575 37.8907 39.3869C39.0478 38.7162 39.9931 37.0686 39.9931 35.7191C39.9931 34.3613 39.0641 33.8149 37.907 34.4855Z"
      fill="#505051" />
    <path
      d="M37.9061 35.2881C37.132 35.7352 36.4964 36.8446 36.4883 37.7553C36.4883 38.6661 37.1076 39.0386 37.8898 38.5833C38.664 38.1362 39.2995 37.0268 39.3077 36.116C39.3158 35.2053 38.6884 34.8327 37.9061 35.2881Z"
      fill="#DBDBDB" />
    <path
      d="M41.7127 12.925C41.3868 12.7097 40.9386 12.718 40.6208 12.9498L21.0561 27.1655C20.7709 27.3724 20.6161 27.7202 20.6568 28.0762L21.9036 38.9221C21.9443 39.2533 22.1399 39.5348 22.4251 39.6838C22.5554 39.7501 22.7103 39.7915 22.8569 39.7915C23.0281 39.7915 23.191 39.7501 23.3377 39.659L38.3311 30.858C38.5674 30.7173 38.7385 30.4772 38.7955 30.204L42.1202 13.9351C42.2016 13.5377 42.0387 13.1403 41.7046 12.9167L41.7127 12.925ZM22.8325 30.0384L22.6451 28.4239L26.3282 25.7414L26.3771 27.6208L22.8325 30.0384ZM23.2725 33.8634L23.0851 32.2241L26.4342 29.939L26.4749 31.8184L23.2725 33.8552V33.8634ZM23.6555 37.2083L23.517 36.0244L26.532 34.1035L26.5645 35.5028L23.6555 37.2083ZM31.7796 32.4394L28.4713 34.3768L28.4387 32.8865L32.0241 30.6097L31.7878 32.4394H31.7796ZM32.35 28.0845L28.3817 30.6097L28.3328 28.6475L32.6597 25.7L32.35 28.0845ZM33.0019 23.1086L28.2757 26.321L28.2269 24.3505L33.3197 20.6496L33.0019 23.1003V23.1086ZM37.0029 29.376L33.8901 31.2058L34.1427 29.2601L37.4592 27.1489L37.0029 29.376ZM37.997 24.4912L34.4687 26.7349L34.7946 24.2511L38.5674 21.6845L37.997 24.4995V24.4912ZM39.1296 18.9358L35.1368 21.6514L35.4709 19.0931L39.7326 15.9966L39.1296 18.9358Z"
      fill="#F03318" />
    <path
      d="M22.1072 27.1148L9.16724 19.5226C9.11835 19.4978 9.07761 19.4812 9.05316 19.473C9.00427 19.4564 8.96353 19.4398 8.92278 19.4316C8.84945 19.415 8.76796 19.3984 8.69463 19.3984H8.62944H8.61314H8.53165C8.23831 19.4564 7.99385 19.622 7.84717 19.8786C7.7168 20.1105 7.6842 20.3837 7.74939 20.5989L8.49906 27.1148C8.49906 27.1148 8.49906 27.2059 8.51536 27.2141L8.98797 31.3124C9.00427 31.4283 9.02872 31.5442 9.08576 31.6519L9.1102 31.7015C9.15095 31.7678 9.19169 31.8257 9.24873 31.8837C9.28947 31.9251 9.33021 31.9582 9.36281 31.983L22.3842 39.6414C22.5309 39.7242 22.6939 39.7739 22.865 39.7739C23.0524 39.7739 23.2398 39.7159 23.3946 39.6166C23.7043 39.4096 23.8673 39.0536 23.8265 38.681L22.5798 27.8351C22.5472 27.5287 22.3679 27.2555 22.1072 27.0982V27.1148ZM9.87617 22.2051L11.3429 23.0662L11.8237 27.2555L10.3569 26.3945L9.87617 22.2051ZM10.8458 30.6252L10.6421 28.8286L12.1089 29.6897L12.3126 31.4863L10.8458 30.6252ZM13.4371 24.2915L16.3217 25.9805L16.8025 30.1699L13.9179 28.4809L13.4371 24.2915ZM14.4068 32.7116L14.2031 30.915L17.0877 32.604L17.2914 34.4006L14.4068 32.7116ZM18.4077 27.2059L20.7301 28.5637L21.2108 32.753L18.8885 31.3952L18.4077 27.2059ZM19.3774 35.6259L19.1737 33.8293L21.496 35.1871L21.6997 36.9837L19.3774 35.6259Z"
      fill="#C4240C" />
  </g>
  <defs>
    <clipPath id="clip0_2058_7398">
      <rect width="43" height="46" fill="white" />
    </clipPath>
  </defs>
</svg>