<svg xmlns="http://www.w3.org/2000/svg" width="47" height="48" viewBox="0 0 47 48" fill="none">
  <path
    d="M46.7243 6.84824C46.0609 4.87724 44.2918 4.23434 42.208 5.10564C42.5823 2.55942 41.7913 0.554582 40.0137 0.0893256C38.3042 -0.350554 35.9312 0.867573 34.1367 3.00775C33.2436 1.38359 31.347 1.01138 29.1441 2.28026C26.9413 3.54069 25.0447 6.08691 24.1516 8.7431C22.357 8.66697 19.9841 10.1643 18.2746 12.5751C16.497 15.0875 15.706 17.9975 16.0803 20.1123C13.988 21.6349 12.2274 24.3081 11.564 27.0404C10.8836 29.8319 11.5045 31.9975 13.0014 32.7757C11.5045 35.2712 10.8836 38.1473 11.564 40.1606C12.2274 42.1316 13.9965 42.7745 16.0803 41.9032C15.706 44.4494 16.497 46.4543 18.2746 46.9195C19.9841 47.3679 22.357 46.1413 24.1516 44.0096C25.0447 45.6337 26.9413 46.0059 29.1441 44.7371C31.347 43.4682 33.2436 40.9304 34.1367 38.2742C35.9227 38.3504 38.2957 36.8531 40.0137 34.4422C41.7913 31.9298 42.5823 29.0198 42.208 26.905C44.2918 25.3824 46.0609 22.7093 46.7243 19.9769C47.4047 17.1854 46.7838 15.0198 45.2869 14.2416C46.7838 11.7461 47.4047 8.86999 46.7243 6.8567V6.84824Z"
    fill="#FFDB00" />
  <path opacity="0.12"
    d="M34.8516 26.8815C35.9658 25.4435 35.9403 23.667 34.724 22.3051C33.4823 20.9178 31.339 20.3002 29.2382 20.5794C29.0596 18.9891 27.6988 17.5848 25.5895 17.0519C23.5313 16.5274 21.2434 16.9758 19.6784 18.1516C18.2921 16.9842 16.0808 16.4936 13.9034 17.0181C11.8197 17.5256 10.2037 18.9552 9.82948 20.5202C7.77123 20.2241 5.54289 20.8332 4.13103 22.212C2.71918 23.5909 2.52356 25.3673 3.44212 26.7885C1.53697 27.4821 0.116609 29.0217 0.00604213 30.6712C-0.0960195 32.3885 1.10321 33.8688 2.97434 34.5625C1.86016 36.0006 1.88568 37.777 3.10191 39.1389C4.34366 40.5262 6.48696 41.1438 8.58773 40.8646C8.76634 42.4549 10.1272 43.8592 12.2364 44.3921C14.2947 44.9166 16.5826 44.4682 18.1475 43.2924C19.5338 44.4598 21.7452 44.9504 23.9225 44.4259C26.0063 43.9268 27.6222 42.4888 28.005 40.9238C30.0632 41.2199 32.2915 40.6108 33.7034 39.232C35.1153 37.8447 35.3109 36.0767 34.3923 34.6555C36.306 33.9703 37.7263 32.4308 37.8284 30.7812C37.9305 29.064 36.7227 27.5921 34.8601 26.89L34.8516 26.8815Z"
    fill="black" />
  <path
    d="M45.4411 8.07711C44.8288 6.25837 43.1873 5.65777 41.2566 6.46985C41.6053 4.10973 40.8739 2.24871 39.2239 1.81729C38.3393 1.58889 37.2592 1.84266 36.1961 2.45173C35.354 2.9339 34.5205 3.64448 33.7806 4.51578C32.9556 3.01004 31.195 2.67167 29.1538 3.83904C27.1126 5.00641 25.3605 7.36653 24.527 9.82816C23.7956 9.79433 22.9535 10.0481 22.1115 10.5303C21.0399 11.1393 19.9682 12.1291 19.0837 13.3726C17.4337 15.6989 16.7023 18.3973 17.051 20.3599C15.1118 21.7726 13.4788 24.2511 12.8665 26.7804C12.2371 29.3689 12.8069 31.3738 14.1933 32.0928C12.8069 34.4022 12.2371 37.0668 12.8665 38.9363C13.4788 40.7551 15.1203 41.3557 17.051 40.5436C16.7023 42.9037 17.4337 44.7647 19.0837 45.1961C19.9682 45.4245 21.0484 45.1708 22.1115 44.5617C22.9535 44.0795 23.7871 43.3689 24.5185 42.4976C25.3435 44.0034 27.1041 44.3502 29.1453 43.1744C31.1865 41.9986 32.9386 39.6469 33.7721 37.1853C34.5035 37.2191 35.337 36.9653 36.179 36.4831C37.2507 35.8741 38.3223 34.8844 39.2069 33.6408C40.8569 31.3146 41.5883 28.6161 41.2396 26.6535C43.1703 25.2409 44.8118 22.7623 45.4241 20.233C46.0535 17.6445 45.4837 15.6396 44.0973 14.9206C45.4837 12.6112 46.0535 9.94659 45.4241 8.07711H45.4411ZM43.2298 14.3623C42.9746 14.7853 42.8301 15.259 42.8301 15.6566C42.8301 16.0541 42.9746 16.3671 43.2298 16.494C44.3014 17.0523 44.6842 18.5835 44.2249 20.4783C43.7656 22.3732 42.5664 24.2173 41.0865 25.2916C40.7378 25.5454 40.4231 25.943 40.219 26.3828C40.0149 26.8312 39.9298 27.2795 39.9978 27.6433C40.27 29.1659 39.6832 31.1708 38.4754 32.8795C37.8375 33.7762 37.0296 34.5291 36.1961 35.0112C35.5497 35.3834 34.9288 35.5695 34.393 35.5442C34.2058 35.5442 33.9932 35.5949 33.7806 35.7134C33.6445 35.7895 33.5084 35.891 33.3809 36.0179C33.0492 36.3309 32.7685 36.7708 32.6239 37.2191C31.986 39.1224 30.6507 40.8481 29.1623 41.7025C27.6654 42.5569 26.3386 42.3708 25.7007 41.1949C25.5476 40.9158 25.2755 40.7973 24.9438 40.865C24.8162 40.8904 24.6801 40.9412 24.544 41.0173C24.3314 41.1357 24.1273 41.3134 23.9316 41.5418C23.3958 42.1762 22.7749 42.7091 22.1286 43.0813C21.295 43.555 20.4871 43.7327 19.8492 43.5635C18.6414 43.2505 18.0546 41.914 18.3268 40.0868C18.3863 39.6554 18.3097 39.2916 18.1056 39.0801C17.9015 38.8686 17.5868 38.8348 17.2381 38.9786C15.7667 39.5961 14.559 39.1309 14.0997 37.7689C13.6404 36.3986 14.0146 34.436 15.0948 32.6427C15.35 32.2197 15.4945 31.746 15.4945 31.3484C15.4945 30.9508 15.35 30.6378 15.0948 30.5109C14.0232 29.9526 13.6404 28.4215 14.0997 26.5267C14.559 24.6318 15.7582 22.7877 17.2381 21.7134C17.5868 21.4596 17.9015 21.062 18.1056 20.6221C18.3097 20.1738 18.3948 19.7254 18.3268 19.3617C18.0546 17.839 18.6414 15.8342 19.8577 14.1254C20.4956 13.2288 21.3036 12.4759 22.1286 11.9937C22.7749 11.6215 23.3958 11.4354 23.9316 11.4608C24.1188 11.4608 24.3314 11.41 24.5355 11.2831C24.6716 11.207 24.8077 11.1055 24.9352 10.9786C25.2669 10.6656 25.5391 10.2257 25.6922 9.77741C26.3301 7.87408 27.6654 6.1484 29.1538 5.29402C30.6507 4.43118 31.9775 4.62575 32.6154 5.80158C32.7685 6.08073 33.0406 6.19916 33.3723 6.13149C33.4999 6.10611 33.636 6.05535 33.7721 5.97922C33.9847 5.86079 34.1888 5.68315 34.3759 5.45475C34.9118 4.82031 35.5326 4.28738 36.179 3.91517C37.0125 3.44146 37.8205 3.26381 38.4499 3.433C39.6576 3.74599 40.2445 5.08254 39.9808 6.91819C39.9213 7.34961 39.9978 7.71336 40.202 7.92484C40.4061 8.13632 40.7208 8.17016 41.0695 8.01789C42.5409 7.40037 43.7486 7.86562 44.2079 9.22756C44.6672 10.598 44.2929 12.5605 43.2128 14.3538L43.2298 14.3623Z"
    fill="#FF0000" />
  <path
    d="M23.6414 22.1428V22.1259C24.3133 21.4576 24.6195 20.7132 24.6195 20.1041C24.6195 19.4951 24.3218 19.1905 23.9051 19.1736C23.4713 19.1313 22.9695 19.3259 22.153 19.7996C21.4811 20.1887 20.7667 20.654 20.418 20.9416V27.6497C20.7156 27.5313 21.2089 27.2944 21.8723 26.9138C23.0546 26.237 23.7775 25.5941 24.2113 24.9512C24.5855 24.3929 24.8321 23.767 24.8321 23.1494C24.8321 22.2697 24.3303 21.9651 23.6499 22.1428H23.6414ZM21.7448 21.1954C21.8553 21.1108 22.0254 20.9923 22.3146 20.8232C22.927 20.4763 23.2672 20.5525 23.2672 21.0685C23.2672 21.5845 22.8845 22.1259 22.1785 22.5319L21.7363 22.7857V21.1954H21.7448ZM22.2636 25.5349C22.0339 25.6703 21.8723 25.7549 21.7448 25.8141V23.8854L22.204 23.6232C22.876 23.234 23.4118 23.2002 23.4118 23.8938C23.4118 24.5875 22.876 25.1881 22.2636 25.5349Z"
    fill="black" />
  <path
    d="M27.0945 20.9504L29.2803 19.69V18.438L27.0945 19.69V18.2689L29.4164 16.9408V15.6719L25.7422 17.7782V24.6133L29.5355 22.4308V21.1619L27.0945 22.5661V20.9504Z"
    fill="black" />
  <path
    d="M32.7676 16.5257C32.0022 16.6356 31.662 16.6356 31.662 16.1957C31.662 15.8405 31.9426 15.3752 32.5295 15.0368C33.1079 14.6985 33.5331 14.6477 33.7713 14.6477L34.0689 13.2266C33.7117 13.2435 33.2184 13.3704 32.555 13.751C31.1517 14.5547 30.3012 15.9335 30.3012 17.1009C30.3012 18.0906 30.9475 18.3528 31.9341 18.1837C32.6486 18.0652 32.9292 18.1498 32.9292 18.5728C32.9292 18.9957 32.606 19.5033 31.9852 19.8586C31.4153 20.1885 30.854 20.2985 30.4968 20.29L30.2246 21.7281C30.5563 21.745 31.2282 21.5673 31.9086 21.1782C33.5416 20.2393 34.3071 18.8266 34.3071 17.6846C34.3071 16.7202 33.8138 16.3734 32.7591 16.5341L32.7676 16.5257Z"
    fill="black" />
  <path
    d="M34.7754 13.8854L36.3744 12.9718V18.5041L37.7267 17.7343V12.1935L39.3512 11.263V9.96875L34.7754 12.5911V13.8854Z"
    fill="black" />
  <path
    d="M22.4507 29.7972C22.051 29.6619 21.4641 29.8142 20.6306 30.2963C19.8142 30.77 19.2273 31.1592 18.8105 31.4806V38.2226L20.1459 37.4613V35.0166C20.2734 34.9658 20.4265 34.8812 20.6051 34.7797C21.3961 34.3229 22.0765 33.7138 22.5358 32.9525C22.8845 32.3688 23.0801 31.6836 23.0801 31.0154C23.0801 30.3471 22.825 29.9241 22.4422 29.7972H22.4507ZM20.5966 33.5954C20.401 33.7054 20.2649 33.7815 20.1459 33.8154V31.8021C20.2394 31.7175 20.4265 31.5821 20.6987 31.4214C21.3706 31.0323 21.7448 31.193 21.7448 31.819C21.7448 32.5211 21.3026 33.1894 20.5881 33.5954H20.5966Z"
    fill="black" />
  <path
    d="M27.1544 30.2295V30.1957C27.6647 29.6882 28.2005 28.783 28.2005 27.9117C28.2005 27.2857 28.0049 26.922 27.6562 26.7951C27.2309 26.6513 26.6186 26.8543 25.734 27.3619C25.0196 27.7679 24.3732 28.1993 23.9395 28.5292V35.2712L25.2748 34.5099V31.8199L25.683 31.583C26.2273 31.2785 26.4825 31.3631 26.6441 32.1244C26.8227 32.8604 26.9588 33.3425 27.0608 33.4779L28.4387 32.6912C28.3281 32.4966 28.141 31.7099 27.9539 31.0416C27.8008 30.5002 27.5711 30.1788 27.1629 30.2211L27.1544 30.2295ZM25.8021 30.4072L25.2748 30.7117V28.8253C25.3683 28.7492 25.5554 28.6138 25.8871 28.4277C26.508 28.0809 26.8737 28.1824 26.8737 28.8169C26.8737 29.4513 26.474 30.0265 25.8021 30.4156V30.4072Z"
    fill="black" />
  <path d="M29.1777 32.2689L30.5301 31.4991V24.6641L29.1777 25.4423V32.2689Z" fill="black" />
  <path
    d="M34.7323 23.4177C35.2086 23.147 35.5913 23.0455 35.8635 23.0201L36.1357 21.6328C35.8975 21.6328 35.3702 21.7682 34.6728 22.1657C32.8697 23.1978 31.4238 25.3295 31.4238 27.6558C31.4238 29.6014 32.4785 30.4642 34.5367 29.2799C35.2596 28.8654 35.8125 28.3917 36.0676 28.1126L35.8635 27.0213C35.5999 27.292 35.1491 27.6558 34.7408 27.8842C33.5416 28.5694 32.8357 28.121 32.8357 26.7506C32.8357 25.228 33.6692 24.0183 34.7323 23.4008V23.4177Z"
    fill="black" />
  <path
    d="M38.2969 24.1457L40.4913 22.8853V21.6334L38.2969 22.8853V21.4726L40.6188 20.1361V18.8672L36.9531 20.9735V27.8086L40.7464 25.6261V24.3657L38.2969 25.7699V24.1457Z"
    fill="black" />
</svg>