<svg xmlns="http://www.w3.org/2000/svg" width="42" height="37" viewBox="0 0 42 37" fill="none">
  <g clip-path="url(#clip0_2058_7434)">
    <path opacity="0.14"
      d="M32.127 18.1484C24.777 13.8932 12.8605 13.8932 5.51055 18.1484C-1.83945 22.4035 -1.83945 29.3038 5.51055 33.5589C10.9506 36.7084 18.8917 37.5245 25.6327 36.0113C28.5307 30.8422 32.0083 26.0174 36.7848 22.6089C35.908 20.9767 34.3582 19.4404 32.127 18.1484Z"
      fill="black" />
    <path
      d="M25.1233 1.84485C17.6683 6.16212 11.6035 16.6973 11.6035 25.3308C11.6035 28.9699 12.6808 31.6982 14.4858 33.3156C15.4192 34.1517 18.6585 35.9333 18.6585 35.9333C18.6585 35.9333 17.8479 35.0362 18.9042 34.893C17.1538 31.7909 16.2204 28.4455 16.6761 24.6695C17.2137 20.2195 18.2469 16.254 20.7532 12.5243C21.8053 10.9595 22.765 9.39901 24.4282 8.4271C26.2804 7.34462 28.12 6.00522 30.072 5.12387C32.0964 4.20987 34.8484 3.01999 37.1962 3.47594C36.8707 2.66724 38.2231 3.01157 38.2231 3.01157C38.2231 3.01157 34.9419 1.01404 34.2699 0.686563C31.8612 -0.485416 28.6471 -0.193737 25.1244 1.84591L25.1233 1.84485Z"
      fill="#E69800" />
    <path
      d="M37.9341 4.79678C32.8763 1.29453 27.0971 5.50439 23.1417 9.64264C19.9718 12.9596 17.793 17.8265 16.8407 22.2554C16.2495 25.0058 15.2688 29.4241 16.8627 31.926C17.898 33.5508 20.0369 37.4437 26.3852 34.6396C33.3698 32.1387 41.0274 22.1669 41.0274 13.5334C41.0274 11.8402 42.992 8.29902 37.9341 4.79678Z"
      fill="#F0A200" />
    <path
      d="M28.4798 3.83852C21.0248 8.15473 14.959 18.6899 14.959 27.3234C14.959 35.9569 21.0248 39.4686 28.4798 35.1513C35.9348 30.8351 42.0007 20.2999 42.0007 11.6665C42.0007 3.03298 35.9359 -0.477691 28.4798 3.83852ZM28.4798 32.9737C22.0622 36.6897 16.8406 33.6666 16.8406 26.2346C16.8406 18.8026 22.0622 9.73316 28.4798 6.01716C34.8974 2.30115 40.1191 5.32429 40.1191 12.7563C40.1191 20.1883 34.8974 29.2577 28.4798 32.9737Z"
      fill="#FFD622" />
    <path
      d="M18.1683 13.3544L16.3182 12.2951C16.0095 12.1182 15.6326 12.2435 15.4761 12.5752C15.3197 12.9069 15.4425 13.3186 15.7512 13.4955L17.6013 14.5548C17.91 14.7317 18.287 14.6064 18.4434 14.2747C18.5999 13.943 18.477 13.5313 18.1683 13.3544Z"
      fill="#D28100" />
    <path
      d="M19.2269 11.5792L17.3768 10.5188C17.0681 10.3419 16.6754 10.4493 16.499 10.7589C16.3226 11.0685 16.4297 11.4623 16.7384 11.6392L18.5885 12.6995C18.8972 12.8765 19.2899 12.769 19.4663 12.4595C19.6427 12.1499 19.5356 11.7561 19.2269 11.5792Z"
      fill="#D28100" />
    <path
      d="M20.3812 9.87995L18.5311 8.81959C18.2224 8.64268 17.8297 8.75009 17.6533 9.05967C17.4769 9.36925 17.584 9.76307 17.8927 9.93997L19.7428 11.0003C20.0515 11.1772 20.4442 11.0698 20.6206 10.7602C20.797 10.4507 20.6899 10.0569 20.3812 9.87995Z"
      fill="#D28100" />
    <path
      d="M21.7269 8.2237L19.8768 7.16334C19.5681 6.98643 19.1754 7.09384 18.999 7.40342C18.8226 7.713 18.9297 8.10682 19.2384 8.28372L21.0885 9.34408C21.3972 9.52098 21.7899 9.41358 21.9663 9.104C22.1427 8.79442 22.0356 8.4006 21.7269 8.2237Z"
      fill="#D28100" />
    <path
      d="M23.2289 6.68464L21.3788 5.62427C21.0701 5.44737 20.6774 5.55478 20.501 5.86436C20.3246 6.17393 20.4317 6.56775 20.7404 6.74466L22.5905 7.80502C22.8992 7.98192 23.2919 7.87452 23.4683 7.56494C23.6447 7.25536 23.5376 6.86154 23.2289 6.68464Z"
      fill="#D28100" />
    <path
      d="M24.8751 5.22828L23.025 4.16792C22.7163 3.99102 22.2784 4.0721 22.0474 4.34798C21.8164 4.62492 21.8794 4.99241 22.1881 5.16931L24.0382 6.22968C24.3469 6.40658 24.7848 6.3255 25.0158 6.04961C25.2468 5.77268 25.1838 5.40518 24.8751 5.22933V5.22828Z"
      fill="#D28100" />
    <path
      d="M26.606 3.98703L24.7559 2.92667C24.4472 2.74977 24.023 2.80768 23.8078 3.05619C23.5925 3.3047 23.6692 3.64902 23.9779 3.82593L25.828 4.88629C26.1367 5.06319 26.5609 5.00528 26.7761 4.75677C26.9914 4.50826 26.9147 4.16394 26.606 3.98703Z"
      fill="#D28100" />
    <path
      d="M28.6428 2.78138L26.7916 1.72102C26.4829 1.54412 26.0083 1.56623 25.7311 1.77051C25.4539 1.97479 25.4802 2.28332 25.7878 2.46022L27.639 3.52058C27.9477 3.69748 28.4223 3.67537 28.6995 3.47109C28.9767 3.26681 28.9504 2.95828 28.6428 2.78138Z"
      fill="#D28100" />
    <path
      d="M31.0641 1.81667L29.2129 0.756306C28.9042 0.579404 28.3981 0.569927 28.081 0.735246C27.765 0.900566 27.7587 1.1775 28.0674 1.35441L29.9185 2.41477C30.2272 2.59167 30.7333 2.60115 31.0504 2.43583C31.3665 2.27051 31.3728 1.99357 31.0641 1.81667Z"
      fill="#D28100" />
    <path
      d="M33.5133 1.28542L31.6621 0.225056C31.3534 0.0481536 30.8473 0.0386766 30.5302 0.203996C30.2142 0.369316 30.2079 0.646252 30.5166 0.823155L32.3677 1.88352C32.6764 2.06042 33.1825 2.0699 33.4996 1.90458C33.8157 1.73926 33.822 1.46232 33.5133 1.28542Z"
      fill="#D28100" />
    <path
      d="M33.4845 0.445313C33.2945 0.445313 33.306 0.720144 33.5328 0.850715L35.384 1.91108C35.6454 2.0606 36.0539 2.10799 36.3573 1.99637C36.5526 1.92477 33.9791 0.44426 33.4845 0.445313Z"
      fill="#D28100" />
    <path
      d="M14.5295 25.6261L12.6784 24.5657C12.3697 24.3888 12.0116 24.5099 11.8783 24.8374C11.7449 25.1638 11.8867 25.5724 12.1954 25.7493L14.0465 26.8096C14.3552 26.9865 14.7133 26.8654 14.8466 26.538C14.98 26.2115 14.8382 25.803 14.5295 25.6261Z"
      fill="#D28100" />
    <path
      d="M14.7075 23.2752L12.8563 22.2149C12.5476 22.038 12.1917 22.1717 12.0615 22.5118C11.9313 22.853 12.0762 23.2731 12.3849 23.45L14.236 24.5104C14.5447 24.6873 14.9007 24.5536 15.0309 24.2135C15.1611 23.8723 15.0162 23.4521 14.7075 23.2752Z"
      fill="#D28100" />
    <path
      d="M15.1376 21.0658L13.2864 20.0055C12.9777 19.8286 12.6144 19.956 12.4758 20.2908C12.3372 20.6257 12.4748 21.0395 12.7835 21.2164L14.6346 22.2768C14.9433 22.4537 15.3066 22.3263 15.4452 21.9914C15.5838 21.6566 15.4463 21.2427 15.1376 21.0658Z"
      fill="#D28100" />
    <path
      d="M15.7057 18.9224L13.8545 17.8621C13.5458 17.6852 13.1762 17.8084 13.0292 18.1369C12.8822 18.4654 13.0124 18.8761 13.3211 19.053L15.1723 20.1134C15.481 20.2903 15.8506 20.1671 15.9976 19.8385C16.1446 19.51 16.0144 19.0993 15.7057 18.9224Z"
      fill="#D28100" />
    <path
      d="M16.4699 16.9682L14.6188 15.9078C14.3101 15.7309 13.9363 15.8584 13.7851 16.1922C13.6328 16.5259 13.7599 16.9398 14.0686 17.1167L15.9197 18.177C16.2284 18.3539 16.6022 18.2265 16.7534 17.8927C16.9057 17.5589 16.7786 17.1451 16.4699 16.9682Z"
      fill="#D28100" />
    <path
      d="M17.4272 15.151L15.576 14.0907C15.2673 13.9138 14.8515 14.0159 14.6468 14.3192C14.442 14.6224 14.5271 15.012 14.8358 15.189L16.6869 16.2493C16.9956 16.4262 17.4114 16.3241 17.6162 16.0208C17.8209 15.7176 17.7359 15.3279 17.4272 15.151Z"
      fill="#D28100" />
    <path
      d="M15.6395 32.6917L14.0204 31.764C13.8052 31.6408 13.4629 31.6935 13.3537 31.7809C13.1678 31.9304 13.9763 32.8539 14.1874 33.0308C14.8447 33.5804 15.5356 34.0069 15.7645 33.9932C15.9934 33.9806 15.9955 33.8511 16.0249 33.6878C16.0973 33.2835 15.9482 32.8676 15.6395 32.6907V32.6917Z"
      fill="#D28100" />
    <path
      d="M14.8474 30.0673L13.0246 29.0228C12.7201 28.849 12.3894 28.9627 12.2854 29.2765C12.1815 29.5903 12.3432 29.9873 12.6477 30.161L14.4705 31.2056C14.775 31.3794 15.1057 31.2656 15.2097 30.9518C15.3136 30.637 15.1519 30.2411 14.8474 30.0673Z"
      fill="#D28100" />
    <path
      d="M14.5462 27.7688L12.6961 26.7095C12.3874 26.5326 12.0115 26.6295 11.8561 26.9254C11.7007 27.2213 11.8246 27.6046 12.1333 27.7815L13.9834 28.8408C14.2921 29.0177 14.668 28.9208 14.8234 28.6249C14.9788 28.329 14.8549 27.9457 14.5462 27.7688Z"
      fill="#D28100" />
  </g>
  <defs>
    <clipPath id="clip0_2058_7434">
      <rect width="42" height="37" fill="white" />
    </clipPath>
  </defs>
</svg>