<svg width="51" height="39" viewBox="0 0 51 39" fill="none" xmlns="http://www.w3.org/2000/svg">
  <g id="Layer_1" clip-path="url(#clip0_2058_7309)">
    <path id="Vector" opacity="0.12"
      d="M40.3986 18.7856C40.3527 18.7856 40.3068 18.7856 40.2609 18.8009C39.8631 18.8393 38.6698 18.9389 38.6545 18.9466C38.5856 18.9466 38.5168 18.9696 38.4632 19.0079L36.2755 20.3416L35.4722 20.2726L35.1204 19.0615L37.7289 17.4672C37.836 17.3982 37.8589 17.3062 37.7748 17.2602C37.7365 17.2372 37.6753 17.2296 37.6065 17.2372C37.3694 17.2372 37.1246 17.2526 36.8798 17.2756H36.8951C36.8951 17.2756 35.3881 17.4135 35.1204 17.4365C34.0647 17.5515 32.9938 17.8964 32.1447 18.4177C31.265 18.9542 30.7065 19.6134 30.5688 20.265C30.5382 20.4183 30.5306 20.5639 30.5459 20.7095L28.5111 21.9513L24.235 19.4985L23.8525 19.2762L22.0625 18.249C21.9018 18.1571 21.5729 18.1187 21.2057 18.1571C21.0221 18.1724 20.8385 18.2107 20.6779 18.249C20.5172 18.295 20.3796 18.3487 20.2725 18.41L0.176911 30.6435C-0.0296291 30.7661 -0.0602276 30.9041 0.100414 30.9961L12.9059 38.7685C13.0283 38.8375 13.296 38.9678 13.5637 38.9678C13.6402 38.9678 13.6785 38.8681 13.7626 38.8605C13.9462 38.8452 14.1298 38.8068 14.2905 38.7685C14.4511 38.7225 14.5888 38.6689 14.6959 38.6075L35.1433 26.1364C35.3498 26.0138 35.3805 25.8758 35.2198 25.7838L32.137 24.0132L35.1204 22.1966C36.3825 22.2196 37.8207 21.867 38.9452 21.1848C40.0314 20.5256 40.6281 19.6671 40.5439 18.8929C40.5439 18.8393 40.4827 18.8009 40.3986 18.7933V18.7856Z"
      fill="black" />
    <path id="Vector_2"
      d="M38.5382 0.107311C38.4158 0.0383255 38.2781 0 38.1404 0C38.0027 0 37.865 0.0383255 37.7426 0.107311L13.3939 14.1958C13.1491 14.3414 12.9961 14.602 12.9961 14.8856V38.2028C12.9961 38.4864 13.1491 38.7547 13.3939 38.8927C13.5163 38.9617 13.654 39 13.7917 39C13.9293 39 14.067 38.9617 14.1894 38.8927L38.5458 24.8042C38.7906 24.6586 38.9436 24.398 38.9436 24.1144V0.79717C38.9436 0.513561 38.7906 0.245283 38.5458 0.107311H38.5382ZM38.1404 3.97052V24.1144L13.7917 38.2028V14.8856L38.1404 0.79717V3.97052Z"
      fill="#CDE8FB" />
    <path id="Vector_3" d="M13.793 18.8865L38.1417 4.70607V0.796875L13.793 14.8853V18.8865Z" fill="#249BEC" />
    <path id="Vector_4" d="M13.793 38.2011L38.1417 24.1126V3.96875L13.793 18.0572V38.2011Z" fill="white" />
    <path id="Vector_5"
      d="M32.1906 15.9745L31.3338 16.4728C31.1961 15.9055 30.9743 15.4226 30.6836 15.0317L31.2879 13.9816C31.4179 13.7593 31.4179 13.514 31.2879 13.445L29.9033 12.6479C29.7733 12.5712 29.5667 12.6939 29.4367 12.9162L28.8324 13.9663C28.3504 13.905 27.8226 13.9586 27.2642 14.1196L28.1975 13.514C28.1975 13.514 27.2259 12.9468 27.1724 12.9162C27.1112 12.8778 27.0271 12.8855 26.9353 12.9391L24.9846 14.0659C24.801 14.1732 24.6557 14.4262 24.6557 14.6331V15.6219C24.0973 16.1048 23.5694 16.6644 23.0875 17.2776L22.4832 16.925C22.3531 16.8483 22.1466 16.971 22.0166 17.1933L20.632 19.5925C20.5019 19.8147 20.5019 20.06 20.632 20.129L21.2363 20.4816C20.9456 21.2021 20.7238 21.9456 20.5861 22.6662L19.7293 23.1644C19.5457 23.2717 19.4004 23.5246 19.4004 23.7316V25.9928C19.4004 26.1001 19.4386 26.1691 19.4998 26.2074C19.561 26.2381 20.5172 26.7976 20.5172 26.7976L20.5861 25.6939C20.7238 26.2611 20.9456 26.744 21.2363 27.1349L20.632 28.185C20.5019 28.4073 20.5019 28.6526 20.632 28.7216L22.0166 29.5187C22.1466 29.5954 22.3531 29.4728 22.4832 29.2505L23.0875 28.2004C23.5694 28.2617 24.0973 28.208 24.6557 28.0471V29.0358C24.6557 29.1125 24.6786 29.1738 24.7092 29.2198C24.7704 29.2888 25.8108 29.8483 25.8108 29.8483L26.9429 28.1007C27.1265 27.9934 27.2718 27.7404 27.2718 27.5335V26.5447C27.8303 26.0618 28.3581 25.5022 28.84 24.889L29.4443 25.2416C29.5744 25.3183 29.7809 25.1956 29.911 24.9733L31.2955 22.5742C31.4256 22.3519 31.4256 22.1066 31.2955 22.0376L30.6912 21.685C30.9819 20.9645 31.2038 20.221 31.3414 19.5005L32.1982 19.0022C32.3818 18.8949 32.5271 18.642 32.5271 18.435L33.468 16.5801C33.468 16.5801 32.4965 16.0129 32.443 15.9745C32.3818 15.9285 32.29 15.9285 32.1906 15.9899V15.9745Z"
      fill="#101010" />
    <path id="Vector_6"
      d="M33.2003 16.5644L32.3436 17.0626C32.2059 16.4954 31.984 16.0125 31.6933 15.6216L32.2977 14.5714C32.4277 14.3492 32.4277 14.1039 32.2977 14.0349L30.9131 13.2377C30.783 13.1611 30.5765 13.2837 30.4465 13.506L29.8421 14.5561C29.3602 14.4948 28.8324 14.5485 28.274 14.7094V13.7206C28.274 13.5137 28.1286 13.4217 27.945 13.529L25.9944 14.6558C25.8108 14.7631 25.6654 15.016 25.6654 15.223V16.2118C25.107 16.6947 24.5792 17.2542 24.0973 17.8674L23.493 17.5148C23.3629 17.4382 23.1564 17.5608 23.0263 17.7831L21.6417 20.1823C21.5117 20.4046 21.5117 20.6499 21.6417 20.7189L22.2461 21.0714C21.9554 21.792 21.7335 22.5355 21.5958 23.2637L20.7391 23.7619C20.5555 23.8692 20.4102 24.1222 20.4102 24.3291V26.5903C20.4102 26.7973 20.5555 26.8893 20.7391 26.7819L21.5958 26.2837C21.7335 26.8509 21.9554 27.3338 22.2461 27.7247L21.6417 28.7749C21.5117 28.9972 21.5117 29.2424 21.6417 29.3114L23.0263 30.1086C23.1564 30.1852 23.3629 30.0626 23.493 29.8403L24.0973 28.7902C24.5792 28.8515 25.107 28.7979 25.6654 28.6369V29.6257C25.6654 29.8326 25.8108 29.9246 25.9944 29.8173L27.945 28.6905C28.1286 28.5832 28.274 28.3303 28.274 28.1233V27.1345C28.8324 26.6516 29.3602 26.0921 29.8421 25.4789L30.4465 25.8315C30.5765 25.9081 30.783 25.7855 30.9131 25.5632L32.2977 23.164C32.4277 22.9417 32.4277 22.6964 32.2977 22.6275L31.6933 22.2749C31.984 21.5543 32.2059 20.8108 32.3436 20.0826L33.2003 19.5844C33.3839 19.4771 33.5293 19.2242 33.5293 19.0172V16.756C33.5293 16.549 33.3839 16.4571 33.2003 16.5644Z"
      fill="#2F2F2F" />
    <g id="Group">
      <path id="Vector_7"
        d="M28.1744 18.5273L26.0555 19.7538L24.9922 22.4979L26.0555 24.0079L26.6981 24.3758L28.1744 22.7815L29.2377 20.0374L28.817 18.8953L28.1744 18.5273Z"
        fill="#D93800" />
      <path id="Vector_8"
        d="M26.6981 20.1209L25.6348 22.8651L26.6981 24.3751L28.817 23.1487L29.8803 20.4046L28.817 18.8945L26.6981 20.1209Z"
        fill="#FF8621" />
    </g>
    <path id="Vector_9" opacity="0.12"
      d="M30.3988 15.025C29.259 15.6842 27.9815 17.0026 27.2013 18.4513C27.1018 18.6352 26.857 19.0492 27.3543 18.8039C28.3793 18.2827 30.4677 17.1176 30.4677 17.1176L31.4851 18.9342L30.4677 21.9696L27.3772 23.8552C27.3772 23.8552 27.1248 23.9472 27.3084 24.1311C28.0504 24.8056 29.1825 24.7903 30.3988 24.0928C31.7375 23.3186 32.9232 21.8546 33.6269 20.2526L38.9434 17.1789V12.0586L33.6269 15.1323C32.9232 14.3505 31.7375 14.2508 30.3988 15.025Z"
      fill="black" />
    <path id="Vector_10"
      d="M49.5006 11.534L46.0889 13.504L44.9797 11.8023L46.0889 8.8206L49.5006 6.85067C49.6383 6.76636 50.4262 6.56706 50.4262 6.56706C50.4262 6.56706 49.3247 5.9232 49.1258 5.81588C48.3379 5.40197 47.2746 5.50928 46.1654 6.15315C45.0179 6.82001 43.9394 7.95445 43.1285 9.36482C42.9373 9.69442 42.769 10.0317 42.6236 10.3613L35.3641 14.5618C34.5915 13.7033 33.2911 13.596 31.8224 14.4468C30.5678 15.175 29.1756 16.616 28.3188 18.195C28.25 18.3253 28.1199 18.5476 28.1658 18.6319C28.1964 18.6856 29.4357 19.3754 29.4357 19.3754L31.8989 16.731L33.0081 18.7239L31.8989 22.0506L28.5177 24.1201C28.5177 24.1201 28.38 24.1738 28.3724 24.2658C28.3724 24.3041 28.38 24.3577 28.4412 24.4191C28.5713 24.534 30.1088 25.4309 30.1088 25.4309C30.1088 25.4309 30.7132 25.0169 31.83 24.3731C33.2987 23.5223 34.5915 21.9126 35.3718 20.1649L42.6389 15.9645C43.4115 16.823 44.712 16.9303 46.1807 16.0794C47.5959 15.2593 50.9693 12.2699 50.9693 12.2699C50.9693 12.2699 49.7072 11.5264 49.6919 11.511C49.646 11.4804 49.5771 11.4881 49.5083 11.5264L49.5006 11.534Z"
      fill="#8E8E8E" />
    <path id="Vector_11"
      d="M50.739 7.56685C50.8767 7.48253 50.9915 7.29091 50.9915 7.12227C50.9915 7.03796 50.9609 6.9843 50.915 6.95364C50.1118 6.08749 48.796 6.05683 47.3961 6.86933C46.2487 7.53619 45.1701 8.67062 44.3592 10.081C44.168 10.4106 43.9997 10.7479 43.8544 11.0775L36.5949 15.2779C35.8223 14.4194 34.5218 14.3121 33.0531 15.163C31.7986 15.8911 30.4063 17.3322 29.5496 18.9112C29.4348 19.1181 29.1671 19.5704 29.7179 19.2944C30.8424 18.7272 33.1373 17.4472 33.1373 17.4472L34.2464 19.4401L33.1373 22.7667L29.7561 24.8363C29.7561 24.8363 29.4807 24.936 29.6796 25.1352C30.4905 25.8711 31.7374 25.8634 33.0684 25.0893C34.5371 24.2384 35.8299 22.6288 36.6102 20.8811L43.8773 16.6806C44.6499 17.5391 45.9504 17.6464 47.4191 16.7956C48.8343 15.9755 50.1577 14.4041 50.9609 12.5875C51.0144 12.4648 51.0221 12.3422 50.9762 12.2732C50.9303 12.2042 50.8461 12.1889 50.7467 12.2426L47.3349 14.2125L46.2257 12.5108L47.3349 9.52911L50.7467 7.55918L50.739 7.56685Z"
      fill="#E0E0E0" />
    <path id="Vector_12"
      d="M33.8802 4.01836C33.4059 4.2943 33.0234 4.9535 33.0234 5.49772C33.0234 6.04195 33.4059 6.26423 33.8802 5.98829C34.3545 5.71235 34.737 5.05315 34.737 4.50126C34.737 3.94938 34.3545 3.73475 33.8802 4.0107V4.01836Z"
      fill="white" />
    <path id="Vector_13"
      d="M36.306 2.6136C35.8317 2.88955 35.4492 3.54875 35.4492 4.09297C35.4492 4.63719 35.8317 4.85948 36.306 4.58353C36.7803 4.30759 37.1627 3.64839 37.1627 3.10417C37.1627 2.55995 36.7803 2.33766 36.306 2.60594V2.6136Z"
      fill="white" />
    <path id="Vector_14"
      d="M31.4544 5.41945C30.9801 5.6954 30.5977 6.35459 30.5977 6.89882C30.5977 7.44304 30.9801 7.66533 31.4544 7.38938C31.9287 7.11344 32.3112 6.45424 32.3112 5.91002C32.3112 5.3658 31.9287 5.14351 31.4544 5.41945Z"
      fill="white" />
  </g>
  <defs>
    <clipPath id="clip0_2058_7309">
      <rect width="51" height="39" fill="white" />
    </clipPath>
  </defs>
</svg>