<svg width="43" height="46" viewBox="0 0 43 46" fill="none" xmlns="http://www.w3.org/2000/svg">
  <g id="Layer_1" clip-path="url(#clip0_2058_7297)">
    <path id="Vector" opacity="0.12"
      d="M18.9355 16.0978H18.9285C18.9285 16.0978 12.8273 16.8844 10.5809 18.6714L2.62847 24.3705C-0.540022 26.8958 -0.886684 30.456 1.84502 32.3051L4.59751 34.1611C4.93031 34.3888 5.30471 34.5682 5.68603 34.7131C4.63218 36.2034 2.38581 39.1703 4.89564 40.7641C7.64814 42.5097 11.9814 44.897 12.1478 45.0005C12.342 45.1178 12.9035 45.104 13.5345 45.0419C14.3387 41.7163 16.6128 39.191 19.6149 37.128C21.4314 35.8723 22.305 33.8645 24.0661 32.588C24.6415 32.174 25.2309 31.8567 25.8479 31.6152C25.6607 31.0425 25.2794 30.5319 24.6901 30.1386L23.4975 29.3314L26.458 26.9648C26.7978 26.8199 27.602 26.5163 28.5658 26.2127C29.4532 24.7845 30.4239 23.3977 31.5956 22.2316C29.8137 20.6585 27.1444 18.4782 24.5653 17.0362C22.8874 16.0978 20.9045 15.8012 18.9424 16.0909L18.9355 16.0978Z"
      fill="black" />
    <path id="Vector_2"
      d="M24.5163 19.9267L16.3282 24.6322C13.541 26.233 11.5096 29.7035 11.2877 33.2637C10.9826 38.0659 11.8493 44.0617 11.8562 44.317C11.8909 45.1449 14.2967 45.9522 14.2967 45.9522C14.2967 45.9522 15.9122 39.915 16.4391 39.3699L24.5233 34.7264C27.3035 33.1257 29.5637 29.2274 29.5637 26.0329V22.8245C29.5637 19.63 27.3035 18.326 24.5233 19.9267H24.5163Z"
      fill="#1592CC" />
    <path id="Vector_3"
      d="M26.7475 21.2431L18.5524 25.9487C15.7653 27.5494 13.7338 31.0199 13.512 34.587C13.2069 39.3892 14.0458 45.385 14.0805 45.6403C14.1221 45.9232 14.3232 46.0611 14.5866 45.9714C14.6352 45.9576 14.6837 45.937 14.7322 45.9094C14.9472 45.7852 15.1552 45.5437 15.28 45.2608C15.9663 43.6946 18.1365 41.2314 18.6634 40.6863L26.7475 36.0428C29.5278 34.4421 31.788 30.5438 31.788 27.3493V24.1409C31.788 20.9464 29.5278 19.6424 26.7475 21.2431Z"
      fill="#50AFF0" />
    <path id="Vector_4"
      d="M40.4615 1.20214C40.4615 1.20214 36.2669 -1.02644 33.445 0.594975L21.7001 7.34284C17.7135 9.63352 14.4688 15.2222 14.4688 19.8036V24.4057C14.4688 29.815 19.2804 30.5947 19.2804 30.5947L33.2856 21.9011C34.0413 21.8114 37.1543 21.7631 38.1389 22.8809C38.3191 23.0809 38.6103 23.0879 38.9223 22.9085C38.9916 22.8671 39.061 22.8188 39.1303 22.7636C39.5116 22.4462 39.7959 21.9287 39.8583 21.4526C39.9068 21.0318 41.1063 11.0549 40.6764 4.66577C40.5794 3.27204 40.4684 1.19524 40.4684 1.19524L40.4615 1.20214Z"
      fill="#BBBBBB" />
    <path id="Vector_5"
      d="M35.6716 1.90503L23.9267 8.6529C19.9401 10.9436 16.6953 16.5323 16.6953 21.1137V25.7157C16.6953 30.2971 19.9401 32.16 23.9267 29.8693L35.5191 23.2112C36.2748 23.1215 39.3878 23.0732 40.3724 24.1909C40.5526 24.391 40.8438 24.3979 41.1558 24.2185C41.2251 24.1771 41.2945 24.1288 41.3638 24.0736C41.7451 23.7562 42.0294 23.2388 42.0918 22.7627C42.1403 22.3418 43.3398 12.3649 42.9099 5.97583C42.5841 1.24267 39.679 -0.39945 35.6785 1.89814L35.6716 1.90503Z"
      fill="#E7E7E7" />
    <path id="Vector_6"
      d="M38.8676 11.6883L35.6921 13.1993C35.5188 13.2821 35.3871 13.4891 35.3663 13.6892L34.361 22.0101C34.3471 22.1205 34.3748 22.2102 34.4303 22.2516C34.4858 22.293 34.5759 22.293 34.6591 22.2378L37.5572 20.575C37.7028 20.4922 37.8276 20.299 37.8553 20.1196L39.131 11.9573C39.1449 11.8469 39.131 11.7572 39.0756 11.709C39.027 11.6607 38.9438 11.6538 38.8606 11.6952L38.8676 11.6883Z"
      fill="#CC2C21" />
    <path id="Vector_7"
      d="M39.3883 6.58943L31.9558 10.1152C31.8796 10.1497 31.7894 10.2393 31.7201 10.3428C31.6577 10.4463 31.623 10.5636 31.623 10.6602V16.7457C31.623 16.8423 31.6577 16.9182 31.7201 16.9458C31.7756 16.9734 31.8518 16.9665 31.9281 16.9182C31.935 16.9182 31.942 16.9113 31.9489 16.9044L39.2358 12.1437C39.3952 12.0402 39.5131 11.8263 39.52 11.64L39.6656 6.78952C39.6656 6.59633 39.5477 6.50663 39.3883 6.58943Z"
      fill="#FF3532" />
    <path id="Vector_8"
      d="M32.0594 10.0928L23.3304 10.3136C23.2334 10.3136 23.1225 10.3895 23.0323 10.4999C22.9422 10.6172 22.8867 10.7621 22.8867 10.8794V25.9413C22.8867 26.0586 22.9353 26.1414 23.0254 26.1552C23.0739 26.1621 23.1363 26.1552 23.1918 26.1138C23.2334 26.0931 23.275 26.0586 23.3096 26.0172L32.0386 16.8131C32.1495 16.6958 32.2258 16.5233 32.2258 16.3784V10.3067C32.2258 10.1687 32.1565 10.0859 32.0525 10.0859L32.0594 10.0928Z"
      fill="white" />
  </g>
  <defs>
    <clipPath id="clip0_2058_7297">
      <rect width="43" height="46" fill="white" />
    </clipPath>
  </defs>
</svg>