<svg width="46" height="43" viewBox="0 0 46 43" fill="none" xmlns="http://www.w3.org/2000/svg">
  <g id="Layer_1" clip-path="url(#clip0_2058_7237)">
    <path id="Vector" opacity="0.14"
      d="M27.8889 27.735L28.5789 27.1036C26.5504 25.6691 24.4667 24.2964 22.4313 22.8619C21.7344 22.3746 20.9547 21.9079 20.1475 21.4412L20.0371 21.5373L19.2781 20.9401L19.2643 20.9264C18.6503 20.5695 18.0431 20.1989 17.4635 19.8008C17.0702 19.8488 16.056 19.9861 15.9801 19.993C15.8835 20.0067 15.7869 20.0479 15.7041 20.1165L0.159181 29.4234C0.0694856 29.4989 0.021188 29.5882 0.0073887 29.6705C-0.0064106 29.7529 0.021188 29.8284 0.0832849 29.8833L18.6641 42.1965C19.3264 42.6426 21.4446 41.3385 21.4446 41.3385L32.3323 31.7227C32.4841 31.5786 32.5048 31.3796 32.3806 31.2766L27.8958 27.735H27.8889Z"
      fill="black" />
    <path id="Vector_2"
      d="M18.5332 10.1716V41.9154C18.5332 42.0527 18.5815 42.1557 18.6643 42.1969C18.7402 42.238 20.0166 42.9724 20.0166 42.9724V10.5217L18.6574 9.74609C18.5815 9.8765 18.5332 10.0275 18.5332 10.1648V10.1716Z"
      fill="#4A4E55" />
    <path id="Vector_3"
      d="M35.2844 0.0555585L18.9598 9.43114C18.8425 9.49977 18.7321 9.61645 18.6562 9.74686L20.0224 10.5224L36.9334 0.803683C36.9334 0.803683 35.6639 0.0692856 35.588 0.0281044C35.5121 -0.0130767 35.4017 -0.0130767 35.2844 0.0555585Z"
      fill="#74777C" />
    <path id="Vector_4"
      d="M36.6449 0.83644L20.3204 10.212C20.0858 10.3493 19.8926 10.6787 19.8926 10.9533V42.6902C19.8926 42.9648 20.0858 43.0746 20.3204 42.9373L36.6449 33.5617C36.8795 33.4245 37.0727 33.095 37.0727 32.8205V1.08353C37.0727 0.808986 36.8795 0.69917 36.6449 0.83644Z"
      fill="#2C323B" />
    <path id="Vector_5" d="M21.4023 37.7854L35.2913 29.8168V4.92969L21.4023 12.9051V37.7854Z" fill="#B7DBE9" />
    <path id="Vector_6"
      d="M28.4826 34.6965C27.7719 35.1014 27.1992 36.0966 27.1992 36.9134C27.1992 37.7302 27.7719 38.0596 28.4826 37.6547C29.1932 37.2497 29.7659 36.2545 29.7659 35.4377C29.7659 34.621 29.1932 34.2915 28.4826 34.6965Z"
      fill="#9A9DA1" />
    <path id="Vector_7"
      d="M33.9464 2.67169C33.4151 2.97369 32.9805 3.72181 32.9805 4.33267C32.9805 4.94352 33.4082 5.19061 33.9464 4.88861C34.4777 4.58662 34.9124 3.83849 34.9124 3.22764C34.9124 2.61678 34.4846 2.3697 33.9464 2.67169Z"
      fill="#75797E" />
    <path id="Vector_8"
      d="M33.9468 2.85486C33.5053 3.10881 33.1465 3.72653 33.1465 4.23443C33.1465 4.74233 33.5053 4.94824 33.9468 4.69429C34.3884 4.44033 34.7472 3.82262 34.7472 3.31472C34.7472 2.80681 34.3884 2.60091 33.9468 2.85486Z"
      fill="#000312" />
    <g id="Group">
      <g id="Group_2">
        <path id="Vector_9"
          d="M32.416 6.43823L41.8823 12.9723L43.9384 11.7849L46.0014 10.6044L36.5351 4.07031L32.416 6.43823Z"
          fill="#F2F2F2" />
        <path id="Vector_10"
          d="M28.3027 8.79855L37.7691 15.3326L39.8252 14.1521L41.8813 12.9716L32.4149 6.4375L28.3027 8.79855Z"
          fill="#F3422C" />
        <path id="Vector_11"
          d="M24.1836 11.1618L33.6499 17.7028L35.706 16.5154L37.769 15.3349L28.3027 8.80078L24.1836 11.1618Z"
          fill="#F2F2F2" />
        <path id="Vector_12"
          d="M20.0234 13.4663L29.5312 20.0622L31.5942 18.8816L33.6503 17.7011L24.1839 11.1602L20.0234 13.4663Z"
          fill="#F3422C" />
      </g>
      <path id="Vector_13"
        d="M43.9173 13.8009C44.8626 13.2587 45.656 11.7419 45.9527 10.6094L41.875 12.9498C42.1717 13.746 42.972 14.3431 43.9104 13.8009H43.9173Z"
        fill="#E8E8E8" />
      <path id="Vector_14"
        d="M39.847 16.1642C40.7922 15.622 41.5857 14.1051 41.8824 12.9727L37.8047 15.3131C38.1014 16.1093 38.9017 16.7064 39.8401 16.1642H39.847Z"
        fill="#E12E16" />
      <path id="Vector_15"
        d="M35.7278 18.5314C36.6731 17.9892 37.4666 16.4723 37.7632 15.3398L33.6855 17.6803C33.9822 18.4765 34.7826 19.0736 35.7209 18.5314H35.7278Z"
        fill="#E8E8E8" />
      <path id="Vector_16"
        d="M31.6146 20.8947C32.5598 20.3524 33.3533 18.8356 33.65 17.7031L29.5723 20.0436C29.869 20.8398 30.6693 21.4369 31.6077 20.8947H31.6146Z"
        fill="#E12E16" />
    </g>
  </g>
  <defs>
    <clipPath id="clip0_2058_7237">
      <rect width="46" height="43" fill="white" />
    </clipPath>
  </defs>
</svg>